<svg width="115" height="19" viewBox="0 0 115 19" fill="none" xmlns="http://www.w3.org/2000/svg">
<path d="M8.86138 0.690982C9.16074 -0.230329 10.4641 -0.230327 10.7635 0.690984L12.3944 5.71024C12.5282 6.12226 12.9122 6.40122 13.3454 6.40122H18.623C19.5917 6.40122 19.9945 7.64084 19.2107 8.21024L14.9411 11.3123C14.5906 11.567 14.444 12.0183 14.5778 12.4303L16.2087 17.4496C16.5081 18.3709 15.4536 19.137 14.6699 18.5676L10.4002 15.4656C10.0497 15.2109 9.57514 15.2109 9.22466 15.4656L4.95502 18.5676C4.17131 19.137 3.11683 18.3709 3.41618 17.4496L5.04704 12.4303C5.18091 12.0183 5.03425 11.567 4.68376 11.3123L0.414131 8.21024C-0.369583 7.64084 0.0331946 6.40122 1.00192 6.40122H6.27947C6.7127 6.40122 7.09666 6.12226 7.23053 5.71024L8.86138 0.690982Z" fill="#FFAA1D"/>
<path d="M32.4864 0.690982C32.7857 -0.230329 34.0891 -0.230327 34.3885 0.690984L36.0194 5.71024C36.1532 6.12226 36.5372 6.40122 36.9704 6.40122H42.248C43.2167 6.40122 43.6195 7.64084 42.8357 8.21024L38.5661 11.3123C38.2156 11.567 38.069 12.0183 38.2028 12.4303L39.8337 17.4496C40.1331 18.3709 39.0786 19.137 38.2949 18.5676L34.0252 15.4656C33.6747 15.2109 33.2001 15.2109 32.8497 15.4656L28.58 18.5676C27.7963 19.137 26.7418 18.3709 27.0412 17.4496L28.672 12.4303C28.8059 12.0183 28.6593 11.567 28.3088 11.3123L24.0391 8.21024C23.2554 7.64084 23.6582 6.40122 24.6269 6.40122H29.9045C30.3377 6.40122 30.7217 6.12226 30.8555 5.71024L32.4864 0.690982Z" fill="#FFAA1D"/>
<path d="M56.1114 0.690982C56.4107 -0.230329 57.7141 -0.230327 58.0135 0.690984L59.6444 5.71024C59.7782 6.12226 60.1622 6.40122 60.5954 6.40122H65.873C66.8417 6.40122 67.2445 7.64084 66.4607 8.21024L62.1911 11.3123C61.8406 11.567 61.694 12.0183 61.8278 12.4303L63.4587 17.4496C63.7581 18.3709 62.7036 19.137 61.9199 18.5676L57.6502 15.4656C57.2997 15.2109 56.8251 15.2109 56.4747 15.4656L52.205 18.5676C51.4213 19.137 50.3668 18.3709 50.6662 17.4496L52.297 12.4303C52.4309 12.0183 52.2843 11.567 51.9338 11.3123L47.6641 8.21024C46.8804 7.64084 47.2832 6.40122 48.2519 6.40122H53.5295C53.9627 6.40122 54.3467 6.12226 54.4805 5.71024L56.1114 0.690982Z" fill="#C4C4C4"/>
<path fill-rule="evenodd" clip-rule="evenodd" d="M57.0624 0C56.6617 2.68994e-07 56.2611 0.230327 56.1114 0.690982L54.4805 5.71024C54.3467 6.12226 53.9627 6.40122 53.5295 6.40122H48.2519C47.2832 6.40122 46.8804 7.64084 47.6641 8.21024L51.9338 11.3123C52.2843 11.567 52.4309 12.0183 52.297 12.4303L50.6662 17.4496C50.3668 18.3709 51.4213 19.137 52.205 18.5676L56.4747 15.4656C56.6499 15.3382 56.8562 15.2746 57.0624 15.2746V0Z" fill="#FFAA1D"/>
<path d="M79.7359 0.690982C80.0352 -0.230329 81.3387 -0.230327 81.638 0.690984L83.2689 5.71024C83.4027 6.12226 83.7867 6.40122 84.2199 6.40122H89.4975C90.4662 6.40122 90.869 7.64084 90.0853 8.21024L85.8156 11.3123C85.4651 11.567 85.3185 12.0183 85.4524 12.4303L87.0832 17.4496C87.3826 18.3709 86.3281 19.137 85.5444 18.5676L81.2747 15.4656C80.9242 15.2109 80.4497 15.2109 80.0992 15.4656L75.8295 18.5676C75.0458 19.137 73.9913 18.3709 74.2907 17.4496L75.9215 12.4303C76.0554 12.0183 75.9088 11.567 75.5583 11.3123L71.2886 8.21024C70.5049 7.64084 70.9077 6.40122 71.8764 6.40122H77.154C77.5872 6.40122 77.9712 6.12226 78.105 5.71024L79.7359 0.690982Z" fill="#C4C4C4"/>
<path d="M103.361 0.690982C103.66 -0.230329 104.964 -0.230327 105.263 0.690984L106.894 5.71024C107.028 6.12226 107.412 6.40122 107.845 6.40122H113.122C114.091 6.40122 114.494 7.64084 113.71 8.21024L109.441 11.3123C109.09 11.567 108.943 12.0183 109.077 12.4303L110.708 17.4496C111.008 18.3709 109.953 19.137 109.169 18.5676L104.9 15.4656C104.549 15.2109 104.075 15.2109 103.724 15.4656L99.4545 18.5676C98.6708 19.137 97.6163 18.3709 97.9157 17.4496L99.5465 12.4303C99.6804 12.0183 99.5338 11.567 99.1833 11.3123L94.9136 8.21024C94.1299 7.64084 94.5327 6.40122 95.5014 6.40122H100.779C101.212 6.40122 101.596 6.12226 101.73 5.71024L103.361 0.690982Z" fill="#C4C4C4"/>
</svg>
