<svg width="25" height="15" viewBox="0 0 25 15" fill="none" xmlns="http://www.w3.org/2000/svg">
<g clip-path="url(#clip0_3_15502)">
<path d="M14.6278 0H5.94971V7.96268H14.6278V0Z" fill="#52AAFF"/>
<path d="M14.6277 7.96289C14.6277 8.83423 14.4407 9.6971 14.0772 10.5022C13.7138 11.3073 13.1811 12.0387 12.5096 12.6549C11.8381 13.2711 11.0409 13.7598 10.1635 14.0933C9.28606 14.4268 8.34569 14.5984 7.396 14.5984V12.981C8.11423 12.981 8.82539 12.8512 9.48886 12.599C10.1524 12.3469 10.7553 11.9772 11.2631 11.5112C11.771 11.0453 12.1738 10.492 12.4487 9.8832C12.7235 9.27442 12.865 8.62185 12.865 7.96289H14.6277Z" fill="#52AAFF"/>
<path d="M24.7518 0H16.0737V7.96268H24.7518V0Z" fill="#52AAFF"/>
<path d="M24.7518 7.96289C24.7518 8.83423 24.5647 9.6971 24.2013 10.5022C23.8378 11.3073 23.3051 12.0387 22.6336 12.6549C21.9621 13.2711 21.1649 13.7598 20.2875 14.0933C19.4101 14.4268 18.4697 14.5984 17.52 14.5984V12.981C18.2383 12.981 18.9494 12.8512 19.6129 12.599C20.2764 12.3469 20.8793 11.9772 21.3872 11.5112C21.895 11.0453 22.2979 10.492 22.5727 9.8832C22.8475 9.27442 22.989 8.62185 22.989 7.96289H24.7518Z" fill="#52AAFF"/>
</g>
<defs>
<clipPath id="clip0_3_15502">
<rect width="25" height="14.6341" fill="white"/>
</clipPath>
</defs>
</svg>
