<svg width="800" height="392" viewBox="0 0 800 392" fill="none" xmlns="http://www.w3.org/2000/svg">
<rect width="800" height="392" fill="white"/>
<path d="M132.262 62.9375V80H128.758V62.9375H132.262ZM138.648 70.0273V80H135.273V67.3203H138.438L138.648 70.0273ZM138.156 73.2148H137.242C137.242 72.2773 137.363 71.4336 137.605 70.6836C137.848 69.9258 138.188 69.2812 138.625 68.75C139.062 68.2109 139.582 67.8008 140.184 67.5195C140.793 67.2305 141.473 67.0859 142.223 67.0859C142.816 67.0859 143.359 67.1719 143.852 67.3438C144.344 67.5156 144.766 67.7891 145.117 68.1641C145.477 68.5391 145.75 69.0352 145.938 69.6523C146.133 70.2695 146.23 71.0234 146.23 71.9141V80H142.832V71.9023C142.832 71.3398 142.754 70.9023 142.598 70.5898C142.441 70.2773 142.211 70.0586 141.906 69.9336C141.609 69.8008 141.242 69.7344 140.805 69.7344C140.352 69.7344 139.957 69.8242 139.621 70.0039C139.293 70.1836 139.02 70.4336 138.801 70.7539C138.59 71.0664 138.43 71.4336 138.32 71.8555C138.211 72.2773 138.156 72.7305 138.156 73.2148ZM152.359 62V80H148.973V62H152.359ZM158.711 67.3203V80H155.324V67.3203H158.711ZM155.113 64.0156C155.113 63.5234 155.285 63.1172 155.629 62.7969C155.973 62.4766 156.434 62.3164 157.012 62.3164C157.582 62.3164 158.039 62.4766 158.383 62.7969C158.734 63.1172 158.91 63.5234 158.91 64.0156C158.91 64.5078 158.734 64.9141 158.383 65.2344C158.039 65.5547 157.582 65.7148 157.012 65.7148C156.434 65.7148 155.973 65.5547 155.629 65.2344C155.285 64.9141 155.113 64.5078 155.113 64.0156ZM164.805 70.0273V80H161.43V67.3203H164.594L164.805 70.0273ZM164.312 73.2148H163.398C163.398 72.2773 163.52 71.4336 163.762 70.6836C164.004 69.9258 164.344 69.2812 164.781 68.75C165.219 68.2109 165.738 67.8008 166.34 67.5195C166.949 67.2305 167.629 67.0859 168.379 67.0859C168.973 67.0859 169.516 67.1719 170.008 67.3438C170.5 67.5156 170.922 67.7891 171.273 68.1641C171.633 68.5391 171.906 69.0352 172.094 69.6523C172.289 70.2695 172.387 71.0234 172.387 71.9141V80H168.988V71.9023C168.988 71.3398 168.91 70.9023 168.754 70.5898C168.598 70.2773 168.367 70.0586 168.062 69.9336C167.766 69.8008 167.398 69.7344 166.961 69.7344C166.508 69.7344 166.113 69.8242 165.777 70.0039C165.449 70.1836 165.176 70.4336 164.957 70.7539C164.746 71.0664 164.586 71.4336 164.477 71.8555C164.367 72.2773 164.312 72.7305 164.312 73.2148ZM180.789 80.2344C179.805 80.2344 178.922 80.0781 178.141 79.7656C177.359 79.4453 176.695 79.0039 176.148 78.4414C175.609 77.8789 175.195 77.2266 174.906 76.4844C174.617 75.7344 174.473 74.9375 174.473 74.0938V73.625C174.473 72.6641 174.609 71.7852 174.883 70.9883C175.156 70.1914 175.547 69.5 176.055 68.9141C176.57 68.3281 177.195 67.8789 177.93 67.5664C178.664 67.2461 179.492 67.0859 180.414 67.0859C181.312 67.0859 182.109 67.2344 182.805 67.5312C183.5 67.8281 184.082 68.25 184.551 68.7969C185.027 69.3438 185.387 70 185.629 70.7656C185.871 71.5234 185.992 72.3672 185.992 73.2969V74.7031H175.914V72.4531H182.676V72.1953C182.676 71.7266 182.59 71.3086 182.418 70.9414C182.254 70.5664 182.004 70.2695 181.668 70.0508C181.332 69.832 180.902 69.7227 180.379 69.7227C179.934 69.7227 179.551 69.8203 179.23 70.0156C178.91 70.2109 178.648 70.4844 178.445 70.8359C178.25 71.1875 178.102 71.6016 178 72.0781C177.906 72.5469 177.859 73.0625 177.859 73.625V74.0938C177.859 74.6016 177.93 75.0703 178.07 75.5C178.219 75.9297 178.426 76.3008 178.691 76.6133C178.965 76.9258 179.293 77.168 179.676 77.3398C180.066 77.5117 180.508 77.5977 181 77.5977C181.609 77.5977 182.176 77.4805 182.699 77.2461C183.23 77.0039 183.688 76.6406 184.07 76.1562L185.711 77.9375C185.445 78.3203 185.082 78.6875 184.621 79.0391C184.168 79.3906 183.621 79.6797 182.98 79.9062C182.34 80.125 181.609 80.2344 180.789 80.2344ZM205.551 77.2578V80H196.469V77.2578H205.551ZM197.617 62.9375V80H194.102V62.9375H197.617ZM204.367 69.8867V72.5586H196.469V69.8867H204.367ZM205.539 62.9375V65.6914H196.469V62.9375H205.539ZM210.953 62V80H207.566V62H210.953ZM219.578 80.2344C218.594 80.2344 217.711 80.0781 216.93 79.7656C216.148 79.4453 215.484 79.0039 214.938 78.4414C214.398 77.8789 213.984 77.2266 213.695 76.4844C213.406 75.7344 213.262 74.9375 213.262 74.0938V73.625C213.262 72.6641 213.398 71.7852 213.672 70.9883C213.945 70.1914 214.336 69.5 214.844 68.9141C215.359 68.3281 215.984 67.8789 216.719 67.5664C217.453 67.2461 218.281 67.0859 219.203 67.0859C220.102 67.0859 220.898 67.2344 221.594 67.5312C222.289 67.8281 222.871 68.25 223.34 68.7969C223.816 69.3438 224.176 70 224.418 70.7656C224.66 71.5234 224.781 72.3672 224.781 73.2969V74.7031H214.703V72.4531H221.465V72.1953C221.465 71.7266 221.379 71.3086 221.207 70.9414C221.043 70.5664 220.793 70.2695 220.457 70.0508C220.121 69.832 219.691 69.7227 219.168 69.7227C218.723 69.7227 218.34 69.8203 218.02 70.0156C217.699 70.2109 217.438 70.4844 217.234 70.8359C217.039 71.1875 216.891 71.6016 216.789 72.0781C216.695 72.5469 216.648 73.0625 216.648 73.625V74.0938C216.648 74.6016 216.719 75.0703 216.859 75.5C217.008 75.9297 217.215 76.3008 217.48 76.6133C217.754 76.9258 218.082 77.168 218.465 77.3398C218.855 77.5117 219.297 77.5977 219.789 77.5977C220.398 77.5977 220.965 77.4805 221.488 77.2461C222.02 77.0039 222.477 76.6406 222.859 76.1562L224.5 77.9375C224.234 78.3203 223.871 78.6875 223.41 79.0391C222.957 79.3906 222.41 79.6797 221.77 79.9062C221.129 80.125 220.398 80.2344 219.578 80.2344ZM230.078 69.9453V80H226.691V67.3203H229.867L230.078 69.9453ZM229.609 73.2148H228.672C228.672 72.332 228.777 71.5195 228.988 70.7773C229.207 70.0273 229.523 69.3789 229.938 68.832C230.359 68.2773 230.879 67.8477 231.496 67.543C232.113 67.2383 232.828 67.0859 233.641 67.0859C234.203 67.0859 234.719 67.1719 235.188 67.3438C235.656 67.5078 236.059 67.7695 236.395 68.1289C236.738 68.4805 237.004 68.9414 237.191 69.5117C237.379 70.0742 237.473 70.75 237.473 71.5391V80H234.098V71.9141C234.098 71.3359 234.02 70.8906 233.863 70.5781C233.707 70.2656 233.484 70.0469 233.195 69.9219C232.914 69.7969 232.574 69.7344 232.176 69.7344C231.738 69.7344 231.355 69.8242 231.027 70.0039C230.707 70.1836 230.441 70.4336 230.23 70.7539C230.02 71.0664 229.863 71.4336 229.762 71.8555C229.66 72.2773 229.609 72.7305 229.609 73.2148ZM237.156 72.8281L235.949 72.9805C235.949 72.1523 236.051 71.3828 236.254 70.6719C236.465 69.9609 236.773 69.3359 237.18 68.7969C237.594 68.2578 238.105 67.8398 238.715 67.543C239.324 67.2383 240.027 67.0859 240.824 67.0859C241.434 67.0859 241.988 67.1758 242.488 67.3555C242.988 67.5273 243.414 67.8047 243.766 68.1875C244.125 68.5625 244.398 69.0547 244.586 69.6641C244.781 70.2734 244.879 71.0195 244.879 71.9023V80H241.492V71.9023C241.492 71.3164 241.414 70.8711 241.258 70.5664C241.109 70.2539 240.891 70.0391 240.602 69.9219C240.32 69.7969 239.984 69.7344 239.594 69.7344C239.188 69.7344 238.832 69.8164 238.527 69.9805C238.223 70.1367 237.969 70.3555 237.766 70.6367C237.562 70.918 237.41 71.2461 237.309 71.6211C237.207 71.9883 237.156 72.3906 237.156 72.8281ZM253.328 80.2344C252.344 80.2344 251.461 80.0781 250.68 79.7656C249.898 79.4453 249.234 79.0039 248.688 78.4414C248.148 77.8789 247.734 77.2266 247.445 76.4844C247.156 75.7344 247.012 74.9375 247.012 74.0938V73.625C247.012 72.6641 247.148 71.7852 247.422 70.9883C247.695 70.1914 248.086 69.5 248.594 68.9141C249.109 68.3281 249.734 67.8789 250.469 67.5664C251.203 67.2461 252.031 67.0859 252.953 67.0859C253.852 67.0859 254.648 67.2344 255.344 67.5312C256.039 67.8281 256.621 68.25 257.09 68.7969C257.566 69.3438 257.926 70 258.168 70.7656C258.41 71.5234 258.531 72.3672 258.531 73.2969V74.7031H248.453V72.4531H255.215V72.1953C255.215 71.7266 255.129 71.3086 254.957 70.9414C254.793 70.5664 254.543 70.2695 254.207 70.0508C253.871 69.832 253.441 69.7227 252.918 69.7227C252.473 69.7227 252.09 69.8203 251.77 70.0156C251.449 70.2109 251.188 70.4844 250.984 70.8359C250.789 71.1875 250.641 71.6016 250.539 72.0781C250.445 72.5469 250.398 73.0625 250.398 73.625V74.0938C250.398 74.6016 250.469 75.0703 250.609 75.5C250.758 75.9297 250.965 76.3008 251.23 76.6133C251.504 76.9258 251.832 77.168 252.215 77.3398C252.605 77.5117 253.047 77.5977 253.539 77.5977C254.148 77.5977 254.715 77.4805 255.238 77.2461C255.77 77.0039 256.227 76.6406 256.609 76.1562L258.25 77.9375C257.984 78.3203 257.621 78.6875 257.16 79.0391C256.707 79.3906 256.16 79.6797 255.52 79.9062C254.879 80.125 254.148 80.2344 253.328 80.2344ZM263.758 70.0273V80H260.383V67.3203H263.547L263.758 70.0273ZM263.266 73.2148H262.352C262.352 72.2773 262.473 71.4336 262.715 70.6836C262.957 69.9258 263.297 69.2812 263.734 68.75C264.172 68.2109 264.691 67.8008 265.293 67.5195C265.902 67.2305 266.582 67.0859 267.332 67.0859C267.926 67.0859 268.469 67.1719 268.961 67.3438C269.453 67.5156 269.875 67.7891 270.227 68.1641C270.586 68.5391 270.859 69.0352 271.047 69.6523C271.242 70.2695 271.34 71.0234 271.34 71.9141V80H267.941V71.9023C267.941 71.3398 267.863 70.9023 267.707 70.5898C267.551 70.2773 267.32 70.0586 267.016 69.9336C266.719 69.8008 266.352 69.7344 265.914 69.7344C265.461 69.7344 265.066 69.8242 264.73 70.0039C264.402 70.1836 264.129 70.4336 263.91 70.7539C263.699 71.0664 263.539 71.4336 263.43 71.8555C263.32 72.2773 263.266 72.7305 263.266 73.2148ZM280.117 67.3203V69.7109H272.734V67.3203H280.117ZM274.562 64.1914H277.938V76.1797C277.938 76.5469 277.984 76.8281 278.078 77.0234C278.18 77.2188 278.328 77.3555 278.523 77.4336C278.719 77.5039 278.965 77.5391 279.262 77.5391C279.473 77.5391 279.66 77.5312 279.824 77.5156C279.996 77.4922 280.141 77.4688 280.258 77.4453L280.27 79.9297C279.98 80.0234 279.668 80.0977 279.332 80.1523C278.996 80.207 278.625 80.2344 278.219 80.2344C277.477 80.2344 276.828 80.1133 276.273 79.8711C275.727 79.6211 275.305 79.2227 275.008 78.6758C274.711 78.1289 274.562 77.4102 274.562 76.5195V64.1914ZM288.895 76.4961C288.895 76.2539 288.824 76.0352 288.684 75.8398C288.543 75.6445 288.281 75.4648 287.898 75.3008C287.523 75.1289 286.98 74.9727 286.27 74.832C285.629 74.6914 285.031 74.5156 284.477 74.3047C283.93 74.0859 283.453 73.8242 283.047 73.5195C282.648 73.2148 282.336 72.8555 282.109 72.4414C281.883 72.0195 281.77 71.5391 281.77 71C281.77 70.4688 281.883 69.9688 282.109 69.5C282.344 69.0312 282.676 68.6172 283.105 68.2578C283.543 67.8906 284.074 67.6055 284.699 67.4023C285.332 67.1914 286.043 67.0859 286.832 67.0859C287.934 67.0859 288.879 67.2617 289.668 67.6133C290.465 67.9648 291.074 68.4492 291.496 69.0664C291.926 69.6758 292.141 70.3711 292.141 71.1523H288.766C288.766 70.8242 288.695 70.5312 288.555 70.2734C288.422 70.0078 288.211 69.8008 287.922 69.6523C287.641 69.4961 287.273 69.418 286.82 69.418C286.445 69.418 286.121 69.4844 285.848 69.6172C285.574 69.7422 285.363 69.9141 285.215 70.1328C285.074 70.3438 285.004 70.5781 285.004 70.8359C285.004 71.0312 285.043 71.207 285.121 71.3633C285.207 71.5117 285.344 71.6484 285.531 71.7734C285.719 71.8984 285.961 72.0156 286.258 72.125C286.562 72.2266 286.938 72.3203 287.383 72.4062C288.297 72.5938 289.113 72.8398 289.832 73.1445C290.551 73.4414 291.121 73.8477 291.543 74.3633C291.965 74.8711 292.176 75.5391 292.176 76.3672C292.176 76.9297 292.051 77.4453 291.801 77.9141C291.551 78.3828 291.191 78.793 290.723 79.1445C290.254 79.4883 289.691 79.7578 289.035 79.9531C288.387 80.1406 287.656 80.2344 286.844 80.2344C285.664 80.2344 284.664 80.0234 283.844 79.6016C283.031 79.1797 282.414 78.6445 281.992 77.9961C281.578 77.3398 281.371 76.668 281.371 75.9805H284.57C284.586 76.4414 284.703 76.8125 284.922 77.0938C285.148 77.375 285.434 77.5781 285.777 77.7031C286.129 77.8281 286.508 77.8906 286.914 77.8906C287.352 77.8906 287.715 77.832 288.004 77.7148C288.293 77.5898 288.512 77.4258 288.66 77.2227C288.816 77.0117 288.895 76.7695 288.895 76.4961Z" fill="#3F7AEA"/>
<path d="M514.203 72.5117H509.82L509.797 70.0977H513.477C514.125 70.0977 514.656 70.0156 515.07 69.8516C515.484 69.6797 515.793 69.4336 515.996 69.1133C516.207 68.7852 516.312 68.3867 516.312 67.918C516.312 67.3867 516.211 66.957 516.008 66.6289C515.812 66.3008 515.504 66.0625 515.082 65.9141C514.668 65.7656 514.133 65.6914 513.477 65.6914H511.039V80H507.523V62.9375H513.477C514.469 62.9375 515.355 63.0312 516.137 63.2188C516.926 63.4062 517.594 63.6914 518.141 64.0742C518.688 64.457 519.105 64.9414 519.395 65.5273C519.684 66.1055 519.828 66.793 519.828 67.5898C519.828 68.293 519.668 68.9414 519.348 69.5352C519.035 70.1289 518.539 70.6133 517.859 70.9883C517.188 71.3633 516.309 71.5703 515.223 71.6094L514.203 72.5117ZM514.051 80H508.859L510.23 77.2578H514.051C514.668 77.2578 515.172 77.1602 515.562 76.9648C515.953 76.7617 516.242 76.4883 516.43 76.1445C516.617 75.8008 516.711 75.4062 516.711 74.9609C516.711 74.4609 516.625 74.0273 516.453 73.6602C516.289 73.293 516.023 73.0117 515.656 72.8164C515.289 72.6133 514.805 72.5117 514.203 72.5117H510.816L510.84 70.0977H515.059L515.867 71.0469C516.906 71.0312 517.742 71.2148 518.375 71.5977C519.016 71.9727 519.48 72.4609 519.77 73.0625C520.066 73.6641 520.215 74.3086 520.215 74.9961C520.215 76.0898 519.977 77.0117 519.5 77.7617C519.023 78.5039 518.324 79.0625 517.402 79.4375C516.488 79.8125 515.371 80 514.051 80ZM526.203 62V80H522.816V62H526.203ZM528.453 73.7891V73.543C528.453 72.6133 528.586 71.7578 528.852 70.9766C529.117 70.1875 529.504 69.5039 530.012 68.9258C530.52 68.3477 531.145 67.8984 531.887 67.5781C532.629 67.25 533.48 67.0859 534.441 67.0859C535.402 67.0859 536.258 67.25 537.008 67.5781C537.758 67.8984 538.387 68.3477 538.895 68.9258C539.41 69.5039 539.801 70.1875 540.066 70.9766C540.332 71.7578 540.465 72.6133 540.465 73.543V73.7891C540.465 74.7109 540.332 75.5664 540.066 76.3555C539.801 77.1367 539.41 77.8203 538.895 78.4062C538.387 78.9844 537.762 79.4336 537.02 79.7539C536.277 80.0742 535.426 80.2344 534.465 80.2344C533.504 80.2344 532.648 80.0742 531.898 79.7539C531.156 79.4336 530.527 78.9844 530.012 78.4062C529.504 77.8203 529.117 77.1367 528.852 76.3555C528.586 75.5664 528.453 74.7109 528.453 73.7891ZM531.828 73.543V73.7891C531.828 74.3203 531.875 74.8164 531.969 75.2773C532.062 75.7383 532.211 76.1445 532.414 76.4961C532.625 76.8398 532.898 77.1094 533.234 77.3047C533.57 77.5 533.98 77.5977 534.465 77.5977C534.934 77.5977 535.336 77.5 535.672 77.3047C536.008 77.1094 536.277 76.8398 536.48 76.4961C536.684 76.1445 536.832 75.7383 536.926 75.2773C537.027 74.8164 537.078 74.3203 537.078 73.7891V73.543C537.078 73.0273 537.027 72.543 536.926 72.0898C536.832 71.6289 536.68 71.2227 536.469 70.8711C536.266 70.5117 535.996 70.2305 535.66 70.0273C535.324 69.8242 534.918 69.7227 534.441 69.7227C533.965 69.7227 533.559 69.8242 533.223 70.0273C532.895 70.2305 532.625 70.5117 532.414 70.8711C532.211 71.2227 532.062 71.6289 531.969 72.0898C531.875 72.543 531.828 73.0273 531.828 73.543ZM547.777 77.5977C548.191 77.5977 548.559 77.5195 548.879 77.3633C549.199 77.1992 549.449 76.9727 549.629 76.6836C549.816 76.3867 549.914 76.0391 549.922 75.6406H553.098C553.09 76.5312 552.852 77.3242 552.383 78.0195C551.914 78.707 551.285 79.25 550.496 79.6484C549.707 80.0391 548.824 80.2344 547.848 80.2344C546.863 80.2344 546.004 80.0703 545.27 79.7422C544.543 79.4141 543.938 78.9609 543.453 78.3828C542.969 77.7969 542.605 77.1172 542.363 76.3438C542.121 75.5625 542 74.7266 542 73.8359V73.4961C542 72.5977 542.121 71.7617 542.363 70.9883C542.605 70.207 542.969 69.5273 543.453 68.9492C543.938 68.3633 544.543 67.9062 545.27 67.5781C545.996 67.25 546.848 67.0859 547.824 67.0859C548.863 67.0859 549.773 67.2852 550.555 67.6836C551.344 68.082 551.961 68.6523 552.406 69.3945C552.859 70.1289 553.09 71 553.098 72.0078H549.922C549.914 71.5859 549.824 71.2031 549.652 70.8594C549.488 70.5156 549.246 70.2422 548.926 70.0391C548.613 69.8281 548.227 69.7227 547.766 69.7227C547.273 69.7227 546.871 69.8281 546.559 70.0391C546.246 70.2422 546.004 70.5234 545.832 70.8828C545.66 71.2344 545.539 71.6367 545.469 72.0898C545.406 72.5352 545.375 73.0039 545.375 73.4961V73.8359C545.375 74.3281 545.406 74.8008 545.469 75.2539C545.531 75.707 545.648 76.1094 545.82 76.4609C546 76.8125 546.246 77.0898 546.559 77.293C546.871 77.4961 547.277 77.5977 547.777 77.5977ZM558.43 61.9883V80H555.055V61.9883H558.43ZM566.422 67.3203L560.914 73.6016L557.961 76.5898L556.73 74.1523L559.074 71.1758L562.367 67.3203H566.422ZM562.918 80L559.168 74.1406L561.5 72.1016L566.809 80H562.918ZM585.512 77.2578V80H576.43V77.2578H585.512ZM577.578 62.9375V80H574.062V62.9375H577.578ZM584.328 69.8867V72.5586H576.43V69.8867H584.328ZM585.5 62.9375V65.6914H576.43V62.9375H585.5ZM590.914 62V80H587.527V62H590.914ZM599.539 80.2344C598.555 80.2344 597.672 80.0781 596.891 79.7656C596.109 79.4453 595.445 79.0039 594.898 78.4414C594.359 77.8789 593.945 77.2266 593.656 76.4844C593.367 75.7344 593.223 74.9375 593.223 74.0938V73.625C593.223 72.6641 593.359 71.7852 593.633 70.9883C593.906 70.1914 594.297 69.5 594.805 68.9141C595.32 68.3281 595.945 67.8789 596.68 67.5664C597.414 67.2461 598.242 67.0859 599.164 67.0859C600.062 67.0859 600.859 67.2344 601.555 67.5312C602.25 67.8281 602.832 68.25 603.301 68.7969C603.777 69.3438 604.137 70 604.379 70.7656C604.621 71.5234 604.742 72.3672 604.742 73.2969V74.7031H594.664V72.4531H601.426V72.1953C601.426 71.7266 601.34 71.3086 601.168 70.9414C601.004 70.5664 600.754 70.2695 600.418 70.0508C600.082 69.832 599.652 69.7227 599.129 69.7227C598.684 69.7227 598.301 69.8203 597.98 70.0156C597.66 70.2109 597.398 70.4844 597.195 70.8359C597 71.1875 596.852 71.6016 596.75 72.0781C596.656 72.5469 596.609 73.0625 596.609 73.625V74.0938C596.609 74.6016 596.68 75.0703 596.82 75.5C596.969 75.9297 597.176 76.3008 597.441 76.6133C597.715 76.9258 598.043 77.168 598.426 77.3398C598.816 77.5117 599.258 77.5977 599.75 77.5977C600.359 77.5977 600.926 77.4805 601.449 77.2461C601.98 77.0039 602.438 76.6406 602.82 76.1562L604.461 77.9375C604.195 78.3203 603.832 78.6875 603.371 79.0391C602.918 79.3906 602.371 79.6797 601.73 79.9062C601.09 80.125 600.359 80.2344 599.539 80.2344ZM610.039 69.9453V80H606.652V67.3203H609.828L610.039 69.9453ZM609.57 73.2148H608.633C608.633 72.332 608.738 71.5195 608.949 70.7773C609.168 70.0273 609.484 69.3789 609.898 68.832C610.32 68.2773 610.84 67.8477 611.457 67.543C612.074 67.2383 612.789 67.0859 613.602 67.0859C614.164 67.0859 614.68 67.1719 615.148 67.3438C615.617 67.5078 616.02 67.7695 616.355 68.1289C616.699 68.4805 616.965 68.9414 617.152 69.5117C617.34 70.0742 617.434 70.75 617.434 71.5391V80H614.059V71.9141C614.059 71.3359 613.98 70.8906 613.824 70.5781C613.668 70.2656 613.445 70.0469 613.156 69.9219C612.875 69.7969 612.535 69.7344 612.137 69.7344C611.699 69.7344 611.316 69.8242 610.988 70.0039C610.668 70.1836 610.402 70.4336 610.191 70.7539C609.98 71.0664 609.824 71.4336 609.723 71.8555C609.621 72.2773 609.57 72.7305 609.57 73.2148ZM617.117 72.8281L615.91 72.9805C615.91 72.1523 616.012 71.3828 616.215 70.6719C616.426 69.9609 616.734 69.3359 617.141 68.7969C617.555 68.2578 618.066 67.8398 618.676 67.543C619.285 67.2383 619.988 67.0859 620.785 67.0859C621.395 67.0859 621.949 67.1758 622.449 67.3555C622.949 67.5273 623.375 67.8047 623.727 68.1875C624.086 68.5625 624.359 69.0547 624.547 69.6641C624.742 70.2734 624.84 71.0195 624.84 71.9023V80H621.453V71.9023C621.453 71.3164 621.375 70.8711 621.219 70.5664C621.07 70.2539 620.852 70.0391 620.562 69.9219C620.281 69.7969 619.945 69.7344 619.555 69.7344C619.148 69.7344 618.793 69.8164 618.488 69.9805C618.184 70.1367 617.93 70.3555 617.727 70.6367C617.523 70.918 617.371 71.2461 617.27 71.6211C617.168 71.9883 617.117 72.3906 617.117 72.8281ZM633.289 80.2344C632.305 80.2344 631.422 80.0781 630.641 79.7656C629.859 79.4453 629.195 79.0039 628.648 78.4414C628.109 77.8789 627.695 77.2266 627.406 76.4844C627.117 75.7344 626.973 74.9375 626.973 74.0938V73.625C626.973 72.6641 627.109 71.7852 627.383 70.9883C627.656 70.1914 628.047 69.5 628.555 68.9141C629.07 68.3281 629.695 67.8789 630.43 67.5664C631.164 67.2461 631.992 67.0859 632.914 67.0859C633.812 67.0859 634.609 67.2344 635.305 67.5312C636 67.8281 636.582 68.25 637.051 68.7969C637.527 69.3438 637.887 70 638.129 70.7656C638.371 71.5234 638.492 72.3672 638.492 73.2969V74.7031H628.414V72.4531H635.176V72.1953C635.176 71.7266 635.09 71.3086 634.918 70.9414C634.754 70.5664 634.504 70.2695 634.168 70.0508C633.832 69.832 633.402 69.7227 632.879 69.7227C632.434 69.7227 632.051 69.8203 631.73 70.0156C631.41 70.2109 631.148 70.4844 630.945 70.8359C630.75 71.1875 630.602 71.6016 630.5 72.0781C630.406 72.5469 630.359 73.0625 630.359 73.625V74.0938C630.359 74.6016 630.43 75.0703 630.57 75.5C630.719 75.9297 630.926 76.3008 631.191 76.6133C631.465 76.9258 631.793 77.168 632.176 77.3398C632.566 77.5117 633.008 77.5977 633.5 77.5977C634.109 77.5977 634.676 77.4805 635.199 77.2461C635.73 77.0039 636.188 76.6406 636.57 76.1562L638.211 77.9375C637.945 78.3203 637.582 78.6875 637.121 79.0391C636.668 79.3906 636.121 79.6797 635.48 79.9062C634.84 80.125 634.109 80.2344 633.289 80.2344ZM643.719 70.0273V80H640.344V67.3203H643.508L643.719 70.0273ZM643.227 73.2148H642.312C642.312 72.2773 642.434 71.4336 642.676 70.6836C642.918 69.9258 643.258 69.2812 643.695 68.75C644.133 68.2109 644.652 67.8008 645.254 67.5195C645.863 67.2305 646.543 67.0859 647.293 67.0859C647.887 67.0859 648.43 67.1719 648.922 67.3438C649.414 67.5156 649.836 67.7891 650.188 68.1641C650.547 68.5391 650.82 69.0352 651.008 69.6523C651.203 70.2695 651.301 71.0234 651.301 71.9141V80H647.902V71.9023C647.902 71.3398 647.824 70.9023 647.668 70.5898C647.512 70.2773 647.281 70.0586 646.977 69.9336C646.68 69.8008 646.312 69.7344 645.875 69.7344C645.422 69.7344 645.027 69.8242 644.691 70.0039C644.363 70.1836 644.09 70.4336 643.871 70.7539C643.66 71.0664 643.5 71.4336 643.391 71.8555C643.281 72.2773 643.227 72.7305 643.227 73.2148ZM660.078 67.3203V69.7109H652.695V67.3203H660.078ZM654.523 64.1914H657.898V76.1797C657.898 76.5469 657.945 76.8281 658.039 77.0234C658.141 77.2188 658.289 77.3555 658.484 77.4336C658.68 77.5039 658.926 77.5391 659.223 77.5391C659.434 77.5391 659.621 77.5312 659.785 77.5156C659.957 77.4922 660.102 77.4688 660.219 77.4453L660.23 79.9297C659.941 80.0234 659.629 80.0977 659.293 80.1523C658.957 80.207 658.586 80.2344 658.18 80.2344C657.438 80.2344 656.789 80.1133 656.234 79.8711C655.688 79.6211 655.266 79.2227 654.969 78.6758C654.672 78.1289 654.523 77.4102 654.523 76.5195V64.1914ZM668.855 76.4961C668.855 76.2539 668.785 76.0352 668.645 75.8398C668.504 75.6445 668.242 75.4648 667.859 75.3008C667.484 75.1289 666.941 74.9727 666.23 74.832C665.59 74.6914 664.992 74.5156 664.438 74.3047C663.891 74.0859 663.414 73.8242 663.008 73.5195C662.609 73.2148 662.297 72.8555 662.07 72.4414C661.844 72.0195 661.73 71.5391 661.73 71C661.73 70.4688 661.844 69.9688 662.07 69.5C662.305 69.0312 662.637 68.6172 663.066 68.2578C663.504 67.8906 664.035 67.6055 664.66 67.4023C665.293 67.1914 666.004 67.0859 666.793 67.0859C667.895 67.0859 668.84 67.2617 669.629 67.6133C670.426 67.9648 671.035 68.4492 671.457 69.0664C671.887 69.6758 672.102 70.3711 672.102 71.1523H668.727C668.727 70.8242 668.656 70.5312 668.516 70.2734C668.383 70.0078 668.172 69.8008 667.883 69.6523C667.602 69.4961 667.234 69.418 666.781 69.418C666.406 69.418 666.082 69.4844 665.809 69.6172C665.535 69.7422 665.324 69.9141 665.176 70.1328C665.035 70.3438 664.965 70.5781 664.965 70.8359C664.965 71.0312 665.004 71.207 665.082 71.3633C665.168 71.5117 665.305 71.6484 665.492 71.7734C665.68 71.8984 665.922 72.0156 666.219 72.125C666.523 72.2266 666.898 72.3203 667.344 72.4062C668.258 72.5938 669.074 72.8398 669.793 73.1445C670.512 73.4414 671.082 73.8477 671.504 74.3633C671.926 74.8711 672.137 75.5391 672.137 76.3672C672.137 76.9297 672.012 77.4453 671.762 77.9141C671.512 78.3828 671.152 78.793 670.684 79.1445C670.215 79.4883 669.652 79.7578 668.996 79.9531C668.348 80.1406 667.617 80.2344 666.805 80.2344C665.625 80.2344 664.625 80.0234 663.805 79.6016C662.992 79.1797 662.375 78.6445 661.953 77.9961C661.539 77.3398 661.332 76.668 661.332 75.9805H664.531C664.547 76.4414 664.664 76.8125 664.883 77.0938C665.109 77.375 665.395 77.5781 665.738 77.7031C666.09 77.8281 666.469 77.8906 666.875 77.8906C667.312 77.8906 667.676 77.832 667.965 77.7148C668.254 77.5898 668.473 77.4258 668.621 77.2227C668.777 77.0117 668.855 76.7695 668.855 76.4961Z" fill="#3F7AEA"/>
<path d="M36 103.727C36 102.07 37.3431 100.727 39 100.727H382.091C383.748 100.727 385.091 102.07 385.091 103.727V324.469C385.091 326.125 383.748 327.469 382.091 327.469H39C37.3431 327.469 36 326.125 36 324.469V103.727Z" stroke="#1E81CE" stroke-width="2"/>
<path d="M36 314.279H385.091V325.017C385.091 326.674 383.748 328.017 382.091 328.017H39C37.3431 328.017 36 326.674 36 325.017V314.279Z" fill="#78B9EB" stroke="#1E81CE" stroke-width="2"/>
<rect x="186.076" y="328.018" width="48.938" height="9.99084" fill="#78B9EB" stroke="#1E81CE" stroke-width="2"/>
<rect x="163.705" y="338.009" width="94.1473" height="9.99084" fill="#78B9EB" stroke="#1E81CE" stroke-width="2"/>
<path d="M415.637 103.727C415.637 102.07 416.98 100.727 418.637 100.727H761.728C763.384 100.727 764.728 102.07 764.728 103.727V324.469C764.728 326.125 763.384 327.469 761.728 327.469H418.637C416.98 327.469 415.637 326.125 415.637 324.469V103.727Z" stroke="#1E81CE" stroke-width="2"/>
<path d="M415.637 314.279H764.728V325.017C764.728 326.674 763.384 328.017 761.728 328.017H418.637C416.98 328.017 415.637 326.674 415.637 325.017V314.279Z" fill="#78B9EB" stroke="#1E81CE" stroke-width="2"/>
<rect x="565.713" y="328.018" width="48.938" height="9.99084" fill="#78B9EB" stroke="#1E81CE" stroke-width="2"/>
<rect x="543.341" y="338.009" width="94.1473" height="9.99084" fill="#78B9EB" stroke="#1E81CE" stroke-width="2"/>
<g opacity="0.8">
<rect width="101.818" height="33.4545" transform="translate(54.9092 115.272)" fill="#419BFF"/>
<path d="M81.3262 127.32V140H79.1465V127.32H81.3262ZM78.9824 123.957C78.9824 123.605 79.0879 123.309 79.2988 123.066C79.5176 122.824 79.8379 122.703 80.2598 122.703C80.6738 122.703 80.9902 122.824 81.209 123.066C81.4355 123.309 81.5488 123.605 81.5488 123.957C81.5488 124.293 81.4355 124.582 81.209 124.824C80.9902 125.059 80.6738 125.176 80.2598 125.176C79.8379 125.176 79.5176 125.059 79.2988 124.824C79.0879 124.582 78.9824 124.293 78.9824 123.957ZM86.9746 130.027V140H84.8066V127.32H86.8574L86.9746 130.027ZM86.459 133.18L85.5566 133.145C85.5645 132.277 85.6934 131.477 85.9434 130.742C86.1934 130 86.5449 129.355 86.998 128.809C87.4512 128.262 87.9902 127.84 88.6152 127.543C89.248 127.238 89.9473 127.086 90.7129 127.086C91.3379 127.086 91.9004 127.172 92.4004 127.344C92.9004 127.508 93.3262 127.773 93.6777 128.141C94.0371 128.508 94.3105 128.984 94.498 129.57C94.6855 130.148 94.7793 130.855 94.7793 131.691V140H92.5996V131.668C92.5996 131.004 92.502 130.473 92.3066 130.074C92.1113 129.668 91.8262 129.375 91.4512 129.195C91.0762 129.008 90.6152 128.914 90.0684 128.914C89.5293 128.914 89.0371 129.027 88.5918 129.254C88.1543 129.48 87.7754 129.793 87.4551 130.191C87.1426 130.59 86.8965 131.047 86.7168 131.562C86.5449 132.07 86.459 132.609 86.459 133.18ZM100.428 122V140H98.248V122H100.428ZM106.264 127.32V140H104.084V127.32H106.264ZM103.92 123.957C103.92 123.605 104.025 123.309 104.236 123.066C104.455 122.824 104.775 122.703 105.197 122.703C105.611 122.703 105.928 122.824 106.146 123.066C106.373 123.309 106.486 123.605 106.486 123.957C106.486 124.293 106.373 124.582 106.146 124.824C105.928 125.059 105.611 125.176 105.197 125.176C104.775 125.176 104.455 125.059 104.236 124.824C104.025 124.582 103.92 124.293 103.92 123.957ZM111.912 130.027V140H109.744V127.32H111.795L111.912 130.027ZM111.396 133.18L110.494 133.145C110.502 132.277 110.631 131.477 110.881 130.742C111.131 130 111.482 129.355 111.936 128.809C112.389 128.262 112.928 127.84 113.553 127.543C114.186 127.238 114.885 127.086 115.65 127.086C116.275 127.086 116.838 127.172 117.338 127.344C117.838 127.508 118.264 127.773 118.615 128.141C118.975 128.508 119.248 128.984 119.436 129.57C119.623 130.148 119.717 130.855 119.717 131.691V140H117.537V131.668C117.537 131.004 117.439 130.473 117.244 130.074C117.049 129.668 116.764 129.375 116.389 129.195C116.014 129.008 115.553 128.914 115.006 128.914C114.467 128.914 113.975 129.027 113.529 129.254C113.092 129.48 112.713 129.793 112.393 130.191C112.08 130.59 111.834 131.047 111.654 131.562C111.482 132.07 111.396 132.609 111.396 133.18ZM128.271 140.234C127.389 140.234 126.588 140.086 125.869 139.789C125.158 139.484 124.545 139.059 124.029 138.512C123.521 137.965 123.131 137.316 122.857 136.566C122.584 135.816 122.447 134.996 122.447 134.105V133.613C122.447 132.582 122.6 131.664 122.904 130.859C123.209 130.047 123.623 129.359 124.146 128.797C124.67 128.234 125.264 127.809 125.928 127.52C126.592 127.23 127.279 127.086 127.99 127.086C128.896 127.086 129.678 127.242 130.334 127.555C130.998 127.867 131.541 128.305 131.963 128.867C132.385 129.422 132.697 130.078 132.9 130.836C133.104 131.586 133.205 132.406 133.205 133.297V134.27H123.736V132.5H131.037V132.336C131.006 131.773 130.889 131.227 130.686 130.695C130.49 130.164 130.178 129.727 129.748 129.383C129.318 129.039 128.732 128.867 127.99 128.867C127.498 128.867 127.045 128.973 126.631 129.184C126.217 129.387 125.861 129.691 125.564 130.098C125.268 130.504 125.037 131 124.873 131.586C124.709 132.172 124.627 132.848 124.627 133.613V134.105C124.627 134.707 124.709 135.273 124.873 135.805C125.045 136.328 125.291 136.789 125.611 137.188C125.939 137.586 126.334 137.898 126.795 138.125C127.264 138.352 127.795 138.465 128.389 138.465C129.154 138.465 129.803 138.309 130.334 137.996C130.865 137.684 131.33 137.266 131.729 136.742L133.041 137.785C132.768 138.199 132.42 138.594 131.998 138.969C131.576 139.344 131.057 139.648 130.439 139.883C129.83 140.117 129.107 140.234 128.271 140.234Z" fill="white"/>
</g>
<g opacity="0.8">
<rect width="101.818" height="33.4545" transform="translate(162.545 115.272)" fill="#419BFF"/>
<path d="M188.962 127.32V140H186.783V127.32H188.962ZM186.619 123.957C186.619 123.605 186.724 123.309 186.935 123.066C187.154 122.824 187.474 122.703 187.896 122.703C188.31 122.703 188.626 122.824 188.845 123.066C189.072 123.309 189.185 123.605 189.185 123.957C189.185 124.293 189.072 124.582 188.845 124.824C188.626 125.059 188.31 125.176 187.896 125.176C187.474 125.176 187.154 125.059 186.935 124.824C186.724 124.582 186.619 124.293 186.619 123.957ZM194.611 130.027V140H192.443V127.32H194.494L194.611 130.027ZM194.095 133.18L193.193 133.145C193.201 132.277 193.33 131.477 193.58 130.742C193.83 130 194.181 129.355 194.634 128.809C195.087 128.262 195.626 127.84 196.251 127.543C196.884 127.238 197.583 127.086 198.349 127.086C198.974 127.086 199.537 127.172 200.037 127.344C200.537 127.508 200.962 127.773 201.314 128.141C201.673 128.508 201.947 128.984 202.134 129.57C202.322 130.148 202.416 130.855 202.416 131.691V140H200.236V131.668C200.236 131.004 200.138 130.473 199.943 130.074C199.748 129.668 199.462 129.375 199.087 129.195C198.712 129.008 198.251 128.914 197.705 128.914C197.166 128.914 196.673 129.027 196.228 129.254C195.791 129.48 195.412 129.793 195.091 130.191C194.779 130.59 194.533 131.047 194.353 131.562C194.181 132.07 194.095 132.609 194.095 133.18ZM208.064 122V140H205.884V122H208.064ZM213.9 127.32V140H211.72V127.32H213.9ZM211.556 123.957C211.556 123.605 211.662 123.309 211.873 123.066C212.091 122.824 212.412 122.703 212.833 122.703C213.248 122.703 213.564 122.824 213.783 123.066C214.009 123.309 214.123 123.605 214.123 123.957C214.123 124.293 214.009 124.582 213.783 124.824C213.564 125.059 213.248 125.176 212.833 125.176C212.412 125.176 212.091 125.059 211.873 124.824C211.662 124.582 211.556 124.293 211.556 123.957ZM219.548 130.027V140H217.38V127.32H219.431L219.548 130.027ZM219.033 133.18L218.13 133.145C218.138 132.277 218.267 131.477 218.517 130.742C218.767 130 219.119 129.355 219.572 128.809C220.025 128.262 220.564 127.84 221.189 127.543C221.822 127.238 222.521 127.086 223.287 127.086C223.912 127.086 224.474 127.172 224.974 127.344C225.474 127.508 225.9 127.773 226.251 128.141C226.611 128.508 226.884 128.984 227.072 129.57C227.259 130.148 227.353 130.855 227.353 131.691V140H225.173V131.668C225.173 131.004 225.076 130.473 224.88 130.074C224.685 129.668 224.4 129.375 224.025 129.195C223.65 129.008 223.189 128.914 222.642 128.914C222.103 128.914 221.611 129.027 221.166 129.254C220.728 129.48 220.349 129.793 220.029 130.191C219.716 130.59 219.47 131.047 219.291 131.562C219.119 132.07 219.033 132.609 219.033 133.18ZM235.908 140.234C235.025 140.234 234.224 140.086 233.505 139.789C232.794 139.484 232.181 139.059 231.666 138.512C231.158 137.965 230.767 137.316 230.494 136.566C230.22 135.816 230.083 134.996 230.083 134.105V133.613C230.083 132.582 230.236 131.664 230.541 130.859C230.845 130.047 231.259 129.359 231.783 128.797C232.306 128.234 232.9 127.809 233.564 127.52C234.228 127.23 234.916 127.086 235.626 127.086C236.533 127.086 237.314 127.242 237.97 127.555C238.634 127.867 239.177 128.305 239.599 128.867C240.021 129.422 240.333 130.078 240.537 130.836C240.74 131.586 240.841 132.406 240.841 133.297V134.27H231.373V132.5H238.673V132.336C238.642 131.773 238.525 131.227 238.322 130.695C238.126 130.164 237.814 129.727 237.384 129.383C236.955 129.039 236.369 128.867 235.626 128.867C235.134 128.867 234.681 128.973 234.267 129.184C233.853 129.387 233.498 129.691 233.201 130.098C232.904 130.504 232.673 131 232.509 131.586C232.345 132.172 232.263 132.848 232.263 133.613V134.105C232.263 134.707 232.345 135.273 232.509 135.805C232.681 136.328 232.927 136.789 233.248 137.188C233.576 137.586 233.97 137.898 234.431 138.125C234.9 138.352 235.431 138.465 236.025 138.465C236.791 138.465 237.439 138.309 237.97 137.996C238.501 137.684 238.966 137.266 239.365 136.742L240.677 137.785C240.404 138.199 240.056 138.594 239.634 138.969C239.212 139.344 238.693 139.648 238.076 139.883C237.466 140.117 236.744 140.234 235.908 140.234Z" fill="white"/>
</g>
<g opacity="0.8">
<rect width="101.818" height="33.4545" transform="translate(270.182 115.272)" fill="#419BFF"/>
<path d="M296.599 127.32V140H294.419V127.32H296.599ZM294.255 123.957C294.255 123.605 294.361 123.309 294.572 123.066C294.79 122.824 295.111 122.703 295.532 122.703C295.947 122.703 296.263 122.824 296.482 123.066C296.708 123.309 296.822 123.605 296.822 123.957C296.822 124.293 296.708 124.582 296.482 124.824C296.263 125.059 295.947 125.176 295.532 125.176C295.111 125.176 294.79 125.059 294.572 124.824C294.361 124.582 294.255 124.293 294.255 123.957ZM302.247 130.027V140H300.079V127.32H302.13L302.247 130.027ZM301.732 133.18L300.829 133.145C300.837 132.277 300.966 131.477 301.216 130.742C301.466 130 301.818 129.355 302.271 128.809C302.724 128.262 303.263 127.84 303.888 127.543C304.521 127.238 305.22 127.086 305.986 127.086C306.611 127.086 307.173 127.172 307.673 127.344C308.173 127.508 308.599 127.773 308.95 128.141C309.31 128.508 309.583 128.984 309.771 129.57C309.958 130.148 310.052 130.855 310.052 131.691V140H307.872V131.668C307.872 131.004 307.775 130.473 307.579 130.074C307.384 129.668 307.099 129.375 306.724 129.195C306.349 129.008 305.888 128.914 305.341 128.914C304.802 128.914 304.31 129.027 303.865 129.254C303.427 129.48 303.048 129.793 302.728 130.191C302.415 130.59 302.169 131.047 301.99 131.562C301.818 132.07 301.732 132.609 301.732 133.18ZM315.7 122V140H313.521V122H315.7ZM321.536 127.32V140H319.357V127.32H321.536ZM319.193 123.957C319.193 123.605 319.298 123.309 319.509 123.066C319.728 122.824 320.048 122.703 320.47 122.703C320.884 122.703 321.2 122.824 321.419 123.066C321.646 123.309 321.759 123.605 321.759 123.957C321.759 124.293 321.646 124.582 321.419 124.824C321.2 125.059 320.884 125.176 320.47 125.176C320.048 125.176 319.728 125.059 319.509 124.824C319.298 124.582 319.193 124.293 319.193 123.957ZM327.185 130.027V140H325.017V127.32H327.068L327.185 130.027ZM326.669 133.18L325.767 133.145C325.775 132.277 325.904 131.477 326.154 130.742C326.404 130 326.755 129.355 327.208 128.809C327.661 128.262 328.2 127.84 328.825 127.543C329.458 127.238 330.157 127.086 330.923 127.086C331.548 127.086 332.111 127.172 332.611 127.344C333.111 127.508 333.536 127.773 333.888 128.141C334.247 128.508 334.521 128.984 334.708 129.57C334.896 130.148 334.99 130.855 334.99 131.691V140H332.81V131.668C332.81 131.004 332.712 130.473 332.517 130.074C332.322 129.668 332.036 129.375 331.661 129.195C331.286 129.008 330.825 128.914 330.279 128.914C329.74 128.914 329.247 129.027 328.802 129.254C328.365 129.48 327.986 129.793 327.665 130.191C327.353 130.59 327.107 131.047 326.927 131.562C326.755 132.07 326.669 132.609 326.669 133.18ZM343.544 140.234C342.661 140.234 341.861 140.086 341.142 139.789C340.431 139.484 339.818 139.059 339.302 138.512C338.794 137.965 338.404 137.316 338.13 136.566C337.857 135.816 337.72 134.996 337.72 134.105V133.613C337.72 132.582 337.872 131.664 338.177 130.859C338.482 130.047 338.896 129.359 339.419 128.797C339.943 128.234 340.536 127.809 341.2 127.52C341.865 127.23 342.552 127.086 343.263 127.086C344.169 127.086 344.95 127.242 345.607 127.555C346.271 127.867 346.814 128.305 347.236 128.867C347.657 129.422 347.97 130.078 348.173 130.836C348.376 131.586 348.478 132.406 348.478 133.297V134.27H339.009V132.5H346.31V132.336C346.279 131.773 346.161 131.227 345.958 130.695C345.763 130.164 345.45 129.727 345.021 129.383C344.591 129.039 344.005 128.867 343.263 128.867C342.771 128.867 342.318 128.973 341.904 129.184C341.49 129.387 341.134 129.691 340.837 130.098C340.54 130.504 340.31 131 340.146 131.586C339.982 132.172 339.9 132.848 339.9 133.613V134.105C339.9 134.707 339.982 135.273 340.146 135.805C340.318 136.328 340.564 136.789 340.884 137.188C341.212 137.586 341.607 137.898 342.068 138.125C342.536 138.352 343.068 138.465 343.661 138.465C344.427 138.465 345.075 138.309 345.607 137.996C346.138 137.684 346.603 137.266 347.001 136.742L348.314 137.785C348.04 138.199 347.693 138.594 347.271 138.969C346.849 139.344 346.329 139.648 345.712 139.883C345.103 140.117 344.38 140.234 343.544 140.234Z" fill="white"/>
</g>
<g opacity="0.8">
<rect width="101.818" height="33.4545" transform="translate(54.9092 150.182)" fill="#419BFF"/>
<path d="M81.3262 162.229V174.909H79.1465V162.229H81.3262ZM78.9824 158.866C78.9824 158.515 79.0879 158.218 79.2988 157.976C79.5176 157.733 79.8379 157.612 80.2598 157.612C80.6738 157.612 80.9902 157.733 81.209 157.976C81.4355 158.218 81.5488 158.515 81.5488 158.866C81.5488 159.202 81.4355 159.491 81.209 159.733C80.9902 159.968 80.6738 160.085 80.2598 160.085C79.8379 160.085 79.5176 159.968 79.2988 159.733C79.0879 159.491 78.9824 159.202 78.9824 158.866ZM86.9746 164.937V174.909H84.8066V162.229H86.8574L86.9746 164.937ZM86.459 168.089L85.5566 168.054C85.5645 167.187 85.6934 166.386 85.9434 165.651C86.1934 164.909 86.5449 164.265 86.998 163.718C87.4512 163.171 87.9902 162.749 88.6152 162.452C89.248 162.147 89.9473 161.995 90.7129 161.995C91.3379 161.995 91.9004 162.081 92.4004 162.253C92.9004 162.417 93.3262 162.683 93.6777 163.05C94.0371 163.417 94.3105 163.894 94.498 164.479C94.6855 165.058 94.7793 165.765 94.7793 166.601V174.909H92.5996V166.577C92.5996 165.913 92.502 165.382 92.3066 164.983C92.1113 164.577 91.8262 164.284 91.4512 164.104C91.0762 163.917 90.6152 163.823 90.0684 163.823C89.5293 163.823 89.0371 163.937 88.5918 164.163C88.1543 164.39 87.7754 164.702 87.4551 165.101C87.1426 165.499 86.8965 165.956 86.7168 166.472C86.5449 166.979 86.459 167.519 86.459 168.089ZM100.428 156.909V174.909H98.248V156.909H100.428ZM106.264 162.229V174.909H104.084V162.229H106.264ZM103.92 158.866C103.92 158.515 104.025 158.218 104.236 157.976C104.455 157.733 104.775 157.612 105.197 157.612C105.611 157.612 105.928 157.733 106.146 157.976C106.373 158.218 106.486 158.515 106.486 158.866C106.486 159.202 106.373 159.491 106.146 159.733C105.928 159.968 105.611 160.085 105.197 160.085C104.775 160.085 104.455 159.968 104.236 159.733C104.025 159.491 103.92 159.202 103.92 158.866ZM111.912 164.937V174.909H109.744V162.229H111.795L111.912 164.937ZM111.396 168.089L110.494 168.054C110.502 167.187 110.631 166.386 110.881 165.651C111.131 164.909 111.482 164.265 111.936 163.718C112.389 163.171 112.928 162.749 113.553 162.452C114.186 162.147 114.885 161.995 115.65 161.995C116.275 161.995 116.838 162.081 117.338 162.253C117.838 162.417 118.264 162.683 118.615 163.05C118.975 163.417 119.248 163.894 119.436 164.479C119.623 165.058 119.717 165.765 119.717 166.601V174.909H117.537V166.577C117.537 165.913 117.439 165.382 117.244 164.983C117.049 164.577 116.764 164.284 116.389 164.104C116.014 163.917 115.553 163.823 115.006 163.823C114.467 163.823 113.975 163.937 113.529 164.163C113.092 164.39 112.713 164.702 112.393 165.101C112.08 165.499 111.834 165.956 111.654 166.472C111.482 166.979 111.396 167.519 111.396 168.089ZM128.271 175.144C127.389 175.144 126.588 174.995 125.869 174.698C125.158 174.394 124.545 173.968 124.029 173.421C123.521 172.874 123.131 172.226 122.857 171.476C122.584 170.726 122.447 169.905 122.447 169.015V168.522C122.447 167.491 122.6 166.573 122.904 165.769C123.209 164.956 123.623 164.269 124.146 163.706C124.67 163.144 125.264 162.718 125.928 162.429C126.592 162.14 127.279 161.995 127.99 161.995C128.896 161.995 129.678 162.151 130.334 162.464C130.998 162.776 131.541 163.214 131.963 163.776C132.385 164.331 132.697 164.987 132.9 165.745C133.104 166.495 133.205 167.315 133.205 168.206V169.179H123.736V167.409H131.037V167.245C131.006 166.683 130.889 166.136 130.686 165.604C130.49 165.073 130.178 164.636 129.748 164.292C129.318 163.948 128.732 163.776 127.99 163.776C127.498 163.776 127.045 163.882 126.631 164.093C126.217 164.296 125.861 164.601 125.564 165.007C125.268 165.413 125.037 165.909 124.873 166.495C124.709 167.081 124.627 167.757 124.627 168.522V169.015C124.627 169.616 124.709 170.183 124.873 170.714C125.045 171.237 125.291 171.698 125.611 172.097C125.939 172.495 126.334 172.808 126.795 173.034C127.264 173.261 127.795 173.374 128.389 173.374C129.154 173.374 129.803 173.218 130.334 172.905C130.865 172.593 131.33 172.175 131.729 171.651L133.041 172.694C132.768 173.108 132.42 173.503 131.998 173.878C131.576 174.253 131.057 174.558 130.439 174.792C129.83 175.026 129.107 175.144 128.271 175.144Z" fill="white"/>
</g>
<g opacity="0.8">
<rect width="101.818" height="33.4545" transform="translate(54.9092 185.091)" fill="#419BFF"/>
<path d="M81.3262 197.139V209.818H79.1465V197.139H81.3262ZM78.9824 193.775C78.9824 193.424 79.0879 193.127 79.2988 192.885C79.5176 192.643 79.8379 192.521 80.2598 192.521C80.6738 192.521 80.9902 192.643 81.209 192.885C81.4355 193.127 81.5488 193.424 81.5488 193.775C81.5488 194.111 81.4355 194.4 81.209 194.643C80.9902 194.877 80.6738 194.994 80.2598 194.994C79.8379 194.994 79.5176 194.877 79.2988 194.643C79.0879 194.4 78.9824 194.111 78.9824 193.775ZM86.9746 199.846V209.818H84.8066V197.139H86.8574L86.9746 199.846ZM86.459 202.998L85.5566 202.963C85.5645 202.096 85.6934 201.295 85.9434 200.561C86.1934 199.818 86.5449 199.174 86.998 198.627C87.4512 198.08 87.9902 197.658 88.6152 197.361C89.248 197.057 89.9473 196.904 90.7129 196.904C91.3379 196.904 91.9004 196.99 92.4004 197.162C92.9004 197.326 93.3262 197.592 93.6777 197.959C94.0371 198.326 94.3105 198.803 94.498 199.389C94.6855 199.967 94.7793 200.674 94.7793 201.51V209.818H92.5996V201.486C92.5996 200.822 92.502 200.291 92.3066 199.893C92.1113 199.486 91.8262 199.193 91.4512 199.014C91.0762 198.826 90.6152 198.732 90.0684 198.732C89.5293 198.732 89.0371 198.846 88.5918 199.072C88.1543 199.299 87.7754 199.611 87.4551 200.01C87.1426 200.408 86.8965 200.865 86.7168 201.381C86.5449 201.889 86.459 202.428 86.459 202.998ZM100.428 191.818V209.818H98.248V191.818H100.428ZM106.264 197.139V209.818H104.084V197.139H106.264ZM103.92 193.775C103.92 193.424 104.025 193.127 104.236 192.885C104.455 192.643 104.775 192.521 105.197 192.521C105.611 192.521 105.928 192.643 106.146 192.885C106.373 193.127 106.486 193.424 106.486 193.775C106.486 194.111 106.373 194.4 106.146 194.643C105.928 194.877 105.611 194.994 105.197 194.994C104.775 194.994 104.455 194.877 104.236 194.643C104.025 194.4 103.92 194.111 103.92 193.775ZM111.912 199.846V209.818H109.744V197.139H111.795L111.912 199.846ZM111.396 202.998L110.494 202.963C110.502 202.096 110.631 201.295 110.881 200.561C111.131 199.818 111.482 199.174 111.936 198.627C112.389 198.08 112.928 197.658 113.553 197.361C114.186 197.057 114.885 196.904 115.65 196.904C116.275 196.904 116.838 196.99 117.338 197.162C117.838 197.326 118.264 197.592 118.615 197.959C118.975 198.326 119.248 198.803 119.436 199.389C119.623 199.967 119.717 200.674 119.717 201.51V209.818H117.537V201.486C117.537 200.822 117.439 200.291 117.244 199.893C117.049 199.486 116.764 199.193 116.389 199.014C116.014 198.826 115.553 198.732 115.006 198.732C114.467 198.732 113.975 198.846 113.529 199.072C113.092 199.299 112.713 199.611 112.393 200.01C112.08 200.408 111.834 200.865 111.654 201.381C111.482 201.889 111.396 202.428 111.396 202.998ZM128.271 210.053C127.389 210.053 126.588 209.904 125.869 209.607C125.158 209.303 124.545 208.877 124.029 208.33C123.521 207.783 123.131 207.135 122.857 206.385C122.584 205.635 122.447 204.814 122.447 203.924V203.432C122.447 202.4 122.6 201.482 122.904 200.678C123.209 199.865 123.623 199.178 124.146 198.615C124.67 198.053 125.264 197.627 125.928 197.338C126.592 197.049 127.279 196.904 127.99 196.904C128.896 196.904 129.678 197.061 130.334 197.373C130.998 197.686 131.541 198.123 131.963 198.686C132.385 199.24 132.697 199.896 132.9 200.654C133.104 201.404 133.205 202.225 133.205 203.115V204.088H123.736V202.318H131.037V202.154C131.006 201.592 130.889 201.045 130.686 200.514C130.49 199.982 130.178 199.545 129.748 199.201C129.318 198.857 128.732 198.686 127.99 198.686C127.498 198.686 127.045 198.791 126.631 199.002C126.217 199.205 125.861 199.51 125.564 199.916C125.268 200.322 125.037 200.818 124.873 201.404C124.709 201.99 124.627 202.666 124.627 203.432V203.924C124.627 204.525 124.709 205.092 124.873 205.623C125.045 206.146 125.291 206.607 125.611 207.006C125.939 207.404 126.334 207.717 126.795 207.943C127.264 208.17 127.795 208.283 128.389 208.283C129.154 208.283 129.803 208.127 130.334 207.814C130.865 207.502 131.33 207.084 131.729 206.561L133.041 207.604C132.768 208.018 132.42 208.412 131.998 208.787C131.576 209.162 131.057 209.467 130.439 209.701C129.83 209.936 129.107 210.053 128.271 210.053Z" fill="white"/>
</g>
<g opacity="0.8">
<rect width="101.818" height="33.4545" transform="translate(270.182 150.182)" fill="#419BFF"/>
<path d="M296.599 162.229V174.909H294.419V162.229H296.599ZM294.255 158.866C294.255 158.515 294.361 158.218 294.572 157.976C294.79 157.733 295.111 157.612 295.532 157.612C295.947 157.612 296.263 157.733 296.482 157.976C296.708 158.218 296.822 158.515 296.822 158.866C296.822 159.202 296.708 159.491 296.482 159.733C296.263 159.968 295.947 160.085 295.532 160.085C295.111 160.085 294.79 159.968 294.572 159.733C294.361 159.491 294.255 159.202 294.255 158.866ZM302.247 164.937V174.909H300.079V162.229H302.13L302.247 164.937ZM301.732 168.089L300.829 168.054C300.837 167.187 300.966 166.386 301.216 165.651C301.466 164.909 301.818 164.265 302.271 163.718C302.724 163.171 303.263 162.749 303.888 162.452C304.521 162.147 305.22 161.995 305.986 161.995C306.611 161.995 307.173 162.081 307.673 162.253C308.173 162.417 308.599 162.683 308.95 163.05C309.31 163.417 309.583 163.894 309.771 164.479C309.958 165.058 310.052 165.765 310.052 166.601V174.909H307.872V166.577C307.872 165.913 307.775 165.382 307.579 164.983C307.384 164.577 307.099 164.284 306.724 164.104C306.349 163.917 305.888 163.823 305.341 163.823C304.802 163.823 304.31 163.937 303.865 164.163C303.427 164.39 303.048 164.702 302.728 165.101C302.415 165.499 302.169 165.956 301.99 166.472C301.818 166.979 301.732 167.519 301.732 168.089ZM315.7 156.909V174.909H313.521V156.909H315.7ZM321.536 162.229V174.909H319.357V162.229H321.536ZM319.193 158.866C319.193 158.515 319.298 158.218 319.509 157.976C319.728 157.733 320.048 157.612 320.47 157.612C320.884 157.612 321.2 157.733 321.419 157.976C321.646 158.218 321.759 158.515 321.759 158.866C321.759 159.202 321.646 159.491 321.419 159.733C321.2 159.968 320.884 160.085 320.47 160.085C320.048 160.085 319.728 159.968 319.509 159.733C319.298 159.491 319.193 159.202 319.193 158.866ZM327.185 164.937V174.909H325.017V162.229H327.068L327.185 164.937ZM326.669 168.089L325.767 168.054C325.775 167.187 325.904 166.386 326.154 165.651C326.404 164.909 326.755 164.265 327.208 163.718C327.661 163.171 328.2 162.749 328.825 162.452C329.458 162.147 330.157 161.995 330.923 161.995C331.548 161.995 332.111 162.081 332.611 162.253C333.111 162.417 333.536 162.683 333.888 163.05C334.247 163.417 334.521 163.894 334.708 164.479C334.896 165.058 334.99 165.765 334.99 166.601V174.909H332.81V166.577C332.81 165.913 332.712 165.382 332.517 164.983C332.322 164.577 332.036 164.284 331.661 164.104C331.286 163.917 330.825 163.823 330.279 163.823C329.74 163.823 329.247 163.937 328.802 164.163C328.365 164.39 327.986 164.702 327.665 165.101C327.353 165.499 327.107 165.956 326.927 166.472C326.755 166.979 326.669 167.519 326.669 168.089ZM343.544 175.144C342.661 175.144 341.861 174.995 341.142 174.698C340.431 174.394 339.818 173.968 339.302 173.421C338.794 172.874 338.404 172.226 338.13 171.476C337.857 170.726 337.72 169.905 337.72 169.015V168.522C337.72 167.491 337.872 166.573 338.177 165.769C338.482 164.956 338.896 164.269 339.419 163.706C339.943 163.144 340.536 162.718 341.2 162.429C341.865 162.14 342.552 161.995 343.263 161.995C344.169 161.995 344.95 162.151 345.607 162.464C346.271 162.776 346.814 163.214 347.236 163.776C347.657 164.331 347.97 164.987 348.173 165.745C348.376 166.495 348.478 167.315 348.478 168.206V169.179H339.009V167.409H346.31V167.245C346.279 166.683 346.161 166.136 345.958 165.604C345.763 165.073 345.45 164.636 345.021 164.292C344.591 163.948 344.005 163.776 343.263 163.776C342.771 163.776 342.318 163.882 341.904 164.093C341.49 164.296 341.134 164.601 340.837 165.007C340.54 165.413 340.31 165.909 340.146 166.495C339.982 167.081 339.9 167.757 339.9 168.522V169.015C339.9 169.616 339.982 170.183 340.146 170.714C340.318 171.237 340.564 171.698 340.884 172.097C341.212 172.495 341.607 172.808 342.068 173.034C342.536 173.261 343.068 173.374 343.661 173.374C344.427 173.374 345.075 173.218 345.607 172.905C346.138 172.593 346.603 172.175 347.001 171.651L348.314 172.694C348.04 173.108 347.693 173.503 347.271 173.878C346.849 174.253 346.329 174.558 345.712 174.792C345.103 175.026 344.38 175.144 343.544 175.144Z" fill="white"/>
</g>
<g opacity="0.8">
<rect width="101.818" height="33.4545" transform="translate(162.545 150.182)" fill="#419BFF"/>
<path d="M188.962 162.229V174.909H186.783V162.229H188.962ZM186.619 158.866C186.619 158.515 186.724 158.218 186.935 157.976C187.154 157.733 187.474 157.612 187.896 157.612C188.31 157.612 188.626 157.733 188.845 157.976C189.072 158.218 189.185 158.515 189.185 158.866C189.185 159.202 189.072 159.491 188.845 159.733C188.626 159.968 188.31 160.085 187.896 160.085C187.474 160.085 187.154 159.968 186.935 159.733C186.724 159.491 186.619 159.202 186.619 158.866ZM194.611 164.937V174.909H192.443V162.229H194.494L194.611 164.937ZM194.095 168.089L193.193 168.054C193.201 167.187 193.33 166.386 193.58 165.651C193.83 164.909 194.181 164.265 194.634 163.718C195.087 163.171 195.626 162.749 196.251 162.452C196.884 162.147 197.583 161.995 198.349 161.995C198.974 161.995 199.537 162.081 200.037 162.253C200.537 162.417 200.962 162.683 201.314 163.05C201.673 163.417 201.947 163.894 202.134 164.479C202.322 165.058 202.416 165.765 202.416 166.601V174.909H200.236V166.577C200.236 165.913 200.138 165.382 199.943 164.983C199.748 164.577 199.462 164.284 199.087 164.104C198.712 163.917 198.251 163.823 197.705 163.823C197.166 163.823 196.673 163.937 196.228 164.163C195.791 164.39 195.412 164.702 195.091 165.101C194.779 165.499 194.533 165.956 194.353 166.472C194.181 166.979 194.095 167.519 194.095 168.089ZM208.064 156.909V174.909H205.884V156.909H208.064ZM213.9 162.229V174.909H211.72V162.229H213.9ZM211.556 158.866C211.556 158.515 211.662 158.218 211.873 157.976C212.091 157.733 212.412 157.612 212.833 157.612C213.248 157.612 213.564 157.733 213.783 157.976C214.009 158.218 214.123 158.515 214.123 158.866C214.123 159.202 214.009 159.491 213.783 159.733C213.564 159.968 213.248 160.085 212.833 160.085C212.412 160.085 212.091 159.968 211.873 159.733C211.662 159.491 211.556 159.202 211.556 158.866ZM219.548 164.937V174.909H217.38V162.229H219.431L219.548 164.937ZM219.033 168.089L218.13 168.054C218.138 167.187 218.267 166.386 218.517 165.651C218.767 164.909 219.119 164.265 219.572 163.718C220.025 163.171 220.564 162.749 221.189 162.452C221.822 162.147 222.521 161.995 223.287 161.995C223.912 161.995 224.474 162.081 224.974 162.253C225.474 162.417 225.9 162.683 226.251 163.05C226.611 163.417 226.884 163.894 227.072 164.479C227.259 165.058 227.353 165.765 227.353 166.601V174.909H225.173V166.577C225.173 165.913 225.076 165.382 224.88 164.983C224.685 164.577 224.4 164.284 224.025 164.104C223.65 163.917 223.189 163.823 222.642 163.823C222.103 163.823 221.611 163.937 221.166 164.163C220.728 164.39 220.349 164.702 220.029 165.101C219.716 165.499 219.47 165.956 219.291 166.472C219.119 166.979 219.033 167.519 219.033 168.089ZM235.908 175.144C235.025 175.144 234.224 174.995 233.505 174.698C232.794 174.394 232.181 173.968 231.666 173.421C231.158 172.874 230.767 172.226 230.494 171.476C230.22 170.726 230.083 169.905 230.083 169.015V168.522C230.083 167.491 230.236 166.573 230.541 165.769C230.845 164.956 231.259 164.269 231.783 163.706C232.306 163.144 232.9 162.718 233.564 162.429C234.228 162.14 234.916 161.995 235.626 161.995C236.533 161.995 237.314 162.151 237.97 162.464C238.634 162.776 239.177 163.214 239.599 163.776C240.021 164.331 240.333 164.987 240.537 165.745C240.74 166.495 240.841 167.315 240.841 168.206V169.179H231.373V167.409H238.673V167.245C238.642 166.683 238.525 166.136 238.322 165.604C238.126 165.073 237.814 164.636 237.384 164.292C236.955 163.948 236.369 163.776 235.626 163.776C235.134 163.776 234.681 163.882 234.267 164.093C233.853 164.296 233.498 164.601 233.201 165.007C232.904 165.413 232.673 165.909 232.509 166.495C232.345 167.081 232.263 167.757 232.263 168.522V169.015C232.263 169.616 232.345 170.183 232.509 170.714C232.681 171.237 232.927 171.698 233.248 172.097C233.576 172.495 233.97 172.808 234.431 173.034C234.9 173.261 235.431 173.374 236.025 173.374C236.791 173.374 237.439 173.218 237.97 172.905C238.501 172.593 238.966 172.175 239.365 171.651L240.677 172.694C240.404 173.108 240.056 173.503 239.634 173.878C239.212 174.253 238.693 174.558 238.076 174.792C237.466 175.026 236.744 175.144 235.908 175.144Z" fill="white"/>
</g>
<g opacity="0.8">
<rect width="101.818" height="33.4545" transform="translate(162.545 185.091)" fill="#419BFF"/>
<path d="M188.962 197.139V209.818H186.783V197.139H188.962ZM186.619 193.775C186.619 193.424 186.724 193.127 186.935 192.885C187.154 192.643 187.474 192.521 187.896 192.521C188.31 192.521 188.626 192.643 188.845 192.885C189.072 193.127 189.185 193.424 189.185 193.775C189.185 194.111 189.072 194.4 188.845 194.643C188.626 194.877 188.31 194.994 187.896 194.994C187.474 194.994 187.154 194.877 186.935 194.643C186.724 194.4 186.619 194.111 186.619 193.775ZM194.611 199.846V209.818H192.443V197.139H194.494L194.611 199.846ZM194.095 202.998L193.193 202.963C193.201 202.096 193.33 201.295 193.58 200.561C193.83 199.818 194.181 199.174 194.634 198.627C195.087 198.08 195.626 197.658 196.251 197.361C196.884 197.057 197.583 196.904 198.349 196.904C198.974 196.904 199.537 196.99 200.037 197.162C200.537 197.326 200.962 197.592 201.314 197.959C201.673 198.326 201.947 198.803 202.134 199.389C202.322 199.967 202.416 200.674 202.416 201.51V209.818H200.236V201.486C200.236 200.822 200.138 200.291 199.943 199.893C199.748 199.486 199.462 199.193 199.087 199.014C198.712 198.826 198.251 198.732 197.705 198.732C197.166 198.732 196.673 198.846 196.228 199.072C195.791 199.299 195.412 199.611 195.091 200.01C194.779 200.408 194.533 200.865 194.353 201.381C194.181 201.889 194.095 202.428 194.095 202.998ZM208.064 191.818V209.818H205.884V191.818H208.064ZM213.9 197.139V209.818H211.72V197.139H213.9ZM211.556 193.775C211.556 193.424 211.662 193.127 211.873 192.885C212.091 192.643 212.412 192.521 212.833 192.521C213.248 192.521 213.564 192.643 213.783 192.885C214.009 193.127 214.123 193.424 214.123 193.775C214.123 194.111 214.009 194.4 213.783 194.643C213.564 194.877 213.248 194.994 212.833 194.994C212.412 194.994 212.091 194.877 211.873 194.643C211.662 194.4 211.556 194.111 211.556 193.775ZM219.548 199.846V209.818H217.38V197.139H219.431L219.548 199.846ZM219.033 202.998L218.13 202.963C218.138 202.096 218.267 201.295 218.517 200.561C218.767 199.818 219.119 199.174 219.572 198.627C220.025 198.08 220.564 197.658 221.189 197.361C221.822 197.057 222.521 196.904 223.287 196.904C223.912 196.904 224.474 196.99 224.974 197.162C225.474 197.326 225.9 197.592 226.251 197.959C226.611 198.326 226.884 198.803 227.072 199.389C227.259 199.967 227.353 200.674 227.353 201.51V209.818H225.173V201.486C225.173 200.822 225.076 200.291 224.88 199.893C224.685 199.486 224.4 199.193 224.025 199.014C223.65 198.826 223.189 198.732 222.642 198.732C222.103 198.732 221.611 198.846 221.166 199.072C220.728 199.299 220.349 199.611 220.029 200.01C219.716 200.408 219.47 200.865 219.291 201.381C219.119 201.889 219.033 202.428 219.033 202.998ZM235.908 210.053C235.025 210.053 234.224 209.904 233.505 209.607C232.794 209.303 232.181 208.877 231.666 208.33C231.158 207.783 230.767 207.135 230.494 206.385C230.22 205.635 230.083 204.814 230.083 203.924V203.432C230.083 202.4 230.236 201.482 230.541 200.678C230.845 199.865 231.259 199.178 231.783 198.615C232.306 198.053 232.9 197.627 233.564 197.338C234.228 197.049 234.916 196.904 235.626 196.904C236.533 196.904 237.314 197.061 237.97 197.373C238.634 197.686 239.177 198.123 239.599 198.686C240.021 199.24 240.333 199.896 240.537 200.654C240.74 201.404 240.841 202.225 240.841 203.115V204.088H231.373V202.318H238.673V202.154C238.642 201.592 238.525 201.045 238.322 200.514C238.126 199.982 237.814 199.545 237.384 199.201C236.955 198.857 236.369 198.686 235.626 198.686C235.134 198.686 234.681 198.791 234.267 199.002C233.853 199.205 233.498 199.51 233.201 199.916C232.904 200.322 232.673 200.818 232.509 201.404C232.345 201.99 232.263 202.666 232.263 203.432V203.924C232.263 204.525 232.345 205.092 232.509 205.623C232.681 206.146 232.927 206.607 233.248 207.006C233.576 207.404 233.97 207.717 234.431 207.943C234.9 208.17 235.431 208.283 236.025 208.283C236.791 208.283 237.439 208.127 237.97 207.814C238.501 207.502 238.966 207.084 239.365 206.561L240.677 207.604C240.404 208.018 240.056 208.412 239.634 208.787C239.212 209.162 238.693 209.467 238.076 209.701C237.466 209.936 236.744 210.053 235.908 210.053Z" fill="white"/>
</g>
<g opacity="0.8">
<rect width="322.909" height="61.0909" transform="translate(429 112.363)" fill="#419BFF"/>
<path d="M563.095 132.909H565.275V148.448L565.087 150.909H563.095V132.909ZM573.841 144.464V144.71C573.841 145.632 573.732 146.487 573.513 147.276C573.294 148.058 572.974 148.737 572.552 149.315C572.13 149.894 571.615 150.343 571.005 150.663C570.396 150.983 569.697 151.144 568.908 151.144C568.103 151.144 567.396 151.007 566.787 150.733C566.185 150.452 565.677 150.05 565.263 149.526C564.849 149.003 564.517 148.37 564.267 147.628C564.025 146.886 563.857 146.05 563.763 145.12V144.042C563.857 143.104 564.025 142.265 564.267 141.522C564.517 140.78 564.849 140.147 565.263 139.624C565.677 139.093 566.185 138.69 566.787 138.417C567.388 138.136 568.087 137.995 568.884 137.995C569.681 137.995 570.388 138.151 571.005 138.464C571.623 138.769 572.138 139.206 572.552 139.776C572.974 140.347 573.294 141.03 573.513 141.827C573.732 142.616 573.841 143.495 573.841 144.464ZM571.662 144.71V144.464C571.662 143.831 571.603 143.237 571.486 142.683C571.369 142.12 571.181 141.628 570.923 141.206C570.666 140.776 570.326 140.44 569.904 140.198C569.482 139.948 568.962 139.823 568.345 139.823C567.798 139.823 567.322 139.917 566.916 140.104C566.517 140.292 566.177 140.546 565.896 140.866C565.615 141.179 565.384 141.538 565.205 141.944C565.033 142.343 564.904 142.757 564.818 143.187V146.011C564.943 146.558 565.146 147.085 565.427 147.593C565.716 148.093 566.099 148.503 566.576 148.823C567.06 149.144 567.658 149.304 568.369 149.304C568.955 149.304 569.455 149.187 569.869 148.952C570.291 148.71 570.63 148.378 570.888 147.956C571.154 147.534 571.349 147.046 571.474 146.491C571.599 145.937 571.662 145.343 571.662 144.71ZM578.939 132.909V150.909H576.759V132.909H578.939ZM581.845 144.71V144.44C581.845 143.526 581.978 142.679 582.244 141.897C582.509 141.108 582.892 140.425 583.392 139.847C583.892 139.261 584.498 138.808 585.208 138.487C585.919 138.159 586.716 137.995 587.599 137.995C588.49 137.995 589.291 138.159 590.001 138.487C590.72 138.808 591.33 139.261 591.83 139.847C592.337 140.425 592.724 141.108 592.99 141.897C593.255 142.679 593.388 143.526 593.388 144.44V144.71C593.388 145.624 593.255 146.472 592.99 147.253C592.724 148.034 592.337 148.718 591.83 149.304C591.33 149.882 590.724 150.335 590.013 150.663C589.31 150.983 588.513 151.144 587.623 151.144C586.732 151.144 585.931 150.983 585.22 150.663C584.509 150.335 583.9 149.882 583.392 149.304C582.892 148.718 582.509 148.034 582.244 147.253C581.978 146.472 581.845 145.624 581.845 144.71ZM584.013 144.44V144.71C584.013 145.343 584.087 145.94 584.236 146.503C584.384 147.058 584.607 147.55 584.904 147.979C585.208 148.409 585.587 148.749 586.041 148.999C586.494 149.241 587.021 149.362 587.623 149.362C588.216 149.362 588.736 149.241 589.181 148.999C589.634 148.749 590.009 148.409 590.306 147.979C590.603 147.55 590.826 147.058 590.974 146.503C591.13 145.94 591.208 145.343 591.208 144.71V144.44C591.208 143.815 591.13 143.226 590.974 142.671C590.826 142.108 590.599 141.612 590.294 141.183C589.998 140.745 589.623 140.401 589.169 140.151C588.724 139.901 588.201 139.776 587.599 139.776C587.005 139.776 586.482 139.901 586.029 140.151C585.583 140.401 585.208 140.745 584.904 141.183C584.607 141.612 584.384 142.108 584.236 142.671C584.087 143.226 584.013 143.815 584.013 144.44ZM601.181 149.362C601.697 149.362 602.173 149.257 602.611 149.046C603.048 148.835 603.408 148.546 603.689 148.179C603.97 147.804 604.13 147.378 604.169 146.901H606.232C606.193 147.651 605.939 148.351 605.47 148.999C605.009 149.64 604.404 150.159 603.654 150.558C602.904 150.948 602.08 151.144 601.181 151.144C600.228 151.144 599.396 150.976 598.685 150.64C597.982 150.304 597.396 149.843 596.927 149.257C596.466 148.671 596.119 147.999 595.884 147.241C595.658 146.476 595.544 145.667 595.544 144.815V144.323C595.544 143.472 595.658 142.667 595.884 141.909C596.119 141.144 596.466 140.468 596.927 139.882C597.396 139.296 597.982 138.835 598.685 138.499C599.396 138.163 600.228 137.995 601.181 137.995C602.173 137.995 603.041 138.198 603.783 138.604C604.525 139.003 605.107 139.55 605.529 140.245C605.958 140.933 606.193 141.714 606.232 142.589H604.169C604.13 142.065 603.982 141.593 603.724 141.171C603.474 140.749 603.13 140.413 602.693 140.163C602.263 139.905 601.759 139.776 601.181 139.776C600.517 139.776 599.958 139.909 599.505 140.175C599.06 140.433 598.705 140.784 598.439 141.229C598.181 141.667 597.994 142.155 597.876 142.694C597.767 143.226 597.712 143.769 597.712 144.323V144.815C597.712 145.37 597.767 145.917 597.876 146.456C597.986 146.995 598.169 147.483 598.427 147.921C598.693 148.358 599.048 148.71 599.494 148.976C599.947 149.233 600.509 149.362 601.181 149.362ZM610.849 132.909V150.909H608.669V132.909H610.849ZM618.595 138.229L613.064 144.147L609.97 147.358L609.794 145.05L612.009 142.401L615.947 138.229H618.595ZM616.615 150.909L612.091 144.862L613.216 142.929L619.169 150.909H616.615Z" fill="white"/>
</g>
<g opacity="0.8">
<rect width="322.909" height="61.0909" transform="translate(428.727 177.818)" fill="#419BFF"/>
<path d="M562.822 198.364H565.002V213.903L564.814 216.364H562.822V198.364ZM573.568 209.919V210.165C573.568 211.087 573.459 211.942 573.24 212.731C573.021 213.513 572.701 214.192 572.279 214.771C571.857 215.349 571.342 215.798 570.732 216.118C570.123 216.438 569.424 216.599 568.635 216.599C567.83 216.599 567.123 216.462 566.514 216.188C565.912 215.907 565.404 215.505 564.99 214.981C564.576 214.458 564.244 213.825 563.994 213.083C563.752 212.341 563.584 211.505 563.49 210.575V209.497C563.584 208.56 563.752 207.72 563.994 206.978C564.244 206.235 564.576 205.603 564.99 205.079C565.404 204.548 565.912 204.146 566.514 203.872C567.115 203.591 567.814 203.45 568.611 203.45C569.408 203.45 570.115 203.606 570.732 203.919C571.35 204.224 571.865 204.661 572.279 205.231C572.701 205.802 573.021 206.485 573.24 207.282C573.459 208.071 573.568 208.95 573.568 209.919ZM571.389 210.165V209.919C571.389 209.286 571.33 208.692 571.213 208.138C571.096 207.575 570.908 207.083 570.65 206.661C570.393 206.231 570.053 205.896 569.631 205.653C569.209 205.403 568.689 205.278 568.072 205.278C567.525 205.278 567.049 205.372 566.643 205.56C566.244 205.747 565.904 206.001 565.623 206.321C565.342 206.634 565.111 206.993 564.932 207.399C564.76 207.798 564.631 208.212 564.545 208.642V211.466C564.67 212.013 564.873 212.54 565.154 213.048C565.443 213.548 565.826 213.958 566.303 214.278C566.787 214.599 567.385 214.759 568.096 214.759C568.682 214.759 569.182 214.642 569.596 214.407C570.018 214.165 570.357 213.833 570.615 213.411C570.881 212.989 571.076 212.501 571.201 211.946C571.326 211.392 571.389 210.798 571.389 210.165ZM578.666 198.364V216.364H576.486V198.364H578.666ZM581.572 210.165V209.896C581.572 208.981 581.705 208.134 581.971 207.353C582.236 206.563 582.619 205.88 583.119 205.302C583.619 204.716 584.225 204.263 584.936 203.942C585.646 203.614 586.443 203.45 587.326 203.45C588.217 203.45 589.018 203.614 589.729 203.942C590.447 204.263 591.057 204.716 591.557 205.302C592.064 205.88 592.451 206.563 592.717 207.353C592.982 208.134 593.115 208.981 593.115 209.896V210.165C593.115 211.079 592.982 211.927 592.717 212.708C592.451 213.489 592.064 214.173 591.557 214.759C591.057 215.337 590.451 215.79 589.74 216.118C589.037 216.438 588.24 216.599 587.35 216.599C586.459 216.599 585.658 216.438 584.947 216.118C584.236 215.79 583.627 215.337 583.119 214.759C582.619 214.173 582.236 213.489 581.971 212.708C581.705 211.927 581.572 211.079 581.572 210.165ZM583.74 209.896V210.165C583.74 210.798 583.814 211.396 583.963 211.958C584.111 212.513 584.334 213.005 584.631 213.435C584.936 213.864 585.314 214.204 585.768 214.454C586.221 214.696 586.748 214.817 587.35 214.817C587.943 214.817 588.463 214.696 588.908 214.454C589.361 214.204 589.736 213.864 590.033 213.435C590.33 213.005 590.553 212.513 590.701 211.958C590.857 211.396 590.936 210.798 590.936 210.165V209.896C590.936 209.271 590.857 208.681 590.701 208.126C590.553 207.563 590.326 207.067 590.021 206.638C589.725 206.2 589.35 205.856 588.896 205.606C588.451 205.356 587.928 205.231 587.326 205.231C586.732 205.231 586.209 205.356 585.756 205.606C585.311 205.856 584.936 206.2 584.631 206.638C584.334 207.067 584.111 207.563 583.963 208.126C583.814 208.681 583.74 209.271 583.74 209.896ZM600.908 214.817C601.424 214.817 601.9 214.712 602.338 214.501C602.775 214.29 603.135 214.001 603.416 213.634C603.697 213.259 603.857 212.833 603.896 212.356H605.959C605.92 213.106 605.666 213.806 605.197 214.454C604.736 215.095 604.131 215.614 603.381 216.013C602.631 216.403 601.807 216.599 600.908 216.599C599.955 216.599 599.123 216.431 598.412 216.095C597.709 215.759 597.123 215.298 596.654 214.712C596.193 214.126 595.846 213.454 595.611 212.696C595.385 211.931 595.271 211.122 595.271 210.271V209.778C595.271 208.927 595.385 208.122 595.611 207.364C595.846 206.599 596.193 205.923 596.654 205.337C597.123 204.751 597.709 204.29 598.412 203.954C599.123 203.618 599.955 203.45 600.908 203.45C601.9 203.45 602.768 203.653 603.51 204.06C604.252 204.458 604.834 205.005 605.256 205.7C605.686 206.388 605.92 207.169 605.959 208.044H603.896C603.857 207.521 603.709 207.048 603.451 206.626C603.201 206.204 602.857 205.868 602.42 205.618C601.99 205.36 601.486 205.231 600.908 205.231C600.244 205.231 599.686 205.364 599.232 205.63C598.787 205.888 598.432 206.239 598.166 206.685C597.908 207.122 597.721 207.61 597.604 208.149C597.494 208.681 597.439 209.224 597.439 209.778V210.271C597.439 210.825 597.494 211.372 597.604 211.911C597.713 212.45 597.896 212.938 598.154 213.376C598.42 213.813 598.775 214.165 599.221 214.431C599.674 214.688 600.236 214.817 600.908 214.817ZM610.576 198.364V216.364H608.396V198.364H610.576ZM618.322 203.685L612.791 209.603L609.697 212.813L609.521 210.505L611.736 207.856L615.674 203.685H618.322ZM616.342 216.364L611.818 210.317L612.943 208.384L618.896 216.364H616.342Z" fill="white"/>
</g>
<g opacity="0.8">
<rect width="322.909" height="61.0909" transform="translate(428.727 243.272)" fill="#419BFF"/>
<path d="M562.822 263.818H565.002V279.357L564.814 281.818H562.822V263.818ZM573.568 275.373V275.619C573.568 276.541 573.459 277.396 573.24 278.186C573.021 278.967 572.701 279.646 572.279 280.225C571.857 280.803 571.342 281.252 570.732 281.572C570.123 281.893 569.424 282.053 568.635 282.053C567.83 282.053 567.123 281.916 566.514 281.643C565.912 281.361 565.404 280.959 564.99 280.436C564.576 279.912 564.244 279.279 563.994 278.537C563.752 277.795 563.584 276.959 563.49 276.029V274.951C563.584 274.014 563.752 273.174 563.994 272.432C564.244 271.689 564.576 271.057 564.99 270.533C565.404 270.002 565.912 269.6 566.514 269.326C567.115 269.045 567.814 268.904 568.611 268.904C569.408 268.904 570.115 269.061 570.732 269.373C571.35 269.678 571.865 270.115 572.279 270.686C572.701 271.256 573.021 271.939 573.24 272.736C573.459 273.525 573.568 274.404 573.568 275.373ZM571.389 275.619V275.373C571.389 274.74 571.33 274.146 571.213 273.592C571.096 273.029 570.908 272.537 570.65 272.115C570.393 271.686 570.053 271.35 569.631 271.107C569.209 270.857 568.689 270.732 568.072 270.732C567.525 270.732 567.049 270.826 566.643 271.014C566.244 271.201 565.904 271.455 565.623 271.775C565.342 272.088 565.111 272.447 564.932 272.854C564.76 273.252 564.631 273.666 564.545 274.096V276.92C564.67 277.467 564.873 277.994 565.154 278.502C565.443 279.002 565.826 279.412 566.303 279.732C566.787 280.053 567.385 280.213 568.096 280.213C568.682 280.213 569.182 280.096 569.596 279.861C570.018 279.619 570.357 279.287 570.615 278.865C570.881 278.443 571.076 277.955 571.201 277.4C571.326 276.846 571.389 276.252 571.389 275.619ZM578.666 263.818V281.818H576.486V263.818H578.666ZM581.572 275.619V275.35C581.572 274.436 581.705 273.588 581.971 272.807C582.236 272.018 582.619 271.334 583.119 270.756C583.619 270.17 584.225 269.717 584.936 269.396C585.646 269.068 586.443 268.904 587.326 268.904C588.217 268.904 589.018 269.068 589.729 269.396C590.447 269.717 591.057 270.17 591.557 270.756C592.064 271.334 592.451 272.018 592.717 272.807C592.982 273.588 593.115 274.436 593.115 275.35V275.619C593.115 276.533 592.982 277.381 592.717 278.162C592.451 278.943 592.064 279.627 591.557 280.213C591.057 280.791 590.451 281.244 589.74 281.572C589.037 281.893 588.24 282.053 587.35 282.053C586.459 282.053 585.658 281.893 584.947 281.572C584.236 281.244 583.627 280.791 583.119 280.213C582.619 279.627 582.236 278.943 581.971 278.162C581.705 277.381 581.572 276.533 581.572 275.619ZM583.74 275.35V275.619C583.74 276.252 583.814 276.85 583.963 277.412C584.111 277.967 584.334 278.459 584.631 278.889C584.936 279.318 585.314 279.658 585.768 279.908C586.221 280.15 586.748 280.271 587.35 280.271C587.943 280.271 588.463 280.15 588.908 279.908C589.361 279.658 589.736 279.318 590.033 278.889C590.33 278.459 590.553 277.967 590.701 277.412C590.857 276.85 590.936 276.252 590.936 275.619V275.35C590.936 274.725 590.857 274.135 590.701 273.58C590.553 273.018 590.326 272.521 590.021 272.092C589.725 271.654 589.35 271.311 588.896 271.061C588.451 270.811 587.928 270.686 587.326 270.686C586.732 270.686 586.209 270.811 585.756 271.061C585.311 271.311 584.936 271.654 584.631 272.092C584.334 272.521 584.111 273.018 583.963 273.58C583.814 274.135 583.74 274.725 583.74 275.35ZM600.908 280.271C601.424 280.271 601.9 280.166 602.338 279.955C602.775 279.744 603.135 279.455 603.416 279.088C603.697 278.713 603.857 278.287 603.896 277.811H605.959C605.92 278.561 605.666 279.26 605.197 279.908C604.736 280.549 604.131 281.068 603.381 281.467C602.631 281.857 601.807 282.053 600.908 282.053C599.955 282.053 599.123 281.885 598.412 281.549C597.709 281.213 597.123 280.752 596.654 280.166C596.193 279.58 595.846 278.908 595.611 278.15C595.385 277.385 595.271 276.576 595.271 275.725V275.232C595.271 274.381 595.385 273.576 595.611 272.818C595.846 272.053 596.193 271.377 596.654 270.791C597.123 270.205 597.709 269.744 598.412 269.408C599.123 269.072 599.955 268.904 600.908 268.904C601.9 268.904 602.768 269.107 603.51 269.514C604.252 269.912 604.834 270.459 605.256 271.154C605.686 271.842 605.92 272.623 605.959 273.498H603.896C603.857 272.975 603.709 272.502 603.451 272.08C603.201 271.658 602.857 271.322 602.42 271.072C601.99 270.814 601.486 270.686 600.908 270.686C600.244 270.686 599.686 270.818 599.232 271.084C598.787 271.342 598.432 271.693 598.166 272.139C597.908 272.576 597.721 273.064 597.604 273.604C597.494 274.135 597.439 274.678 597.439 275.232V275.725C597.439 276.279 597.494 276.826 597.604 277.365C597.713 277.904 597.896 278.393 598.154 278.83C598.42 279.268 598.775 279.619 599.221 279.885C599.674 280.143 600.236 280.271 600.908 280.271ZM610.576 263.818V281.818H608.396V263.818H610.576ZM618.322 269.139L612.791 275.057L609.697 278.268L609.521 275.959L611.736 273.311L615.674 269.139H618.322ZM616.342 281.818L611.818 275.771L612.943 273.838L618.896 281.818H616.342Z" fill="white"/>
</g>
<path d="M72.3635 178.635L72.1751 177.147L72.3635 180.135V178.635ZM354.545 178.635L354.733 180.123L354.545 177.135V178.635ZM72.3635 214.182L72.1761 212.694L72.3635 215.682V214.182ZM287.242 215.243C287.828 214.657 287.828 213.707 287.242 213.121L277.696 203.575C277.111 202.99 276.161 202.99 275.575 203.575C274.989 204.161 274.989 205.111 275.575 205.697L284.06 214.182L275.575 222.667C274.989 223.253 274.989 224.203 275.575 224.789C276.161 225.374 277.111 225.374 277.696 224.789L287.242 215.243ZM354.545 142.909L354.734 144.397L354.545 141.409V142.909ZM72.3635 180.135H354.545V177.135H72.3635V180.135ZM354.358 177.147L72.1761 212.694L72.551 215.67L354.733 180.123L354.358 177.147ZM72.3635 215.682H286.182V212.682H72.3635V215.682ZM72.5519 180.123L354.734 144.397L354.357 141.421L72.1751 177.147L72.5519 180.123ZM354.545 141.409H72.3635V144.409H354.545V141.409Z" fill="#E99C9E" fill-opacity="0.8"/>
<path d="M470.596 306.132C471.572 307.108 473.155 307.108 474.132 306.132L490.041 290.222C491.018 289.245 491.018 287.663 490.041 286.686C489.065 285.71 487.482 285.71 486.506 286.686L472.364 300.828L458.222 286.686C457.245 285.71 455.662 285.71 454.686 286.686C453.71 287.663 453.71 289.245 454.686 290.222L470.596 306.132ZM469.864 116.728L469.864 304.364L474.864 304.364L474.864 116.728L469.864 116.728Z" fill="#E99C9E" fill-opacity="0.8"/>
</svg>
