<svg width="800" height="543" viewBox="0 0 800 543" fill="none" xmlns="http://www.w3.org/2000/svg">
<rect width="800" height="543" fill="white"/>
<path d="M447.5 282C447.5 293.564 446.104 304.013 443.86 311.556C442.736 315.33 441.408 318.348 439.957 320.412C438.495 322.489 436.982 323.5 435.5 323.5C434.018 323.5 432.505 322.489 431.043 320.412C429.592 318.348 428.264 315.33 427.14 311.556C424.896 304.013 423.5 293.564 423.5 282C423.5 270.436 424.896 259.987 427.14 252.444C428.264 248.67 429.592 245.652 431.043 243.588C432.505 241.511 434.018 240.5 435.5 240.5C436.982 240.5 438.495 241.511 439.957 243.588C441.408 245.652 442.736 248.67 443.86 252.444C446.104 259.987 447.5 270.436 447.5 282Z" fill="#FDEBEF" stroke="#BF3133"/>
<path d="M645.5 282C645.5 293.564 644.104 304.013 641.86 311.556C640.736 315.33 639.408 318.348 637.957 320.412C636.495 322.489 634.982 323.5 633.5 323.5C632.018 323.5 630.505 322.489 629.043 320.412C627.592 318.348 626.264 315.33 625.14 311.556C622.896 304.013 621.5 293.564 621.5 282C621.5 270.436 622.896 259.987 625.14 252.444C626.264 248.67 627.592 245.652 629.043 243.588C630.505 241.511 632.018 240.5 633.5 240.5C634.982 240.5 636.495 241.511 637.957 243.588C639.408 245.652 640.736 248.67 641.86 252.444C644.104 259.987 645.5 270.436 645.5 282Z" fill="#FDEBEF" stroke="#BF3133"/>
<path d="M156.352 156V216H145.102V156H156.352ZM154.75 193.383H151.664C151.69 190.44 152.081 187.732 152.836 185.258C153.591 182.758 154.672 180.596 156.078 178.773C157.484 176.924 159.164 175.492 161.117 174.477C163.096 173.461 165.284 172.953 167.68 172.953C169.763 172.953 171.651 173.253 173.344 173.852C175.062 174.424 176.534 175.362 177.758 176.664C179.008 177.94 179.971 179.62 180.648 181.703C181.326 183.786 181.664 186.312 181.664 189.281V216H170.336V189.203C170.336 187.328 170.062 185.857 169.516 184.789C168.995 183.695 168.227 182.927 167.211 182.484C166.221 182.016 164.997 181.781 163.539 181.781C161.924 181.781 160.544 182.081 159.398 182.68C158.279 183.279 157.38 184.112 156.703 185.18C156.026 186.221 155.531 187.445 155.219 188.852C154.906 190.258 154.75 191.768 154.75 193.383ZM217.172 159.008V216H205.922V171.977L192.406 176.273V167.406L215.961 159.008H217.172ZM274.555 153.617L276.742 159.711C274.372 160.57 272.758 162.094 271.898 164.281C271.039 166.443 270.609 168.943 270.609 171.781V179.75C270.609 182.38 270.023 184.763 268.852 186.898C267.706 189.034 265.883 190.74 263.383 192.016C260.883 193.266 257.615 193.891 253.578 193.891V187.953C256.052 187.953 257.823 187.211 258.891 185.727C259.984 184.242 260.531 182.25 260.531 179.75V171.781C260.531 169.047 260.948 166.495 261.781 164.125C262.641 161.729 264.086 159.633 266.117 157.836C268.174 156.013 270.987 154.607 274.555 153.617ZM276.742 224.008L274.555 230.141C270.987 229.125 268.174 227.706 266.117 225.883C264.086 224.086 262.641 221.99 261.781 219.594C260.948 217.224 260.531 214.672 260.531 211.938V203.969C260.531 202.302 260.284 200.857 259.789 199.633C259.32 198.409 258.578 197.471 257.562 196.82C256.547 196.143 255.219 195.805 253.578 195.805V189.828C257.615 189.828 260.883 190.466 263.383 191.742C265.883 192.992 267.706 194.685 268.852 196.82C270.023 198.956 270.609 201.339 270.609 203.969V211.938C270.609 213.839 270.792 215.596 271.156 217.211C271.547 218.826 272.172 220.219 273.031 221.391C273.917 222.562 275.154 223.435 276.742 224.008ZM262.445 295.992C263.826 295.992 265.049 295.732 266.117 295.211C267.185 294.664 268.018 293.909 268.617 292.945C269.242 291.956 269.568 290.797 269.594 289.469H280.18C280.154 292.438 279.359 295.081 277.797 297.398C276.234 299.69 274.138 301.5 271.508 302.828C268.878 304.13 265.935 304.781 262.68 304.781C259.398 304.781 256.534 304.234 254.086 303.141C251.664 302.047 249.646 300.536 248.031 298.609C246.417 296.656 245.206 294.391 244.398 291.812C243.591 289.208 243.188 286.422 243.188 283.453V282.32C243.188 279.326 243.591 276.539 244.398 273.961C245.206 271.357 246.417 269.091 248.031 267.164C249.646 265.211 251.664 263.688 254.086 262.594C256.508 261.5 259.346 260.953 262.602 260.953C266.065 260.953 269.099 261.617 271.703 262.945C274.333 264.273 276.391 266.174 277.875 268.648C279.385 271.096 280.154 274 280.18 277.359H269.594C269.568 275.953 269.268 274.677 268.695 273.531C268.148 272.385 267.341 271.474 266.273 270.797C265.232 270.094 263.943 269.742 262.406 269.742C260.766 269.742 259.424 270.094 258.383 270.797C257.341 271.474 256.534 272.411 255.961 273.609C255.388 274.781 254.984 276.122 254.75 277.633C254.542 279.117 254.438 280.68 254.438 282.32V283.453C254.438 285.094 254.542 286.669 254.75 288.18C254.958 289.69 255.349 291.031 255.922 292.203C256.521 293.375 257.341 294.299 258.383 294.977C259.424 295.654 260.779 295.992 262.445 295.992ZM284.906 283.297V282.477C284.906 279.378 285.349 276.526 286.234 273.922C287.12 271.292 288.409 269.013 290.102 267.086C291.794 265.159 293.878 263.661 296.352 262.594C298.826 261.5 301.664 260.953 304.867 260.953C308.07 260.953 310.922 261.5 313.422 262.594C315.922 263.661 318.018 265.159 319.711 267.086C321.43 269.013 322.732 271.292 323.617 273.922C324.503 276.526 324.945 279.378 324.945 282.477V283.297C324.945 286.37 324.503 289.221 323.617 291.852C322.732 294.456 321.43 296.734 319.711 298.688C318.018 300.615 315.935 302.112 313.461 303.18C310.987 304.247 308.148 304.781 304.945 304.781C301.742 304.781 298.891 304.247 296.391 303.18C293.917 302.112 291.82 300.615 290.102 298.688C288.409 296.734 287.12 294.456 286.234 291.852C285.349 289.221 284.906 286.37 284.906 283.297ZM296.156 282.477V283.297C296.156 285.068 296.312 286.721 296.625 288.258C296.938 289.794 297.432 291.148 298.109 292.32C298.812 293.466 299.724 294.365 300.844 295.016C301.964 295.667 303.331 295.992 304.945 295.992C306.508 295.992 307.849 295.667 308.969 295.016C310.089 294.365 310.987 293.466 311.664 292.32C312.341 291.148 312.836 289.794 313.148 288.258C313.487 286.721 313.656 285.068 313.656 283.297V282.477C313.656 280.758 313.487 279.143 313.148 277.633C312.836 276.096 312.328 274.742 311.625 273.57C310.948 272.372 310.049 271.435 308.93 270.758C307.81 270.081 306.456 269.742 304.867 269.742C303.279 269.742 301.924 270.081 300.805 270.758C299.711 271.435 298.812 272.372 298.109 273.57C297.432 274.742 296.938 276.096 296.625 277.633C296.312 279.143 296.156 280.758 296.156 282.477ZM343.734 244V304H332.445V244H343.734ZM351.234 283.297V282.477C351.234 279.378 351.677 276.526 352.562 273.922C353.448 271.292 354.737 269.013 356.43 267.086C358.122 265.159 360.206 263.661 362.68 262.594C365.154 261.5 367.992 260.953 371.195 260.953C374.398 260.953 377.25 261.5 379.75 262.594C382.25 263.661 384.346 265.159 386.039 267.086C387.758 269.013 389.06 271.292 389.945 273.922C390.831 276.526 391.273 279.378 391.273 282.477V283.297C391.273 286.37 390.831 289.221 389.945 291.852C389.06 294.456 387.758 296.734 386.039 298.688C384.346 300.615 382.263 302.112 379.789 303.18C377.315 304.247 374.477 304.781 371.273 304.781C368.07 304.781 365.219 304.247 362.719 303.18C360.245 302.112 358.148 300.615 356.43 298.688C354.737 296.734 353.448 294.456 352.562 291.852C351.677 289.221 351.234 286.37 351.234 283.297ZM362.484 282.477V283.297C362.484 285.068 362.641 286.721 362.953 288.258C363.266 289.794 363.76 291.148 364.438 292.32C365.141 293.466 366.052 294.365 367.172 295.016C368.292 295.667 369.659 295.992 371.273 295.992C372.836 295.992 374.177 295.667 375.297 295.016C376.417 294.365 377.315 293.466 377.992 292.32C378.669 291.148 379.164 289.794 379.477 288.258C379.815 286.721 379.984 285.068 379.984 283.297V282.477C379.984 280.758 379.815 279.143 379.477 277.633C379.164 276.096 378.656 274.742 377.953 273.57C377.276 272.372 376.378 271.435 375.258 270.758C374.138 270.081 372.784 269.742 371.195 269.742C369.607 269.742 368.253 270.081 367.133 270.758C366.039 271.435 365.141 272.372 364.438 273.57C363.76 274.742 363.266 276.096 362.953 277.633C362.641 279.143 362.484 280.758 362.484 282.477ZM409.438 270.953V304H398.188V261.734H408.773L409.438 270.953ZM422.172 261.461L421.977 271.891C421.43 271.812 420.766 271.747 419.984 271.695C419.229 271.617 418.539 271.578 417.914 271.578C416.326 271.578 414.945 271.786 413.773 272.203C412.628 272.594 411.664 273.18 410.883 273.961C410.128 274.742 409.555 275.693 409.164 276.812C408.799 277.932 408.591 279.208 408.539 280.641L406.273 279.938C406.273 277.203 406.547 274.69 407.094 272.398C407.641 270.081 408.435 268.062 409.477 266.344C410.544 264.625 411.846 263.297 413.383 262.359C414.919 261.422 416.677 260.953 418.656 260.953C419.281 260.953 419.919 261.005 420.57 261.109C421.221 261.188 421.755 261.305 422.172 261.461ZM427.914 298.57C427.914 296.904 428.487 295.51 429.633 294.391C430.805 293.271 432.354 292.711 434.281 292.711C436.208 292.711 437.745 293.271 438.891 294.391C440.062 295.51 440.648 296.904 440.648 298.57C440.648 300.237 440.062 301.63 438.891 302.75C437.745 303.87 436.208 304.43 434.281 304.43C432.354 304.43 430.805 303.87 429.633 302.75C428.487 301.63 427.914 300.237 427.914 298.57ZM427.914 266.344C427.914 264.677 428.487 263.284 429.633 262.164C430.805 261.044 432.354 260.484 434.281 260.484C436.208 260.484 437.745 261.044 438.891 262.164C440.062 263.284 440.648 264.677 440.648 266.344C440.648 268.01 440.062 269.404 438.891 270.523C437.745 271.643 436.208 272.203 434.281 272.203C432.354 272.203 430.805 271.643 429.633 270.523C428.487 269.404 427.914 268.01 427.914 266.344ZM469.984 244H481.234V294.312L480.102 304H469.984V244ZM507.992 282.438V283.258C507.992 286.409 507.654 289.299 506.977 291.93C506.326 294.56 505.31 296.839 503.93 298.766C502.549 300.667 500.831 302.151 498.773 303.219C496.742 304.26 494.346 304.781 491.586 304.781C489.008 304.781 486.768 304.26 484.867 303.219C482.992 302.177 481.417 300.706 480.141 298.805C478.865 296.904 477.836 294.677 477.055 292.125C476.273 289.573 475.688 286.786 475.297 283.766V281.969C475.688 278.948 476.273 276.161 477.055 273.609C477.836 271.057 478.865 268.831 480.141 266.93C481.417 265.029 482.992 263.557 484.867 262.516C486.742 261.474 488.956 260.953 491.508 260.953C494.294 260.953 496.716 261.487 498.773 262.555C500.857 263.596 502.576 265.081 503.93 267.008C505.31 268.909 506.326 271.174 506.977 273.805C507.654 276.409 507.992 279.286 507.992 282.438ZM496.742 283.258V282.438C496.742 280.719 496.612 279.104 496.352 277.594C496.117 276.057 495.701 274.716 495.102 273.57C494.503 272.398 493.682 271.474 492.641 270.797C491.625 270.12 490.31 269.781 488.695 269.781C487.159 269.781 485.857 270.042 484.789 270.562C483.721 271.083 482.836 271.812 482.133 272.75C481.456 273.688 480.948 274.807 480.609 276.109C480.271 277.385 480.062 278.792 479.984 280.328V285.445C480.062 287.503 480.401 289.326 481 290.914C481.625 292.477 482.562 293.714 483.812 294.625C485.089 295.51 486.742 295.953 488.773 295.953C490.362 295.953 491.677 295.641 492.719 295.016C493.76 294.391 494.568 293.505 495.141 292.359C495.74 291.214 496.156 289.872 496.391 288.336C496.625 286.773 496.742 285.081 496.742 283.258ZM526.859 244V304H515.57V244H526.859ZM561.156 293.883V261.734H572.406V304H561.82L561.156 293.883ZM562.406 285.211L565.727 285.133C565.727 287.945 565.401 290.562 564.75 292.984C564.099 295.38 563.122 297.464 561.82 299.234C560.518 300.979 558.878 302.346 556.898 303.336C554.919 304.299 552.589 304.781 549.906 304.781C547.849 304.781 545.948 304.495 544.203 303.922C542.484 303.323 541 302.398 539.75 301.148C538.526 299.872 537.562 298.245 536.859 296.266C536.182 294.26 535.844 291.852 535.844 289.039V261.734H547.094V289.117C547.094 290.367 547.237 291.422 547.523 292.281C547.836 293.141 548.266 293.844 548.812 294.391C549.359 294.938 549.997 295.328 550.727 295.562C551.482 295.797 552.315 295.914 553.227 295.914C555.544 295.914 557.367 295.445 558.695 294.508C560.049 293.57 561 292.294 561.547 290.68C562.12 289.039 562.406 287.216 562.406 285.211ZM600.453 304.781C597.172 304.781 594.229 304.26 591.625 303.219C589.021 302.151 586.807 300.68 584.984 298.805C583.188 296.93 581.807 294.755 580.844 292.281C579.88 289.781 579.398 287.125 579.398 284.312V282.75C579.398 279.547 579.854 276.617 580.766 273.961C581.677 271.305 582.979 269 584.672 267.047C586.391 265.094 588.474 263.596 590.922 262.555C593.37 261.487 596.13 260.953 599.203 260.953C602.198 260.953 604.854 261.448 607.172 262.438C609.49 263.427 611.43 264.833 612.992 266.656C614.581 268.479 615.779 270.667 616.586 273.219C617.393 275.745 617.797 278.557 617.797 281.656V286.344H584.203V278.844H606.742V277.984C606.742 276.422 606.456 275.029 605.883 273.805C605.336 272.555 604.503 271.565 603.383 270.836C602.263 270.107 600.831 269.742 599.086 269.742C597.602 269.742 596.326 270.068 595.258 270.719C594.19 271.37 593.318 272.281 592.641 273.453C591.99 274.625 591.495 276.005 591.156 277.594C590.844 279.156 590.688 280.875 590.688 282.75V284.312C590.688 286.005 590.922 287.568 591.391 289C591.885 290.432 592.576 291.669 593.461 292.711C594.372 293.753 595.466 294.56 596.742 295.133C598.044 295.706 599.516 295.992 601.156 295.992C603.188 295.992 605.076 295.602 606.82 294.82C608.591 294.013 610.115 292.802 611.391 291.188L616.859 297.125C615.974 298.401 614.763 299.625 613.227 300.797C611.716 301.969 609.893 302.932 607.758 303.688C605.622 304.417 603.188 304.781 600.453 304.781ZM624.047 266.344C624.047 264.677 624.62 263.284 625.766 262.164C626.938 261.044 628.487 260.484 630.414 260.484C632.341 260.484 633.878 261.044 635.023 262.164C636.195 263.284 636.781 264.677 636.781 266.344C636.781 268.01 636.195 269.404 635.023 270.523C633.878 271.643 632.341 272.203 630.414 272.203C628.487 272.203 626.938 271.643 625.766 270.523C624.62 269.404 624.047 268.01 624.047 266.344ZM635.688 294.508L635.648 302.047C635.648 304.938 634.919 307.854 633.461 310.797C632.029 313.74 630.206 316.148 627.992 318.023L622.133 315.016C622.784 313.818 623.422 312.62 624.047 311.422C624.672 310.224 625.193 308.909 625.609 307.477C626.026 306.044 626.234 304.417 626.234 302.594V294.508H635.688ZM142.328 335.711L144.516 329.617C148.109 330.607 150.922 332.013 152.953 333.836C154.984 335.633 156.417 337.729 157.25 340.125C158.109 342.495 158.539 345.047 158.539 347.781V355.75C158.539 357.417 158.773 358.862 159.242 360.086C159.711 361.31 160.453 362.26 161.469 362.938C162.51 363.615 163.852 363.953 165.492 363.953V369.734C161.456 369.734 158.188 369.122 155.688 367.898C153.188 366.674 151.352 365.008 150.18 362.898C149.008 360.763 148.422 358.38 148.422 355.75V347.781C148.422 345.88 148.24 344.122 147.875 342.508C147.536 340.893 146.924 339.5 146.039 338.328C145.154 337.156 143.917 336.284 142.328 335.711ZM144.516 406.141L142.328 400.008C143.917 399.435 145.154 398.562 146.039 397.391C146.924 396.219 147.536 394.826 147.875 393.211C148.24 391.596 148.422 389.839 148.422 387.938V379.969C148.422 377.339 149.008 374.969 150.18 372.859C151.352 370.75 153.188 369.083 155.688 367.859C158.188 366.609 161.456 365.984 165.492 365.984V371.805C163.044 371.805 161.273 372.547 160.18 374.031C159.086 375.516 158.539 377.495 158.539 379.969V387.938C158.539 390.672 158.109 393.224 157.25 395.594C156.417 397.99 154.984 400.086 152.953 401.883C150.922 403.706 148.109 405.125 144.516 406.141Z" fill="#4F4F4F"/>
<path d="M252 327V347H449V327" stroke="#3F7AEA" stroke-width="2"/>
<path d="M242 436V456H703V436" stroke="#3F7AEA" stroke-width="2"/>
<path d="M228 155L228 135L141 135L141 155" stroke="#3F7AEA" stroke-width="2"/>
<path d="M496.5 327V347H663.5V327" stroke="#3F7AEA" stroke-width="2"/>
<rect x="263" y="367" width="176" height="69" rx="10" fill="#418DFE"/>
<path d="M302.71 404.397H297.275V400.97H302.71C303.55 400.97 304.233 400.833 304.761 400.56C305.288 400.276 305.674 399.886 305.918 399.388C306.162 398.89 306.284 398.328 306.284 397.703C306.284 397.068 306.162 396.478 305.918 395.931C305.674 395.384 305.288 394.944 304.761 394.612C304.233 394.28 303.55 394.114 302.71 394.114H298.799V412H294.404V390.672H302.71C304.38 390.672 305.811 390.975 307.002 391.58C308.203 392.176 309.121 393.001 309.756 394.056C310.391 395.11 310.708 396.316 310.708 397.674C310.708 399.051 310.391 400.242 309.756 401.248C309.121 402.254 308.203 403.03 307.002 403.577C305.811 404.124 304.38 404.397 302.71 404.397ZM317.695 399.607V412H313.477V396.15H317.446L317.695 399.607ZM322.471 396.048L322.397 399.959C322.192 399.93 321.943 399.905 321.65 399.886C321.367 399.856 321.108 399.842 320.874 399.842C320.278 399.842 319.761 399.92 319.321 400.076C318.892 400.223 318.53 400.442 318.237 400.735C317.954 401.028 317.739 401.385 317.593 401.805C317.456 402.225 317.378 402.703 317.358 403.24L316.509 402.977C316.509 401.951 316.611 401.009 316.816 400.149C317.021 399.28 317.319 398.523 317.71 397.879C318.11 397.234 318.599 396.736 319.175 396.385C319.751 396.033 320.41 395.857 321.152 395.857C321.387 395.857 321.626 395.877 321.87 395.916C322.114 395.945 322.314 395.989 322.471 396.048ZM323.35 404.236V403.929C323.35 402.767 323.516 401.697 323.848 400.721C324.18 399.734 324.663 398.88 325.298 398.157C325.933 397.435 326.714 396.873 327.642 396.473C328.569 396.062 329.634 395.857 330.835 395.857C332.036 395.857 333.105 396.062 334.043 396.473C334.98 396.873 335.767 397.435 336.401 398.157C337.046 398.88 337.534 399.734 337.866 400.721C338.198 401.697 338.364 402.767 338.364 403.929V404.236C338.364 405.389 338.198 406.458 337.866 407.444C337.534 408.421 337.046 409.275 336.401 410.008C335.767 410.73 334.985 411.292 334.058 411.692C333.13 412.093 332.065 412.293 330.864 412.293C329.663 412.293 328.594 412.093 327.656 411.692C326.729 411.292 325.942 410.73 325.298 410.008C324.663 409.275 324.18 408.421 323.848 407.444C323.516 406.458 323.35 405.389 323.35 404.236ZM327.568 403.929V404.236C327.568 404.9 327.627 405.521 327.744 406.097C327.861 406.673 328.047 407.181 328.301 407.62C328.564 408.05 328.906 408.387 329.326 408.631C329.746 408.875 330.259 408.997 330.864 408.997C331.45 408.997 331.953 408.875 332.373 408.631C332.793 408.387 333.13 408.05 333.384 407.62C333.638 407.181 333.823 406.673 333.94 406.097C334.067 405.521 334.131 404.9 334.131 404.236V403.929C334.131 403.284 334.067 402.679 333.94 402.112C333.823 401.536 333.633 401.028 333.369 400.589C333.115 400.14 332.778 399.788 332.358 399.534C331.938 399.28 331.431 399.153 330.835 399.153C330.239 399.153 329.731 399.28 329.312 399.534C328.901 399.788 328.564 400.14 328.301 400.589C328.047 401.028 327.861 401.536 327.744 402.112C327.627 402.679 327.568 403.284 327.568 403.929ZM345.176 399.197V418.094H340.957V396.15H344.868L345.176 399.197ZM355.21 403.899V404.207C355.21 405.359 355.073 406.429 354.8 407.415C354.536 408.401 354.146 409.261 353.628 409.993C353.11 410.716 352.466 411.282 351.694 411.692C350.933 412.093 350.054 412.293 349.058 412.293C348.091 412.293 347.251 412.098 346.538 411.707C345.825 411.316 345.225 410.77 344.736 410.066C344.258 409.354 343.872 408.528 343.579 407.591C343.286 406.653 343.062 405.647 342.905 404.573V403.768C343.062 402.615 343.286 401.561 343.579 400.604C343.872 399.637 344.258 398.802 344.736 398.099C345.225 397.386 345.82 396.834 346.523 396.443C347.236 396.053 348.071 395.857 349.028 395.857C350.034 395.857 350.918 396.048 351.68 396.429C352.451 396.81 353.096 397.356 353.613 398.069C354.141 398.782 354.536 399.632 354.8 400.618C355.073 401.604 355.21 402.698 355.21 403.899ZM350.977 404.207V403.899C350.977 403.226 350.918 402.605 350.801 402.039C350.693 401.463 350.518 400.96 350.273 400.53C350.039 400.101 349.727 399.769 349.336 399.534C348.955 399.29 348.491 399.168 347.944 399.168C347.368 399.168 346.875 399.261 346.465 399.446C346.064 399.632 345.737 399.9 345.483 400.252C345.229 400.604 345.039 401.023 344.912 401.512C344.785 402 344.707 402.552 344.678 403.167V405.203C344.727 405.926 344.863 406.575 345.088 407.151C345.312 407.718 345.659 408.167 346.128 408.499C346.597 408.831 347.212 408.997 347.974 408.997C348.53 408.997 348.999 408.875 349.38 408.631C349.761 408.377 350.068 408.03 350.303 407.591C350.547 407.151 350.718 406.644 350.815 406.067C350.923 405.491 350.977 404.871 350.977 404.207ZM365.127 412.293C363.896 412.293 362.793 412.098 361.816 411.707C360.84 411.307 360.01 410.755 359.326 410.052C358.652 409.349 358.135 408.533 357.773 407.605C357.412 406.668 357.231 405.672 357.231 404.617V404.031C357.231 402.83 357.402 401.731 357.744 400.735C358.086 399.739 358.574 398.875 359.209 398.143C359.854 397.41 360.635 396.849 361.553 396.458C362.471 396.058 363.506 395.857 364.658 395.857C365.781 395.857 366.777 396.043 367.646 396.414C368.516 396.785 369.243 397.312 369.829 397.996C370.425 398.68 370.874 399.5 371.177 400.457C371.479 401.404 371.631 402.459 371.631 403.621V405.379H359.033V402.566H367.485V402.244C367.485 401.658 367.378 401.136 367.163 400.677C366.958 400.208 366.646 399.837 366.226 399.563C365.806 399.29 365.269 399.153 364.614 399.153C364.058 399.153 363.579 399.275 363.179 399.52C362.778 399.764 362.451 400.105 362.197 400.545C361.953 400.984 361.768 401.502 361.641 402.098C361.523 402.684 361.465 403.328 361.465 404.031V404.617C361.465 405.252 361.553 405.838 361.729 406.375C361.914 406.912 362.173 407.376 362.505 407.767C362.847 408.157 363.257 408.46 363.735 408.675C364.224 408.89 364.775 408.997 365.391 408.997C366.152 408.997 366.86 408.851 367.515 408.558C368.179 408.255 368.75 407.801 369.229 407.195L371.279 409.422C370.947 409.9 370.493 410.359 369.917 410.799C369.351 411.238 368.667 411.6 367.866 411.883C367.065 412.156 366.152 412.293 365.127 412.293ZM378.252 399.607V412H374.033V396.15H378.003L378.252 399.607ZM383.027 396.048L382.954 399.959C382.749 399.93 382.5 399.905 382.207 399.886C381.924 399.856 381.665 399.842 381.431 399.842C380.835 399.842 380.317 399.92 379.878 400.076C379.448 400.223 379.087 400.442 378.794 400.735C378.511 401.028 378.296 401.385 378.149 401.805C378.013 402.225 377.935 402.703 377.915 403.24L377.065 402.977C377.065 401.951 377.168 401.009 377.373 400.149C377.578 399.28 377.876 398.523 378.267 397.879C378.667 397.234 379.155 396.736 379.731 396.385C380.308 396.033 380.967 395.857 381.709 395.857C381.943 395.857 382.183 395.877 382.427 395.916C382.671 395.945 382.871 395.989 383.027 396.048ZM393.516 396.15V399.139H384.287V396.15H393.516ZM386.572 392.239H390.791V407.225C390.791 407.684 390.85 408.035 390.967 408.279C391.094 408.523 391.279 408.694 391.523 408.792C391.768 408.88 392.075 408.924 392.446 408.924C392.71 408.924 392.944 408.914 393.149 408.895C393.364 408.865 393.545 408.836 393.691 408.807L393.706 411.912C393.345 412.029 392.954 412.122 392.534 412.19C392.114 412.259 391.65 412.293 391.143 412.293C390.215 412.293 389.404 412.142 388.711 411.839C388.027 411.526 387.5 411.028 387.129 410.345C386.758 409.661 386.572 408.763 386.572 407.649V392.239ZM400.62 410.213L404.824 396.15H409.351L402.979 414.388C402.842 414.788 402.656 415.218 402.422 415.677C402.197 416.136 401.89 416.57 401.499 416.98C401.118 417.4 400.635 417.742 400.049 418.006C399.473 418.27 398.765 418.401 397.925 418.401C397.524 418.401 397.197 418.377 396.943 418.328C396.689 418.279 396.387 418.211 396.035 418.123V415.032C396.143 415.032 396.255 415.032 396.372 415.032C396.489 415.042 396.602 415.047 396.709 415.047C397.266 415.047 397.72 414.983 398.071 414.856C398.423 414.729 398.706 414.534 398.921 414.271C399.136 414.017 399.307 413.685 399.434 413.274L400.62 410.213ZM398.862 396.15L402.305 407.635L402.905 412.103L400.034 412.41L394.336 396.15H398.862Z" fill="white"/>
<rect x="97" y="40" width="176" height="69" rx="10" fill="#418DFE"/>
<path d="M141.508 79.4189C141.508 79.0381 141.449 78.6963 141.332 78.3936C141.225 78.0811 141.02 77.7979 140.717 77.5439C140.414 77.2803 139.989 77.0215 139.442 76.7676C138.896 76.5137 138.188 76.25 137.318 75.9766C136.352 75.6641 135.434 75.3125 134.564 74.9219C133.705 74.5312 132.943 74.0771 132.279 73.5596C131.625 73.0322 131.107 72.4219 130.727 71.7285C130.355 71.0352 130.17 70.2295 130.17 69.3115C130.17 68.4229 130.365 67.6172 130.756 66.8945C131.146 66.1621 131.693 65.5371 132.396 65.0195C133.1 64.4922 133.93 64.0869 134.887 63.8037C135.854 63.5205 136.913 63.3789 138.065 63.3789C139.638 63.3789 141.01 63.6621 142.182 64.2285C143.354 64.7949 144.262 65.5713 144.906 66.5576C145.561 67.5439 145.888 68.6719 145.888 69.9414H141.522C141.522 69.3164 141.391 68.7695 141.127 68.3008C140.873 67.8223 140.482 67.4463 139.955 67.1729C139.438 66.8994 138.783 66.7627 137.992 66.7627C137.23 66.7627 136.596 66.8799 136.088 67.1143C135.58 67.3389 135.199 67.6465 134.945 68.0371C134.691 68.418 134.564 68.8477 134.564 69.3262C134.564 69.6875 134.652 70.0146 134.828 70.3076C135.014 70.6006 135.287 70.874 135.648 71.1279C136.01 71.3818 136.454 71.6211 136.981 71.8457C137.509 72.0703 138.119 72.29 138.812 72.5049C139.975 72.8564 140.995 73.252 141.874 73.6914C142.763 74.1309 143.505 74.624 144.101 75.1709C144.696 75.7178 145.146 76.3379 145.448 77.0312C145.751 77.7246 145.902 78.5107 145.902 79.3896C145.902 80.3174 145.722 81.1475 145.36 81.8799C144.999 82.6123 144.477 83.2324 143.793 83.7402C143.109 84.248 142.294 84.6338 141.347 84.8975C140.399 85.1611 139.34 85.293 138.168 85.293C137.113 85.293 136.073 85.1562 135.048 84.8828C134.022 84.5996 133.09 84.1748 132.25 83.6084C131.42 83.042 130.756 82.3193 130.258 81.4404C129.76 80.5615 129.511 79.5215 129.511 78.3203H133.92C133.92 78.9844 134.022 79.5459 134.228 80.0049C134.433 80.4639 134.721 80.835 135.092 81.1182C135.473 81.4014 135.922 81.6064 136.439 81.7334C136.967 81.8604 137.543 81.9238 138.168 81.9238C138.93 81.9238 139.555 81.8164 140.043 81.6016C140.541 81.3867 140.907 81.0889 141.142 80.708C141.386 80.3271 141.508 79.8975 141.508 79.4189ZM155.922 85.293C154.691 85.293 153.588 85.0977 152.611 84.707C151.635 84.3066 150.805 83.7549 150.121 83.0518C149.447 82.3486 148.93 81.5332 148.568 80.6055C148.207 79.668 148.026 78.6719 148.026 77.6172V77.0312C148.026 75.8301 148.197 74.7314 148.539 73.7354C148.881 72.7393 149.369 71.875 150.004 71.1426C150.648 70.4102 151.43 69.8486 152.348 69.458C153.266 69.0576 154.301 68.8574 155.453 68.8574C156.576 68.8574 157.572 69.043 158.441 69.4141C159.311 69.7852 160.038 70.3125 160.624 70.9961C161.22 71.6797 161.669 72.5 161.972 73.457C162.274 74.4043 162.426 75.459 162.426 76.6211V78.3789H149.828V75.5664H158.28V75.2441C158.28 74.6582 158.173 74.1357 157.958 73.6768C157.753 73.208 157.44 72.8369 157.021 72.5635C156.601 72.29 156.063 72.1533 155.409 72.1533C154.853 72.1533 154.374 72.2754 153.974 72.5195C153.573 72.7637 153.246 73.1055 152.992 73.5449C152.748 73.9844 152.562 74.502 152.436 75.0977C152.318 75.6836 152.26 76.3281 152.26 77.0312V77.6172C152.26 78.252 152.348 78.8379 152.523 79.375C152.709 79.9121 152.968 80.376 153.3 80.7666C153.642 81.1572 154.052 81.46 154.53 81.6748C155.019 81.8896 155.57 81.9971 156.186 81.9971C156.947 81.9971 157.655 81.8506 158.31 81.5576C158.974 81.2549 159.545 80.8008 160.023 80.1953L162.074 82.4219C161.742 82.9004 161.288 83.3594 160.712 83.7988C160.146 84.2383 159.462 84.5996 158.661 84.8828C157.86 85.1562 156.947 85.293 155.922 85.293ZM169.281 62.5V85H165.048V62.5H169.281ZM180.062 85.293C178.832 85.293 177.729 85.0977 176.752 84.707C175.775 84.3066 174.945 83.7549 174.262 83.0518C173.588 82.3486 173.07 81.5332 172.709 80.6055C172.348 79.668 172.167 78.6719 172.167 77.6172V77.0312C172.167 75.8301 172.338 74.7314 172.68 73.7354C173.021 72.7393 173.51 71.875 174.145 71.1426C174.789 70.4102 175.57 69.8486 176.488 69.458C177.406 69.0576 178.441 68.8574 179.594 68.8574C180.717 68.8574 181.713 69.043 182.582 69.4141C183.451 69.7852 184.179 70.3125 184.765 70.9961C185.36 71.6797 185.81 72.5 186.112 73.457C186.415 74.4043 186.566 75.459 186.566 76.6211V78.3789H173.969V75.5664H182.421V75.2441C182.421 74.6582 182.313 74.1357 182.099 73.6768C181.894 73.208 181.581 72.8369 181.161 72.5635C180.741 72.29 180.204 72.1533 179.55 72.1533C178.993 72.1533 178.515 72.2754 178.114 72.5195C177.714 72.7637 177.387 73.1055 177.133 73.5449C176.889 73.9844 176.703 74.502 176.576 75.0977C176.459 75.6836 176.4 76.3281 176.4 77.0312V77.6172C176.4 78.252 176.488 78.8379 176.664 79.375C176.85 79.9121 177.108 80.376 177.44 80.7666C177.782 81.1572 178.192 81.46 178.671 81.6748C179.159 81.8896 179.711 81.9971 180.326 81.9971C181.088 81.9971 181.796 81.8506 182.45 81.5576C183.114 81.2549 183.686 80.8008 184.164 80.1953L186.215 82.4219C185.883 82.9004 185.429 83.3594 184.853 83.7988C184.286 84.2383 183.603 84.5996 182.802 84.8828C182.001 85.1562 181.088 85.293 180.062 85.293ZM195.517 81.9971C196.034 81.9971 196.493 81.8994 196.894 81.7041C197.294 81.499 197.606 81.2158 197.831 80.8545C198.065 80.4834 198.188 80.0488 198.197 79.5508H202.167C202.157 80.6641 201.859 81.6553 201.273 82.5244C200.688 83.3838 199.901 84.0625 198.915 84.5605C197.929 85.0488 196.825 85.293 195.604 85.293C194.374 85.293 193.3 85.0879 192.382 84.6777C191.474 84.2676 190.717 83.7012 190.111 82.9785C189.506 82.2461 189.052 81.3965 188.749 80.4297C188.446 79.4531 188.295 78.4082 188.295 77.2949V76.8701C188.295 75.7471 188.446 74.7021 188.749 73.7354C189.052 72.7588 189.506 71.9092 190.111 71.1865C190.717 70.4541 191.474 69.8828 192.382 69.4727C193.29 69.0625 194.354 68.8574 195.575 68.8574C196.874 68.8574 198.012 69.1064 198.988 69.6045C199.975 70.1025 200.746 70.8154 201.303 71.7432C201.869 72.6611 202.157 73.75 202.167 75.0098H198.197C198.188 74.4824 198.075 74.0039 197.86 73.5742C197.655 73.1445 197.353 72.8027 196.952 72.5488C196.562 72.2852 196.078 72.1533 195.502 72.1533C194.887 72.1533 194.384 72.2852 193.993 72.5488C193.603 72.8027 193.3 73.1543 193.085 73.6035C192.87 74.043 192.719 74.5459 192.631 75.1123C192.553 75.6689 192.514 76.2549 192.514 76.8701V77.2949C192.514 77.9102 192.553 78.501 192.631 79.0674C192.709 79.6338 192.855 80.1367 193.07 80.5762C193.295 81.0156 193.603 81.3623 193.993 81.6162C194.384 81.8701 194.892 81.9971 195.517 81.9971ZM212.377 69.1504V72.1387H203.148V69.1504H212.377ZM205.434 65.2393H209.652V80.2246C209.652 80.6836 209.711 81.0352 209.828 81.2793C209.955 81.5234 210.141 81.6943 210.385 81.792C210.629 81.8799 210.937 81.9238 211.308 81.9238C211.571 81.9238 211.806 81.9141 212.011 81.8945C212.226 81.8652 212.406 81.8359 212.553 81.8066L212.567 84.9121C212.206 85.0293 211.815 85.1221 211.396 85.1904C210.976 85.2588 210.512 85.293 210.004 85.293C209.076 85.293 208.266 85.1416 207.572 84.8389C206.889 84.5264 206.361 84.0283 205.99 83.3447C205.619 82.6611 205.434 81.7627 205.434 80.6494V65.2393ZM213.725 77.2363V76.9287C213.725 75.7666 213.891 74.6973 214.223 73.7207C214.555 72.7344 215.038 71.8799 215.673 71.1572C216.308 70.4346 217.089 69.873 218.017 69.4727C218.944 69.0625 220.009 68.8574 221.21 68.8574C222.411 68.8574 223.48 69.0625 224.418 69.4727C225.355 69.873 226.142 70.4346 226.776 71.1572C227.421 71.8799 227.909 72.7344 228.241 73.7207C228.573 74.6973 228.739 75.7666 228.739 76.9287V77.2363C228.739 78.3887 228.573 79.458 228.241 80.4443C227.909 81.4209 227.421 82.2754 226.776 83.0078C226.142 83.7305 225.36 84.292 224.433 84.6924C223.505 85.0928 222.44 85.293 221.239 85.293C220.038 85.293 218.969 85.0928 218.031 84.6924C217.104 84.292 216.317 83.7305 215.673 83.0078C215.038 82.2754 214.555 81.4209 214.223 80.4443C213.891 79.458 213.725 78.3887 213.725 77.2363ZM217.943 76.9287V77.2363C217.943 77.9004 218.002 78.5205 218.119 79.0967C218.236 79.6729 218.422 80.1807 218.676 80.6201C218.939 81.0498 219.281 81.3867 219.701 81.6309C220.121 81.875 220.634 81.9971 221.239 81.9971C221.825 81.9971 222.328 81.875 222.748 81.6309C223.168 81.3867 223.505 81.0498 223.759 80.6201C224.013 80.1807 224.198 79.6729 224.315 79.0967C224.442 78.5205 224.506 77.9004 224.506 77.2363V76.9287C224.506 76.2842 224.442 75.6787 224.315 75.1123C224.198 74.5361 224.008 74.0283 223.744 73.5889C223.49 73.1396 223.153 72.7881 222.733 72.5342C222.313 72.2803 221.806 72.1533 221.21 72.1533C220.614 72.1533 220.106 72.2803 219.687 72.5342C219.276 72.7881 218.939 73.1396 218.676 73.5889C218.422 74.0283 218.236 74.5361 218.119 75.1123C218.002 75.6787 217.943 76.2842 217.943 76.9287ZM235.551 72.6074V85H231.332V69.1504H235.302L235.551 72.6074ZM240.326 69.0479L240.253 72.959C240.048 72.9297 239.799 72.9053 239.506 72.8857C239.223 72.8564 238.964 72.8418 238.729 72.8418C238.134 72.8418 237.616 72.9199 237.177 73.0762C236.747 73.2227 236.386 73.4424 236.093 73.7354C235.81 74.0283 235.595 74.3848 235.448 74.8047C235.312 75.2246 235.233 75.7031 235.214 76.2402L234.364 75.9766C234.364 74.9512 234.467 74.0088 234.672 73.1494C234.877 72.2803 235.175 71.5234 235.565 70.8789C235.966 70.2344 236.454 69.7363 237.03 69.3848C237.606 69.0332 238.266 68.8574 239.008 68.8574C239.242 68.8574 239.481 68.877 239.726 68.916C239.97 68.9453 240.17 68.9893 240.326 69.0479Z" fill="white"/>
<rect x="465" y="367" width="217" height="69" rx="10" fill="#418DFE"/>
<path d="M485.21 404.397H479.775V400.97H485.21C486.05 400.97 486.733 400.833 487.261 400.56C487.788 400.276 488.174 399.886 488.418 399.388C488.662 398.89 488.784 398.328 488.784 397.703C488.784 397.068 488.662 396.478 488.418 395.931C488.174 395.384 487.788 394.944 487.261 394.612C486.733 394.28 486.05 394.114 485.21 394.114H481.299V412H476.904V390.672H485.21C486.88 390.672 488.311 390.975 489.502 391.58C490.703 392.176 491.621 393.001 492.256 394.056C492.891 395.11 493.208 396.316 493.208 397.674C493.208 399.051 492.891 400.242 492.256 401.248C491.621 402.254 490.703 403.03 489.502 403.577C488.311 404.124 486.88 404.397 485.21 404.397ZM500.195 399.607V412H495.977V396.15H499.946L500.195 399.607ZM504.971 396.048L504.897 399.959C504.692 399.93 504.443 399.905 504.15 399.886C503.867 399.856 503.608 399.842 503.374 399.842C502.778 399.842 502.261 399.92 501.821 400.076C501.392 400.223 501.03 400.442 500.737 400.735C500.454 401.028 500.239 401.385 500.093 401.805C499.956 402.225 499.878 402.703 499.858 403.24L499.009 402.977C499.009 401.951 499.111 401.009 499.316 400.149C499.521 399.28 499.819 398.523 500.21 397.879C500.61 397.234 501.099 396.736 501.675 396.385C502.251 396.033 502.91 395.857 503.652 395.857C503.887 395.857 504.126 395.877 504.37 395.916C504.614 395.945 504.814 395.989 504.971 396.048ZM505.85 404.236V403.929C505.85 402.767 506.016 401.697 506.348 400.721C506.68 399.734 507.163 398.88 507.798 398.157C508.433 397.435 509.214 396.873 510.142 396.473C511.069 396.062 512.134 395.857 513.335 395.857C514.536 395.857 515.605 396.062 516.543 396.473C517.48 396.873 518.267 397.435 518.901 398.157C519.546 398.88 520.034 399.734 520.366 400.721C520.698 401.697 520.864 402.767 520.864 403.929V404.236C520.864 405.389 520.698 406.458 520.366 407.444C520.034 408.421 519.546 409.275 518.901 410.008C518.267 410.73 517.485 411.292 516.558 411.692C515.63 412.093 514.565 412.293 513.364 412.293C512.163 412.293 511.094 412.093 510.156 411.692C509.229 411.292 508.442 410.73 507.798 410.008C507.163 409.275 506.68 408.421 506.348 407.444C506.016 406.458 505.85 405.389 505.85 404.236ZM510.068 403.929V404.236C510.068 404.9 510.127 405.521 510.244 406.097C510.361 406.673 510.547 407.181 510.801 407.62C511.064 408.05 511.406 408.387 511.826 408.631C512.246 408.875 512.759 408.997 513.364 408.997C513.95 408.997 514.453 408.875 514.873 408.631C515.293 408.387 515.63 408.05 515.884 407.62C516.138 407.181 516.323 406.673 516.44 406.097C516.567 405.521 516.631 404.9 516.631 404.236V403.929C516.631 403.284 516.567 402.679 516.44 402.112C516.323 401.536 516.133 401.028 515.869 400.589C515.615 400.14 515.278 399.788 514.858 399.534C514.438 399.28 513.931 399.153 513.335 399.153C512.739 399.153 512.231 399.28 511.812 399.534C511.401 399.788 511.064 400.14 510.801 400.589C510.547 401.028 510.361 401.536 510.244 402.112C510.127 402.679 510.068 403.284 510.068 403.929ZM527.676 399.197V418.094H523.457V396.15H527.368L527.676 399.197ZM537.71 403.899V404.207C537.71 405.359 537.573 406.429 537.3 407.415C537.036 408.401 536.646 409.261 536.128 409.993C535.61 410.716 534.966 411.282 534.194 411.692C533.433 412.093 532.554 412.293 531.558 412.293C530.591 412.293 529.751 412.098 529.038 411.707C528.325 411.316 527.725 410.77 527.236 410.066C526.758 409.354 526.372 408.528 526.079 407.591C525.786 406.653 525.562 405.647 525.405 404.573V403.768C525.562 402.615 525.786 401.561 526.079 400.604C526.372 399.637 526.758 398.802 527.236 398.099C527.725 397.386 528.32 396.834 529.023 396.443C529.736 396.053 530.571 395.857 531.528 395.857C532.534 395.857 533.418 396.048 534.18 396.429C534.951 396.81 535.596 397.356 536.113 398.069C536.641 398.782 537.036 399.632 537.3 400.618C537.573 401.604 537.71 402.698 537.71 403.899ZM533.477 404.207V403.899C533.477 403.226 533.418 402.605 533.301 402.039C533.193 401.463 533.018 400.96 532.773 400.53C532.539 400.101 532.227 399.769 531.836 399.534C531.455 399.29 530.991 399.168 530.444 399.168C529.868 399.168 529.375 399.261 528.965 399.446C528.564 399.632 528.237 399.9 527.983 400.252C527.729 400.604 527.539 401.023 527.412 401.512C527.285 402 527.207 402.552 527.178 403.167V405.203C527.227 405.926 527.363 406.575 527.588 407.151C527.812 407.718 528.159 408.167 528.628 408.499C529.097 408.831 529.712 408.997 530.474 408.997C531.03 408.997 531.499 408.875 531.88 408.631C532.261 408.377 532.568 408.03 532.803 407.591C533.047 407.151 533.218 406.644 533.315 406.067C533.423 405.491 533.477 404.871 533.477 404.207ZM547.627 412.293C546.396 412.293 545.293 412.098 544.316 411.707C543.34 411.307 542.51 410.755 541.826 410.052C541.152 409.349 540.635 408.533 540.273 407.605C539.912 406.668 539.731 405.672 539.731 404.617V404.031C539.731 402.83 539.902 401.731 540.244 400.735C540.586 399.739 541.074 398.875 541.709 398.143C542.354 397.41 543.135 396.849 544.053 396.458C544.971 396.058 546.006 395.857 547.158 395.857C548.281 395.857 549.277 396.043 550.146 396.414C551.016 396.785 551.743 397.312 552.329 397.996C552.925 398.68 553.374 399.5 553.677 400.457C553.979 401.404 554.131 402.459 554.131 403.621V405.379H541.533V402.566H549.985V402.244C549.985 401.658 549.878 401.136 549.663 400.677C549.458 400.208 549.146 399.837 548.726 399.563C548.306 399.29 547.769 399.153 547.114 399.153C546.558 399.153 546.079 399.275 545.679 399.52C545.278 399.764 544.951 400.105 544.697 400.545C544.453 400.984 544.268 401.502 544.141 402.098C544.023 402.684 543.965 403.328 543.965 404.031V404.617C543.965 405.252 544.053 405.838 544.229 406.375C544.414 406.912 544.673 407.376 545.005 407.767C545.347 408.157 545.757 408.46 546.235 408.675C546.724 408.89 547.275 408.997 547.891 408.997C548.652 408.997 549.36 408.851 550.015 408.558C550.679 408.255 551.25 407.801 551.729 407.195L553.779 409.422C553.447 409.9 552.993 410.359 552.417 410.799C551.851 411.238 551.167 411.6 550.366 411.883C549.565 412.156 548.652 412.293 547.627 412.293ZM560.752 399.607V412H556.533V396.15H560.503L560.752 399.607ZM565.527 396.048L565.454 399.959C565.249 399.93 565 399.905 564.707 399.886C564.424 399.856 564.165 399.842 563.931 399.842C563.335 399.842 562.817 399.92 562.378 400.076C561.948 400.223 561.587 400.442 561.294 400.735C561.011 401.028 560.796 401.385 560.649 401.805C560.513 402.225 560.435 402.703 560.415 403.24L559.565 402.977C559.565 401.951 559.668 401.009 559.873 400.149C560.078 399.28 560.376 398.523 560.767 397.879C561.167 397.234 561.655 396.736 562.231 396.385C562.808 396.033 563.467 395.857 564.209 395.857C564.443 395.857 564.683 395.877 564.927 395.916C565.171 395.945 565.371 395.989 565.527 396.048ZM576.016 396.15V399.139H566.787V396.15H576.016ZM569.072 392.239H573.291V407.225C573.291 407.684 573.35 408.035 573.467 408.279C573.594 408.523 573.779 408.694 574.023 408.792C574.268 408.88 574.575 408.924 574.946 408.924C575.21 408.924 575.444 408.914 575.649 408.895C575.864 408.865 576.045 408.836 576.191 408.807L576.206 411.912C575.845 412.029 575.454 412.122 575.034 412.19C574.614 412.259 574.15 412.293 573.643 412.293C572.715 412.293 571.904 412.142 571.211 411.839C570.527 411.526 570 411.028 569.629 410.345C569.258 409.661 569.072 408.763 569.072 407.649V392.239ZM583.12 410.213L587.324 396.15H591.851L585.479 414.388C585.342 414.788 585.156 415.218 584.922 415.677C584.697 416.136 584.39 416.57 583.999 416.98C583.618 417.4 583.135 417.742 582.549 418.006C581.973 418.27 581.265 418.401 580.425 418.401C580.024 418.401 579.697 418.377 579.443 418.328C579.189 418.279 578.887 418.211 578.535 418.123V415.032C578.643 415.032 578.755 415.032 578.872 415.032C578.989 415.042 579.102 415.047 579.209 415.047C579.766 415.047 580.22 414.983 580.571 414.856C580.923 414.729 581.206 414.534 581.421 414.271C581.636 414.017 581.807 413.685 581.934 413.274L583.12 410.213ZM581.362 396.15L584.805 407.635L585.405 412.103L582.534 412.41L576.836 396.15H581.362ZM606.396 408.924L609.912 396.15H614.321L608.975 412H606.309L606.396 408.924ZM603.979 396.15L607.51 408.938L607.583 412H604.902L599.556 396.15H603.979ZM624.531 408.426V401.365C624.531 400.857 624.448 400.423 624.282 400.062C624.116 399.69 623.857 399.402 623.506 399.197C623.164 398.992 622.72 398.89 622.173 398.89C621.704 398.89 621.299 398.973 620.957 399.139C620.615 399.295 620.352 399.524 620.166 399.827C619.98 400.12 619.888 400.467 619.888 400.867H615.669C615.669 400.193 615.825 399.554 616.138 398.948C616.45 398.343 616.904 397.811 617.5 397.352C618.096 396.883 618.804 396.517 619.624 396.253C620.454 395.989 621.382 395.857 622.407 395.857C623.638 395.857 624.731 396.062 625.688 396.473C626.646 396.883 627.397 397.498 627.944 398.318C628.501 399.139 628.779 400.164 628.779 401.395V408.177C628.779 409.046 628.833 409.759 628.94 410.315C629.048 410.862 629.204 411.341 629.409 411.751V412H625.146C624.941 411.57 624.785 411.033 624.678 410.389C624.58 409.734 624.531 409.08 624.531 408.426ZM625.088 402.347L625.117 404.734H622.759C622.202 404.734 621.719 404.798 621.309 404.925C620.898 405.052 620.562 405.232 620.298 405.467C620.034 405.691 619.839 405.955 619.712 406.258C619.595 406.561 619.536 406.893 619.536 407.254C619.536 407.615 619.619 407.942 619.785 408.235C619.951 408.519 620.19 408.743 620.503 408.909C620.815 409.065 621.182 409.144 621.602 409.144C622.236 409.144 622.788 409.017 623.257 408.763C623.726 408.509 624.087 408.196 624.341 407.825C624.604 407.454 624.741 407.103 624.751 406.771L625.864 408.558C625.708 408.958 625.493 409.373 625.22 409.803C624.956 410.232 624.619 410.638 624.209 411.019C623.799 411.39 623.306 411.697 622.729 411.941C622.153 412.176 621.47 412.293 620.679 412.293C619.673 412.293 618.76 412.093 617.939 411.692C617.129 411.282 616.484 410.721 616.006 410.008C615.537 409.285 615.303 408.465 615.303 407.547C615.303 406.717 615.459 405.979 615.771 405.335C616.084 404.69 616.543 404.148 617.148 403.709C617.764 403.26 618.53 402.923 619.448 402.698C620.366 402.464 621.431 402.347 622.642 402.347H625.088ZM636.484 389.5V412H632.251V389.5H636.484ZM649.346 408.206V396.15H653.564V412H649.595L649.346 408.206ZM649.814 404.954L651.06 404.925C651.06 405.979 650.938 406.961 650.693 407.869C650.449 408.768 650.083 409.549 649.595 410.213C649.106 410.867 648.491 411.38 647.749 411.751C647.007 412.112 646.133 412.293 645.127 412.293C644.355 412.293 643.643 412.186 642.988 411.971C642.344 411.746 641.787 411.399 641.318 410.931C640.859 410.452 640.498 409.842 640.234 409.1C639.98 408.348 639.854 407.444 639.854 406.39V396.15H644.072V406.419C644.072 406.888 644.126 407.283 644.233 407.605C644.351 407.928 644.512 408.191 644.717 408.396C644.922 408.602 645.161 408.748 645.435 408.836C645.718 408.924 646.03 408.968 646.372 408.968C647.241 408.968 647.925 408.792 648.423 408.44C648.931 408.089 649.287 407.61 649.492 407.005C649.707 406.39 649.814 405.706 649.814 404.954ZM664.082 412.293C662.852 412.293 661.748 412.098 660.771 411.707C659.795 411.307 658.965 410.755 658.281 410.052C657.607 409.349 657.09 408.533 656.729 407.605C656.367 406.668 656.187 405.672 656.187 404.617V404.031C656.187 402.83 656.357 401.731 656.699 400.735C657.041 399.739 657.529 398.875 658.164 398.143C658.809 397.41 659.59 396.849 660.508 396.458C661.426 396.058 662.461 395.857 663.613 395.857C664.736 395.857 665.732 396.043 666.602 396.414C667.471 396.785 668.198 397.312 668.784 397.996C669.38 398.68 669.829 399.5 670.132 400.457C670.435 401.404 670.586 402.459 670.586 403.621V405.379H657.988V402.566H666.44V402.244C666.44 401.658 666.333 401.136 666.118 400.677C665.913 400.208 665.601 399.837 665.181 399.563C664.761 399.29 664.224 399.153 663.569 399.153C663.013 399.153 662.534 399.275 662.134 399.52C661.733 399.764 661.406 400.105 661.152 400.545C660.908 400.984 660.723 401.502 660.596 402.098C660.479 402.684 660.42 403.328 660.42 404.031V404.617C660.42 405.252 660.508 405.838 660.684 406.375C660.869 406.912 661.128 407.376 661.46 407.767C661.802 408.157 662.212 408.46 662.69 408.675C663.179 408.89 663.73 408.997 664.346 408.997C665.107 408.997 665.815 408.851 666.47 408.558C667.134 408.255 667.705 407.801 668.184 407.195L670.234 409.422C669.902 409.9 669.448 410.359 668.872 410.799C668.306 411.238 667.622 411.6 666.821 411.883C666.021 412.156 665.107 412.293 664.082 412.293Z" fill="white"/>
<line x1="184" y1="135" x2="184" y2="109" stroke="#3F7AEA" stroke-width="2"/>
<line x1="352" y1="347" x2="352" y2="367" stroke="#3F7AEA" stroke-width="2"/>
<line x1="581" y1="347" x2="581" y2="367" stroke="#3F7AEA" stroke-width="2"/>
<path d="M391.452 488H386.809L386.838 484.572H391.452C392.604 484.572 393.576 484.313 394.367 483.796C395.158 483.269 395.754 482.502 396.154 481.496C396.564 480.49 396.77 479.274 396.77 477.849V476.809C396.77 475.715 396.652 474.753 396.418 473.923C396.193 473.093 395.856 472.395 395.407 471.828C394.958 471.262 394.406 470.837 393.752 470.554C393.098 470.261 392.346 470.114 391.496 470.114H386.721V466.672H391.496C392.922 466.672 394.226 466.916 395.407 467.404C396.599 467.883 397.629 468.571 398.498 469.47C399.367 470.368 400.036 471.442 400.505 472.692C400.983 473.933 401.223 475.314 401.223 476.838V477.849C401.223 479.362 400.983 480.744 400.505 481.994C400.036 483.244 399.367 484.318 398.498 485.217C397.639 486.105 396.608 486.794 395.407 487.282C394.216 487.761 392.897 488 391.452 488ZM389.299 466.672V488H384.904V466.672H389.299ZM411.447 488.293C410.217 488.293 409.113 488.098 408.137 487.707C407.16 487.307 406.33 486.755 405.646 486.052C404.973 485.349 404.455 484.533 404.094 483.605C403.732 482.668 403.552 481.672 403.552 480.617V480.031C403.552 478.83 403.723 477.731 404.064 476.735C404.406 475.739 404.895 474.875 405.529 474.143C406.174 473.41 406.955 472.849 407.873 472.458C408.791 472.058 409.826 471.857 410.979 471.857C412.102 471.857 413.098 472.043 413.967 472.414C414.836 472.785 415.563 473.312 416.149 473.996C416.745 474.68 417.194 475.5 417.497 476.457C417.8 477.404 417.951 478.459 417.951 479.621V481.379H405.354V478.566H413.806V478.244C413.806 477.658 413.698 477.136 413.483 476.677C413.278 476.208 412.966 475.837 412.546 475.563C412.126 475.29 411.589 475.153 410.935 475.153C410.378 475.153 409.899 475.275 409.499 475.52C409.099 475.764 408.771 476.105 408.518 476.545C408.273 476.984 408.088 477.502 407.961 478.098C407.844 478.684 407.785 479.328 407.785 480.031V480.617C407.785 481.252 407.873 481.838 408.049 482.375C408.234 482.912 408.493 483.376 408.825 483.767C409.167 484.157 409.577 484.46 410.056 484.675C410.544 484.89 411.096 484.997 411.711 484.997C412.473 484.997 413.181 484.851 413.835 484.558C414.499 484.255 415.07 483.801 415.549 483.195L417.6 485.422C417.268 485.9 416.813 486.359 416.237 486.799C415.671 487.238 414.987 487.6 414.187 487.883C413.386 488.156 412.473 488.293 411.447 488.293ZM426.901 484.997C427.419 484.997 427.878 484.899 428.278 484.704C428.679 484.499 428.991 484.216 429.216 483.854C429.45 483.483 429.572 483.049 429.582 482.551H433.552C433.542 483.664 433.244 484.655 432.658 485.524C432.072 486.384 431.286 487.062 430.3 487.561C429.313 488.049 428.21 488.293 426.989 488.293C425.759 488.293 424.685 488.088 423.767 487.678C422.858 487.268 422.102 486.701 421.496 485.979C420.891 485.246 420.437 484.396 420.134 483.43C419.831 482.453 419.68 481.408 419.68 480.295V479.87C419.68 478.747 419.831 477.702 420.134 476.735C420.437 475.759 420.891 474.909 421.496 474.187C422.102 473.454 422.858 472.883 423.767 472.473C424.675 472.062 425.739 471.857 426.96 471.857C428.259 471.857 429.396 472.106 430.373 472.604C431.359 473.103 432.131 473.815 432.688 474.743C433.254 475.661 433.542 476.75 433.552 478.01H429.582C429.572 477.482 429.46 477.004 429.245 476.574C429.04 476.145 428.737 475.803 428.337 475.549C427.946 475.285 427.463 475.153 426.887 475.153C426.271 475.153 425.769 475.285 425.378 475.549C424.987 475.803 424.685 476.154 424.47 476.604C424.255 477.043 424.104 477.546 424.016 478.112C423.938 478.669 423.898 479.255 423.898 479.87V480.295C423.898 480.91 423.938 481.501 424.016 482.067C424.094 482.634 424.24 483.137 424.455 483.576C424.68 484.016 424.987 484.362 425.378 484.616C425.769 484.87 426.276 484.997 426.901 484.997ZM440.451 465.5V488H436.218V465.5H440.451ZM452.492 484.426V477.365C452.492 476.857 452.409 476.423 452.243 476.062C452.077 475.69 451.818 475.402 451.467 475.197C451.125 474.992 450.681 474.89 450.134 474.89C449.665 474.89 449.26 474.973 448.918 475.139C448.576 475.295 448.312 475.524 448.127 475.827C447.941 476.12 447.849 476.467 447.849 476.867H443.63C443.63 476.193 443.786 475.554 444.099 474.948C444.411 474.343 444.865 473.811 445.461 473.352C446.057 472.883 446.765 472.517 447.585 472.253C448.415 471.989 449.343 471.857 450.368 471.857C451.599 471.857 452.692 472.062 453.649 472.473C454.606 472.883 455.358 473.498 455.905 474.318C456.462 475.139 456.74 476.164 456.74 477.395V484.177C456.74 485.046 456.794 485.759 456.901 486.315C457.009 486.862 457.165 487.341 457.37 487.751V488H453.107C452.902 487.57 452.746 487.033 452.639 486.389C452.541 485.734 452.492 485.08 452.492 484.426ZM453.049 478.347L453.078 480.734H450.72C450.163 480.734 449.68 480.798 449.27 480.925C448.859 481.052 448.522 481.232 448.259 481.467C447.995 481.691 447.8 481.955 447.673 482.258C447.556 482.561 447.497 482.893 447.497 483.254C447.497 483.615 447.58 483.942 447.746 484.235C447.912 484.519 448.151 484.743 448.464 484.909C448.776 485.065 449.143 485.144 449.562 485.144C450.197 485.144 450.749 485.017 451.218 484.763C451.687 484.509 452.048 484.196 452.302 483.825C452.565 483.454 452.702 483.103 452.712 482.771L453.825 484.558C453.669 484.958 453.454 485.373 453.181 485.803C452.917 486.232 452.58 486.638 452.17 487.019C451.76 487.39 451.267 487.697 450.69 487.941C450.114 488.176 449.431 488.293 448.64 488.293C447.634 488.293 446.721 488.093 445.9 487.692C445.09 487.282 444.445 486.721 443.967 486.008C443.498 485.285 443.264 484.465 443.264 483.547C443.264 482.717 443.42 481.979 443.732 481.335C444.045 480.69 444.504 480.148 445.109 479.709C445.725 479.26 446.491 478.923 447.409 478.698C448.327 478.464 449.392 478.347 450.603 478.347H453.049ZM464.211 475.607V488H459.992V472.15H463.962L464.211 475.607ZM468.986 472.048L468.913 475.959C468.708 475.93 468.459 475.905 468.166 475.886C467.883 475.856 467.624 475.842 467.39 475.842C466.794 475.842 466.276 475.92 465.837 476.076C465.407 476.223 465.046 476.442 464.753 476.735C464.47 477.028 464.255 477.385 464.108 477.805C463.972 478.225 463.894 478.703 463.874 479.24L463.024 478.977C463.024 477.951 463.127 477.009 463.332 476.149C463.537 475.28 463.835 474.523 464.226 473.879C464.626 473.234 465.114 472.736 465.69 472.385C466.267 472.033 466.926 471.857 467.668 471.857C467.902 471.857 468.142 471.877 468.386 471.916C468.63 471.945 468.83 471.989 468.986 472.048ZM479.035 484.426V477.365C479.035 476.857 478.952 476.423 478.786 476.062C478.62 475.69 478.361 475.402 478.01 475.197C477.668 474.992 477.224 474.89 476.677 474.89C476.208 474.89 475.803 474.973 475.461 475.139C475.119 475.295 474.855 475.524 474.67 475.827C474.484 476.12 474.392 476.467 474.392 476.867H470.173C470.173 476.193 470.329 475.554 470.642 474.948C470.954 474.343 471.408 473.811 472.004 473.352C472.6 472.883 473.308 472.517 474.128 472.253C474.958 471.989 475.886 471.857 476.911 471.857C478.142 471.857 479.235 472.062 480.192 472.473C481.149 472.883 481.901 473.498 482.448 474.318C483.005 475.139 483.283 476.164 483.283 477.395V484.177C483.283 485.046 483.337 485.759 483.444 486.315C483.552 486.862 483.708 487.341 483.913 487.751V488H479.65C479.445 487.57 479.289 487.033 479.182 486.389C479.084 485.734 479.035 485.08 479.035 484.426ZM479.592 478.347L479.621 480.734H477.263C476.706 480.734 476.223 480.798 475.812 480.925C475.402 481.052 475.065 481.232 474.802 481.467C474.538 481.691 474.343 481.955 474.216 482.258C474.099 482.561 474.04 482.893 474.04 483.254C474.04 483.615 474.123 483.942 474.289 484.235C474.455 484.519 474.694 484.743 475.007 484.909C475.319 485.065 475.686 485.144 476.105 485.144C476.74 485.144 477.292 485.017 477.761 484.763C478.229 484.509 478.591 484.196 478.845 483.825C479.108 483.454 479.245 483.103 479.255 482.771L480.368 484.558C480.212 484.958 479.997 485.373 479.724 485.803C479.46 486.232 479.123 486.638 478.713 487.019C478.303 487.39 477.81 487.697 477.233 487.941C476.657 488.176 475.974 488.293 475.183 488.293C474.177 488.293 473.264 488.093 472.443 487.692C471.633 487.282 470.988 486.721 470.51 486.008C470.041 485.285 469.807 484.465 469.807 483.547C469.807 482.717 469.963 481.979 470.275 481.335C470.588 480.69 471.047 480.148 471.652 479.709C472.268 479.26 473.034 478.923 473.952 478.698C474.87 478.464 475.935 478.347 477.146 478.347H479.592ZM494.299 472.15V475.139H485.07V472.15H494.299ZM487.355 468.239H491.574V483.225C491.574 483.684 491.633 484.035 491.75 484.279C491.877 484.523 492.062 484.694 492.307 484.792C492.551 484.88 492.858 484.924 493.229 484.924C493.493 484.924 493.728 484.914 493.933 484.895C494.147 484.865 494.328 484.836 494.475 484.807L494.489 487.912C494.128 488.029 493.737 488.122 493.317 488.19C492.897 488.259 492.434 488.293 491.926 488.293C490.998 488.293 490.188 488.142 489.494 487.839C488.811 487.526 488.283 487.028 487.912 486.345C487.541 485.661 487.355 484.763 487.355 483.649V468.239ZM501.154 472.15V488H496.921V472.15H501.154ZM496.657 468.02C496.657 467.404 496.872 466.896 497.302 466.496C497.731 466.096 498.308 465.896 499.03 465.896C499.743 465.896 500.314 466.096 500.744 466.496C501.184 466.896 501.403 467.404 501.403 468.02C501.403 468.635 501.184 469.143 500.744 469.543C500.314 469.943 499.743 470.144 499.03 470.144C498.308 470.144 497.731 469.943 497.302 469.543C496.872 469.143 496.657 468.635 496.657 468.02ZM503.967 480.236V479.929C503.967 478.767 504.133 477.697 504.465 476.721C504.797 475.734 505.28 474.88 505.915 474.157C506.55 473.435 507.331 472.873 508.259 472.473C509.187 472.062 510.251 471.857 511.452 471.857C512.653 471.857 513.723 472.062 514.66 472.473C515.598 472.873 516.384 473.435 517.019 474.157C517.663 474.88 518.151 475.734 518.483 476.721C518.815 477.697 518.981 478.767 518.981 479.929V480.236C518.981 481.389 518.815 482.458 518.483 483.444C518.151 484.421 517.663 485.275 517.019 486.008C516.384 486.73 515.603 487.292 514.675 487.692C513.747 488.093 512.683 488.293 511.481 488.293C510.28 488.293 509.211 488.093 508.273 487.692C507.346 487.292 506.56 486.73 505.915 486.008C505.28 485.275 504.797 484.421 504.465 483.444C504.133 482.458 503.967 481.389 503.967 480.236ZM508.186 479.929V480.236C508.186 480.9 508.244 481.521 508.361 482.097C508.479 482.673 508.664 483.181 508.918 483.62C509.182 484.05 509.523 484.387 509.943 484.631C510.363 484.875 510.876 484.997 511.481 484.997C512.067 484.997 512.57 484.875 512.99 484.631C513.41 484.387 513.747 484.05 514.001 483.62C514.255 483.181 514.44 482.673 514.558 482.097C514.685 481.521 514.748 480.9 514.748 480.236V479.929C514.748 479.284 514.685 478.679 514.558 478.112C514.44 477.536 514.25 477.028 513.986 476.589C513.732 476.14 513.396 475.788 512.976 475.534C512.556 475.28 512.048 475.153 511.452 475.153C510.856 475.153 510.349 475.28 509.929 475.534C509.519 475.788 509.182 476.14 508.918 476.589C508.664 477.028 508.479 477.536 508.361 478.112C508.244 478.679 508.186 479.284 508.186 479.929ZM525.705 475.534V488H521.486V472.15H525.441L525.705 475.534ZM525.09 479.519H523.947C523.947 478.347 524.099 477.292 524.401 476.354C524.704 475.407 525.129 474.602 525.676 473.938C526.223 473.264 526.872 472.751 527.624 472.399C528.386 472.038 529.235 471.857 530.173 471.857C530.915 471.857 531.594 471.965 532.209 472.18C532.824 472.395 533.352 472.736 533.791 473.205C534.24 473.674 534.582 474.294 534.816 475.065C535.061 475.837 535.183 476.779 535.183 477.893V488H530.935V477.878C530.935 477.175 530.837 476.628 530.642 476.237C530.446 475.847 530.158 475.573 529.777 475.417C529.406 475.251 528.947 475.168 528.4 475.168C527.834 475.168 527.341 475.28 526.921 475.505C526.511 475.729 526.169 476.042 525.896 476.442C525.632 476.833 525.432 477.292 525.295 477.819C525.158 478.347 525.09 478.913 525.09 479.519Z" fill="#3F7AEA"/>
<path d="M416.459 224.998C416.804 224.998 417.11 224.933 417.377 224.803C417.644 224.666 417.852 224.477 418.002 224.236C418.158 223.989 418.24 223.699 418.246 223.367H420.893C420.886 224.109 420.688 224.77 420.297 225.35C419.906 225.923 419.382 226.375 418.725 226.707C418.067 227.033 417.331 227.195 416.518 227.195C415.697 227.195 414.981 227.059 414.369 226.785C413.764 226.512 413.259 226.134 412.855 225.652C412.452 225.164 412.149 224.598 411.947 223.953C411.745 223.302 411.645 222.605 411.645 221.863V221.58C411.645 220.831 411.745 220.135 411.947 219.49C412.149 218.839 412.452 218.273 412.855 217.791C413.259 217.303 413.764 216.922 414.369 216.648C414.975 216.375 415.684 216.238 416.498 216.238C417.364 216.238 418.122 216.404 418.773 216.736C419.431 217.068 419.945 217.544 420.316 218.162C420.694 218.774 420.886 219.5 420.893 220.34H418.246C418.24 219.988 418.165 219.669 418.021 219.383C417.885 219.096 417.683 218.868 417.416 218.699C417.156 218.523 416.833 218.436 416.449 218.436C416.039 218.436 415.704 218.523 415.443 218.699C415.183 218.868 414.981 219.103 414.838 219.402C414.695 219.695 414.594 220.031 414.535 220.408C414.483 220.779 414.457 221.17 414.457 221.58V221.863C414.457 222.273 414.483 222.667 414.535 223.045C414.587 223.423 414.685 223.758 414.828 224.051C414.978 224.344 415.183 224.575 415.443 224.744C415.704 224.913 416.042 224.998 416.459 224.998ZM422.074 221.824V221.619C422.074 220.844 422.185 220.132 422.406 219.48C422.628 218.823 422.95 218.253 423.373 217.771C423.796 217.29 424.317 216.915 424.936 216.648C425.554 216.375 426.264 216.238 427.064 216.238C427.865 216.238 428.578 216.375 429.203 216.648C429.828 216.915 430.352 217.29 430.775 217.771C431.205 218.253 431.531 218.823 431.752 219.48C431.973 220.132 432.084 220.844 432.084 221.619V221.824C432.084 222.592 431.973 223.305 431.752 223.963C431.531 224.614 431.205 225.184 430.775 225.672C430.352 226.154 429.831 226.528 429.213 226.795C428.594 227.062 427.885 227.195 427.084 227.195C426.283 227.195 425.57 227.062 424.945 226.795C424.327 226.528 423.803 226.154 423.373 225.672C422.95 225.184 422.628 224.614 422.406 223.963C422.185 223.305 422.074 222.592 422.074 221.824ZM424.887 221.619V221.824C424.887 222.267 424.926 222.68 425.004 223.064C425.082 223.449 425.206 223.787 425.375 224.08C425.551 224.367 425.779 224.591 426.059 224.754C426.339 224.917 426.68 224.998 427.084 224.998C427.475 224.998 427.81 224.917 428.09 224.754C428.37 224.591 428.594 224.367 428.764 224.08C428.933 223.787 429.057 223.449 429.135 223.064C429.219 222.68 429.262 222.267 429.262 221.824V221.619C429.262 221.189 429.219 220.786 429.135 220.408C429.057 220.024 428.93 219.686 428.754 219.393C428.585 219.093 428.36 218.859 428.08 218.689C427.8 218.52 427.462 218.436 427.064 218.436C426.667 218.436 426.329 218.52 426.049 218.689C425.775 218.859 425.551 219.093 425.375 219.393C425.206 219.686 425.082 220.024 425.004 220.408C424.926 220.786 424.887 221.189 424.887 221.619ZM436.781 212V227H433.959V212H436.781ZM438.656 221.824V221.619C438.656 220.844 438.767 220.132 438.988 219.48C439.21 218.823 439.532 218.253 439.955 217.771C440.378 217.29 440.899 216.915 441.518 216.648C442.136 216.375 442.846 216.238 443.646 216.238C444.447 216.238 445.16 216.375 445.785 216.648C446.41 216.915 446.934 217.29 447.357 217.771C447.787 218.253 448.113 218.823 448.334 219.48C448.555 220.132 448.666 220.844 448.666 221.619V221.824C448.666 222.592 448.555 223.305 448.334 223.963C448.113 224.614 447.787 225.184 447.357 225.672C446.934 226.154 446.413 226.528 445.795 226.795C445.176 227.062 444.467 227.195 443.666 227.195C442.865 227.195 442.152 227.062 441.527 226.795C440.909 226.528 440.385 226.154 439.955 225.672C439.532 225.184 439.21 224.614 438.988 223.963C438.767 223.305 438.656 222.592 438.656 221.824ZM441.469 221.619V221.824C441.469 222.267 441.508 222.68 441.586 223.064C441.664 223.449 441.788 223.787 441.957 224.08C442.133 224.367 442.361 224.591 442.641 224.754C442.921 224.917 443.262 224.998 443.666 224.998C444.057 224.998 444.392 224.917 444.672 224.754C444.952 224.591 445.176 224.367 445.346 224.08C445.515 223.787 445.639 223.449 445.717 223.064C445.801 222.68 445.844 222.267 445.844 221.824V221.619C445.844 221.189 445.801 220.786 445.717 220.408C445.639 220.024 445.512 219.686 445.336 219.393C445.167 219.093 444.942 218.859 444.662 218.689C444.382 218.52 444.044 218.436 443.646 218.436C443.249 218.436 442.911 218.52 442.631 218.689C442.357 218.859 442.133 219.093 441.957 219.393C441.788 219.686 441.664 220.024 441.586 220.408C441.508 220.786 441.469 221.189 441.469 221.619ZM453.148 218.689V227H450.336V216.434H452.973L453.148 218.689ZM452.738 221.346H451.977C451.977 220.564 452.077 219.861 452.279 219.236C452.481 218.605 452.764 218.068 453.129 217.625C453.493 217.176 453.926 216.834 454.428 216.6C454.936 216.359 455.502 216.238 456.127 216.238C456.622 216.238 457.074 216.31 457.484 216.453C457.895 216.596 458.246 216.824 458.539 217.137C458.839 217.449 459.066 217.863 459.223 218.377C459.385 218.891 459.467 219.52 459.467 220.262V227H456.635V220.252C456.635 219.783 456.57 219.419 456.439 219.158C456.309 218.898 456.117 218.715 455.863 218.611C455.616 218.501 455.31 218.445 454.945 218.445C454.568 218.445 454.239 218.52 453.959 218.67C453.686 218.82 453.458 219.028 453.275 219.295C453.1 219.555 452.966 219.861 452.875 220.213C452.784 220.564 452.738 220.942 452.738 221.346Z" fill="#BF3133"/>
<path d="M591.807 224.08C591.807 223.878 591.748 223.696 591.631 223.533C591.514 223.37 591.296 223.221 590.977 223.084C590.664 222.941 590.212 222.811 589.619 222.693C589.085 222.576 588.587 222.43 588.125 222.254C587.669 222.072 587.272 221.854 586.934 221.6C586.602 221.346 586.341 221.046 586.152 220.701C585.964 220.35 585.869 219.949 585.869 219.5C585.869 219.057 585.964 218.641 586.152 218.25C586.348 217.859 586.624 217.514 586.982 217.215C587.347 216.909 587.79 216.671 588.311 216.502C588.838 216.326 589.43 216.238 590.088 216.238C591.006 216.238 591.794 216.385 592.451 216.678C593.115 216.971 593.623 217.374 593.975 217.889C594.333 218.396 594.512 218.976 594.512 219.627H591.699C591.699 219.354 591.641 219.109 591.523 218.895C591.413 218.673 591.237 218.501 590.996 218.377C590.762 218.247 590.456 218.182 590.078 218.182C589.766 218.182 589.495 218.237 589.268 218.348C589.04 218.452 588.864 218.595 588.74 218.777C588.623 218.953 588.564 219.148 588.564 219.363C588.564 219.526 588.597 219.673 588.662 219.803C588.734 219.926 588.848 220.04 589.004 220.145C589.16 220.249 589.362 220.346 589.609 220.438C589.863 220.522 590.176 220.6 590.547 220.672C591.309 220.828 591.989 221.033 592.588 221.287C593.187 221.535 593.662 221.873 594.014 222.303C594.365 222.726 594.541 223.283 594.541 223.973C594.541 224.441 594.437 224.871 594.229 225.262C594.02 225.652 593.721 225.994 593.33 226.287C592.939 226.574 592.471 226.798 591.924 226.961C591.383 227.117 590.775 227.195 590.098 227.195C589.115 227.195 588.281 227.02 587.598 226.668C586.921 226.316 586.406 225.87 586.055 225.33C585.71 224.783 585.537 224.223 585.537 223.65H588.203C588.216 224.035 588.314 224.344 588.496 224.578C588.685 224.812 588.923 224.982 589.209 225.086C589.502 225.19 589.818 225.242 590.156 225.242C590.521 225.242 590.824 225.193 591.064 225.096C591.305 224.992 591.488 224.855 591.611 224.686C591.742 224.51 591.807 224.308 591.807 224.08ZM601.23 227.195C600.41 227.195 599.674 227.065 599.023 226.805C598.372 226.538 597.819 226.17 597.363 225.701C596.914 225.232 596.569 224.689 596.328 224.07C596.087 223.445 595.967 222.781 595.967 222.078V221.688C595.967 220.887 596.081 220.154 596.309 219.49C596.536 218.826 596.862 218.25 597.285 217.762C597.715 217.273 598.236 216.899 598.848 216.639C599.46 216.372 600.15 216.238 600.918 216.238C601.667 216.238 602.331 216.362 602.91 216.609C603.49 216.857 603.975 217.208 604.365 217.664C604.762 218.12 605.062 218.667 605.264 219.305C605.465 219.936 605.566 220.639 605.566 221.414V222.586H597.168V220.711H602.803V220.496C602.803 220.105 602.731 219.757 602.588 219.451C602.451 219.139 602.243 218.891 601.963 218.709C601.683 218.527 601.325 218.436 600.889 218.436C600.518 218.436 600.199 218.517 599.932 218.68C599.665 218.842 599.447 219.07 599.277 219.363C599.115 219.656 598.991 220.001 598.906 220.398C598.828 220.789 598.789 221.219 598.789 221.688V222.078C598.789 222.501 598.848 222.892 598.965 223.25C599.089 223.608 599.261 223.917 599.482 224.178C599.71 224.438 599.984 224.64 600.303 224.783C600.628 224.926 600.996 224.998 601.406 224.998C601.914 224.998 602.386 224.9 602.822 224.705C603.265 224.503 603.646 224.201 603.965 223.797L605.332 225.281C605.111 225.6 604.808 225.906 604.424 226.199C604.046 226.492 603.59 226.733 603.057 226.922C602.523 227.104 601.914 227.195 601.23 227.195ZM609.98 218.621V227H607.158V216.434H609.805L609.98 218.621ZM609.59 221.346H608.809C608.809 220.61 608.896 219.933 609.072 219.314C609.255 218.689 609.518 218.149 609.863 217.693C610.215 217.231 610.648 216.873 611.162 216.619C611.676 216.365 612.272 216.238 612.949 216.238C613.418 216.238 613.848 216.31 614.238 216.453C614.629 216.59 614.964 216.808 615.244 217.107C615.531 217.4 615.752 217.785 615.908 218.26C616.064 218.729 616.143 219.292 616.143 219.949V227H613.33V220.262C613.33 219.78 613.265 219.409 613.135 219.148C613.005 218.888 612.819 218.706 612.578 218.602C612.344 218.497 612.061 218.445 611.729 218.445C611.364 218.445 611.045 218.52 610.771 218.67C610.505 218.82 610.283 219.028 610.107 219.295C609.932 219.555 609.801 219.861 609.717 220.213C609.632 220.564 609.59 220.942 609.59 221.346ZM615.879 221.023L614.873 221.15C614.873 220.46 614.958 219.819 615.127 219.227C615.303 218.634 615.56 218.113 615.898 217.664C616.243 217.215 616.67 216.867 617.178 216.619C617.686 216.365 618.271 216.238 618.936 216.238C619.443 216.238 619.906 216.313 620.322 216.463C620.739 216.606 621.094 216.837 621.387 217.156C621.686 217.469 621.914 217.879 622.07 218.387C622.233 218.895 622.314 219.516 622.314 220.252V227H619.492V220.252C619.492 219.764 619.427 219.393 619.297 219.139C619.173 218.878 618.991 218.699 618.75 218.602C618.516 218.497 618.236 218.445 617.91 218.445C617.572 218.445 617.275 218.514 617.021 218.65C616.768 218.781 616.556 218.963 616.387 219.197C616.217 219.432 616.09 219.705 616.006 220.018C615.921 220.324 615.879 220.659 615.879 221.023ZM627.461 216.434V227H624.639V216.434H627.461ZM624.463 213.68C624.463 213.27 624.606 212.931 624.893 212.664C625.179 212.397 625.563 212.264 626.045 212.264C626.52 212.264 626.901 212.397 627.188 212.664C627.48 212.931 627.627 213.27 627.627 213.68C627.627 214.09 627.48 214.428 627.188 214.695C626.901 214.962 626.52 215.096 626.045 215.096C625.563 215.096 625.179 214.962 624.893 214.695C624.606 214.428 624.463 214.09 624.463 213.68ZM635.332 219.793V222H629.814V219.793H635.332ZM642.041 224.998C642.386 224.998 642.692 224.933 642.959 224.803C643.226 224.666 643.434 224.477 643.584 224.236C643.74 223.989 643.822 223.699 643.828 223.367H646.475C646.468 224.109 646.27 224.77 645.879 225.35C645.488 225.923 644.964 226.375 644.307 226.707C643.649 227.033 642.913 227.195 642.1 227.195C641.279 227.195 640.563 227.059 639.951 226.785C639.346 226.512 638.841 226.134 638.438 225.652C638.034 225.164 637.731 224.598 637.529 223.953C637.327 223.302 637.227 222.605 637.227 221.863V221.58C637.227 220.831 637.327 220.135 637.529 219.49C637.731 218.839 638.034 218.273 638.438 217.791C638.841 217.303 639.346 216.922 639.951 216.648C640.557 216.375 641.266 216.238 642.08 216.238C642.946 216.238 643.704 216.404 644.355 216.736C645.013 217.068 645.527 217.544 645.898 218.162C646.276 218.774 646.468 219.5 646.475 220.34H643.828C643.822 219.988 643.747 219.669 643.604 219.383C643.467 219.096 643.265 218.868 642.998 218.699C642.738 218.523 642.415 218.436 642.031 218.436C641.621 218.436 641.286 218.523 641.025 218.699C640.765 218.868 640.563 219.103 640.42 219.402C640.277 219.695 640.176 220.031 640.117 220.408C640.065 220.779 640.039 221.17 640.039 221.58V221.863C640.039 222.273 640.065 222.667 640.117 223.045C640.169 223.423 640.267 223.758 640.41 224.051C640.56 224.344 640.765 224.575 641.025 224.744C641.286 224.913 641.624 224.998 642.041 224.998ZM647.656 221.824V221.619C647.656 220.844 647.767 220.132 647.988 219.48C648.21 218.823 648.532 218.253 648.955 217.771C649.378 217.29 649.899 216.915 650.518 216.648C651.136 216.375 651.846 216.238 652.646 216.238C653.447 216.238 654.16 216.375 654.785 216.648C655.41 216.915 655.934 217.29 656.357 217.771C656.787 218.253 657.113 218.823 657.334 219.48C657.555 220.132 657.666 220.844 657.666 221.619V221.824C657.666 222.592 657.555 223.305 657.334 223.963C657.113 224.614 656.787 225.184 656.357 225.672C655.934 226.154 655.413 226.528 654.795 226.795C654.176 227.062 653.467 227.195 652.666 227.195C651.865 227.195 651.152 227.062 650.527 226.795C649.909 226.528 649.385 226.154 648.955 225.672C648.532 225.184 648.21 224.614 647.988 223.963C647.767 223.305 647.656 222.592 647.656 221.824ZM650.469 221.619V221.824C650.469 222.267 650.508 222.68 650.586 223.064C650.664 223.449 650.788 223.787 650.957 224.08C651.133 224.367 651.361 224.591 651.641 224.754C651.921 224.917 652.262 224.998 652.666 224.998C653.057 224.998 653.392 224.917 653.672 224.754C653.952 224.591 654.176 224.367 654.346 224.08C654.515 223.787 654.639 223.449 654.717 223.064C654.801 222.68 654.844 222.267 654.844 221.824V221.619C654.844 221.189 654.801 220.786 654.717 220.408C654.639 220.024 654.512 219.686 654.336 219.393C654.167 219.093 653.942 218.859 653.662 218.689C653.382 218.52 653.044 218.436 652.646 218.436C652.249 218.436 651.911 218.52 651.631 218.689C651.357 218.859 651.133 219.093 650.957 219.393C650.788 219.686 650.664 220.024 650.586 220.408C650.508 220.786 650.469 221.189 650.469 221.619ZM662.363 212V227H659.541V212H662.363ZM664.238 221.824V221.619C664.238 220.844 664.349 220.132 664.57 219.48C664.792 218.823 665.114 218.253 665.537 217.771C665.96 217.29 666.481 216.915 667.1 216.648C667.718 216.375 668.428 216.238 669.229 216.238C670.029 216.238 670.742 216.375 671.367 216.648C671.992 216.915 672.516 217.29 672.939 217.771C673.369 218.253 673.695 218.823 673.916 219.48C674.137 220.132 674.248 220.844 674.248 221.619V221.824C674.248 222.592 674.137 223.305 673.916 223.963C673.695 224.614 673.369 225.184 672.939 225.672C672.516 226.154 671.995 226.528 671.377 226.795C670.758 227.062 670.049 227.195 669.248 227.195C668.447 227.195 667.734 227.062 667.109 226.795C666.491 226.528 665.967 226.154 665.537 225.672C665.114 225.184 664.792 224.614 664.57 223.963C664.349 223.305 664.238 222.592 664.238 221.824ZM667.051 221.619V221.824C667.051 222.267 667.09 222.68 667.168 223.064C667.246 223.449 667.37 223.787 667.539 224.08C667.715 224.367 667.943 224.591 668.223 224.754C668.503 224.917 668.844 224.998 669.248 224.998C669.639 224.998 669.974 224.917 670.254 224.754C670.534 224.591 670.758 224.367 670.928 224.08C671.097 223.787 671.221 223.449 671.299 223.064C671.383 222.68 671.426 222.267 671.426 221.824V221.619C671.426 221.189 671.383 220.786 671.299 220.408C671.221 220.024 671.094 219.686 670.918 219.393C670.749 219.093 670.524 218.859 670.244 218.689C669.964 218.52 669.626 218.436 669.229 218.436C668.831 218.436 668.493 218.52 668.213 218.689C667.939 218.859 667.715 219.093 667.539 219.393C667.37 219.686 667.246 220.024 667.168 220.408C667.09 220.786 667.051 221.189 667.051 221.619ZM678.73 218.689V227H675.918V216.434H678.555L678.73 218.689ZM678.32 221.346H677.559C677.559 220.564 677.66 219.861 677.861 219.236C678.063 218.605 678.346 218.068 678.711 217.625C679.076 217.176 679.508 216.834 680.01 216.6C680.518 216.359 681.084 216.238 681.709 216.238C682.204 216.238 682.656 216.31 683.066 216.453C683.477 216.596 683.828 216.824 684.121 217.137C684.421 217.449 684.648 217.863 684.805 218.377C684.967 218.891 685.049 219.52 685.049 220.262V227H682.217V220.252C682.217 219.783 682.152 219.419 682.021 219.158C681.891 218.898 681.699 218.715 681.445 218.611C681.198 218.501 680.892 218.445 680.527 218.445C680.15 218.445 679.821 218.52 679.541 218.67C679.268 218.82 679.04 219.028 678.857 219.295C678.682 219.555 678.548 219.861 678.457 220.213C678.366 220.564 678.32 220.942 678.32 221.346Z" fill="#BF3133"/>
</svg>
