<svg width="1000" height="500" viewBox="0 0 1000 500" fill="none" xmlns="http://www.w3.org/2000/svg">
<rect width="1000" height="500" fill="white"/>
<g clip-path="url(#clip0_13642_33825)">
<path d="M313.934 219.651L313.763 293.677C313.763 296.425 311.53 298.658 308.61 298.658L235.958 298.486C233.21 298.486 230.977 296.253 230.977 293.334L231.149 202.476C231.149 199.728 233.382 197.495 236.302 197.495L292.293 197.667L313.934 219.651Z" fill="#CACCCB"/>
<path d="M315.48 218.105L315.308 292.131C315.308 294.879 313.076 297.112 310.156 297.112L237.504 296.94C234.756 296.94 232.523 294.707 232.523 291.788L232.695 200.758C232.695 198.01 234.928 195.777 237.848 195.777L293.839 195.949L315.48 218.105Z" fill="#E5F3FF"/>
<path d="M298.305 217.934L315.308 218.106L293.839 196.293V213.297C293.839 215.873 295.9 217.934 298.305 217.934Z" fill="#BFE0FF"/>
<path d="M244.518 229.214L244.505 232.993L303.76 233.195L303.773 229.417L244.518 229.214Z" fill="#97CEFF"/>
<path d="M244.523 240.373L244.51 244.152L303.765 244.355L303.778 240.576L244.523 240.373Z" fill="#97CEFF"/>
<path d="M244.357 251.365L244.344 255.144L303.599 255.346L303.612 251.568L244.357 251.365Z" fill="#97CEFF"/>
<path d="M244.362 262.523L244.349 266.301L303.604 266.504L303.617 262.725L244.362 262.523Z" fill="#97CEFF"/>
<path d="M244.366 273.513L244.353 277.292L303.607 277.494L303.62 273.716L244.366 273.513Z" fill="#97CEFF"/>
<path d="M244.371 284.672L244.358 288.451L303.613 288.653L303.626 284.875L244.371 284.672Z" fill="#97CEFF"/>
</g>
<path d="M474.114 221.759L474.031 257.452C474.031 258.777 472.955 259.853 471.547 259.853L436.517 259.77C435.192 259.77 434.116 258.694 434.116 257.286L434.199 213.478C434.199 212.153 435.275 211.077 436.683 211.077L463.68 211.159L474.114 221.759Z" fill="#CACCCB"/>
<path d="M474.859 221.014L474.776 256.706C474.776 258.031 473.7 259.108 472.292 259.108L437.262 259.025C435.937 259.025 434.861 257.949 434.861 256.541L434.944 212.65C434.944 211.325 436.02 210.249 437.428 210.249L464.425 210.331L474.859 221.014Z" fill="#E5F3FF"/>
<path d="M466.578 220.931L474.776 221.014L464.425 210.497V218.696C464.425 219.938 465.419 220.931 466.578 220.931Z" fill="#BFE0FF"/>
<path d="M440.644 226.37L440.638 228.192L469.208 228.29L469.214 226.468L440.644 226.37Z" fill="#97CEFF"/>
<path d="M440.647 231.75L440.64 233.572L469.211 233.67L469.217 231.848L440.647 231.75Z" fill="#97CEFF"/>
<path d="M440.567 237.051L440.561 238.873L469.131 238.97L469.137 237.148L440.567 237.051Z" fill="#97CEFF"/>
<path d="M440.569 242.43L440.563 244.252L469.133 244.35L469.14 242.528L440.569 242.43Z" fill="#97CEFF"/>
<path d="M440.571 247.729L440.565 249.551L469.135 249.649L469.141 247.827L440.571 247.729Z" fill="#97CEFF"/>
<path d="M440.573 253.11L440.567 254.932L469.137 255.029L469.144 253.208L440.573 253.11Z" fill="#97CEFF"/>
<path d="M632.114 221.759L632.031 257.452C632.031 258.777 630.955 259.853 629.547 259.853L594.517 259.77C593.192 259.77 592.116 258.694 592.116 257.286L592.199 213.478C592.199 212.153 593.275 211.077 594.683 211.077L621.68 211.159L632.114 221.759Z" fill="#CACCCB"/>
<path d="M632.859 221.014L632.776 256.706C632.776 258.031 631.7 259.108 630.292 259.108L595.262 259.025C593.937 259.025 592.861 257.949 592.861 256.541L592.944 212.65C592.944 211.325 594.02 210.249 595.428 210.249L622.425 210.331L632.859 221.014Z" fill="#E5F3FF"/>
<path d="M624.578 220.931L632.776 221.014L622.425 210.497V218.696C622.425 219.938 623.419 220.931 624.578 220.931Z" fill="#BFE0FF"/>
<path d="M598.644 226.37L598.638 228.192L627.208 228.29L627.214 226.468L598.644 226.37Z" fill="#97CEFF"/>
<path d="M598.646 231.75L598.64 233.572L627.21 233.67L627.217 231.848L598.646 231.75Z" fill="#97CEFF"/>
<path d="M598.567 237.051L598.561 238.873L627.131 238.97L627.137 237.148L598.567 237.051Z" fill="#97CEFF"/>
<path d="M598.569 242.43L598.563 244.252L627.133 244.35L627.14 242.528L598.569 242.43Z" fill="#97CEFF"/>
<path d="M598.571 247.729L598.564 249.551L627.135 249.649L627.141 247.827L598.571 247.729Z" fill="#97CEFF"/>
<path d="M598.573 253.11L598.567 254.932L627.137 255.029L627.143 253.208L598.573 253.11Z" fill="#97CEFF"/>
<path d="M903.97 254.817V118.21C903.97 115.358 901.625 113 898.74 113H695.212C692.356 113 690.009 115.358 690.009 118.21V254.817H903.97Z" fill="#242D3C"/>
<path d="M700.801 123.807H893.148V244.001H700.801V123.807Z" fill="white"/>
<path d="M826.692 304.703H767.267L772.664 274.405H821.287L826.692 304.703Z" fill="#D9D8D7"/>
<path d="M826.692 304.703L821.287 274.405H772.664L811.548 304.703H826.692Z" fill="#CCCBCA"/>
<path d="M842.585 309.154H751.365V307.485C751.365 306.775 751.618 306.061 752.167 305.514C752.715 304.977 753.443 304.703 754.132 304.703H839.803C840.51 304.703 841.238 304.976 841.783 305.514C842.309 306.061 842.585 306.775 842.585 307.485V309.154ZM903.97 254.816V269.211C903.97 272.072 901.617 274.407 898.743 274.407H695.217C692.368 274.407 690 272.072 690 269.211V254.816H903.97Z" fill="#E6E5E5"/>
<path d="M746.389 165.087C754.233 165.087 760.591 158.426 760.591 150.208C760.591 141.991 754.233 135.329 746.389 135.329C738.545 135.329 732.186 141.991 732.186 150.208C732.186 158.426 738.545 165.087 746.389 165.087Z" fill="#7DCEDC"/>
<path d="M726.775 170.498H766.002V173.034H726.775V170.498ZM726.775 176.584H766.002V179.121H726.775V176.584ZM730.148 182.84H762.807V185.377H730.148V182.84Z" fill="#474F59"/>
<path d="M796.436 165.087C804.28 165.087 810.639 158.426 810.639 150.208C810.639 141.991 804.28 135.329 796.436 135.329C788.592 135.329 782.233 141.991 782.233 150.208C782.233 158.426 788.592 165.087 796.436 165.087Z" fill="#F6BB53"/>
<path d="M776.823 170.498H816.049V173.034H776.823V170.498ZM776.823 176.584H816.049V179.121H776.823V176.584ZM780.195 182.84H812.854V185.377H780.195V182.84Z" fill="#474F59"/>
<path d="M845.807 165.087C854.025 165.087 860.686 158.426 860.686 150.208C860.686 141.991 854.025 135.329 845.807 135.329C837.59 135.329 830.928 141.991 830.928 150.208C830.928 158.426 837.59 165.087 845.807 165.087Z" fill="#DAD9D8"/>
<path d="M826.87 170.498H864.744V173.034H826.87V170.498ZM826.87 176.584H864.744V179.121H826.87V176.584ZM830.126 182.84H861.659V185.377H830.126V182.84Z" fill="#474F59"/>
<path d="M728.128 190.787H864.744V207.019H728.128V190.787Z" fill="#4CA2B1"/>
<path d="M830.928 215.134H860.01V238.129H830.928V215.134Z" fill="#DAD9D8"/>
<path d="M781.016 215.134H810.098V238.129H781.016V215.134Z" fill="#F6BB53"/>
<path d="M733.539 215.134H762.62V238.129H733.539V215.134Z" fill="#7DCEDC"/>
<g filter="url(#filter0_d_13642_33825)">
<rect x="54" y="118.506" width="173.374" height="128.874" rx="5" fill="url(#paint0_linear_13642_33825)"/>
<path d="M54 123.506C54 120.744 56.2386 118.506 59 118.506H222.374C225.135 118.506 227.374 120.744 227.374 123.506V132.376H54V123.506Z" fill="#2D2D2D"/>
<ellipse cx="61.1843" cy="125.69" rx="1.98341" ry="1.98341" fill="#FF0000"/>
<ellipse cx="67.7947" cy="125.69" rx="1.98341" ry="1.98341" fill="#FFAA1D"/>
<ellipse cx="74.407" cy="125.69" rx="1.98341" ry="1.98341" fill="#34C900"/>
<path fill-rule="evenodd" clip-rule="evenodd" d="M203.089 140.578H206.961C208.03 140.578 208.897 141.445 208.897 142.515V159.941C208.897 161.01 208.03 161.877 206.961 161.877H192.246C191.176 161.877 190.31 161.01 190.31 159.941V142.515C190.31 141.445 191.176 140.578 192.246 140.578H196.118C196.118 138.654 197.679 137.093 199.603 137.093C201.528 137.093 203.089 138.654 203.089 140.578ZM204.25 143.289V142.515H206.574C207.002 142.515 207.348 142.861 207.348 143.289V159.553C207.348 159.981 207.002 160.328 206.574 160.328H193.02C192.593 160.328 192.246 159.981 192.246 159.553V143.289C192.246 142.861 192.593 142.515 193.02 142.515H194.956V143.289C194.956 143.717 195.303 144.064 195.731 144.064H203.476C203.904 144.064 204.25 143.717 204.25 143.289ZM200.378 140.578C200.378 141.006 200.031 141.353 199.603 141.353C199.176 141.353 198.829 141.006 198.829 140.578C198.829 140.151 199.176 139.804 199.603 139.804C200.031 139.804 200.378 140.151 200.378 140.578Z" fill="#F2F2F2"/>
</g>
<path d="M66.3918 145.769H94.7985V149.245H66.3918V145.769Z" fill="white"/>
<path d="M103.614 145.769H146.714V149.245H103.614V145.769Z" fill="white"/>
<path d="M103.892 161.316H159.77V164.308H103.892V161.316ZM85.0032 153.88H169.244V156.848H85.0032V153.88Z" fill="white"/>
<path d="M66.3918 168.943H94.7985V172.419H66.3918V168.943Z" fill="white"/>
<path d="M103.614 168.943H146.714V172.419H103.614V168.943Z" fill="white"/>
<path d="M103.892 184.519H159.77V187.483H103.892V184.519ZM85.0032 177.054H169.244V180.043H85.0032V177.054Z" fill="white"/>
<path d="M66.3918 145.769H94.7985V149.245H66.3918V145.769Z" fill="white"/>
<path d="M103.614 145.769H146.714V149.245H103.614V145.769Z" fill="white"/>
<path d="M103.892 161.316H159.77V164.308H103.892V161.316ZM85.0032 153.88H169.244V156.848H85.0032V153.88Z" fill="#FF0000"/>
<path d="M66.3918 168.943H94.7985V172.419H66.3918V168.943Z" fill="white"/>
<path d="M103.614 168.943H146.714V172.419H103.614V168.943Z" fill="white"/>
<path d="M103.892 184.519H159.77V187.483H103.892V184.519ZM85.0032 177.054H169.244V180.043H85.0032V177.054Z" fill="#E7BF35" fill-opacity="0.751085"/>
<path d="M66.3918 192.117H94.7985V195.593H66.3918V192.117Z" fill="white"/>
<path d="M103.614 192.117H146.714V195.593H103.614V192.117Z" fill="white"/>
<path d="M103.892 208.499H159.77V211.815H103.892V208.499ZM85.0032 200.228H169.244V203.538H85.0032V200.228Z" fill="#88A6F3"/>
<path d="M66.3918 216.45H94.7985V218.768H66.3918V216.45Z" fill="white"/>
<path d="M103.614 216.45H146.714V218.768H103.614V216.45Z" fill="white"/>
<path d="M103.892 232.007H159.77V234.989H103.892V232.007ZM85.0032 224.561H169.244V227.531H85.0032V224.561Z" fill="#00A407"/>
<path d="M284.293 207.823C284.293 187.216 272.728 169.168 255.907 161.17C243.291 155.172 232.778 154.506 213.854 157.171C218.059 157.171 238.882 155.312 254.856 170.501C267.472 182.497 267.472 191.766 267.472 206.49V213.154H259.061L275.882 234.481L292.703 213.154H284.293V207.823Z" fill="#FCC828"/>
<path d="M445.983 190.732C438.586 183.336 427.96 181.006 419.055 184.169C412.377 186.542 408.366 190.074 402.535 197.819C404.043 196.311 410.845 188.174 422.027 187.896C430.859 187.676 434.186 191.003 439.47 196.288L441.863 198.68L438.846 201.697L452.535 203.318L450.914 189.629L447.897 192.646L445.983 190.732Z" fill="#FCC828"/>
<path d="M599.983 190.732C592.586 183.336 581.96 181.006 573.055 184.169C566.377 186.542 562.366 190.074 556.535 197.819C558.043 196.311 564.845 188.174 576.027 187.896C584.859 187.676 588.186 191.003 593.47 196.288L595.863 198.68L592.846 201.697L606.535 203.318L604.914 189.629L601.897 192.646L599.983 190.732Z" fill="#FCC828"/>
<circle cx="493.02" cy="198.284" r="2.84282" transform="rotate(-45 493.02 198.284)" fill="#FCC828"/>
<circle cx="507.762" cy="198.284" r="2.84282" transform="rotate(-45 507.762 198.284)" fill="#FCC828"/>
<circle cx="521.833" cy="198.284" r="2.84282" transform="rotate(-45 521.833 198.284)" fill="#FCC828"/>
<path d="M669.576 56.132L661.314 72.112V80H655.5V72.112L647.238 56.132H653.834L658.458 66.128L663.048 56.132H669.576ZM680.045 80.272C678.186 80.272 676.509 79.8753 675.013 79.082C673.539 78.2887 672.372 77.1553 671.511 75.682C670.672 74.2087 670.253 72.486 670.253 70.514C670.253 68.5647 670.683 66.8533 671.545 65.38C672.406 63.884 673.585 62.7393 675.081 61.946C676.577 61.1527 678.254 60.756 680.113 60.756C681.971 60.756 683.649 61.1527 685.145 61.946C686.641 62.7393 687.819 63.884 688.681 65.38C689.542 66.8533 689.973 68.5647 689.973 70.514C689.973 72.4633 689.531 74.186 688.647 75.682C687.785 77.1553 686.595 78.2887 685.077 79.082C683.581 79.8753 681.903 80.272 680.045 80.272ZM680.045 75.24C681.155 75.24 682.096 74.832 682.867 74.016C683.66 73.2 684.057 72.0327 684.057 70.514C684.057 68.9953 683.671 67.828 682.901 67.012C682.153 66.196 681.223 65.788 680.113 65.788C678.979 65.788 678.039 66.196 677.291 67.012C676.543 67.8053 676.169 68.9727 676.169 70.514C676.169 72.0327 676.531 73.2 677.257 74.016C678.005 74.832 678.934 75.24 680.045 75.24ZM711.281 61.028V80H705.467V77.416C704.878 78.2547 704.073 78.9347 703.053 79.456C702.056 79.9547 700.945 80.204 699.721 80.204C698.27 80.204 696.99 79.8867 695.879 79.252C694.768 78.5947 693.907 77.654 693.295 76.43C692.683 75.206 692.377 73.7667 692.377 72.112V61.028H698.157V71.33C698.157 72.5993 698.486 73.5853 699.143 74.288C699.8 74.9907 700.684 75.342 701.795 75.342C702.928 75.342 703.824 74.9907 704.481 74.288C705.138 73.5853 705.467 72.5993 705.467 71.33V61.028H711.281ZM720.761 64.19C721.441 63.1473 722.291 62.3313 723.311 61.742C724.331 61.13 725.464 60.824 726.711 60.824V66.978H725.113C723.662 66.978 722.574 67.2953 721.849 67.93C721.124 68.542 720.761 69.63 720.761 71.194V80H714.947V61.028H720.761V64.19ZM744.311 80.272C742.453 80.272 740.775 79.8753 739.279 79.082C737.806 78.2887 736.639 77.1553 735.777 75.682C734.939 74.2087 734.519 72.486 734.519 70.514C734.519 68.5647 734.95 66.8533 735.811 65.38C736.673 63.884 737.851 62.7393 739.347 61.946C740.843 61.1527 742.521 60.756 744.379 60.756C746.238 60.756 747.915 61.1527 749.411 61.946C750.907 62.7393 752.086 63.884 752.947 65.38C753.809 66.8533 754.239 68.5647 754.239 70.514C754.239 72.4633 753.797 74.186 752.913 75.682C752.052 77.1553 750.862 78.2887 749.343 79.082C747.847 79.8753 746.17 80.272 744.311 80.272ZM744.311 75.24C745.422 75.24 746.363 74.832 747.133 74.016C747.927 73.2 748.323 72.0327 748.323 70.514C748.323 68.9953 747.938 67.828 747.167 67.012C746.419 66.196 745.49 65.788 744.379 65.788C743.246 65.788 742.305 66.196 741.557 67.012C740.809 67.8053 740.435 68.9727 740.435 70.514C740.435 72.0327 740.798 73.2 741.523 74.016C742.271 74.832 743.201 75.24 744.311 75.24ZM784.048 61.028L778.914 80H772.488L769.496 67.692L766.402 80H760.01L754.842 61.028H760.656L763.342 74.594L766.538 61.028H772.692L775.922 74.526L778.574 61.028H784.048ZM797.315 60.824C799.536 60.824 801.304 61.5493 802.619 63C803.956 64.428 804.625 66.4 804.625 68.916V80H798.845V69.698C798.845 68.4287 798.516 67.4427 797.859 66.74C797.201 66.0373 796.317 65.686 795.207 65.686C794.096 65.686 793.212 66.0373 792.555 66.74C791.897 67.4427 791.569 68.4287 791.569 69.698V80H785.755V61.028H791.569V63.544C792.158 62.7053 792.951 62.048 793.949 61.572C794.946 61.0733 796.068 60.824 797.315 60.824ZM842.084 61.028L836.95 80H830.524L827.532 67.692L824.438 80H818.046L812.878 61.028H818.692L821.378 74.594L824.574 61.028H830.728L833.958 74.526L836.61 61.028H842.084ZM861.675 70.208C861.675 70.752 861.641 71.3187 861.573 71.908H848.415C848.506 73.0867 848.88 73.9933 849.537 74.628C850.217 75.24 851.045 75.546 852.019 75.546C853.47 75.546 854.479 74.934 855.045 73.71H861.233C860.916 74.9567 860.338 76.0787 859.499 77.076C858.683 78.0733 857.652 78.8553 856.405 79.422C855.159 79.9887 853.765 80.272 852.223 80.272C850.365 80.272 848.71 79.8753 847.259 79.082C845.809 78.2887 844.675 77.1553 843.859 75.682C843.043 74.2087 842.635 72.486 842.635 70.514C842.635 68.542 843.032 66.8193 843.825 65.346C844.641 63.8727 845.775 62.7393 847.225 61.946C848.676 61.1527 850.342 60.756 852.223 60.756C854.059 60.756 855.691 61.1413 857.119 61.912C858.547 62.6827 859.658 63.782 860.451 65.21C861.267 66.638 861.675 68.304 861.675 70.208ZM855.725 68.678C855.725 67.6807 855.385 66.8873 854.705 66.298C854.025 65.7087 853.175 65.414 852.155 65.414C851.181 65.414 850.353 65.6973 849.673 66.264C849.016 66.8307 848.608 67.6353 848.449 68.678H855.725ZM870.046 63.714C870.59 62.83 871.372 62.116 872.392 61.572C873.412 61.028 874.58 60.756 875.894 60.756C877.458 60.756 878.875 61.1527 880.144 61.946C881.414 62.7393 882.411 63.8727 883.136 65.346C883.884 66.8193 884.258 68.5307 884.258 70.48C884.258 72.4293 883.884 74.152 883.136 75.648C882.411 77.1213 881.414 78.266 880.144 79.082C878.875 79.8753 877.458 80.272 875.894 80.272C874.557 80.272 873.39 80.0113 872.392 79.49C871.395 78.946 870.613 78.232 870.046 77.348V80H864.232V54.84H870.046V63.714ZM878.342 70.48C878.342 69.0293 877.934 67.896 877.118 67.08C876.325 66.2413 875.339 65.822 874.16 65.822C873.004 65.822 872.018 66.2413 871.202 67.08C870.409 67.9187 870.012 69.0633 870.012 70.514C870.012 71.9647 870.409 73.1093 871.202 73.948C872.018 74.7867 873.004 75.206 874.16 75.206C875.316 75.206 876.302 74.7867 877.118 73.948C877.934 73.0867 878.342 71.9307 878.342 70.48ZM894.517 80.272C892.862 80.272 891.389 79.9887 890.097 79.422C888.805 78.8553 887.785 78.0847 887.037 77.11C886.289 76.1127 885.869 75.002 885.779 73.778H891.525C891.593 74.4353 891.899 74.968 892.443 75.376C892.987 75.784 893.655 75.988 894.449 75.988C895.174 75.988 895.729 75.852 896.115 75.58C896.523 75.2853 896.727 74.9113 896.727 74.458C896.727 73.914 896.443 73.5173 895.877 73.268C895.31 72.996 894.392 72.7013 893.123 72.384C891.763 72.0667 890.629 71.738 889.723 71.398C888.816 71.0353 888.034 70.48 887.377 69.732C886.719 68.9613 886.391 67.93 886.391 66.638C886.391 65.55 886.685 64.564 887.275 63.68C887.887 62.7733 888.771 62.0593 889.927 61.538C891.105 61.0167 892.499 60.756 894.109 60.756C896.489 60.756 898.359 61.3453 899.719 62.524C901.101 63.7027 901.895 65.2667 902.099 67.216H896.727C896.636 66.5587 896.341 66.0373 895.843 65.652C895.367 65.2667 894.732 65.074 893.939 65.074C893.259 65.074 892.737 65.21 892.375 65.482C892.012 65.7313 891.831 66.0827 891.831 66.536C891.831 67.08 892.114 67.488 892.681 67.76C893.27 68.032 894.177 68.304 895.401 68.576C896.806 68.9387 897.951 69.3013 898.835 69.664C899.719 70.004 900.489 70.5707 901.147 71.364C901.827 72.1347 902.178 73.1773 902.201 74.492C902.201 75.6027 901.883 76.6 901.249 77.484C900.637 78.3453 899.741 79.0253 898.563 79.524C897.407 80.0227 896.058 80.272 894.517 80.272ZM908.172 59.056C907.152 59.056 906.313 58.7613 905.656 58.172C905.021 57.56 904.704 56.812 904.704 55.928C904.704 55.0213 905.021 54.2733 905.656 53.684C906.313 53.072 907.152 52.766 908.172 52.766C909.169 52.766 909.985 53.072 910.62 53.684C911.277 54.2733 911.606 55.0213 911.606 55.928C911.606 56.812 911.277 57.56 910.62 58.172C909.985 58.7613 909.169 59.056 908.172 59.056ZM911.062 61.028V80H905.248V61.028H911.062ZM925.339 75.07V80H922.381C920.273 80 918.63 79.49 917.451 78.47C916.272 77.4273 915.683 75.7387 915.683 73.404V65.856H913.371V61.028H915.683V56.404H921.497V61.028H925.305V65.856H921.497V73.472C921.497 74.0387 921.633 74.4467 921.905 74.696C922.177 74.9453 922.63 75.07 923.265 75.07H925.339ZM945.951 70.208C945.951 70.752 945.917 71.3187 945.849 71.908H932.691C932.782 73.0867 933.156 73.9933 933.813 74.628C934.493 75.24 935.321 75.546 936.295 75.546C937.746 75.546 938.755 74.934 939.321 73.71H945.509C945.192 74.9567 944.614 76.0787 943.775 77.076C942.959 78.0733 941.928 78.8553 940.681 79.422C939.435 79.9887 938.041 80.272 936.499 80.272C934.641 80.272 932.986 79.8753 931.535 79.082C930.085 78.2887 928.951 77.1553 928.135 75.682C927.319 74.2087 926.911 72.486 926.911 70.514C926.911 68.542 927.308 66.8193 928.101 65.346C928.917 63.8727 930.051 62.7393 931.501 61.946C932.952 61.1527 934.618 60.756 936.499 60.756C938.335 60.756 939.967 61.1413 941.395 61.912C942.823 62.6827 943.934 63.782 944.727 65.21C945.543 66.638 945.951 68.304 945.951 70.208ZM940.001 68.678C940.001 67.6807 939.661 66.8873 938.981 66.298C938.301 65.7087 937.451 65.414 936.431 65.414C935.457 65.414 934.629 65.6973 933.949 66.264C933.292 66.8307 932.884 67.6353 932.725 68.678H940.001Z" fill="#4F4F4F"/>
<path d="M203.722 87.2283C203.722 84.871 204.232 82.7743 205.252 80.9383C206.272 79.0796 207.689 77.6403 209.502 76.6203C211.338 75.5776 213.412 75.0563 215.724 75.0563C218.557 75.0563 220.983 75.8043 223 77.3003C225.017 78.7963 226.366 80.8363 227.046 83.4203H220.654C220.178 82.423 219.498 81.6636 218.614 81.1423C217.753 80.621 216.767 80.3603 215.656 80.3603C213.865 80.3603 212.415 80.9836 211.304 82.2303C210.193 83.477 209.638 85.143 209.638 87.2283C209.638 89.3136 210.193 90.9796 211.304 92.2263C212.415 93.473 213.865 94.0963 215.656 94.0963C216.767 94.0963 217.753 93.8356 218.614 93.3143C219.498 92.793 220.178 92.0336 220.654 91.0363H227.046C226.366 93.6203 225.017 95.6603 223 97.1563C220.983 98.6296 218.557 99.3663 215.724 99.3663C213.412 99.3663 211.338 98.8563 209.502 97.8363C207.689 96.7936 206.272 95.3543 205.252 93.5183C204.232 91.6823 203.722 89.5856 203.722 87.2283ZM238.733 99.4683C236.874 99.4683 235.197 99.0716 233.701 98.2783C232.227 97.485 231.06 96.3516 230.199 94.8783C229.36 93.405 228.941 91.6823 228.941 89.7103C228.941 87.761 229.371 86.0496 230.233 84.5763C231.094 83.0803 232.273 81.9356 233.769 81.1423C235.265 80.349 236.942 79.9523 238.801 79.9523C240.659 79.9523 242.337 80.349 243.833 81.1423C245.329 81.9356 246.507 83.0803 247.369 84.5763C248.23 86.0496 248.661 87.761 248.661 89.7103C248.661 91.6596 248.219 93.3823 247.335 94.8783C246.473 96.3516 245.283 97.485 243.765 98.2783C242.269 99.0716 240.591 99.4683 238.733 99.4683ZM238.733 94.4363C239.843 94.4363 240.784 94.0283 241.555 93.2123C242.348 92.3963 242.745 91.229 242.745 89.7103C242.745 88.1916 242.359 87.0243 241.589 86.2083C240.841 85.3923 239.911 84.9843 238.801 84.9843C237.667 84.9843 236.727 85.3923 235.979 86.2083C235.231 87.0016 234.857 88.169 234.857 89.7103C234.857 91.229 235.219 92.3963 235.945 93.2123C236.693 94.0283 237.622 94.4363 238.733 94.4363ZM257.049 82.9103C257.616 82.0263 258.398 81.3123 259.395 80.7683C260.392 80.2243 261.56 79.9523 262.897 79.9523C264.461 79.9523 265.878 80.349 267.147 81.1423C268.416 81.9356 269.414 83.069 270.139 84.5423C270.887 86.0156 271.261 87.727 271.261 89.6763C271.261 91.6256 270.887 93.3483 270.139 94.8443C269.414 96.3176 268.416 97.4623 267.147 98.2783C265.878 99.0716 264.461 99.4683 262.897 99.4683C261.582 99.4683 260.415 99.1963 259.395 98.6523C258.398 98.1083 257.616 97.4056 257.049 96.5443V108.24H251.235V80.2243H257.049V82.9103ZM265.345 89.6763C265.345 88.2256 264.937 87.0923 264.121 86.2763C263.328 85.4376 262.342 85.0183 261.163 85.0183C260.007 85.0183 259.021 85.4376 258.205 86.2763C257.412 87.115 257.015 88.2596 257.015 89.7103C257.015 91.161 257.412 92.3056 258.205 93.1443C259.021 93.983 260.007 94.4023 261.163 94.4023C262.319 94.4023 263.305 93.983 264.121 93.1443C264.937 92.283 265.345 91.127 265.345 89.6763ZM293.181 80.2243L281.281 108.206H275.025L279.377 98.5503L271.659 80.2243H278.153L282.539 92.0903L286.891 80.2243H293.181Z" fill="#4F4F4F"/>
<path d="M301.898 176.012C301.898 177.395 301.581 178.664 300.946 179.82C300.311 180.954 299.337 181.872 298.022 182.574C296.707 183.277 295.075 183.628 293.126 183.628H289.522V192.196H283.708V168.328H293.126C295.03 168.328 296.639 168.657 297.954 169.314C299.269 169.972 300.255 170.878 300.912 172.034C301.569 173.19 301.898 174.516 301.898 176.012ZM292.684 179.004C293.795 179.004 294.622 178.744 295.166 178.222C295.71 177.701 295.982 176.964 295.982 176.012C295.982 175.06 295.71 174.324 295.166 173.802C294.622 173.281 293.795 173.02 292.684 173.02H289.522V179.004H292.684ZM303.259 182.676C303.259 180.727 303.622 179.016 304.347 177.542C305.095 176.069 306.104 174.936 307.373 174.142C308.642 173.349 310.059 172.952 311.623 172.952C312.96 172.952 314.128 173.224 315.125 173.768C316.145 174.312 316.927 175.026 317.471 175.91V173.224H323.285V192.196H317.471V189.51C316.904 190.394 316.111 191.108 315.091 191.652C314.094 192.196 312.926 192.468 311.589 192.468C310.048 192.468 308.642 192.072 307.373 191.278C306.104 190.462 305.095 189.318 304.347 187.844C303.622 186.348 303.259 184.626 303.259 182.676ZM317.471 182.71C317.471 181.26 317.063 180.115 316.247 179.276C315.454 178.438 314.479 178.018 313.323 178.018C312.167 178.018 311.181 178.438 310.365 179.276C309.572 180.092 309.175 181.226 309.175 182.676C309.175 184.127 309.572 185.283 310.365 186.144C311.181 186.983 312.167 187.402 313.323 187.402C314.479 187.402 315.454 186.983 316.247 186.144C317.063 185.306 317.471 184.161 317.471 182.71ZM334.699 192.468C333.044 192.468 331.571 192.185 330.279 191.618C328.987 191.052 327.967 190.281 327.219 189.306C326.471 188.309 326.052 187.198 325.961 185.974H331.707C331.775 186.632 332.081 187.164 332.625 187.572C333.169 187.98 333.838 188.184 334.631 188.184C335.356 188.184 335.912 188.048 336.297 187.776C336.705 187.482 336.909 187.108 336.909 186.654C336.909 186.11 336.626 185.714 336.059 185.464C335.492 185.192 334.574 184.898 333.305 184.58C331.945 184.263 330.812 183.934 329.905 183.594C328.998 183.232 328.216 182.676 327.559 181.928C326.902 181.158 326.573 180.126 326.573 178.834C326.573 177.746 326.868 176.76 327.457 175.876C328.069 174.97 328.953 174.256 330.109 173.734C331.288 173.213 332.682 172.952 334.291 172.952C336.671 172.952 338.541 173.542 339.901 174.72C341.284 175.899 342.077 177.463 342.281 179.412H336.909C336.818 178.755 336.524 178.234 336.025 177.848C335.549 177.463 334.914 177.27 334.121 177.27C333.441 177.27 332.92 177.406 332.557 177.678C332.194 177.928 332.013 178.279 332.013 178.732C332.013 179.276 332.296 179.684 332.863 179.956C333.452 180.228 334.359 180.5 335.583 180.772C336.988 181.135 338.133 181.498 339.017 181.86C339.901 182.2 340.672 182.767 341.329 183.56C342.009 184.331 342.36 185.374 342.383 186.688C342.383 187.799 342.066 188.796 341.431 189.68C340.819 190.542 339.924 191.222 338.745 191.72C337.589 192.219 336.24 192.468 334.699 192.468ZM356.004 187.266V192.196H353.046C350.938 192.196 349.295 191.686 348.116 190.666C346.937 189.624 346.348 187.935 346.348 185.6V178.052H344.036V173.224H346.348V168.6H352.162V173.224H355.97V178.052H352.162V185.668C352.162 186.235 352.298 186.643 352.57 186.892C352.842 187.142 353.295 187.266 353.93 187.266H356.004ZM376.617 182.404C376.617 182.948 376.583 183.515 376.515 184.104H363.357C363.447 185.283 363.821 186.19 364.479 186.824C365.159 187.436 365.986 187.742 366.961 187.742C368.411 187.742 369.42 187.13 369.987 185.906H376.175C375.857 187.153 375.279 188.275 374.441 189.272C373.625 190.27 372.593 191.052 371.347 191.618C370.1 192.185 368.706 192.468 367.165 192.468C365.306 192.468 363.651 192.072 362.201 191.278C360.75 190.485 359.617 189.352 358.801 187.878C357.985 186.405 357.577 184.682 357.577 182.71C357.577 180.738 357.973 179.016 358.767 177.542C359.583 176.069 360.716 174.936 362.167 174.142C363.617 173.349 365.283 172.952 367.165 172.952C369.001 172.952 370.633 173.338 372.061 174.108C373.489 174.879 374.599 175.978 375.393 177.406C376.209 178.834 376.617 180.5 376.617 182.404ZM370.667 180.874C370.667 179.877 370.327 179.084 369.647 178.494C368.967 177.905 368.117 177.61 367.097 177.61C366.122 177.61 365.295 177.894 364.615 178.46C363.957 179.027 363.549 179.832 363.391 180.874H370.667Z" fill="#4F4F4F"/>
<path d="M289.62 70L292.62 55" stroke="#FFAA1D" stroke-width="2" stroke-linecap="round"/>
<path d="M296.027 72.377L306.027 65.377" stroke="#FFAA1D" stroke-width="2" stroke-linecap="round"/>
<path d="M282.612 70.3486L280.612 57.3486" stroke="#FFAA1D" stroke-width="2" stroke-linecap="round"/>
<path fill-rule="evenodd" clip-rule="evenodd" d="M153 342C152.448 342 152 341.552 152 341V329.217C152 328.665 152.448 328.217 153 328.217L747.369 328.217C747.922 328.217 748.369 327.769 748.369 327.217V324.889C748.369 324.084 749.272 323.609 749.936 324.065L765.181 334.537C765.753 334.93 765.76 335.773 765.195 336.176L749.95 347.051C749.288 347.523 748.369 347.05 748.369 346.237V343C748.369 342.448 747.922 342 747.369 342L153 342Z" fill="#FCC828"/>
<path d="M282.922 373.79V378.618H290.708V383.106H282.922V388.342H291.728V393H277.108V369.132H291.728V373.79H282.922ZM306.553 373.824C308.774 373.824 310.542 374.549 311.857 376C313.194 377.428 313.863 379.4 313.863 381.916V393H308.083V382.698C308.083 381.429 307.754 380.443 307.097 379.74C306.439 379.037 305.555 378.686 304.445 378.686C303.334 378.686 302.45 379.037 301.793 379.74C301.135 380.443 300.807 381.429 300.807 382.698V393H294.993V374.028H300.807V376.544C301.396 375.705 302.189 375.048 303.187 374.572C304.184 374.073 305.306 373.824 306.553 373.824ZM316.237 383.48C316.237 381.531 316.599 379.819 317.325 378.346C318.073 376.873 319.081 375.739 320.351 374.946C321.62 374.153 323.037 373.756 324.601 373.756C325.847 373.756 326.981 374.017 328.001 374.538C329.043 375.059 329.859 375.762 330.449 376.646V367.84H336.263V393H330.449V390.28C329.905 391.187 329.123 391.912 328.103 392.456C327.105 393 325.938 393.272 324.601 393.272C323.037 393.272 321.62 392.875 320.351 392.082C319.081 391.266 318.073 390.121 317.325 388.648C316.599 387.152 316.237 385.429 316.237 383.48ZM330.449 383.514C330.449 382.063 330.041 380.919 329.225 380.08C328.431 379.241 327.457 378.822 326.301 378.822C325.145 378.822 324.159 379.241 323.343 380.08C322.549 380.896 322.153 382.029 322.153 383.48C322.153 384.931 322.549 386.087 323.343 386.948C324.159 387.787 325.145 388.206 326.301 388.206C327.457 388.206 328.431 387.787 329.225 386.948C330.041 386.109 330.449 384.965 330.449 383.514ZM354.579 378.652V383.48H339.619V378.652H354.579ZM369.746 388.07V393H366.788C364.68 393 363.036 392.49 361.858 391.47C360.679 390.427 360.09 388.739 360.09 386.404V378.856H357.778V374.028H360.09V369.404H365.904V374.028H369.712V378.856H365.904V386.472C365.904 387.039 366.04 387.447 366.312 387.696C366.584 387.945 367.037 388.07 367.672 388.07H369.746ZM381.11 393.272C379.251 393.272 377.574 392.875 376.078 392.082C374.605 391.289 373.437 390.155 372.576 388.682C371.737 387.209 371.318 385.486 371.318 383.514C371.318 381.565 371.749 379.853 372.61 378.38C373.471 376.884 374.65 375.739 376.146 374.946C377.642 374.153 379.319 373.756 381.178 373.756C383.037 373.756 384.714 374.153 386.21 374.946C387.706 375.739 388.885 376.884 389.746 378.38C390.607 379.853 391.038 381.565 391.038 383.514C391.038 385.463 390.596 387.186 389.712 388.682C388.851 390.155 387.661 391.289 386.142 392.082C384.646 392.875 382.969 393.272 381.11 393.272ZM381.11 388.24C382.221 388.24 383.161 387.832 383.932 387.016C384.725 386.2 385.122 385.033 385.122 383.514C385.122 381.995 384.737 380.828 383.966 380.012C383.218 379.196 382.289 378.788 381.178 378.788C380.045 378.788 379.104 379.196 378.356 380.012C377.608 380.805 377.234 381.973 377.234 383.514C377.234 385.033 377.597 386.2 378.322 387.016C379.07 387.832 379.999 388.24 381.11 388.24ZM408.232 378.652V383.48H393.272V378.652H408.232ZM430.709 383.208C430.709 383.752 430.675 384.319 430.607 384.908H417.449C417.54 386.087 417.914 386.993 418.571 387.628C419.251 388.24 420.078 388.546 421.053 388.546C422.504 388.546 423.512 387.934 424.079 386.71H430.267C429.95 387.957 429.372 389.079 428.533 390.076C427.717 391.073 426.686 391.855 425.439 392.422C424.192 392.989 422.798 393.272 421.257 393.272C419.398 393.272 417.744 392.875 416.293 392.082C414.842 391.289 413.709 390.155 412.893 388.682C412.077 387.209 411.669 385.486 411.669 383.514C411.669 381.542 412.066 379.819 412.859 378.346C413.675 376.873 414.808 375.739 416.259 374.946C417.71 374.153 419.376 373.756 421.257 373.756C423.093 373.756 424.725 374.141 426.153 374.912C427.581 375.683 428.692 376.782 429.485 378.21C430.301 379.638 430.709 381.304 430.709 383.208ZM424.759 381.678C424.759 380.681 424.419 379.887 423.739 379.298C423.059 378.709 422.209 378.414 421.189 378.414C420.214 378.414 419.387 378.697 418.707 379.264C418.05 379.831 417.642 380.635 417.483 381.678H424.759ZM444.826 373.824C447.048 373.824 448.816 374.549 450.13 376C451.468 377.428 452.136 379.4 452.136 381.916V393H446.356V382.698C446.356 381.429 446.028 380.443 445.37 379.74C444.713 379.037 443.829 378.686 442.718 378.686C441.608 378.686 440.724 379.037 440.066 379.74C439.409 380.443 439.08 381.429 439.08 382.698V393H433.266V374.028H439.08V376.544C439.67 375.705 440.463 375.048 441.46 374.572C442.458 374.073 443.58 373.824 444.826 373.824ZM454.51 383.48C454.51 381.531 454.873 379.819 455.598 378.346C456.346 376.873 457.355 375.739 458.624 374.946C459.894 374.153 461.31 373.756 462.874 373.756C464.121 373.756 465.254 374.017 466.274 374.538C467.317 375.059 468.133 375.762 468.722 376.646V367.84H474.536V393H468.722V390.28C468.178 391.187 467.396 391.912 466.376 392.456C465.379 393 464.212 393.272 462.874 393.272C461.31 393.272 459.894 392.875 458.624 392.082C457.355 391.266 456.346 390.121 455.598 388.648C454.873 387.152 454.51 385.429 454.51 383.48ZM468.722 383.514C468.722 382.063 468.314 380.919 467.498 380.08C466.705 379.241 465.73 378.822 464.574 378.822C463.418 378.822 462.432 379.241 461.616 380.08C460.823 380.896 460.426 382.029 460.426 383.48C460.426 384.931 460.823 386.087 461.616 386.948C462.432 387.787 463.418 388.206 464.574 388.206C465.73 388.206 466.705 387.787 467.498 386.948C468.314 386.109 468.722 384.965 468.722 383.514ZM512.162 374.028L507.028 393H500.602L497.61 380.692L494.516 393H488.124L482.956 374.028H488.77L491.456 387.594L494.652 374.028H500.806L504.036 387.526L506.688 374.028H512.162ZM531.753 383.208C531.753 383.752 531.719 384.319 531.651 384.908H518.493C518.584 386.087 518.958 386.993 519.615 387.628C520.295 388.24 521.122 388.546 522.097 388.546C523.548 388.546 524.556 387.934 525.123 386.71H531.311C530.994 387.957 530.416 389.079 529.577 390.076C528.761 391.073 527.73 391.855 526.483 392.422C525.236 392.989 523.842 393.272 522.301 393.272C520.442 393.272 518.788 392.875 517.337 392.082C515.886 391.289 514.753 390.155 513.937 388.682C513.121 387.209 512.713 385.486 512.713 383.514C512.713 381.542 513.11 379.819 513.903 378.346C514.719 376.873 515.852 375.739 517.303 374.946C518.754 374.153 520.42 373.756 522.301 373.756C524.137 373.756 525.769 374.141 527.197 374.912C528.625 375.683 529.736 376.782 530.529 378.21C531.345 379.638 531.753 381.304 531.753 383.208ZM525.803 381.678C525.803 380.681 525.463 379.887 524.783 379.298C524.103 378.709 523.253 378.414 522.233 378.414C521.258 378.414 520.431 378.697 519.751 379.264C519.094 379.831 518.686 380.635 518.527 381.678H525.803ZM540.124 376.714C540.668 375.83 541.45 375.116 542.47 374.572C543.49 374.028 544.657 373.756 545.972 373.756C547.536 373.756 548.953 374.153 550.222 374.946C551.491 375.739 552.489 376.873 553.214 378.346C553.962 379.819 554.336 381.531 554.336 383.48C554.336 385.429 553.962 387.152 553.214 388.648C552.489 390.121 551.491 391.266 550.222 392.082C548.953 392.875 547.536 393.272 545.972 393.272C544.635 393.272 543.467 393.011 542.47 392.49C541.473 391.946 540.691 391.232 540.124 390.348V393H534.31V367.84H540.124V376.714ZM548.42 383.48C548.42 382.029 548.012 380.896 547.196 380.08C546.403 379.241 545.417 378.822 544.238 378.822C543.082 378.822 542.096 379.241 541.28 380.08C540.487 380.919 540.09 382.063 540.09 383.514C540.09 384.965 540.487 386.109 541.28 386.948C542.096 387.787 543.082 388.206 544.238 388.206C545.394 388.206 546.38 387.787 547.196 386.948C548.012 386.087 548.42 384.931 548.42 383.48ZM564.594 393.272C562.94 393.272 561.466 392.989 560.174 392.422C558.882 391.855 557.862 391.085 557.114 390.11C556.366 389.113 555.947 388.002 555.856 386.778H561.602C561.67 387.435 561.976 387.968 562.52 388.376C563.064 388.784 563.733 388.988 564.526 388.988C565.252 388.988 565.807 388.852 566.192 388.58C566.6 388.285 566.804 387.911 566.804 387.458C566.804 386.914 566.521 386.517 565.954 386.268C565.388 385.996 564.47 385.701 563.2 385.384C561.84 385.067 560.707 384.738 559.8 384.398C558.894 384.035 558.112 383.48 557.454 382.732C556.797 381.961 556.468 380.93 556.468 379.638C556.468 378.55 556.763 377.564 557.352 376.68C557.964 375.773 558.848 375.059 560.004 374.538C561.183 374.017 562.577 373.756 564.186 373.756C566.566 373.756 568.436 374.345 569.796 375.524C571.179 376.703 571.972 378.267 572.176 380.216H566.804C566.714 379.559 566.419 379.037 565.92 378.652C565.444 378.267 564.81 378.074 564.016 378.074C563.336 378.074 562.815 378.21 562.452 378.482C562.09 378.731 561.908 379.083 561.908 379.536C561.908 380.08 562.192 380.488 562.758 380.76C563.348 381.032 564.254 381.304 565.478 381.576C566.884 381.939 568.028 382.301 568.912 382.664C569.796 383.004 570.567 383.571 571.224 384.364C571.904 385.135 572.256 386.177 572.278 387.492C572.278 388.603 571.961 389.6 571.326 390.484C570.714 391.345 569.819 392.025 568.64 392.524C567.484 393.023 566.136 393.272 564.594 393.272ZM578.249 372.056C577.229 372.056 576.391 371.761 575.733 371.172C575.099 370.56 574.781 369.812 574.781 368.928C574.781 368.021 575.099 367.273 575.733 366.684C576.391 366.072 577.229 365.766 578.249 365.766C579.247 365.766 580.063 366.072 580.697 366.684C581.355 367.273 581.683 368.021 581.683 368.928C581.683 369.812 581.355 370.56 580.697 371.172C580.063 371.761 579.247 372.056 578.249 372.056ZM581.139 374.028V393H575.325V374.028H581.139ZM595.417 388.07V393H592.459C590.351 393 588.707 392.49 587.529 391.47C586.35 390.427 585.761 388.739 585.761 386.404V378.856H583.449V374.028H585.761V369.404H591.575V374.028H595.383V378.856H591.575V386.472C591.575 387.039 591.711 387.447 591.983 387.696C592.255 387.945 592.708 388.07 593.343 388.07H595.417ZM616.029 383.208C616.029 383.752 615.995 384.319 615.927 384.908H602.769C602.86 386.087 603.234 386.993 603.891 387.628C604.571 388.24 605.398 388.546 606.373 388.546C607.824 388.546 608.832 387.934 609.399 386.71H615.587C615.27 387.957 614.692 389.079 613.853 390.076C613.037 391.073 612.006 391.855 610.759 392.422C609.512 392.989 608.118 393.272 606.577 393.272C604.718 393.272 603.064 392.875 601.613 392.082C600.162 391.289 599.029 390.155 598.213 388.682C597.397 387.209 596.989 385.486 596.989 383.514C596.989 381.542 597.386 379.819 598.179 378.346C598.995 376.873 600.128 375.739 601.579 374.946C603.03 374.153 604.696 373.756 606.577 373.756C608.413 373.756 610.045 374.141 611.473 374.912C612.901 375.683 614.012 376.782 614.805 378.21C615.621 379.638 616.029 381.304 616.029 383.208ZM610.079 381.678C610.079 380.681 609.739 379.887 609.059 379.298C608.379 378.709 607.529 378.414 606.509 378.414C605.534 378.414 604.707 378.697 604.027 379.264C603.37 379.831 602.962 380.635 602.803 381.678H610.079ZM275.952 434.48C275.952 432.531 276.315 430.819 277.04 429.346C277.788 427.873 278.797 426.739 280.066 425.946C281.335 425.153 282.752 424.756 284.316 424.756C285.563 424.756 286.696 425.017 287.716 425.538C288.759 426.059 289.575 426.762 290.164 427.646V418.84H295.978V444H290.164V441.28C289.62 442.187 288.838 442.912 287.818 443.456C286.821 444 285.653 444.272 284.316 444.272C282.752 444.272 281.335 443.875 280.066 443.082C278.797 442.266 277.788 441.121 277.04 439.648C276.315 438.152 275.952 436.429 275.952 434.48ZM290.164 434.514C290.164 433.063 289.756 431.919 288.94 431.08C288.147 430.241 287.172 429.822 286.016 429.822C284.86 429.822 283.874 430.241 283.058 431.08C282.265 431.896 281.868 433.029 281.868 434.48C281.868 435.931 282.265 437.087 283.058 437.948C283.874 438.787 284.86 439.206 286.016 439.206C287.172 439.206 288.147 438.787 288.94 437.948C289.756 437.109 290.164 435.965 290.164 434.514ZM317.558 434.208C317.558 434.752 317.524 435.319 317.456 435.908H304.298C304.389 437.087 304.763 437.993 305.42 438.628C306.1 439.24 306.928 439.546 307.902 439.546C309.353 439.546 310.362 438.934 310.928 437.71H317.116C316.799 438.957 316.221 440.079 315.382 441.076C314.566 442.073 313.535 442.855 312.288 443.422C311.042 443.989 309.648 444.272 308.106 444.272C306.248 444.272 304.593 443.875 303.142 443.082C301.692 442.289 300.558 441.155 299.742 439.682C298.926 438.209 298.518 436.486 298.518 434.514C298.518 432.542 298.915 430.819 299.708 429.346C300.524 427.873 301.658 426.739 303.108 425.946C304.559 425.153 306.225 424.756 308.106 424.756C309.942 424.756 311.574 425.141 313.002 425.912C314.43 426.683 315.541 427.782 316.334 429.21C317.15 430.638 317.558 432.304 317.558 434.208ZM311.608 432.678C311.608 431.681 311.268 430.887 310.588 430.298C309.908 429.709 309.058 429.414 308.038 429.414C307.064 429.414 306.236 429.697 305.556 430.264C304.899 430.831 304.491 431.635 304.332 432.678H311.608ZM328.649 438.56L332.763 425.028H338.951L332.219 444H325.045L318.313 425.028H324.535L328.649 438.56ZM358.773 434.208C358.773 434.752 358.739 435.319 358.671 435.908H345.513C345.603 437.087 345.977 437.993 346.635 438.628C347.315 439.24 348.142 439.546 349.117 439.546C350.567 439.546 351.576 438.934 352.143 437.71H358.331C358.013 438.957 357.435 440.079 356.597 441.076C355.781 442.073 354.749 442.855 353.503 443.422C352.256 443.989 350.862 444.272 349.321 444.272C347.462 444.272 345.807 443.875 344.357 443.082C342.906 442.289 341.773 441.155 340.957 439.682C340.141 438.209 339.733 436.486 339.733 434.514C339.733 432.542 340.129 430.819 340.923 429.346C341.739 427.873 342.872 426.739 344.323 425.946C345.773 425.153 347.439 424.756 349.321 424.756C351.157 424.756 352.789 425.141 354.217 425.912C355.645 426.683 356.755 427.782 357.549 429.21C358.365 430.638 358.773 432.304 358.773 434.208ZM352.823 432.678C352.823 431.681 352.483 430.887 351.803 430.298C351.123 429.709 350.273 429.414 349.253 429.414C348.278 429.414 347.451 429.697 346.771 430.264C346.113 430.831 345.705 431.635 345.547 432.678H352.823ZM367.144 418.84V444H361.33V418.84H367.144ZM379.483 444.272C377.624 444.272 375.947 443.875 374.451 443.082C372.978 442.289 371.81 441.155 370.949 439.682C370.11 438.209 369.691 436.486 369.691 434.514C369.691 432.565 370.122 430.853 370.983 429.38C371.844 427.884 373.023 426.739 374.519 425.946C376.015 425.153 377.692 424.756 379.551 424.756C381.41 424.756 383.087 425.153 384.583 425.946C386.079 426.739 387.258 427.884 388.119 429.38C388.98 430.853 389.411 432.565 389.411 434.514C389.411 436.463 388.969 438.186 388.085 439.682C387.224 441.155 386.034 442.289 384.515 443.082C383.019 443.875 381.342 444.272 379.483 444.272ZM379.483 439.24C380.594 439.24 381.534 438.832 382.305 438.016C383.098 437.2 383.495 436.033 383.495 434.514C383.495 432.995 383.11 431.828 382.339 431.012C381.591 430.196 380.662 429.788 379.551 429.788C378.418 429.788 377.477 430.196 376.729 431.012C375.981 431.805 375.607 432.973 375.607 434.514C375.607 436.033 375.97 437.2 376.695 438.016C377.443 438.832 378.372 439.24 379.483 439.24ZM397.8 427.714C398.366 426.83 399.148 426.116 400.146 425.572C401.143 425.028 402.31 424.756 403.648 424.756C405.212 424.756 406.628 425.153 407.898 425.946C409.167 426.739 410.164 427.873 410.89 429.346C411.638 430.819 412.012 432.531 412.012 434.48C412.012 436.429 411.638 438.152 410.89 439.648C410.164 441.121 409.167 442.266 407.898 443.082C406.628 443.875 405.212 444.272 403.648 444.272C402.333 444.272 401.166 444 400.146 443.456C399.148 442.912 398.366 442.209 397.8 441.348V453.044H391.986V425.028H397.8V427.714ZM406.096 434.48C406.096 433.029 405.688 431.896 404.872 431.08C404.078 430.241 403.092 429.822 401.914 429.822C400.758 429.822 399.772 430.241 398.956 431.08C398.162 431.919 397.766 433.063 397.766 434.514C397.766 435.965 398.162 437.109 398.956 437.948C399.772 438.787 400.758 439.206 401.914 439.206C403.07 439.206 404.056 438.787 404.872 437.948C405.688 437.087 406.096 435.931 406.096 434.48ZM438.76 424.824C441.117 424.824 442.987 425.538 444.37 426.966C445.775 428.394 446.478 430.377 446.478 432.916V444H440.698V433.698C440.698 432.474 440.369 431.533 439.712 430.876C439.077 430.196 438.193 429.856 437.06 429.856C435.926 429.856 435.031 430.196 434.374 430.876C433.739 431.533 433.422 432.474 433.422 433.698V444H427.642V433.698C427.642 432.474 427.313 431.533 426.656 430.876C426.021 430.196 425.137 429.856 424.004 429.856C422.87 429.856 421.975 430.196 421.318 430.876C420.683 431.533 420.366 432.474 420.366 433.698V444H414.552V425.028H420.366V427.408C420.955 426.615 421.726 425.991 422.678 425.538C423.63 425.062 424.706 424.824 425.908 424.824C427.336 424.824 428.605 425.13 429.716 425.742C430.849 426.354 431.733 427.227 432.368 428.36C433.025 427.317 433.92 426.467 435.054 425.81C436.187 425.153 437.422 424.824 438.76 424.824ZM467.918 434.208C467.918 434.752 467.884 435.319 467.816 435.908H454.658C454.749 437.087 455.123 437.993 455.78 438.628C456.46 439.24 457.287 439.546 458.262 439.546C459.713 439.546 460.721 438.934 461.288 437.71H467.476C467.159 438.957 466.581 440.079 465.742 441.076C464.926 442.073 463.895 442.855 462.648 443.422C461.401 443.989 460.007 444.272 458.466 444.272C456.607 444.272 454.953 443.875 453.502 443.082C452.051 442.289 450.918 441.155 450.102 439.682C449.286 438.209 448.878 436.486 448.878 434.514C448.878 432.542 449.275 430.819 450.068 429.346C450.884 427.873 452.017 426.739 453.468 425.946C454.919 425.153 456.585 424.756 458.466 424.756C460.302 424.756 461.934 425.141 463.362 425.912C464.79 426.683 465.901 427.782 466.694 429.21C467.51 430.638 467.918 432.304 467.918 434.208ZM461.968 432.678C461.968 431.681 461.628 430.887 460.948 430.298C460.268 429.709 459.418 429.414 458.398 429.414C457.423 429.414 456.596 429.697 455.916 430.264C455.259 430.831 454.851 431.635 454.692 432.678H461.968ZM482.035 424.824C484.256 424.824 486.024 425.549 487.339 427C488.676 428.428 489.345 430.4 489.345 432.916V444H483.565V433.698C483.565 432.429 483.236 431.443 482.579 430.74C481.922 430.037 481.038 429.686 479.927 429.686C478.816 429.686 477.932 430.037 477.275 430.74C476.618 431.443 476.289 432.429 476.289 433.698V444H470.475V425.028H476.289V427.544C476.878 426.705 477.672 426.048 478.669 425.572C479.666 425.073 480.788 424.824 482.035 424.824ZM503.449 439.07V444H500.491C498.383 444 496.74 443.49 495.561 442.47C494.383 441.427 493.793 439.739 493.793 437.404V429.856H491.481V425.028H493.793V420.404H499.607V425.028H503.415V429.856H499.607V437.472C499.607 438.039 499.743 438.447 500.015 438.696C500.287 438.945 500.741 439.07 501.375 439.07H503.449ZM515.763 423.056C514.743 423.056 513.904 422.761 513.247 422.172C512.612 421.56 512.295 420.812 512.295 419.928C512.295 419.021 512.612 418.273 513.247 417.684C513.904 417.072 514.743 416.766 515.763 416.766C516.76 416.766 517.576 417.072 518.211 417.684C518.868 418.273 519.197 419.021 519.197 419.928C519.197 420.812 518.868 421.56 518.211 422.172C517.576 422.761 516.76 423.056 515.763 423.056ZM518.687 446.448C518.687 448.783 518.097 450.46 516.919 451.48C515.74 452.523 514.097 453.044 511.989 453.044H509.711V448.114H511.105C511.739 448.114 512.193 447.989 512.465 447.74C512.737 447.491 512.873 447.083 512.873 446.516V425.028H518.687V446.448ZM530.993 444.272C529.134 444.272 527.457 443.875 525.961 443.082C524.488 442.289 523.32 441.155 522.459 439.682C521.62 438.209 521.201 436.486 521.201 434.514C521.201 432.565 521.632 430.853 522.493 429.38C523.354 427.884 524.533 426.739 526.029 425.946C527.525 425.153 529.202 424.756 531.061 424.756C532.92 424.756 534.597 425.153 536.093 425.946C537.589 426.739 538.768 427.884 539.629 429.38C540.49 430.853 540.921 432.565 540.921 434.514C540.921 436.463 540.479 438.186 539.595 439.682C538.734 441.155 537.544 442.289 536.025 443.082C534.529 443.875 532.852 444.272 530.993 444.272ZM530.993 439.24C532.104 439.24 533.044 438.832 533.815 438.016C534.608 437.2 535.005 436.033 535.005 434.514C535.005 432.995 534.62 431.828 533.849 431.012C533.101 430.196 532.172 429.788 531.061 429.788C529.928 429.788 528.987 430.196 528.239 431.012C527.491 431.805 527.117 432.973 527.117 434.514C527.117 436.033 527.48 437.2 528.205 438.016C528.953 438.832 529.882 439.24 530.993 439.24ZM562.229 425.028V444H556.415V441.416C555.826 442.255 555.021 442.935 554.001 443.456C553.004 443.955 551.893 444.204 550.669 444.204C549.219 444.204 547.938 443.887 546.827 443.252C545.717 442.595 544.855 441.654 544.243 440.43C543.631 439.206 543.325 437.767 543.325 436.112V425.028H549.105V435.33C549.105 436.599 549.434 437.585 550.091 438.288C550.749 438.991 551.633 439.342 552.743 439.342C553.877 439.342 554.772 438.991 555.429 438.288C556.087 437.585 556.415 436.599 556.415 435.33V425.028H562.229ZM571.71 428.19C572.39 427.147 573.24 426.331 574.26 425.742C575.28 425.13 576.413 424.824 577.66 424.824V430.978H576.062C574.611 430.978 573.523 431.295 572.798 431.93C572.072 432.542 571.71 433.63 571.71 435.194V444H565.896V425.028H571.71V428.19ZM591.488 424.824C593.71 424.824 595.478 425.549 596.792 427C598.13 428.428 598.798 430.4 598.798 432.916V444H593.018V433.698C593.018 432.429 592.69 431.443 592.032 430.74C591.375 430.037 590.491 429.686 589.38 429.686C588.27 429.686 587.386 430.037 586.728 430.74C586.071 431.443 585.742 432.429 585.742 433.698V444H579.928V425.028H585.742V427.544C586.332 426.705 587.125 426.048 588.122 425.572C589.12 425.073 590.242 424.824 591.488 424.824ZM620.213 434.208C620.213 434.752 620.179 435.319 620.111 435.908H606.953C607.043 437.087 607.417 437.993 608.075 438.628C608.755 439.24 609.582 439.546 610.557 439.546C612.007 439.546 613.016 438.934 613.583 437.71H619.771C619.453 438.957 618.875 440.079 618.037 441.076C617.221 442.073 616.189 442.855 614.943 443.422C613.696 443.989 612.302 444.272 610.761 444.272C608.902 444.272 607.247 443.875 605.797 443.082C604.346 442.289 603.213 441.155 602.397 439.682C601.581 438.209 601.173 436.486 601.173 434.514C601.173 432.542 601.569 430.819 602.363 429.346C603.179 427.873 604.312 426.739 605.763 425.946C607.213 425.153 608.879 424.756 610.761 424.756C612.597 424.756 614.229 425.141 615.657 425.912C617.085 426.683 618.195 427.782 618.989 429.21C619.805 430.638 620.213 432.304 620.213 434.208ZM614.263 432.678C614.263 431.681 613.923 430.887 613.243 430.298C612.563 429.709 611.713 429.414 610.693 429.414C609.718 429.414 608.891 429.697 608.211 430.264C607.553 430.831 607.145 431.635 606.987 432.678H614.263ZM642.15 425.028L630.25 453.01H623.994L628.346 443.354L620.628 425.028H627.122L631.508 436.894L635.86 425.028H642.15Z" fill="#4F4F4F"/>
<defs>
<filter id="filter0_d_13642_33825" x="34" y="98.5059" width="213.374" height="168.875" filterUnits="userSpaceOnUse" color-interpolation-filters="sRGB">
<feFlood flood-opacity="0" result="BackgroundImageFix"/>
<feColorMatrix in="SourceAlpha" type="matrix" values="0 0 0 0 0 0 0 0 0 0 0 0 0 0 0 0 0 0 127 0" result="hardAlpha"/>
<feOffset/>
<feGaussianBlur stdDeviation="10"/>
<feComposite in2="hardAlpha" operator="out"/>
<feColorMatrix type="matrix" values="0 0 0 0 0 0 0 0 0 1 0 0 0 0 0.88 0 0 0 0.5 0"/>
<feBlend mode="normal" in2="BackgroundImageFix" result="effect1_dropShadow_13642_33825"/>
<feBlend mode="normal" in="SourceGraphic" in2="effect1_dropShadow_13642_33825" result="shape"/>
</filter>
<linearGradient id="paint0_linear_13642_33825" x1="227.374" y1="118.506" x2="54.5844" y2="248.159" gradientUnits="userSpaceOnUse">
<stop stop-color="#22007E"/>
<stop offset="1" stop-color="#0F0725"/>
</linearGradient>
<clipPath id="clip0_13642_33825">
<rect width="109.922" height="109.922" fill="white" transform="translate(214.146 195.262)"/>
</clipPath>
</defs>
</svg>
