<svg width="247" height="167" viewBox="0 0 247 167" fill="none" xmlns="http://www.w3.org/2000/svg">
<g opacity="0.3">
<path d="M185.992 97.8418C114.976 97.8418 99.6957 120.964 36.3495 129.16C2.68978 133.508 -17.8331 149.524 21.4128 153.554C41.9656 155.663 65.6253 151.829 86.7681 153.423C112.422 155.358 132.25 162.663 157.911 165.635C183.572 168.606 212.848 167.124 230.249 157.213C262.296 138.969 247.8 97.8418 185.992 97.8418Z" fill="url(#paint0_linear_13094_256783)"/>
<path d="M205.766 23.5762H53.0062C50.7016 23.576 48.4691 24.3594 46.6935 25.7914C44.9178 27.2234 43.7103 29.2142 43.2789 31.4209C43.2175 31.7502 43.1663 32.0696 43.1356 32.4189L34.6165 127.423C34.4972 128.757 34.6641 130.102 35.1066 131.371C35.549 132.639 36.2574 133.804 37.1866 134.792C38.1159 135.779 39.2457 136.567 40.5043 137.106C41.7629 137.645 43.1227 137.923 44.4974 137.922H197.257C199.739 137.928 202.133 137.024 203.964 135.39C205.794 133.756 206.927 131.51 207.138 129.099L215.688 34.0856C215.807 32.7469 215.639 31.3986 215.194 30.1268C214.75 28.8549 214.038 27.6873 213.104 26.6985C212.171 25.7097 211.036 24.9214 209.772 24.3838C208.509 23.8462 207.144 23.5712 205.766 23.5762Z" fill="#D1D9E8"/>
<path d="M200.368 28.9415H58.3204C56.1775 28.9413 54.1015 29.6507 52.4504 30.9476C50.7993 32.2444 49.6764 34.0474 49.2753 36.0458C49.2182 36.344 49.1705 36.6333 49.142 36.9496L41.2203 122.987C41.1094 124.196 41.2646 125.414 41.676 126.563C42.0874 127.712 42.7461 128.767 43.6102 129.661C44.4743 130.555 45.5249 131.269 46.6952 131.757C47.8656 132.245 49.13 132.497 50.4083 132.496H192.456C194.764 132.502 196.99 131.683 198.692 130.203C200.394 128.723 201.448 126.689 201.644 124.506L209.594 38.459C209.705 37.2467 209.549 36.0256 209.135 34.8738C208.722 33.7219 208.06 32.6645 207.192 31.7691C206.323 30.8736 205.268 30.1596 204.093 29.6728C202.919 29.186 201.65 28.9369 200.368 28.9415Z" fill="#363636"/>
<path d="M49.1013 128.816L52.5316 42.4529C91.6119 22.3444 116.592 35.972 124.197 45.2993L120.878 128.858C113.156 116.736 69.7723 124.714 49.1013 128.816Z" fill="url(#paint1_linear_13094_256783)"/>
<path d="M194.497 134.773L197.927 48.4099C160.565 25.2652 134.583 36.8686 126.262 45.5634L122.943 129.122C131.602 117.651 174.216 129.045 194.497 134.773Z" fill="url(#paint2_linear_13094_256783)"/>
<path d="M54.2266 122.959L57.7529 34.1777C94.2809 12.6141 117.492 26.9611 124.532 36.8301L121.005 125.611C113.871 112.774 73.5137 118.494 54.2266 122.959Z" fill="url(#paint3_linear_13094_256783)"/>
<path d="M189.853 128.527L193.379 39.7461C158.676 15.3532 134.4 27.8141 126.6 37.0937L123.074 125.875C131.203 113.644 170.98 122.547 189.853 128.527Z" fill="url(#paint4_linear_13094_256783)"/>
<rect x="127.961" y="32.2812" width="15.3722" height="15.3722" fill="url(#paint5_linear_13094_256783)"/>
<rect x="166.393" y="26.1328" width="12.2978" height="12.2978" fill="url(#paint6_linear_13094_256783)"/>
<rect x="151.02" y="58.4141" width="9.22332" height="9.22332" fill="url(#paint7_linear_13094_256783)"/>
<rect x="169.467" y="43.043" width="4.61166" height="4.61166" fill="url(#paint8_linear_13094_256783)"/>
<rect width="7.6861" height="7.6861" transform="matrix(1 0 0 -1 134.109 21.5215)" fill="url(#paint9_linear_13094_256783)"/>
<rect width="4.61166" height="4.61166" transform="matrix(1 0 0 -1 164.854 18.4473)" fill="url(#paint10_linear_13094_256783)"/>
<rect x="121.812" y="19.9844" width="10.7605" height="10.7605" fill="url(#paint11_linear_13094_256783)"/>
<rect x="155.631" y="29.207" width="4.61166" height="4.61166" fill="url(#paint12_linear_13094_256783)"/>
<rect x="154.095" width="4.61166" height="4.61166" fill="url(#paint13_linear_13094_256783)"/>
<rect x="138.722" y="50.7285" width="4.61166" height="4.61166" fill="url(#paint14_linear_13094_256783)"/>
<rect x="149.481" y="13.8359" width="10.7605" height="10.7605" fill="url(#paint15_linear_13094_256783)"/>
<rect x="154.095" y="43.043" width="6.14888" height="6.14888" fill="url(#paint16_linear_13094_256783)"/>
<rect x="169.467" y="1.53711" width="6.14888" height="6.14888" fill="url(#paint17_linear_13094_256783)"/>
</g>
<defs>
<linearGradient id="paint0_linear_13094_256783" x1="246.767" y1="97.8418" x2="169.28" y2="252.056" gradientUnits="userSpaceOnUse">
<stop offset="0.151042" stop-color="#003982"/>
<stop offset="1" stop-color="#2C96D6"/>
</linearGradient>
<linearGradient id="paint1_linear_13094_256783" x1="124.671" y1="33.3582" x2="27.3254" y2="68.5062" gradientUnits="userSpaceOnUse">
<stop stop-color="#41B8FF"/>
<stop offset="1" stop-color="#0055C2"/>
</linearGradient>
<linearGradient id="paint2_linear_13094_256783" x1="126.736" y1="33.6223" x2="220.987" y2="76.3803" gradientUnits="userSpaceOnUse">
<stop stop-color="#41B8FF"/>
<stop offset="1" stop-color="#0055C2"/>
</linearGradient>
<linearGradient id="paint3_linear_13094_256783" x1="125.036" y1="24.1426" x2="31.439" y2="53.3877" gradientUnits="userSpaceOnUse">
<stop stop-color="#D0EDFF"/>
<stop offset="1" stop-color="#78B3FF"/>
</linearGradient>
<linearGradient id="paint4_linear_13094_256783" x1="127.104" y1="24.4062" x2="218.086" y2="60.9826" gradientUnits="userSpaceOnUse">
<stop stop-color="#D0EDFF"/>
<stop offset="1" stop-color="#78B3FF"/>
</linearGradient>
<linearGradient id="paint5_linear_13094_256783" x1="143.333" y1="32.2813" x2="125.097" y2="42.5829" gradientUnits="userSpaceOnUse">
<stop stop-color="#80D7F2"/>
<stop offset="1" stop-color="#2B90B0"/>
</linearGradient>
<linearGradient id="paint6_linear_13094_256783" x1="178.69" y1="26.1328" x2="164.101" y2="34.3741" gradientUnits="userSpaceOnUse">
<stop stop-color="#80D7F2"/>
<stop offset="1" stop-color="#2B90B0"/>
</linearGradient>
<linearGradient id="paint7_linear_13094_256783" x1="160.243" y1="58.4141" x2="149.301" y2="64.5951" gradientUnits="userSpaceOnUse">
<stop stop-color="#80D7F2"/>
<stop offset="1" stop-color="#2B90B0"/>
</linearGradient>
<linearGradient id="paint8_linear_13094_256783" x1="174.078" y1="43.043" x2="168.608" y2="46.1335" gradientUnits="userSpaceOnUse">
<stop stop-color="#80D7F2"/>
<stop offset="1" stop-color="#2B90B0"/>
</linearGradient>
<linearGradient id="paint9_linear_13094_256783" x1="7.6861" y1="2.83008e-07" x2="-1.43216" y2="5.15082" gradientUnits="userSpaceOnUse">
<stop stop-color="#80D7F2"/>
<stop offset="1" stop-color="#2B90B0"/>
</linearGradient>
<linearGradient id="paint10_linear_13094_256783" x1="4.61166" y1="1.69805e-07" x2="-0.859294" y2="3.09049" gradientUnits="userSpaceOnUse">
<stop stop-color="#80D7F2"/>
<stop offset="1" stop-color="#2B90B0"/>
</linearGradient>
<linearGradient id="paint11_linear_13094_256783" x1="132.572" y1="19.9844" x2="119.807" y2="27.1955" gradientUnits="userSpaceOnUse">
<stop stop-color="#80D7F2"/>
<stop offset="1" stop-color="#2B90B0"/>
</linearGradient>
<linearGradient id="paint12_linear_13094_256783" x1="160.243" y1="29.207" x2="154.772" y2="32.2975" gradientUnits="userSpaceOnUse">
<stop stop-color="#80D7F2"/>
<stop offset="1" stop-color="#2B90B0"/>
</linearGradient>
<linearGradient id="paint13_linear_13094_256783" x1="158.706" y1="1.69805e-07" x2="153.235" y2="3.09049" gradientUnits="userSpaceOnUse">
<stop stop-color="#80D7F2"/>
<stop offset="1" stop-color="#2B90B0"/>
</linearGradient>
<linearGradient id="paint14_linear_13094_256783" x1="143.333" y1="50.7285" x2="137.862" y2="53.819" gradientUnits="userSpaceOnUse">
<stop stop-color="#80D7F2"/>
<stop offset="1" stop-color="#2B90B0"/>
</linearGradient>
<linearGradient id="paint15_linear_13094_256783" x1="160.242" y1="13.8359" x2="147.476" y2="21.0471" gradientUnits="userSpaceOnUse">
<stop stop-color="#80D7F2"/>
<stop offset="1" stop-color="#2B90B0"/>
</linearGradient>
<linearGradient id="paint16_linear_13094_256783" x1="160.244" y1="43.043" x2="152.949" y2="47.1636" gradientUnits="userSpaceOnUse">
<stop stop-color="#80D7F2"/>
<stop offset="1" stop-color="#2B90B0"/>
</linearGradient>
<linearGradient id="paint17_linear_13094_256783" x1="175.616" y1="1.53711" x2="168.321" y2="5.65777" gradientUnits="userSpaceOnUse">
<stop stop-color="#80D7F2"/>
<stop offset="1" stop-color="#2B90B0"/>
</linearGradient>
</defs>
</svg>
