<svg width="139" height="81" viewBox="0 0 139 81" fill="none" xmlns="http://www.w3.org/2000/svg">
<path d="M0 0H4.87089V4.81641H9.32648V0H14.1974V14.5845H9.32648V9.70097H4.87089V14.5845H0V0ZM20.6021 4.83686H16.3148V0H29.7632V4.83686H25.474V14.5845H20.6031L20.6021 4.83686ZM31.8981 0H36.9791L40.1032 5.12401L43.2214 0H48.3024V14.5845H43.451V7.35506L40.1003 12.5404H40.0166L36.663 7.35506V14.5836H31.8972L31.8981 0ZM50.7262 0H55.598V9.76326H62.4473V14.5836H50.7262V0Z" fill="#E85859"/>
<path d="M58.3071 19.8221L53.4117 74.7085L31.4062 80.8139L9.46151 74.7167L4.5708 19.8221H58.3071Z" fill="#E44D26"/>
<path d="M31.439 76.1463L49.2207 71.2127L53.4041 24.3098H31.439V76.1463Z" fill="#F16529"/>
<path d="M21.9213 37.7757H31.4379V31.0466H14.5696L14.7307 32.853L16.3841 51.4061H31.4386V44.6701H22.5364L21.9213 37.7757ZM23.4376 54.7689H16.6845L17.6266 65.3398L31.4072 69.1659L31.4379 69.1577V62.1553L31.4085 62.1628L23.9168 60.1384L23.4389 54.7689H23.4376Z" fill="#EBEBEB"/>
<path d="M31.4157 51.4024H39.6993L38.9184 60.134L31.415 62.1605V69.1649L45.2051 65.3388L45.3062 64.2013L46.8873 46.4763L47.0511 44.6685H31.4157V51.4024ZM31.4157 37.759V37.7754H47.6635L47.8 36.262L48.1065 32.8459L48.267 31.0394H31.4157V37.7556V37.759Z" fill="white"/>
<path d="M135.918 4.36412H128.974L136.195 12.1865V15.9104H121.321V11.55H128.542L121.321 3.72767V0H135.918V4.36412ZM118.372 4.36412H111.428L118.65 12.1865V15.9104H103.775V11.55H110.996L103.775 3.72767V0H118.372V4.36412ZM100.999 4.54248H93.5055V11.3679H100.999V15.9104H88.179V0H100.999V4.54248Z" fill="#3B68D7"/>
<path d="M90.0274 74.7165L85.124 19.8221H139L134.093 74.7074L112.029 80.8138L90.0274 74.7165Z" fill="#1572B6"/>
<path d="M112.063 76.1467L129.89 71.2129L134.085 24.3109H112.063V76.1467Z" fill="#33A9DC"/>
<path d="M112.062 44.1986H120.987L121.605 37.3046H112.062V30.5719H128.976L128.814 32.3781L127.156 50.9307H112.062V44.1986Z" fill="white"/>
<path d="M112.103 61.6843L112.073 61.6927L104.562 59.6677L104.081 54.2982H97.311L98.2563 64.8693L112.072 68.6974L112.103 68.6883V61.6843H112.103Z" fill="#EBEBEB"/>
<path d="M120.414 50.6462L119.602 59.6626L112.079 61.6894V68.6941L125.906 64.869L126.008 63.7314L127.182 50.6462H120.414Z" fill="white"/>
<path d="M112.086 30.5719V37.304H95.7941L95.6584 35.791L95.3514 32.3781L95.1897 30.5719H112.086ZM112.062 44.1992V50.9319H104.646L104.511 49.4189L104.203 46.0054L104.041 44.1992H112.062Z" fill="#EBEBEB"/>
</svg>
