<svg width="1030" height="552" viewBox="0 0 1030 552" fill="none" xmlns="http://www.w3.org/2000/svg">
<rect width="1030" height="552" fill="white"/>
<path d="M22 200H311.2L338 350.209L311.2 502H22V200Z" fill="url(#paint0_linear_13645_34704)"/>
<path d="M82.922 263.79V268.618H90.708V273.106H82.922V278.342H91.728V283H77.108V259.132H91.728V263.79H82.922ZM106.553 263.824C108.774 263.824 110.542 264.549 111.857 266C113.194 267.428 113.863 269.4 113.863 271.916V283H108.083V272.698C108.083 271.429 107.754 270.443 107.097 269.74C106.439 269.037 105.555 268.686 104.445 268.686C103.334 268.686 102.45 269.037 101.793 269.74C101.135 270.443 100.807 271.429 100.807 272.698V283H94.9925V264.028H100.807V266.544C101.396 265.705 102.189 265.048 103.187 264.572C104.184 264.073 105.306 263.824 106.553 263.824ZM116.237 273.48C116.237 271.531 116.599 269.819 117.325 268.346C118.073 266.873 119.081 265.739 120.351 264.946C121.62 264.153 123.037 263.756 124.601 263.756C125.847 263.756 126.981 264.017 128.001 264.538C129.043 265.059 129.859 265.762 130.449 266.646V257.84H136.263V283H130.449V280.28C129.905 281.187 129.123 281.912 128.103 282.456C127.105 283 125.938 283.272 124.601 283.272C123.037 283.272 121.62 282.875 120.351 282.082C119.081 281.266 118.073 280.121 117.325 278.648C116.599 277.152 116.237 275.429 116.237 273.48ZM130.449 273.514C130.449 272.063 130.041 270.919 129.225 270.08C128.431 269.241 127.457 268.822 126.301 268.822C125.145 268.822 124.159 269.241 123.343 270.08C122.549 270.896 122.153 272.029 122.153 273.48C122.153 274.931 122.549 276.087 123.343 276.948C124.159 277.787 125.145 278.206 126.301 278.206C127.457 278.206 128.431 277.787 129.225 276.948C130.041 276.109 130.449 274.965 130.449 273.514ZM154.579 268.652V273.48H139.619V268.652H154.579ZM169.746 278.07V283H166.788C164.68 283 163.036 282.49 161.858 281.47C160.679 280.427 160.09 278.739 160.09 276.404V268.856H157.778V264.028H160.09V259.404H165.904V264.028H169.712V268.856H165.904V276.472C165.904 277.039 166.04 277.447 166.312 277.696C166.584 277.945 167.037 278.07 167.672 278.07H169.746ZM181.11 283.272C179.251 283.272 177.574 282.875 176.078 282.082C174.605 281.289 173.437 280.155 172.576 278.682C171.737 277.209 171.318 275.486 171.318 273.514C171.318 271.565 171.749 269.853 172.61 268.38C173.471 266.884 174.65 265.739 176.146 264.946C177.642 264.153 179.319 263.756 181.178 263.756C183.037 263.756 184.714 264.153 186.21 264.946C187.706 265.739 188.885 266.884 189.746 268.38C190.607 269.853 191.038 271.565 191.038 273.514C191.038 275.463 190.596 277.186 189.712 278.682C188.851 280.155 187.661 281.289 186.142 282.082C184.646 282.875 182.969 283.272 181.11 283.272ZM181.11 278.24C182.221 278.24 183.161 277.832 183.932 277.016C184.725 276.2 185.122 275.033 185.122 273.514C185.122 271.995 184.737 270.828 183.966 270.012C183.218 269.196 182.289 268.788 181.178 268.788C180.045 268.788 179.104 269.196 178.356 270.012C177.608 270.805 177.234 271.973 177.234 273.514C177.234 275.033 177.597 276.2 178.322 277.016C179.07 277.832 179.999 278.24 181.11 278.24ZM208.232 268.652V273.48H193.272V268.652H208.232ZM230.709 273.208C230.709 273.752 230.675 274.319 230.607 274.908H217.449C217.54 276.087 217.914 276.993 218.571 277.628C219.251 278.24 220.078 278.546 221.053 278.546C222.504 278.546 223.512 277.934 224.079 276.71H230.267C229.95 277.957 229.372 279.079 228.533 280.076C227.717 281.073 226.686 281.855 225.439 282.422C224.192 282.989 222.798 283.272 221.257 283.272C219.398 283.272 217.744 282.875 216.293 282.082C214.842 281.289 213.709 280.155 212.893 278.682C212.077 277.209 211.669 275.486 211.669 273.514C211.669 271.542 212.066 269.819 212.859 268.346C213.675 266.873 214.808 265.739 216.259 264.946C217.71 264.153 219.376 263.756 221.257 263.756C223.093 263.756 224.725 264.141 226.153 264.912C227.581 265.683 228.692 266.782 229.485 268.21C230.301 269.638 230.709 271.304 230.709 273.208ZM224.759 271.678C224.759 270.681 224.419 269.887 223.739 269.298C223.059 268.709 222.209 268.414 221.189 268.414C220.214 268.414 219.387 268.697 218.707 269.264C218.05 269.831 217.642 270.635 217.483 271.678H224.759ZM244.826 263.824C247.048 263.824 248.816 264.549 250.13 266C251.468 267.428 252.136 269.4 252.136 271.916V283H246.356V272.698C246.356 271.429 246.028 270.443 245.37 269.74C244.713 269.037 243.829 268.686 242.718 268.686C241.608 268.686 240.724 269.037 240.066 269.74C239.409 270.443 239.08 271.429 239.08 272.698V283H233.266V264.028H239.08V266.544C239.67 265.705 240.463 265.048 241.46 264.572C242.458 264.073 243.58 263.824 244.826 263.824ZM254.51 273.48C254.51 271.531 254.873 269.819 255.598 268.346C256.346 266.873 257.355 265.739 258.624 264.946C259.894 264.153 261.31 263.756 262.874 263.756C264.121 263.756 265.254 264.017 266.274 264.538C267.317 265.059 268.133 265.762 268.722 266.646V257.84H274.536V283H268.722V280.28C268.178 281.187 267.396 281.912 266.376 282.456C265.379 283 264.212 283.272 262.874 283.272C261.31 283.272 259.894 282.875 258.624 282.082C257.355 281.266 256.346 280.121 255.598 278.648C254.873 277.152 254.51 275.429 254.51 273.48ZM268.722 273.514C268.722 272.063 268.314 270.919 267.498 270.08C266.705 269.241 265.73 268.822 264.574 268.822C263.418 268.822 262.432 269.241 261.616 270.08C260.823 270.896 260.426 272.029 260.426 273.48C260.426 274.931 260.823 276.087 261.616 276.948C262.432 277.787 263.418 278.206 264.574 278.206C265.73 278.206 266.705 277.787 267.498 276.948C268.314 276.109 268.722 274.965 268.722 273.514ZM104.342 315.028L99.208 334H92.782L89.79 321.692L86.696 334H80.304L75.136 315.028H80.95L83.636 328.594L86.832 315.028H92.986L96.216 328.526L98.868 315.028H104.342ZM123.933 324.208C123.933 324.752 123.899 325.319 123.831 325.908H110.673C110.764 327.087 111.138 327.993 111.795 328.628C112.475 329.24 113.303 329.546 114.277 329.546C115.728 329.546 116.737 328.934 117.303 327.71H123.491C123.174 328.957 122.596 330.079 121.757 331.076C120.941 332.073 119.91 332.855 118.663 333.422C117.417 333.989 116.023 334.272 114.481 334.272C112.623 334.272 110.968 333.875 109.517 333.082C108.067 332.289 106.933 331.155 106.117 329.682C105.301 328.209 104.893 326.486 104.893 324.514C104.893 322.542 105.29 320.819 106.083 319.346C106.899 317.873 108.033 316.739 109.483 315.946C110.934 315.153 112.6 314.756 114.481 314.756C116.317 314.756 117.949 315.141 119.377 315.912C120.805 316.683 121.916 317.782 122.709 319.21C123.525 320.638 123.933 322.304 123.933 324.208ZM117.983 322.678C117.983 321.681 117.643 320.887 116.963 320.298C116.283 319.709 115.433 319.414 114.413 319.414C113.439 319.414 112.611 319.697 111.931 320.264C111.274 320.831 110.866 321.635 110.707 322.678H117.983ZM132.304 317.714C132.848 316.83 133.63 316.116 134.65 315.572C135.67 315.028 136.838 314.756 138.152 314.756C139.716 314.756 141.133 315.153 142.402 315.946C143.672 316.739 144.669 317.873 145.394 319.346C146.142 320.819 146.516 322.531 146.516 324.48C146.516 326.429 146.142 328.152 145.394 329.648C144.669 331.121 143.672 332.266 142.402 333.082C141.133 333.875 139.716 334.272 138.152 334.272C136.815 334.272 135.648 334.011 134.65 333.49C133.653 332.946 132.871 332.232 132.304 331.348V334H126.49V308.84H132.304V317.714ZM140.6 324.48C140.6 323.029 140.192 321.896 139.376 321.08C138.583 320.241 137.597 319.822 136.418 319.822C135.262 319.822 134.276 320.241 133.46 321.08C132.667 321.919 132.27 323.063 132.27 324.514C132.27 325.965 132.667 327.109 133.46 327.948C134.276 328.787 135.262 329.206 136.418 329.206C137.574 329.206 138.56 328.787 139.376 327.948C140.192 327.087 140.6 325.931 140.6 324.48ZM156.775 334.272C155.12 334.272 153.647 333.989 152.355 333.422C151.063 332.855 150.043 332.085 149.295 331.11C148.547 330.113 148.127 329.002 148.037 327.778H153.783C153.851 328.435 154.157 328.968 154.701 329.376C155.245 329.784 155.913 329.988 156.707 329.988C157.432 329.988 157.987 329.852 158.373 329.58C158.781 329.285 158.985 328.911 158.985 328.458C158.985 327.914 158.701 327.517 158.135 327.268C157.568 326.996 156.65 326.701 155.381 326.384C154.021 326.067 152.887 325.738 151.981 325.398C151.074 325.035 150.292 324.48 149.635 323.732C148.977 322.961 148.649 321.93 148.649 320.638C148.649 319.55 148.943 318.564 149.533 317.68C150.145 316.773 151.029 316.059 152.185 315.538C153.363 315.017 154.757 314.756 156.367 314.756C158.747 314.756 160.617 315.345 161.977 316.524C163.359 317.703 164.153 319.267 164.357 321.216H158.985C158.894 320.559 158.599 320.037 158.101 319.652C157.625 319.267 156.99 319.074 156.197 319.074C155.517 319.074 154.995 319.21 154.633 319.482C154.27 319.731 154.089 320.083 154.089 320.536C154.089 321.08 154.372 321.488 154.939 321.76C155.528 322.032 156.435 322.304 157.659 322.576C159.064 322.939 160.209 323.301 161.093 323.664C161.977 324.004 162.747 324.571 163.405 325.364C164.085 326.135 164.436 327.177 164.459 328.492C164.459 329.603 164.141 330.6 163.507 331.484C162.895 332.345 161.999 333.025 160.821 333.524C159.665 334.023 158.316 334.272 156.775 334.272ZM170.429 313.056C169.409 313.056 168.571 312.761 167.913 312.172C167.279 311.56 166.961 310.812 166.961 309.928C166.961 309.021 167.279 308.273 167.913 307.684C168.571 307.072 169.409 306.766 170.429 306.766C171.427 306.766 172.243 307.072 172.877 307.684C173.535 308.273 173.863 309.021 173.863 309.928C173.863 310.812 173.535 311.56 172.877 312.172C172.243 312.761 171.427 313.056 170.429 313.056ZM173.319 315.028V334H167.505V315.028H173.319ZM187.597 329.07V334H184.639C182.531 334 180.888 333.49 179.709 332.47C178.53 331.427 177.941 329.739 177.941 327.404V319.856H175.629V315.028H177.941V310.404H183.755V315.028H187.563V319.856H183.755V327.472C183.755 328.039 183.891 328.447 184.163 328.696C184.435 328.945 184.888 329.07 185.523 329.07H187.597ZM208.209 324.208C208.209 324.752 208.175 325.319 208.107 325.908H194.949C195.04 327.087 195.414 327.993 196.071 328.628C196.751 329.24 197.579 329.546 198.553 329.546C200.004 329.546 201.013 328.934 201.579 327.71H207.767C207.45 328.957 206.872 330.079 206.033 331.076C205.217 332.073 204.186 332.855 202.939 333.422C201.693 333.989 200.299 334.272 198.757 334.272C196.899 334.272 195.244 333.875 193.793 333.082C192.343 332.289 191.209 331.155 190.393 329.682C189.577 328.209 189.169 326.486 189.169 324.514C189.169 322.542 189.566 320.819 190.359 319.346C191.175 317.873 192.309 316.739 193.759 315.946C195.21 315.153 196.876 314.756 198.757 314.756C200.593 314.756 202.225 315.141 203.653 315.912C205.081 316.683 206.192 317.782 206.985 319.21C207.801 320.638 208.209 322.304 208.209 324.208ZM202.259 322.678C202.259 321.681 201.919 320.887 201.239 320.298C200.559 319.709 199.709 319.414 198.689 319.414C197.715 319.414 196.887 319.697 196.207 320.264C195.55 320.831 195.142 321.635 194.983 322.678H202.259ZM75.952 375.48C75.952 373.531 76.3147 371.819 77.04 370.346C77.788 368.873 78.7967 367.739 80.066 366.946C81.3353 366.153 82.752 365.756 84.316 365.756C85.5627 365.756 86.696 366.017 87.716 366.538C88.7587 367.059 89.5747 367.762 90.164 368.646V359.84H95.978V385H90.164V382.28C89.62 383.187 88.838 383.912 87.818 384.456C86.8207 385 85.6533 385.272 84.316 385.272C82.752 385.272 81.3353 384.875 80.066 384.082C78.7967 383.266 77.788 382.121 77.04 380.648C76.3147 379.152 75.952 377.429 75.952 375.48ZM90.164 375.514C90.164 374.063 89.756 372.919 88.94 372.08C88.1467 371.241 87.172 370.822 86.016 370.822C84.86 370.822 83.874 371.241 83.058 372.08C82.2647 372.896 81.868 374.029 81.868 375.48C81.868 376.931 82.2647 378.087 83.058 378.948C83.874 379.787 84.86 380.206 86.016 380.206C87.172 380.206 88.1467 379.787 88.94 378.948C89.756 378.109 90.164 376.965 90.164 375.514ZM117.558 375.208C117.558 375.752 117.524 376.319 117.456 376.908H104.298C104.389 378.087 104.763 378.993 105.42 379.628C106.1 380.24 106.928 380.546 107.902 380.546C109.353 380.546 110.362 379.934 110.928 378.71H117.116C116.799 379.957 116.221 381.079 115.382 382.076C114.566 383.073 113.535 383.855 112.288 384.422C111.042 384.989 109.648 385.272 108.106 385.272C106.248 385.272 104.593 384.875 103.142 384.082C101.692 383.289 100.558 382.155 99.7422 380.682C98.9262 379.209 98.5182 377.486 98.5182 375.514C98.5182 373.542 98.9148 371.819 99.7082 370.346C100.524 368.873 101.658 367.739 103.108 366.946C104.559 366.153 106.225 365.756 108.106 365.756C109.942 365.756 111.574 366.141 113.002 366.912C114.43 367.683 115.541 368.782 116.334 370.21C117.15 371.638 117.558 373.304 117.558 375.208ZM111.608 373.678C111.608 372.681 111.268 371.887 110.588 371.298C109.908 370.709 109.058 370.414 108.038 370.414C107.064 370.414 106.236 370.697 105.556 371.264C104.899 371.831 104.491 372.635 104.332 373.678H111.608ZM128.649 379.56L132.763 366.028H138.951L132.219 385H125.045L118.313 366.028H124.535L128.649 379.56ZM158.773 375.208C158.773 375.752 158.739 376.319 158.671 376.908H145.513C145.603 378.087 145.977 378.993 146.635 379.628C147.315 380.24 148.142 380.546 149.117 380.546C150.567 380.546 151.576 379.934 152.143 378.71H158.331C158.013 379.957 157.435 381.079 156.597 382.076C155.781 383.073 154.749 383.855 153.503 384.422C152.256 384.989 150.862 385.272 149.321 385.272C147.462 385.272 145.807 384.875 144.357 384.082C142.906 383.289 141.773 382.155 140.957 380.682C140.141 379.209 139.733 377.486 139.733 375.514C139.733 373.542 140.129 371.819 140.923 370.346C141.739 368.873 142.872 367.739 144.323 366.946C145.773 366.153 147.439 365.756 149.321 365.756C151.157 365.756 152.789 366.141 154.217 366.912C155.645 367.683 156.755 368.782 157.549 370.21C158.365 371.638 158.773 373.304 158.773 375.208ZM152.823 373.678C152.823 372.681 152.483 371.887 151.803 371.298C151.123 370.709 150.273 370.414 149.253 370.414C148.278 370.414 147.451 370.697 146.771 371.264C146.113 371.831 145.705 372.635 145.547 373.678H152.823ZM167.144 359.84V385H161.33V359.84H167.144ZM179.483 385.272C177.624 385.272 175.947 384.875 174.451 384.082C172.978 383.289 171.81 382.155 170.949 380.682C170.11 379.209 169.691 377.486 169.691 375.514C169.691 373.565 170.122 371.853 170.983 370.38C171.844 368.884 173.023 367.739 174.519 366.946C176.015 366.153 177.692 365.756 179.551 365.756C181.41 365.756 183.087 366.153 184.583 366.946C186.079 367.739 187.258 368.884 188.119 370.38C188.98 371.853 189.411 373.565 189.411 375.514C189.411 377.463 188.969 379.186 188.085 380.682C187.224 382.155 186.034 383.289 184.515 384.082C183.019 384.875 181.342 385.272 179.483 385.272ZM179.483 380.24C180.594 380.24 181.534 379.832 182.305 379.016C183.098 378.2 183.495 377.033 183.495 375.514C183.495 373.995 183.11 372.828 182.339 372.012C181.591 371.196 180.662 370.788 179.551 370.788C178.418 370.788 177.477 371.196 176.729 372.012C175.981 372.805 175.607 373.973 175.607 375.514C175.607 377.033 175.97 378.2 176.695 379.016C177.443 379.832 178.372 380.24 179.483 380.24ZM197.8 368.714C198.366 367.83 199.148 367.116 200.146 366.572C201.143 366.028 202.31 365.756 203.648 365.756C205.212 365.756 206.628 366.153 207.898 366.946C209.167 367.739 210.164 368.873 210.89 370.346C211.638 371.819 212.012 373.531 212.012 375.48C212.012 377.429 211.638 379.152 210.89 380.648C210.164 382.121 209.167 383.266 207.898 384.082C206.628 384.875 205.212 385.272 203.648 385.272C202.333 385.272 201.166 385 200.146 384.456C199.148 383.912 198.366 383.209 197.8 382.348V394.044H191.986V366.028H197.8V368.714ZM206.096 375.48C206.096 374.029 205.688 372.896 204.872 372.08C204.078 371.241 203.092 370.822 201.914 370.822C200.758 370.822 199.772 371.241 198.956 372.08C198.162 372.919 197.766 374.063 197.766 375.514C197.766 376.965 198.162 378.109 198.956 378.948C199.772 379.787 200.758 380.206 201.914 380.206C203.07 380.206 204.056 379.787 204.872 378.948C205.688 378.087 206.096 376.931 206.096 375.48ZM238.76 365.824C241.117 365.824 242.987 366.538 244.37 367.966C245.775 369.394 246.478 371.377 246.478 373.916V385H240.698V374.698C240.698 373.474 240.369 372.533 239.712 371.876C239.077 371.196 238.193 370.856 237.06 370.856C235.926 370.856 235.031 371.196 234.374 371.876C233.739 372.533 233.422 373.474 233.422 374.698V385H227.642V374.698C227.642 373.474 227.313 372.533 226.656 371.876C226.021 371.196 225.137 370.856 224.004 370.856C222.87 370.856 221.975 371.196 221.318 371.876C220.683 372.533 220.366 373.474 220.366 374.698V385H214.552V366.028H220.366V368.408C220.955 367.615 221.726 366.991 222.678 366.538C223.63 366.062 224.706 365.824 225.908 365.824C227.336 365.824 228.605 366.13 229.716 366.742C230.849 367.354 231.733 368.227 232.368 369.36C233.025 368.317 233.92 367.467 235.054 366.81C236.187 366.153 237.422 365.824 238.76 365.824ZM267.918 375.208C267.918 375.752 267.884 376.319 267.816 376.908H254.658C254.749 378.087 255.123 378.993 255.78 379.628C256.46 380.24 257.287 380.546 258.262 380.546C259.713 380.546 260.721 379.934 261.288 378.71H267.476C267.159 379.957 266.581 381.079 265.742 382.076C264.926 383.073 263.895 383.855 262.648 384.422C261.401 384.989 260.007 385.272 258.466 385.272C256.607 385.272 254.953 384.875 253.502 384.082C252.051 383.289 250.918 382.155 250.102 380.682C249.286 379.209 248.878 377.486 248.878 375.514C248.878 373.542 249.275 371.819 250.068 370.346C250.884 368.873 252.017 367.739 253.468 366.946C254.919 366.153 256.585 365.756 258.466 365.756C260.302 365.756 261.934 366.141 263.362 366.912C264.79 367.683 265.901 368.782 266.694 370.21C267.51 371.638 267.918 373.304 267.918 375.208ZM261.968 373.678C261.968 372.681 261.628 371.887 260.948 371.298C260.268 370.709 259.418 370.414 258.398 370.414C257.423 370.414 256.596 370.697 255.916 371.264C255.259 371.831 254.851 372.635 254.692 373.678H261.968ZM282.035 365.824C284.256 365.824 286.024 366.549 287.339 368C288.676 369.428 289.345 371.4 289.345 373.916V385H283.565V374.698C283.565 373.429 283.236 372.443 282.579 371.74C281.922 371.037 281.038 370.686 279.927 370.686C278.816 370.686 277.932 371.037 277.275 371.74C276.618 372.443 276.289 373.429 276.289 374.698V385H270.475V366.028H276.289V368.544C276.878 367.705 277.672 367.048 278.669 366.572C279.666 366.073 280.788 365.824 282.035 365.824ZM303.449 380.07V385H300.491C298.383 385 296.74 384.49 295.561 383.47C294.383 382.427 293.793 380.739 293.793 378.404V370.856H291.481V366.028H293.793V361.404H299.607V366.028H303.415V370.856H299.607V378.472C299.607 379.039 299.743 379.447 300.015 379.696C300.287 379.945 300.741 380.07 301.375 380.07H303.449ZM94.992 426.208C94.992 426.752 94.958 427.319 94.89 427.908H81.732C81.8227 429.087 82.1967 429.993 82.854 430.628C83.534 431.24 84.3613 431.546 85.336 431.546C86.7867 431.546 87.7953 430.934 88.362 429.71H94.55C94.2327 430.957 93.6547 432.079 92.816 433.076C92 434.073 90.9687 434.855 89.722 435.422C88.4753 435.989 87.0813 436.272 85.54 436.272C83.6813 436.272 82.0267 435.875 80.576 435.082C79.1253 434.289 77.992 433.155 77.176 431.682C76.36 430.209 75.952 428.486 75.952 426.514C75.952 424.542 76.3487 422.819 77.142 421.346C77.958 419.873 79.0913 418.739 80.542 417.946C81.9927 417.153 83.6587 416.756 85.54 416.756C87.376 416.756 89.008 417.141 90.436 417.912C91.864 418.683 92.9747 419.782 93.768 421.21C94.584 422.638 94.992 424.304 94.992 426.208ZM89.042 424.678C89.042 423.681 88.702 422.887 88.022 422.298C87.342 421.709 86.492 421.414 85.472 421.414C84.4973 421.414 83.67 421.697 82.99 422.264C82.3327 422.831 81.9247 423.635 81.766 424.678H89.042ZM108.769 436L105.131 430.73L102.071 436H95.7812L102.037 426.31L95.6112 417.028H102.139L105.777 422.264L108.837 417.028H115.127L108.769 426.582L115.297 436H108.769ZM122.841 419.714C123.408 418.83 124.19 418.116 125.187 417.572C126.185 417.028 127.352 416.756 128.689 416.756C130.253 416.756 131.67 417.153 132.939 417.946C134.209 418.739 135.206 419.873 135.931 421.346C136.679 422.819 137.053 424.531 137.053 426.48C137.053 428.429 136.679 430.152 135.931 431.648C135.206 433.121 134.209 434.266 132.939 435.082C131.67 435.875 130.253 436.272 128.689 436.272C127.375 436.272 126.207 436 125.187 435.456C124.19 434.912 123.408 434.209 122.841 433.348V445.044H117.027V417.028H122.841V419.714ZM131.137 426.48C131.137 425.029 130.729 423.896 129.913 423.08C129.12 422.241 128.134 421.822 126.955 421.822C125.799 421.822 124.813 422.241 123.997 423.08C123.204 423.919 122.807 425.063 122.807 426.514C122.807 427.965 123.204 429.109 123.997 429.948C124.813 430.787 125.799 431.206 126.955 431.206C128.111 431.206 129.097 430.787 129.913 429.948C130.729 429.087 131.137 427.931 131.137 426.48ZM157.478 426.208C157.478 426.752 157.444 427.319 157.376 427.908H144.218C144.308 429.087 144.682 429.993 145.34 430.628C146.02 431.24 146.847 431.546 147.822 431.546C149.272 431.546 150.281 430.934 150.848 429.71H157.036C156.718 430.957 156.14 432.079 155.302 433.076C154.486 434.073 153.454 434.855 152.208 435.422C150.961 435.989 149.567 436.272 148.026 436.272C146.167 436.272 144.512 435.875 143.062 435.082C141.611 434.289 140.478 433.155 139.662 431.682C138.846 430.209 138.438 428.486 138.438 426.514C138.438 424.542 138.834 422.819 139.628 421.346C140.444 419.873 141.577 418.739 143.028 417.946C144.478 417.153 146.144 416.756 148.026 416.756C149.862 416.756 151.494 417.141 152.922 417.912C154.35 418.683 155.46 419.782 156.254 421.21C157.07 422.638 157.478 424.304 157.478 426.208ZM151.528 424.678C151.528 423.681 151.188 422.887 150.508 422.298C149.828 421.709 148.978 421.414 147.958 421.414C146.983 421.414 146.156 421.697 145.476 422.264C144.818 422.831 144.41 423.635 144.252 424.678H151.528ZM165.849 420.19C166.529 419.147 167.379 418.331 168.399 417.742C169.419 417.13 170.552 416.824 171.799 416.824V422.978H170.201C168.75 422.978 167.662 423.295 166.937 423.93C166.211 424.542 165.849 425.63 165.849 427.194V436H160.035V417.028H165.849V420.19ZM176.992 415.056C175.972 415.056 175.133 414.761 174.476 414.172C173.841 413.56 173.524 412.812 173.524 411.928C173.524 411.021 173.841 410.273 174.476 409.684C175.133 409.072 175.972 408.766 176.992 408.766C177.989 408.766 178.805 409.072 179.44 409.684C180.097 410.273 180.426 411.021 180.426 411.928C180.426 412.812 180.097 413.56 179.44 414.172C178.805 414.761 177.989 415.056 176.992 415.056ZM179.882 417.028V436H174.068V417.028H179.882ZM201.469 426.208C201.469 426.752 201.435 427.319 201.367 427.908H188.209C188.3 429.087 188.674 429.993 189.331 430.628C190.011 431.24 190.838 431.546 191.813 431.546C193.264 431.546 194.272 430.934 194.839 429.71H201.027C200.71 430.957 200.132 432.079 199.293 433.076C198.477 434.073 197.446 434.855 196.199 435.422C194.952 435.989 193.558 436.272 192.017 436.272C190.158 436.272 188.504 435.875 187.053 435.082C185.602 434.289 184.469 433.155 183.653 431.682C182.837 430.209 182.429 428.486 182.429 426.514C182.429 424.542 182.826 422.819 183.619 421.346C184.435 419.873 185.568 418.739 187.019 417.946C188.47 417.153 190.136 416.756 192.017 416.756C193.853 416.756 195.485 417.141 196.913 417.912C198.341 418.683 199.452 419.782 200.245 421.21C201.061 422.638 201.469 424.304 201.469 426.208ZM195.519 424.678C195.519 423.681 195.179 422.887 194.499 422.298C193.819 421.709 192.969 421.414 191.949 421.414C190.974 421.414 190.147 421.697 189.467 422.264C188.81 422.831 188.402 423.635 188.243 424.678H195.519ZM215.586 416.824C217.808 416.824 219.576 417.549 220.89 419C222.228 420.428 222.896 422.4 222.896 424.916V436H217.116V425.698C217.116 424.429 216.788 423.443 216.13 422.74C215.473 422.037 214.589 421.686 213.478 421.686C212.368 421.686 211.484 422.037 210.826 422.74C210.169 423.443 209.84 424.429 209.84 425.698V436H204.026V417.028H209.84V419.544C210.43 418.705 211.223 418.048 212.22 417.572C213.218 417.073 214.34 416.824 215.586 416.824ZM225.27 426.514C225.27 424.542 225.667 422.819 226.46 421.346C227.276 419.873 228.398 418.739 229.826 417.946C231.277 417.153 232.932 416.756 234.79 416.756C237.17 416.756 239.154 417.379 240.74 418.626C242.35 419.873 243.404 421.629 243.902 423.896H237.714C237.193 422.445 236.184 421.72 234.688 421.72C233.623 421.72 232.773 422.139 232.138 422.978C231.504 423.794 231.186 424.973 231.186 426.514C231.186 428.055 231.504 429.245 232.138 430.084C232.773 430.9 233.623 431.308 234.688 431.308C236.184 431.308 237.193 430.583 237.714 429.132H243.902C243.404 431.353 242.35 433.099 240.74 434.368C239.131 435.637 237.148 436.272 234.79 436.272C232.932 436.272 231.277 435.875 229.826 435.082C228.398 434.289 227.276 433.155 226.46 431.682C225.667 430.209 225.27 428.486 225.27 426.514ZM264.386 426.208C264.386 426.752 264.352 427.319 264.284 427.908H251.126C251.217 429.087 251.591 429.993 252.248 430.628C252.928 431.24 253.756 431.546 254.73 431.546C256.181 431.546 257.19 430.934 257.756 429.71H263.944C263.627 430.957 263.049 432.079 262.21 433.076C261.394 434.073 260.363 434.855 259.116 435.422C257.87 435.989 256.476 436.272 254.934 436.272C253.076 436.272 251.421 435.875 249.97 435.082C248.52 434.289 247.386 433.155 246.57 431.682C245.754 430.209 245.346 428.486 245.346 426.514C245.346 424.542 245.743 422.819 246.536 421.346C247.352 419.873 248.486 418.739 249.936 417.946C251.387 417.153 253.053 416.756 254.934 416.756C256.77 416.756 258.402 417.141 259.83 417.912C261.258 418.683 262.369 419.782 263.162 421.21C263.978 422.638 264.386 424.304 264.386 426.208ZM258.436 424.678C258.436 423.681 258.096 422.887 257.416 422.298C256.736 421.709 255.886 421.414 254.866 421.414C253.892 421.414 253.064 421.697 252.384 422.264C251.727 422.831 251.319 423.635 251.16 424.678H258.436Z" fill="#3F7AEA"/>
<path d="M348.952 41.132L342.73 65H335.692L331.884 49.292L327.94 65H320.902L314.85 41.132H321.072L324.506 58.506L328.756 41.132H335.148L339.228 58.506L342.696 41.132H348.952ZM369.242 55.208C369.242 55.752 369.208 56.3187 369.14 56.908H355.982C356.072 58.0867 356.446 58.9933 357.104 59.628C357.784 60.24 358.611 60.546 359.586 60.546C361.036 60.546 362.045 59.934 362.612 58.71H368.8C368.482 59.9567 367.904 61.0787 367.066 62.076C366.25 63.0733 365.218 63.8553 363.972 64.422C362.725 64.9887 361.331 65.272 359.79 65.272C357.931 65.272 356.276 64.8753 354.826 64.082C353.375 63.2887 352.242 62.1553 351.426 60.682C350.61 59.2087 350.202 57.486 350.202 55.514C350.202 53.542 350.598 51.8193 351.392 50.346C352.208 48.8727 353.341 47.7393 354.792 46.946C356.242 46.1527 357.908 45.756 359.79 45.756C361.626 45.756 363.258 46.1413 364.686 46.912C366.114 47.6827 367.224 48.782 368.018 50.21C368.834 51.638 369.242 53.304 369.242 55.208ZM363.292 53.678C363.292 52.6807 362.952 51.8873 362.272 51.298C361.592 50.7087 360.742 50.414 359.722 50.414C358.747 50.414 357.92 50.6973 357.24 51.264C356.582 51.8307 356.174 52.6353 356.016 53.678H363.292ZM377.613 39.84V65H371.799V39.84H377.613ZM387.13 39.84V65H381.316V39.84H387.13ZM405.454 50.652V55.48H390.494V50.652H405.454ZM417.764 65.272C416.11 65.272 414.636 64.9887 413.344 64.422C412.052 63.8553 411.032 63.0847 410.284 62.11C409.536 61.1127 409.117 60.002 409.026 58.778H414.772C414.84 59.4353 415.146 59.968 415.69 60.376C416.234 60.784 416.903 60.988 417.696 60.988C418.422 60.988 418.977 60.852 419.362 60.58C419.77 60.2853 419.974 59.9113 419.974 59.458C419.974 58.914 419.691 58.5173 419.124 58.268C418.558 57.996 417.64 57.7013 416.37 57.384C415.01 57.0667 413.877 56.738 412.97 56.398C412.064 56.0353 411.282 55.48 410.624 54.732C409.967 53.9613 409.638 52.93 409.638 51.638C409.638 50.55 409.933 49.564 410.522 48.68C411.134 47.7733 412.018 47.0593 413.174 46.538C414.353 46.0167 415.747 45.756 417.356 45.756C419.736 45.756 421.606 46.3453 422.966 47.524C424.349 48.7027 425.142 50.2667 425.346 52.216H419.974C419.884 51.5587 419.589 51.0373 419.09 50.652C418.614 50.2667 417.98 50.074 417.186 50.074C416.506 50.074 415.985 50.21 415.622 50.482C415.26 50.7313 415.078 51.0827 415.078 51.536C415.078 52.08 415.362 52.488 415.928 52.76C416.518 53.032 417.424 53.304 418.648 53.576C420.054 53.9387 421.198 54.3013 422.082 54.664C422.966 55.004 423.737 55.5707 424.394 56.364C425.074 57.1347 425.426 58.1773 425.448 59.492C425.448 60.6027 425.131 61.6 424.496 62.484C423.884 63.3453 422.989 64.0253 421.81 64.524C420.654 65.0227 419.306 65.272 417.764 65.272ZM439.069 60.07V65H436.111C434.003 65 432.36 64.49 431.181 63.47C430.003 62.4273 429.413 60.7387 429.413 58.404V50.856H427.101V46.028H429.413V41.404H435.227V46.028H439.035V50.856H435.227V58.472C435.227 59.0387 435.363 59.4467 435.635 59.696C435.907 59.9453 436.361 60.07 436.995 60.07H439.069ZM447.612 49.19C448.292 48.1473 449.142 47.3313 450.162 46.742C451.182 46.13 452.315 45.824 453.562 45.824V51.978H451.964C450.513 51.978 449.425 52.2953 448.7 52.93C447.974 53.542 447.612 54.63 447.612 56.194V65H441.798V46.028H447.612V49.19ZM474.565 46.028V65H468.751V62.416C468.161 63.2547 467.357 63.9347 466.337 64.456C465.339 64.9547 464.229 65.204 463.005 65.204C461.554 65.204 460.273 64.8867 459.163 64.252C458.052 63.5947 457.191 62.654 456.579 61.43C455.967 60.206 455.661 58.7667 455.661 57.112V46.028H461.441V56.33C461.441 57.5993 461.769 58.5853 462.427 59.288C463.084 59.9907 463.968 60.342 465.079 60.342C466.212 60.342 467.107 59.9907 467.765 59.288C468.422 58.5853 468.751 57.5993 468.751 56.33V46.028H474.565ZM477.075 55.514C477.075 53.542 477.472 51.8193 478.265 50.346C479.081 48.8727 480.203 47.7393 481.631 46.946C483.082 46.1527 484.736 45.756 486.595 45.756C488.975 45.756 490.958 46.3793 492.545 47.626C494.154 48.8727 495.208 50.6293 495.707 52.896H489.519C488.998 51.4453 487.989 50.72 486.493 50.72C485.428 50.72 484.578 51.1393 483.943 51.978C483.308 52.794 482.991 53.9727 482.991 55.514C482.991 57.0553 483.308 58.2453 483.943 59.084C484.578 59.9 485.428 60.308 486.493 60.308C487.989 60.308 488.998 59.5827 489.519 58.132H495.707C495.208 60.3533 494.154 62.0987 492.545 63.368C490.936 64.6373 488.952 65.272 486.595 65.272C484.736 65.272 483.082 64.8753 481.631 64.082C480.203 63.2887 479.081 62.1553 478.265 60.682C477.472 59.2087 477.075 57.486 477.075 55.514ZM508.881 60.07V65H505.923C503.815 65 502.171 64.49 500.993 63.47C499.814 62.4273 499.225 60.7387 499.225 58.404V50.856H496.913V46.028H499.225V41.404H505.039V46.028H508.847V50.856H505.039V58.472C505.039 59.0387 505.175 59.4467 505.447 59.696C505.719 59.9453 506.172 60.07 506.807 60.07H508.881ZM530.343 46.028V65H524.529V62.416C523.94 63.2547 523.135 63.9347 522.115 64.456C521.118 64.9547 520.007 65.204 518.783 65.204C517.333 65.204 516.052 64.8867 514.941 64.252C513.831 63.5947 512.969 62.654 512.357 61.43C511.745 60.206 511.439 58.7667 511.439 57.112V46.028H517.219V56.33C517.219 57.5993 517.548 58.5853 518.205 59.288C518.863 59.9907 519.747 60.342 520.857 60.342C521.991 60.342 522.886 59.9907 523.543 59.288C524.201 58.5853 524.529 57.5993 524.529 56.33V46.028H530.343ZM539.823 49.19C540.503 48.1473 541.353 47.3313 542.373 46.742C543.393 46.13 544.527 45.824 545.773 45.824V51.978H544.175C542.725 51.978 541.637 52.2953 540.911 52.93C540.186 53.542 539.823 54.63 539.823 56.194V65H534.009V46.028H539.823V49.19ZM565.926 55.208C565.926 55.752 565.892 56.3187 565.824 56.908H552.666C552.757 58.0867 553.131 58.9933 553.788 59.628C554.468 60.24 555.296 60.546 556.27 60.546C557.721 60.546 558.73 59.934 559.296 58.71H565.484C565.167 59.9567 564.589 61.0787 563.75 62.076C562.934 63.0733 561.903 63.8553 560.656 64.422C559.41 64.9887 558.016 65.272 556.474 65.272C554.616 65.272 552.961 64.8753 551.51 64.082C550.06 63.2887 548.926 62.1553 548.11 60.682C547.294 59.2087 546.886 57.486 546.886 55.514C546.886 53.542 547.283 51.8193 548.076 50.346C548.892 48.8727 550.026 47.7393 551.476 46.946C552.927 46.1527 554.593 45.756 556.474 45.756C558.31 45.756 559.942 46.1413 561.37 46.912C562.798 47.6827 563.909 48.782 564.702 50.21C565.518 51.638 565.926 53.304 565.926 55.208ZM559.976 53.678C559.976 52.6807 559.636 51.8873 558.956 51.298C558.276 50.7087 557.426 50.414 556.406 50.414C555.432 50.414 554.604 50.6973 553.924 51.264C553.267 51.8307 552.859 52.6353 552.7 53.678H559.976ZM567.328 55.48C567.328 53.5307 567.69 51.8193 568.416 50.346C569.164 48.8727 570.172 47.7393 571.442 46.946C572.711 46.1527 574.128 45.756 575.692 45.756C576.938 45.756 578.072 46.0167 579.092 46.538C580.134 47.0593 580.95 47.762 581.54 48.646V39.84H587.354V65H581.54V62.28C580.996 63.1867 580.214 63.912 579.194 64.456C578.196 65 577.029 65.272 575.692 65.272C574.128 65.272 572.711 64.8753 571.442 64.082C570.172 63.266 569.164 62.1213 568.416 60.648C567.69 59.152 567.328 57.4293 567.328 55.48ZM581.54 55.514C581.54 54.0633 581.132 52.9187 580.316 52.08C579.522 51.2413 578.548 50.822 577.392 50.822C576.236 50.822 575.25 51.2413 574.434 52.08C573.64 52.896 573.244 54.0293 573.244 55.48C573.244 56.9307 573.64 58.0867 574.434 58.948C575.25 59.7867 576.236 60.206 577.392 60.206C578.548 60.206 579.522 59.7867 580.316 58.948C581.132 58.1093 581.54 56.9647 581.54 55.514ZM327.702 116L321.922 108.044V116H316.108V90.84H321.922V104.746L327.668 97.028H334.842L326.954 106.548L334.91 116H327.702ZM348.176 96.824C350.397 96.824 352.165 97.5493 353.48 99C354.817 100.428 355.486 102.4 355.486 104.916V116H349.706V105.698C349.706 104.429 349.377 103.443 348.72 102.74C348.062 102.037 347.178 101.686 346.068 101.686C344.957 101.686 344.073 102.037 343.416 102.74C342.758 103.443 342.43 104.429 342.43 105.698V116H336.616V97.028H342.43V99.544C343.019 98.7053 343.812 98.048 344.81 97.572C345.807 97.0733 346.929 96.824 348.176 96.824ZM367.652 116.272C365.793 116.272 364.116 115.875 362.62 115.082C361.146 114.289 359.979 113.155 359.118 111.682C358.279 110.209 357.86 108.486 357.86 106.514C357.86 104.565 358.29 102.853 359.152 101.38C360.013 99.884 361.192 98.7393 362.688 97.946C364.184 97.1527 365.861 96.756 367.72 96.756C369.578 96.756 371.256 97.1527 372.752 97.946C374.248 98.7393 375.426 99.884 376.288 101.38C377.149 102.853 377.58 104.565 377.58 106.514C377.58 108.463 377.138 110.186 376.254 111.682C375.392 113.155 374.202 114.289 372.684 115.082C371.188 115.875 369.51 116.272 367.652 116.272ZM367.652 111.24C368.762 111.24 369.703 110.832 370.474 110.016C371.267 109.2 371.664 108.033 371.664 106.514C371.664 104.995 371.278 103.828 370.508 103.012C369.76 102.196 368.83 101.788 367.72 101.788C366.586 101.788 365.646 102.196 364.898 103.012C364.15 103.805 363.776 104.973 363.776 106.514C363.776 108.033 364.138 109.2 364.864 110.016C365.612 110.832 366.541 111.24 367.652 111.24ZM407.388 97.028L402.254 116H395.828L392.836 103.692L389.742 116H383.35L378.182 97.028H383.996L386.682 110.594L389.878 97.028H396.032L399.262 110.526L401.914 97.028H407.388ZM414.909 90.84V116H409.095V90.84H414.909ZM436.497 106.208C436.497 106.752 436.463 107.319 436.395 107.908H423.237C423.327 109.087 423.701 109.993 424.359 110.628C425.039 111.24 425.866 111.546 426.841 111.546C428.291 111.546 429.3 110.934 429.867 109.71H436.055C435.737 110.957 435.159 112.079 434.321 113.076C433.505 114.073 432.473 114.855 431.227 115.422C429.98 115.989 428.586 116.272 427.045 116.272C425.186 116.272 423.531 115.875 422.081 115.082C420.63 114.289 419.497 113.155 418.681 111.682C417.865 110.209 417.457 108.486 417.457 106.514C417.457 104.542 417.853 102.819 418.647 101.346C419.463 99.8727 420.596 98.7393 422.047 97.946C423.497 97.1527 425.163 96.756 427.045 96.756C428.881 96.756 430.513 97.1413 431.941 97.912C433.369 98.6827 434.479 99.782 435.273 101.21C436.089 102.638 436.497 104.304 436.497 106.208ZM430.547 104.678C430.547 103.681 430.207 102.887 429.527 102.298C428.847 101.709 427.997 101.414 426.977 101.414C426.002 101.414 425.175 101.697 424.495 102.264C423.837 102.831 423.429 103.635 423.271 104.678H430.547ZM437.898 106.48C437.898 104.531 438.261 102.819 438.986 101.346C439.734 99.8727 440.743 98.7393 442.012 97.946C443.281 97.1527 444.698 96.756 446.262 96.756C447.509 96.756 448.642 97.0167 449.662 97.538C450.705 98.0593 451.521 98.762 452.11 99.646V90.84H457.924V116H452.11V113.28C451.566 114.187 450.784 114.912 449.764 115.456C448.767 116 447.599 116.272 446.262 116.272C444.698 116.272 443.281 115.875 442.012 115.082C440.743 114.266 439.734 113.121 438.986 111.648C438.261 110.152 437.898 108.429 437.898 106.48ZM452.11 106.514C452.11 105.063 451.702 103.919 450.886 103.08C450.093 102.241 449.118 101.822 447.962 101.822C446.806 101.822 445.82 102.241 445.004 103.08C444.211 103.896 443.814 105.029 443.814 106.48C443.814 107.931 444.211 109.087 445.004 109.948C445.82 110.787 446.806 111.206 447.962 111.206C449.118 111.206 450.093 110.787 450.886 109.948C451.702 109.109 452.11 107.965 452.11 106.514ZM468.828 96.756C470.165 96.756 471.333 97.028 472.33 97.572C473.35 98.116 474.132 98.83 474.676 99.714V97.028H480.49V115.966C480.49 117.711 480.139 119.287 479.436 120.692C478.756 122.12 477.702 123.253 476.274 124.092C474.869 124.931 473.112 125.35 471.004 125.35C468.193 125.35 465.915 124.681 464.17 123.344C462.425 122.029 461.427 120.239 461.178 117.972H466.924C467.105 118.697 467.536 119.264 468.216 119.672C468.896 120.103 469.735 120.318 470.732 120.318C471.933 120.318 472.885 119.967 473.588 119.264C474.313 118.584 474.676 117.485 474.676 115.966V113.28C474.109 114.164 473.327 114.889 472.33 115.456C471.333 116 470.165 116.272 468.828 116.272C467.264 116.272 465.847 115.875 464.578 115.082C463.309 114.266 462.3 113.121 461.552 111.648C460.827 110.152 460.464 108.429 460.464 106.48C460.464 104.531 460.827 102.819 461.552 101.346C462.3 99.8727 463.309 98.7393 464.578 97.946C465.847 97.1527 467.264 96.756 468.828 96.756ZM474.676 106.514C474.676 105.063 474.268 103.919 473.452 103.08C472.659 102.241 471.684 101.822 470.528 101.822C469.372 101.822 468.386 102.241 467.57 103.08C466.777 103.896 466.38 105.029 466.38 106.48C466.38 107.931 466.777 109.087 467.57 109.948C468.386 110.787 469.372 111.206 470.528 111.206C471.684 111.206 472.659 110.787 473.452 109.948C474.268 109.109 474.676 107.965 474.676 106.514ZM502.07 106.208C502.07 106.752 502.036 107.319 501.968 107.908H488.81C488.901 109.087 489.275 109.993 489.932 110.628C490.612 111.24 491.44 111.546 492.414 111.546C493.865 111.546 494.874 110.934 495.44 109.71H501.628C501.311 110.957 500.733 112.079 499.894 113.076C499.078 114.073 498.047 114.855 496.8 115.422C495.554 115.989 494.16 116.272 492.618 116.272C490.76 116.272 489.105 115.875 487.654 115.082C486.204 114.289 485.07 113.155 484.254 111.682C483.438 110.209 483.03 108.486 483.03 106.514C483.03 104.542 483.427 102.819 484.22 101.346C485.036 99.8727 486.17 98.7393 487.62 97.946C489.071 97.1527 490.737 96.756 492.618 96.756C494.454 96.756 496.086 97.1413 497.514 97.912C498.942 98.6827 500.053 99.782 500.846 101.21C501.662 102.638 502.07 104.304 502.07 106.208ZM496.12 104.678C496.12 103.681 495.78 102.887 495.1 102.298C494.42 101.709 493.57 101.414 492.55 101.414C491.576 101.414 490.748 101.697 490.068 102.264C489.411 102.831 489.003 103.635 488.844 104.678H496.12ZM535.53 96.824C537.888 96.824 539.758 97.538 541.14 98.966C542.546 100.394 543.248 102.377 543.248 104.916V116H537.468V105.698C537.468 104.474 537.14 103.533 536.482 102.876C535.848 102.196 534.964 101.856 533.83 101.856C532.697 101.856 531.802 102.196 531.144 102.876C530.51 103.533 530.192 104.474 530.192 105.698V116H524.412V105.698C524.412 104.474 524.084 103.533 523.426 102.876C522.792 102.196 521.908 101.856 520.774 101.856C519.641 101.856 518.746 102.196 518.088 102.876C517.454 103.533 517.136 104.474 517.136 105.698V116H511.322V97.028H517.136V99.408C517.726 98.6147 518.496 97.9913 519.448 97.538C520.4 97.062 521.477 96.824 522.678 96.824C524.106 96.824 525.376 97.13 526.486 97.742C527.62 98.354 528.504 99.2267 529.138 100.36C529.796 99.3173 530.691 98.4673 531.824 97.81C532.958 97.1527 534.193 96.824 535.53 96.824ZM545.649 106.48C545.649 104.531 546.011 102.819 546.737 101.346C547.485 99.8727 548.493 98.7393 549.763 97.946C551.032 97.1527 552.449 96.756 554.013 96.756C555.35 96.756 556.517 97.028 557.515 97.572C558.535 98.116 559.317 98.83 559.861 99.714V97.028H565.675V116H559.861V113.314C559.294 114.198 558.501 114.912 557.481 115.456C556.483 116 555.316 116.272 553.979 116.272C552.437 116.272 551.032 115.875 549.763 115.082C548.493 114.266 547.485 113.121 546.737 111.648C546.011 110.152 545.649 108.429 545.649 106.48ZM559.861 106.514C559.861 105.063 559.453 103.919 558.637 103.08C557.843 102.241 556.869 101.822 555.713 101.822C554.557 101.822 553.571 102.241 552.755 103.08C551.961 103.896 551.565 105.029 551.565 106.48C551.565 107.931 551.961 109.087 552.755 109.948C553.571 110.787 554.557 111.206 555.713 111.206C556.869 111.206 557.843 110.787 558.637 109.948C559.453 109.109 559.861 107.965 559.861 106.514ZM575.185 99.714C575.751 98.83 576.533 98.116 577.531 97.572C578.528 97.028 579.695 96.756 581.033 96.756C582.597 96.756 584.013 97.1527 585.283 97.946C586.552 98.7393 587.549 99.8727 588.275 101.346C589.023 102.819 589.397 104.531 589.397 106.48C589.397 108.429 589.023 110.152 588.275 111.648C587.549 113.121 586.552 114.266 585.283 115.082C584.013 115.875 582.597 116.272 581.033 116.272C579.718 116.272 578.551 116 577.531 115.456C576.533 114.912 575.751 114.209 575.185 113.348V125.044H569.371V97.028H575.185V99.714ZM583.481 106.48C583.481 105.029 583.073 103.896 582.257 103.08C581.463 102.241 580.477 101.822 579.299 101.822C578.143 101.822 577.157 102.241 576.341 103.08C575.547 103.919 575.151 105.063 575.151 106.514C575.151 107.965 575.547 109.109 576.341 109.948C577.157 110.787 578.143 111.206 579.299 111.206C580.455 111.206 581.441 110.787 582.257 109.948C583.073 109.087 583.481 107.931 583.481 106.48Z" fill="#3F7AEA"/>
<path d="M396.897 299.585H392.966L334 315.309V158.067L360.652 150.962L392.966 142.343L393.3 155.684L393.963 182.165L395.019 224.438L395.452 241.838L396.101 267.758L396.897 299.585Z" fill="#C0F5F9"/>
<path d="M448 315.309L392.966 299.585V142.343L448 158.067L455.862 165.929L448 315.309Z" fill="#A8D6DA"/>
<path d="M503.034 299.585L448 315.309V158.067L503.034 142.343L510.897 295.654L503.034 299.585Z" fill="#C0F5F9"/>
<path d="M562 315.309L503.035 299.585V142.343L562 158.067V315.309Z" fill="#A8D6DA"/>
<path d="M421.456 186.992C429.52 175.57 430.717 160.448 423.917 148.231C418.194 137.951 407.567 130.471 394.304 130.023C393.86 130.007 393.414 130 392.965 130C392.517 130 392.071 130.008 391.627 130.023C378.364 130.471 367.737 137.951 362.014 148.231C355.214 160.448 356.412 175.57 364.475 186.992L392.965 227.349L421.456 186.992Z" fill="#F55648"/>
<path d="M392.965 182.207C400.293 182.207 406.233 176.267 406.233 168.94C406.233 161.612 400.293 155.672 392.965 155.672C385.638 155.672 379.698 161.612 379.698 168.94C379.698 176.267 385.638 182.207 392.965 182.207Z" fill="#CBCBCB"/>
<path d="M338.177 256.343C338.177 257.386 337.763 258.386 337.025 259.123C336.288 259.86 335.288 260.274 334.246 260.274H334V252.412H334.246C335.288 252.412 336.288 252.826 337.025 253.564C337.763 254.301 338.177 255.301 338.177 256.343ZM496.155 189.516H495.669C494.626 189.516 493.626 189.93 492.889 190.667C492.152 191.404 491.738 192.404 491.738 193.447C491.738 194.489 492.152 195.489 492.889 196.226C493.626 196.964 494.626 197.378 495.669 197.378H496.155C497.198 197.378 498.198 196.964 498.935 196.226C499.672 195.489 500.086 194.489 500.086 193.447C500.086 192.404 499.672 191.404 498.935 190.667C498.198 189.93 497.198 189.516 496.155 189.516ZM512.67 189.516H512.184C511.141 189.516 510.142 189.93 509.404 190.667C508.667 191.404 508.253 192.404 508.253 193.447C508.253 194.489 508.667 195.489 509.404 196.226C510.142 196.964 511.141 197.378 512.184 197.378H512.67C513.713 197.378 514.713 196.964 515.45 196.226C516.187 195.489 516.601 194.489 516.601 193.447C516.601 192.404 516.187 191.404 515.45 190.667C514.713 189.93 513.713 189.516 512.67 189.516ZM529.186 189.516H528.699C527.657 189.516 526.657 189.93 525.92 190.667C525.182 191.404 524.768 192.404 524.768 193.447C524.768 194.489 525.182 195.489 525.92 196.226C526.657 196.964 527.657 197.378 528.699 197.378H529.186C530.228 197.378 531.228 196.964 531.965 196.226C532.703 195.489 533.117 194.489 533.117 193.447C533.117 192.404 532.703 191.404 531.965 190.667C531.228 189.93 530.228 189.516 529.186 189.516ZM545.701 189.516H545.214C544.172 189.516 543.172 189.93 542.435 190.667C541.698 191.404 541.283 192.404 541.283 193.447C541.283 194.489 541.698 195.489 542.435 196.226C543.172 196.964 544.172 197.378 545.214 197.378H545.701C546.744 197.378 547.743 196.964 548.481 196.226C549.218 195.489 549.632 194.489 549.632 193.447C549.632 192.404 549.218 191.404 548.481 190.667C547.743 189.93 546.744 189.516 545.701 189.516ZM483.438 192.808C483.278 192.317 483.023 191.863 482.687 191.471C482.351 191.079 481.941 190.757 481.48 190.524C481.02 190.291 480.518 190.15 480.003 190.112C479.488 190.073 478.971 190.136 478.48 190.297C478.274 190.361 478.068 190.435 477.866 190.508C477.001 190.829 476.276 191.445 475.819 192.247C475.362 193.049 475.201 193.986 475.366 194.895C475.531 195.803 476.01 196.625 476.719 197.215C477.429 197.806 478.324 198.128 479.247 198.125C479.717 198.123 480.182 198.038 480.623 197.874C480.721 197.835 480.824 197.8 480.922 197.766C481.413 197.606 481.868 197.35 482.26 197.014C482.652 196.678 482.974 196.268 483.207 195.808C483.441 195.348 483.582 194.846 483.621 194.331C483.661 193.816 483.599 193.299 483.438 192.808ZM471.586 203.029C470.544 203.029 469.544 203.443 468.807 204.18C468.069 204.917 467.655 205.917 467.655 206.96V207.446C467.655 208.489 468.069 209.489 468.807 210.226C469.544 210.963 470.544 211.377 471.586 211.377C472.629 211.377 473.629 210.963 474.366 210.226C475.103 209.489 475.517 208.489 475.517 207.446V206.96C475.517 205.917 475.103 204.917 474.366 204.18C473.629 203.443 472.629 203.029 471.586 203.029ZM471.586 219.544C470.544 219.544 469.544 219.958 468.807 220.695C468.069 221.432 467.655 222.432 467.655 223.475V223.961C467.655 225.004 468.069 226.004 468.807 226.741C469.544 227.478 470.544 227.892 471.586 227.892C472.629 227.892 473.629 227.478 474.366 226.741C475.103 226.004 475.517 225.004 475.517 223.961V223.475C475.517 222.432 475.103 221.432 474.366 220.695C473.629 219.958 472.629 219.544 471.586 219.544ZM471.586 236.059C470.544 236.059 469.544 236.473 468.807 237.21C468.069 237.948 467.655 238.948 467.655 239.99V240.477C467.655 241.519 468.069 242.519 468.807 243.256C469.544 243.993 470.544 244.408 471.586 244.408C472.629 244.408 473.629 243.993 474.366 243.256C475.103 242.519 475.517 241.519 475.517 240.477V239.99C475.517 238.948 475.103 237.948 474.366 237.21C473.629 236.473 472.629 236.059 471.586 236.059ZM469.365 252.476C469.092 252.038 468.735 251.659 468.314 251.359C467.894 251.06 467.419 250.846 466.916 250.73C466.413 250.614 465.893 250.598 465.384 250.684C464.875 250.769 464.388 250.954 463.95 251.228L463.67 251.39C462.764 251.906 462.099 252.76 461.823 253.765C461.546 254.771 461.681 255.845 462.196 256.751C462.711 257.657 463.566 258.322 464.571 258.598C465.577 258.875 466.65 258.741 467.557 258.225C467.744 258.122 467.93 258.009 468.112 257.896C468.997 257.343 469.626 256.462 469.861 255.445C470.096 254.429 469.917 253.361 469.365 252.476ZM350.761 252.412H350.274C349.232 252.412 348.232 252.826 347.495 253.564C346.758 254.301 346.343 255.301 346.343 256.343C346.343 257.386 346.758 258.386 347.495 259.123C348.232 259.86 349.232 260.274 350.274 260.274H350.761C351.804 260.274 352.803 259.86 353.541 259.123C354.278 258.386 354.692 257.386 354.692 256.343C354.692 255.301 354.278 254.301 353.541 253.564C352.803 252.826 351.804 252.412 350.761 252.412ZM367.276 252.412H366.79C365.747 252.412 364.747 252.826 364.01 253.564C363.273 254.301 362.859 255.301 362.859 256.343C362.859 257.386 363.273 258.386 364.01 259.123C364.747 259.86 365.747 260.274 366.79 260.274H367.276C368.319 260.274 369.319 259.86 370.056 259.123C370.793 258.386 371.207 257.386 371.207 256.343C371.207 255.301 370.793 254.301 370.056 253.564C369.319 252.826 368.319 252.412 367.276 252.412ZM400.307 252.412H399.82C398.778 252.412 397.778 252.826 397.041 253.564C396.303 254.301 395.889 255.301 395.889 256.343C395.889 257.386 396.303 258.386 397.041 259.123C397.778 259.86 398.778 260.274 399.82 260.274H400.307C401.349 260.274 402.349 259.86 403.086 259.123C403.824 258.386 404.238 257.386 404.238 256.343C404.238 255.301 403.824 254.301 403.086 253.564C402.349 252.826 401.349 252.412 400.307 252.412ZM416.822 252.412H416.336C415.293 252.412 414.293 252.826 413.556 253.564C412.819 254.301 412.404 255.301 412.404 256.343C412.404 257.386 412.819 258.386 413.556 259.123C414.293 259.86 415.293 260.274 416.336 260.274H416.822C417.865 260.274 418.864 259.86 419.602 259.123C420.339 258.386 420.753 257.386 420.753 256.343C420.753 255.301 420.339 254.301 419.602 253.564C418.864 252.826 417.865 252.412 416.822 252.412ZM433.337 252.412H432.851C431.808 252.412 430.808 252.826 430.071 253.564C429.334 254.301 428.92 255.301 428.92 256.343C428.92 257.386 429.334 258.386 430.071 259.123C430.808 259.86 431.808 260.274 432.851 260.274H433.337C434.38 260.274 435.38 259.86 436.117 259.123C436.854 258.386 437.268 257.386 437.268 256.343C437.268 255.301 436.854 254.301 436.117 253.564C435.38 252.826 434.38 252.412 433.337 252.412ZM451.297 252.687C450.837 252.505 450.347 252.412 449.852 252.412H449.366C448.323 252.412 447.324 252.826 446.586 253.564C445.849 254.301 445.435 255.301 445.435 256.343C445.435 257.386 445.849 258.386 446.586 259.123C447.324 259.86 448.323 260.274 449.366 260.274H449.852C450.767 260.274 451.654 259.955 452.359 259.372C453.063 258.788 453.543 257.977 453.714 257.079C453.885 256.18 453.737 255.249 453.296 254.448C452.855 253.646 452.148 253.024 451.297 252.687ZM562 197.378H561.754C560.712 197.378 559.712 196.964 558.975 196.226C558.237 195.489 557.823 194.489 557.823 193.447C557.823 192.404 558.237 191.404 558.975 190.667C559.712 189.93 560.712 189.516 561.754 189.516H562V197.378Z" fill="#6CBAE5"/>
<path d="M503.035 287.791C513.89 287.791 522.69 278.991 522.69 268.136C522.69 257.281 513.89 248.481 503.035 248.481C492.179 248.481 483.379 257.281 483.379 268.136C483.379 278.991 492.179 287.791 503.035 287.791Z" fill="#FBB540"/>
<path d="M504.208 280.779C503.565 280.779 502.931 280.62 502.362 280.318C501.794 280.015 501.309 279.578 500.949 279.043C500.589 278.509 500.367 277.895 500.3 277.255C500.233 276.614 500.325 275.967 500.567 275.371L503.675 267.699L495.398 267.78H495.36C494.317 267.785 493.315 267.376 492.574 266.642C491.834 265.909 491.415 264.911 491.41 263.868C491.405 262.826 491.814 261.824 492.548 261.083C493.281 260.342 494.279 259.923 495.322 259.918L509.495 259.783H509.534C510.177 259.783 510.811 259.941 511.379 260.243C511.947 260.546 512.432 260.983 512.792 261.517C513.152 262.05 513.375 262.664 513.442 263.304C513.509 263.944 513.418 264.591 513.177 265.188L507.853 278.323C507.559 279.049 507.055 279.671 506.406 280.108C505.757 280.545 504.991 280.779 504.208 280.779Z" fill="#DA922A"/>
<path d="M392.965 268.136C400.293 268.136 406.233 262.196 406.233 254.869C406.233 247.542 400.293 241.602 392.965 241.602C385.638 241.602 379.698 247.542 379.698 254.869C379.698 262.196 385.638 268.136 392.965 268.136Z" fill="#428DC5"/>
<path d="M504.508 205.24C511.836 205.24 517.776 199.3 517.776 191.972C517.776 184.645 511.836 178.705 504.508 178.705C497.181 178.705 491.241 184.645 491.241 191.972C491.241 199.3 497.181 205.24 504.508 205.24Z" fill="#428DC5"/>
<path d="M686.228 392.745C663.216 356.84 662.776 347.802 662.776 347.802C653.47 268.524 588.709 263 570.601 263H564.313C551.046 263 470 266.452 470 349.057V349.622C470 419.359 496.911 426.201 506.719 447.919C514.219 465.946 516.59 485.69 513.573 504.977C513.195 507 513.43 509.09 514.248 510.979C515.065 512.868 516.428 514.472 518.163 515.585C539.855 528.138 588.017 528.138 609.395 515.585C611.15 514.515 612.599 513.011 613.601 511.219C614.603 509.426 615.125 507.406 615.116 505.353V474.596C615.116 470.014 621.09 469.574 623.479 469.574H627.691C636.557 469.574 660.387 468.507 662.524 457.334C663.874 443.593 663.748 429.747 662.147 416.032C669.189 413.273 676.037 410.043 682.644 406.366C683.88 405.814 684.975 404.992 685.851 403.962C686.726 402.932 687.359 401.718 687.703 400.412C688.047 399.105 688.093 397.738 687.838 396.411C687.582 395.084 687.033 393.831 686.228 392.745Z" fill="#BFE0FF"/>
<path d="M675.628 275.206L676.253 275.637L676.007 276.355L663.072 313.985L718.221 297.992L718.577 297.889L718.914 298.042C722.942 299.873 729.629 301.826 737.774 303.726C745.899 305.621 755.408 307.448 765.039 309.044C784.323 312.237 804.005 314.483 814 314.483C867.674 314.483 916.223 299.727 951.325 275.922C986.432 252.114 1008 219.328 1008 183.241C1008 147.154 986.432 114.369 951.325 90.5603C916.223 66.7558 867.674 52.0001 814 52.0001C760.326 52.0001 711.777 66.7558 676.675 90.5603C641.568 114.369 620 147.154 620 183.241C620 218.968 641.139 251.458 675.628 275.206Z" fill="white" stroke="#97CEFF" stroke-width="2"/>
<path d="M691.001 116.585V140.453H685.187V116.585H691.001ZM700.243 130.967C700.243 128.995 700.64 127.272 701.433 125.799C702.249 124.325 703.371 123.192 704.799 122.399C706.25 121.605 707.905 121.209 709.763 121.209C712.143 121.209 714.127 121.832 715.713 123.079C717.323 124.325 718.377 126.082 718.875 128.349H712.687C712.166 126.898 711.157 126.173 709.661 126.173C708.596 126.173 707.746 126.592 707.111 127.431C706.477 128.247 706.159 129.425 706.159 130.967C706.159 132.508 706.477 133.698 707.111 134.537C707.746 135.353 708.596 135.761 709.661 135.761C711.157 135.761 712.166 135.035 712.687 133.585H718.875C718.377 135.806 717.323 137.551 715.713 138.821C714.104 140.09 712.121 140.725 709.763 140.725C707.905 140.725 706.25 140.328 704.799 139.535C703.371 138.741 702.249 137.608 701.433 136.135C700.64 134.661 700.243 132.939 700.243 130.967ZM720.319 130.933C720.319 128.983 720.682 127.272 721.407 125.799C722.155 124.325 723.164 123.192 724.433 122.399C725.702 121.605 727.119 121.209 728.683 121.209C730.02 121.209 731.188 121.481 732.185 122.025C733.205 122.569 733.987 123.283 734.531 124.167V121.481H740.345V140.453H734.531V137.767C733.964 138.651 733.171 139.365 732.151 139.909C731.154 140.453 729.986 140.725 728.649 140.725C727.108 140.725 725.702 140.328 724.433 139.535C723.164 138.719 722.155 137.574 721.407 136.101C720.682 134.605 720.319 132.882 720.319 130.933ZM734.531 130.967C734.531 129.516 734.123 128.371 733.307 127.533C732.514 126.694 731.539 126.275 730.383 126.275C729.227 126.275 728.241 126.694 727.425 127.533C726.632 128.349 726.235 129.482 726.235 130.933C726.235 132.383 726.632 133.539 727.425 134.401C728.241 135.239 729.227 135.659 730.383 135.659C731.539 135.659 732.514 135.239 733.307 134.401C734.123 133.562 734.531 132.417 734.531 130.967ZM755.601 121.277C757.823 121.277 759.591 122.002 760.905 123.453C762.243 124.881 762.911 126.853 762.911 129.369V140.453H757.131V130.151C757.131 128.881 756.803 127.895 756.145 127.193C755.488 126.49 754.604 126.139 753.493 126.139C752.383 126.139 751.499 126.49 750.841 127.193C750.184 127.895 749.855 128.881 749.855 130.151V140.453H744.041V121.481H749.855V123.997C750.445 123.158 751.238 122.501 752.235 122.025C753.233 121.526 754.355 121.277 755.601 121.277ZM797.345 121.277C799.702 121.277 801.572 121.991 802.955 123.419C804.36 124.847 805.063 126.83 805.063 129.369V140.453H799.283V130.151C799.283 128.927 798.954 127.986 798.297 127.329C797.662 126.649 796.778 126.309 795.645 126.309C794.511 126.309 793.616 126.649 792.959 127.329C792.324 127.986 792.007 128.927 792.007 130.151V140.453H786.227V130.151C786.227 128.927 785.898 127.986 785.241 127.329C784.606 126.649 783.722 126.309 782.589 126.309C781.455 126.309 780.56 126.649 779.903 127.329C779.268 127.986 778.951 128.927 778.951 130.151V140.453H773.137V121.481H778.951V123.861C779.54 123.067 780.311 122.444 781.263 121.991C782.215 121.515 783.291 121.277 784.493 121.277C785.921 121.277 787.19 121.583 788.301 122.195C789.434 122.807 790.318 123.679 790.953 124.813C791.61 123.77 792.505 122.92 793.639 122.263C794.772 121.605 796.007 121.277 797.345 121.277ZM826.503 130.661C826.503 131.205 826.469 131.771 826.401 132.361H813.243C813.333 133.539 813.707 134.446 814.365 135.081C815.045 135.693 815.872 135.999 816.847 135.999C818.297 135.999 819.306 135.387 819.873 134.163H826.061C825.743 135.409 825.165 136.531 824.327 137.529C823.511 138.526 822.479 139.308 821.233 139.875C819.986 140.441 818.592 140.725 817.051 140.725C815.192 140.725 813.537 140.328 812.087 139.535C810.636 138.741 809.503 137.608 808.687 136.135C807.871 134.661 807.463 132.939 807.463 130.967C807.463 128.995 807.859 127.272 808.653 125.799C809.469 124.325 810.602 123.192 812.053 122.399C813.503 121.605 815.169 121.209 817.051 121.209C818.887 121.209 820.519 121.594 821.947 122.365C823.375 123.135 824.485 124.235 825.279 125.663C826.095 127.091 826.503 128.757 826.503 130.661ZM820.553 129.131C820.553 128.133 820.213 127.34 819.533 126.751C818.853 126.161 818.003 125.867 816.983 125.867C816.008 125.867 815.181 126.15 814.501 126.717C813.843 127.283 813.435 128.088 813.277 129.131H820.553ZM853.268 121.277C855.625 121.277 857.495 121.991 858.878 123.419C860.283 124.847 860.986 126.83 860.986 129.369V140.453H855.206V130.151C855.206 128.927 854.877 127.986 854.22 127.329C853.585 126.649 852.701 126.309 851.568 126.309C850.435 126.309 849.539 126.649 848.882 127.329C848.247 127.986 847.93 128.927 847.93 130.151V140.453H842.15V130.151C842.15 128.927 841.821 127.986 841.164 127.329C840.529 126.649 839.645 126.309 838.512 126.309C837.379 126.309 836.483 126.649 835.826 127.329C835.191 127.986 834.874 128.927 834.874 130.151V140.453H829.06V121.481H834.874V123.861C835.463 123.067 836.234 122.444 837.186 121.991C838.138 121.515 839.215 121.277 840.416 121.277C841.844 121.277 843.113 121.583 844.224 122.195C845.357 122.807 846.241 123.679 846.876 124.813C847.533 123.77 848.429 122.92 849.562 122.263C850.695 121.605 851.931 121.277 853.268 121.277ZM873.178 140.725C871.319 140.725 869.642 140.328 868.146 139.535C866.673 138.741 865.505 137.608 864.644 136.135C863.805 134.661 863.386 132.939 863.386 130.967C863.386 129.017 863.817 127.306 864.678 125.833C865.539 124.337 866.718 123.192 868.214 122.399C869.71 121.605 871.387 121.209 873.246 121.209C875.105 121.209 876.782 121.605 878.278 122.399C879.774 123.192 880.953 124.337 881.814 125.833C882.675 127.306 883.106 129.017 883.106 130.967C883.106 132.916 882.664 134.639 881.78 136.135C880.919 137.608 879.729 138.741 878.21 139.535C876.714 140.328 875.037 140.725 873.178 140.725ZM873.178 135.693C874.289 135.693 875.229 135.285 876 134.469C876.793 133.653 877.19 132.485 877.19 130.967C877.19 129.448 876.805 128.281 876.034 127.465C875.286 126.649 874.357 126.241 873.246 126.241C872.113 126.241 871.172 126.649 870.424 127.465C869.676 128.258 869.302 129.425 869.302 130.967C869.302 132.485 869.665 133.653 870.39 134.469C871.138 135.285 872.067 135.693 873.178 135.693ZM891.495 124.643C892.175 123.6 893.025 122.784 894.045 122.195C895.065 121.583 896.198 121.277 897.445 121.277V127.431H895.847C894.396 127.431 893.308 127.748 892.583 128.383C891.857 128.995 891.495 130.083 891.495 131.647V140.453H885.681V121.481H891.495V124.643ZM902.638 119.509C901.618 119.509 900.779 119.214 900.122 118.625C899.487 118.013 899.17 117.265 899.17 116.381C899.17 115.474 899.487 114.726 900.122 114.137C900.779 113.525 901.618 113.219 902.638 113.219C903.635 113.219 904.451 113.525 905.086 114.137C905.743 114.726 906.072 115.474 906.072 116.381C906.072 117.265 905.743 118.013 905.086 118.625C904.451 119.214 903.635 119.509 902.638 119.509ZM905.528 121.481V140.453H899.714V121.481H905.528ZM914.671 135.659H922.899V140.453H908.177V135.829L916.065 126.275H908.245V121.481H922.729V126.105L914.671 135.659ZM943.472 130.661C943.472 131.205 943.438 131.771 943.37 132.361H930.212C930.303 133.539 930.677 134.446 931.334 135.081C932.014 135.693 932.841 135.999 933.816 135.999C935.267 135.999 936.275 135.387 936.842 134.163H943.03C942.713 135.409 942.135 136.531 941.296 137.529C940.48 138.526 939.449 139.308 938.202 139.875C936.955 140.441 935.561 140.725 934.02 140.725C932.161 140.725 930.507 140.328 929.056 139.535C927.605 138.741 926.472 137.608 925.656 136.135C924.84 134.661 924.432 132.939 924.432 130.967C924.432 128.995 924.829 127.272 925.622 125.799C926.438 124.325 927.571 123.192 929.022 122.399C930.473 121.605 932.139 121.209 934.02 121.209C935.856 121.209 937.488 121.594 938.916 122.365C940.344 123.135 941.455 124.235 942.248 125.663C943.064 127.091 943.472 128.757 943.472 130.661ZM937.522 129.131C937.522 128.133 937.182 127.34 936.502 126.751C935.822 126.161 934.972 125.867 933.952 125.867C932.977 125.867 932.15 126.15 931.47 126.717C930.813 127.283 930.405 128.088 930.246 129.131H937.522ZM703.875 172.277C706.096 172.277 707.864 173.002 709.179 174.453C710.516 175.881 711.185 177.853 711.185 180.369V191.453H705.405V181.151C705.405 179.881 705.076 178.895 704.419 178.193C703.762 177.49 702.878 177.139 701.767 177.139C700.656 177.139 699.772 177.49 699.115 178.193C698.458 178.895 698.129 179.881 698.129 181.151V191.453H692.315V172.481H698.129V174.997C698.718 174.158 699.511 173.501 700.509 173.025C701.506 172.526 702.628 172.277 703.875 172.277ZM732.599 181.661C732.599 182.205 732.565 182.771 732.497 183.361H719.339C719.43 184.539 719.804 185.446 720.461 186.081C721.141 186.693 721.968 186.999 722.943 186.999C724.394 186.999 725.402 186.387 725.969 185.163H732.157C731.84 186.409 731.262 187.531 730.423 188.529C729.607 189.526 728.576 190.308 727.329 190.875C726.082 191.441 724.688 191.725 723.147 191.725C721.288 191.725 719.634 191.328 718.183 190.535C716.732 189.741 715.599 188.608 714.783 187.135C713.967 185.661 713.559 183.939 713.559 181.967C713.559 179.995 713.956 178.272 714.749 176.799C715.565 175.325 716.698 174.192 718.149 173.399C719.6 172.605 721.266 172.209 723.147 172.209C724.983 172.209 726.615 172.594 728.043 173.365C729.471 174.135 730.582 175.235 731.375 176.663C732.191 178.091 732.599 179.757 732.599 181.661ZM726.649 180.131C726.649 179.133 726.309 178.34 725.629 177.751C724.949 177.161 724.099 176.867 723.079 176.867C722.104 176.867 721.277 177.15 720.597 177.717C719.94 178.283 719.532 179.088 719.373 180.131H726.649ZM762.39 172.481L757.256 191.453H750.83L747.838 179.145L744.744 191.453H738.352L733.184 172.481H738.998L741.684 186.047L744.88 172.481H751.034L754.264 185.979L756.916 172.481H762.39ZM773.716 170.509C772.696 170.509 771.858 170.214 771.2 169.625C770.566 169.013 770.248 168.265 770.248 167.381C770.248 166.474 770.566 165.726 771.2 165.137C771.858 164.525 772.696 164.219 773.716 164.219C774.714 164.219 775.53 164.525 776.164 165.137C776.822 165.726 777.15 166.474 777.15 167.381C777.15 168.265 776.822 169.013 776.164 169.625C775.53 170.214 774.714 170.509 773.716 170.509ZM776.606 172.481V191.453H770.792V172.481H776.606ZM779.154 181.933C779.154 179.983 779.516 178.272 780.242 176.799C780.99 175.325 781.998 174.192 783.268 173.399C784.537 172.605 785.954 172.209 787.518 172.209C788.764 172.209 789.898 172.469 790.918 172.991C791.96 173.512 792.776 174.215 793.366 175.099V166.293H799.18V191.453H793.366V188.733C792.822 189.639 792.04 190.365 791.02 190.909C790.022 191.453 788.855 191.725 787.518 191.725C785.954 191.725 784.537 191.328 783.268 190.535C781.998 189.719 780.99 188.574 780.242 187.101C779.516 185.605 779.154 183.882 779.154 181.933ZM793.366 181.967C793.366 180.516 792.958 179.371 792.142 178.533C791.348 177.694 790.374 177.275 789.218 177.275C788.062 177.275 787.076 177.694 786.26 178.533C785.466 179.349 785.07 180.482 785.07 181.933C785.07 183.383 785.466 184.539 786.26 185.401C787.076 186.239 788.062 186.659 789.218 186.659C790.374 186.659 791.348 186.239 792.142 185.401C792.958 184.562 793.366 183.417 793.366 181.967ZM820.76 181.661C820.76 182.205 820.726 182.771 820.658 183.361H807.5C807.591 184.539 807.965 185.446 808.622 186.081C809.302 186.693 810.129 186.999 811.104 186.999C812.555 186.999 813.563 186.387 814.13 185.163H820.318C820.001 186.409 819.423 187.531 818.584 188.529C817.768 189.526 816.737 190.308 815.49 190.875C814.243 191.441 812.849 191.725 811.308 191.725C809.449 191.725 807.795 191.328 806.344 190.535C804.893 189.741 803.76 188.608 802.944 187.135C802.128 185.661 801.72 183.939 801.72 181.967C801.72 179.995 802.117 178.272 802.91 176.799C803.726 175.325 804.859 174.192 806.31 173.399C807.761 172.605 809.427 172.209 811.308 172.209C813.144 172.209 814.776 172.594 816.204 173.365C817.632 174.135 818.743 175.235 819.536 176.663C820.352 178.091 820.76 179.757 820.76 181.661ZM814.81 180.131C814.81 179.133 814.47 178.34 813.79 177.751C813.11 177.161 812.26 176.867 811.24 176.867C810.265 176.867 809.438 177.15 808.758 177.717C808.101 178.283 807.693 179.088 807.534 180.131H814.81ZM822.161 181.933C822.161 179.983 822.524 178.272 823.249 176.799C823.997 175.325 825.006 174.192 826.275 173.399C827.544 172.605 828.961 172.209 830.525 172.209C831.862 172.209 833.03 172.481 834.027 173.025C835.047 173.569 835.829 174.283 836.373 175.167V172.481H842.187V191.453H836.373V188.767C835.806 189.651 835.013 190.365 833.993 190.909C832.996 191.453 831.828 191.725 830.491 191.725C828.95 191.725 827.544 191.328 826.275 190.535C825.006 189.719 823.997 188.574 823.249 187.101C822.524 185.605 822.161 183.882 822.161 181.933ZM836.373 181.967C836.373 180.516 835.965 179.371 835.149 178.533C834.356 177.694 833.381 177.275 832.225 177.275C831.069 177.275 830.083 177.694 829.267 178.533C828.474 179.349 828.077 180.482 828.077 181.933C828.077 183.383 828.474 184.539 829.267 185.401C830.083 186.239 831.069 186.659 832.225 186.659C833.381 186.659 834.356 186.239 835.149 185.401C835.965 184.562 836.373 183.417 836.373 181.967ZM853.601 191.725C851.947 191.725 850.473 191.441 849.181 190.875C847.889 190.308 846.869 189.537 846.121 188.563C845.373 187.565 844.954 186.455 844.863 185.231H850.609C850.677 185.888 850.983 186.421 851.527 186.829C852.071 187.237 852.74 187.441 853.533 187.441C854.259 187.441 854.814 187.305 855.199 187.033C855.607 186.738 855.811 186.364 855.811 185.911C855.811 185.367 855.528 184.97 854.961 184.721C854.395 184.449 853.477 184.154 852.207 183.837C850.847 183.519 849.714 183.191 848.807 182.851C847.901 182.488 847.119 181.933 846.461 181.185C845.804 180.414 845.475 179.383 845.475 178.091C845.475 177.003 845.77 176.017 846.359 175.133C846.971 174.226 847.855 173.512 849.011 172.991C850.19 172.469 851.584 172.209 853.193 172.209C855.573 172.209 857.443 172.798 858.803 173.977C860.186 175.155 860.979 176.719 861.183 178.669H855.811C855.721 178.011 855.426 177.49 854.927 177.105C854.451 176.719 853.817 176.527 853.023 176.527C852.343 176.527 851.822 176.663 851.459 176.935C851.097 177.184 850.915 177.535 850.915 177.989C850.915 178.533 851.199 178.941 851.765 179.213C852.355 179.485 853.261 179.757 854.485 180.029C855.891 180.391 857.035 180.754 857.919 181.117C858.803 181.457 859.574 182.023 860.231 182.817C860.911 183.587 861.263 184.63 861.285 185.945C861.285 187.055 860.968 188.053 860.333 188.937C859.721 189.798 858.826 190.478 857.647 190.977C856.491 191.475 855.143 191.725 853.601 191.725ZM873.951 170.509C872.931 170.509 872.093 170.214 871.435 169.625C870.801 169.013 870.483 168.265 870.483 167.381C870.483 166.474 870.801 165.726 871.435 165.137C872.093 164.525 872.931 164.219 873.951 164.219C874.949 164.219 875.765 164.525 876.399 165.137C877.057 165.726 877.385 166.474 877.385 167.381C877.385 168.265 877.057 169.013 876.399 169.625C875.765 170.214 874.949 170.509 873.951 170.509ZM876.841 172.481V191.453H871.027V172.481H876.841ZM892.105 172.277C894.326 172.277 896.094 173.002 897.409 174.453C898.746 175.881 899.415 177.853 899.415 180.369V191.453H893.635V181.151C893.635 179.881 893.306 178.895 892.649 178.193C891.991 177.49 891.107 177.139 889.997 177.139C888.886 177.139 888.002 177.49 887.345 178.193C886.687 178.895 886.359 179.881 886.359 181.151V191.453H880.545V172.481H886.359V174.997C886.948 174.158 887.741 173.501 888.739 173.025C889.736 172.526 890.858 172.277 892.105 172.277ZM915.179 181.933C915.179 179.983 915.542 178.272 916.267 176.799C917.015 175.325 918.024 174.192 919.293 173.399C920.562 172.605 921.979 172.209 923.543 172.209C924.88 172.209 926.048 172.481 927.045 173.025C928.065 173.569 928.847 174.283 929.391 175.167V172.481H935.205V191.453H929.391V188.767C928.824 189.651 928.031 190.365 927.011 190.909C926.014 191.453 924.846 191.725 923.509 191.725C921.968 191.725 920.562 191.328 919.293 190.535C918.024 189.719 917.015 188.574 916.267 187.101C915.542 185.605 915.179 183.882 915.179 181.933ZM929.391 181.967C929.391 180.516 928.983 179.371 928.167 178.533C927.374 177.694 926.399 177.275 925.243 177.275C924.087 177.275 923.101 177.694 922.285 178.533C921.492 179.349 921.095 180.482 921.095 181.933C921.095 183.383 921.492 184.539 922.285 185.401C923.101 186.239 924.087 186.659 925.243 186.659C926.399 186.659 927.374 186.239 928.167 185.401C928.983 184.562 929.391 183.417 929.391 181.967ZM705.128 223.277C707.486 223.277 709.356 223.991 710.738 225.419C712.144 226.847 712.846 228.83 712.846 231.369V242.453H707.066V232.151C707.066 230.927 706.738 229.986 706.08 229.329C705.446 228.649 704.562 228.309 703.428 228.309C702.295 228.309 701.4 228.649 700.742 229.329C700.108 229.986 699.79 230.927 699.79 232.151V242.453H694.01V232.151C694.01 230.927 693.682 229.986 693.024 229.329C692.39 228.649 691.506 228.309 690.372 228.309C689.239 228.309 688.344 228.649 687.686 229.329C687.052 229.986 686.734 230.927 686.734 232.151V242.453H680.92V223.481H686.734V225.861C687.324 225.067 688.094 224.444 689.046 223.991C689.998 223.515 691.075 223.277 692.276 223.277C693.704 223.277 694.974 223.583 696.084 224.195C697.218 224.807 698.102 225.679 698.736 226.813C699.394 225.77 700.289 224.92 701.422 224.263C702.556 223.605 703.791 223.277 705.128 223.277ZM725.038 242.725C723.18 242.725 721.502 242.328 720.006 241.535C718.533 240.741 717.366 239.608 716.504 238.135C715.666 236.661 715.246 234.939 715.246 232.967C715.246 231.017 715.677 229.306 716.538 227.833C717.4 226.337 718.578 225.192 720.074 224.399C721.57 223.605 723.248 223.209 725.106 223.209C726.965 223.209 728.642 223.605 730.138 224.399C731.634 225.192 732.813 226.337 733.674 227.833C734.536 229.306 734.966 231.017 734.966 232.967C734.966 234.916 734.524 236.639 733.64 238.135C732.779 239.608 731.589 240.741 730.07 241.535C728.574 242.328 726.897 242.725 725.038 242.725ZM725.038 237.693C726.149 237.693 727.09 237.285 727.86 236.469C728.654 235.653 729.05 234.485 729.05 232.967C729.05 231.448 728.665 230.281 727.894 229.465C727.146 228.649 726.217 228.241 725.106 228.241C723.973 228.241 723.032 228.649 722.284 229.465C721.536 230.258 721.162 231.425 721.162 232.967C721.162 234.485 721.525 235.653 722.25 236.469C722.998 237.285 723.928 237.693 725.038 237.693ZM743.355 226.643C744.035 225.6 744.885 224.784 745.905 224.195C746.925 223.583 748.058 223.277 749.305 223.277V229.431H747.707C746.256 229.431 745.168 229.748 744.443 230.383C743.717 230.995 743.355 232.083 743.355 233.647V242.453H737.541V223.481H743.355V226.643ZM769.458 232.661C769.458 233.205 769.424 233.771 769.356 234.361H756.198C756.288 235.539 756.662 236.446 757.32 237.081C758 237.693 758.827 237.999 759.802 237.999C761.252 237.999 762.261 237.387 762.828 236.163H769.016C768.698 237.409 768.12 238.531 767.282 239.529C766.466 240.526 765.434 241.308 764.188 241.875C762.941 242.441 761.547 242.725 760.006 242.725C758.147 242.725 756.492 242.328 755.042 241.535C753.591 240.741 752.458 239.608 751.642 238.135C750.826 236.661 750.418 234.939 750.418 232.967C750.418 230.995 750.814 229.272 751.608 227.799C752.424 226.325 753.557 225.192 755.008 224.399C756.458 223.605 758.124 223.209 760.006 223.209C761.842 223.209 763.474 223.594 764.902 224.365C766.33 225.135 767.44 226.235 768.234 227.663C769.05 229.091 769.458 230.757 769.458 232.661ZM763.508 231.131C763.508 230.133 763.168 229.34 762.488 228.751C761.808 228.161 760.958 227.867 759.938 227.867C758.963 227.867 758.136 228.15 757.456 228.717C756.798 229.283 756.39 230.088 756.232 231.131H763.508ZM787.346 242.725C785.487 242.725 783.81 242.328 782.314 241.535C780.841 240.741 779.673 239.608 778.812 238.135C777.973 236.661 777.554 234.939 777.554 232.967C777.554 231.017 777.985 229.306 778.846 227.833C779.707 226.337 780.886 225.192 782.382 224.399C783.878 223.605 785.555 223.209 787.414 223.209C789.273 223.209 790.95 223.605 792.446 224.399C793.942 225.192 795.121 226.337 795.982 227.833C796.843 229.306 797.274 231.017 797.274 232.967C797.274 234.916 796.832 236.639 795.948 238.135C795.087 239.608 793.897 240.741 792.378 241.535C790.882 242.328 789.205 242.725 787.346 242.725ZM787.346 237.693C788.457 237.693 789.397 237.285 790.168 236.469C790.961 235.653 791.358 234.485 791.358 232.967C791.358 231.448 790.973 230.281 790.202 229.465C789.454 228.649 788.525 228.241 787.414 228.241C786.281 228.241 785.34 228.649 784.592 229.465C783.844 230.258 783.47 231.425 783.47 232.967C783.47 234.485 783.833 235.653 784.558 236.469C785.306 237.285 786.235 237.693 787.346 237.693ZM805.662 226.643C806.342 225.6 807.192 224.784 808.212 224.195C809.232 223.583 810.366 223.277 811.612 223.277V229.431H810.014C808.564 229.431 807.476 229.748 806.75 230.383C806.025 230.995 805.662 232.083 805.662 233.647V242.453H799.848V223.481H805.662V226.643ZM821.089 223.209C822.427 223.209 823.594 223.481 824.591 224.025C825.611 224.569 826.393 225.283 826.937 226.167V223.481H832.751V242.419C832.751 244.164 832.4 245.739 831.697 247.145C831.017 248.573 829.963 249.706 828.535 250.545C827.13 251.383 825.373 251.803 823.265 251.803C820.455 251.803 818.177 251.134 816.431 249.797C814.686 248.482 813.689 246.691 813.439 244.425H819.185C819.367 245.15 819.797 245.717 820.477 246.125C821.157 246.555 821.996 246.771 822.993 246.771C824.195 246.771 825.147 246.419 825.849 245.717C826.575 245.037 826.937 243.937 826.937 242.419V239.733C826.371 240.617 825.589 241.342 824.591 241.909C823.594 242.453 822.427 242.725 821.089 242.725C819.525 242.725 818.109 242.328 816.839 241.535C815.57 240.719 814.561 239.574 813.813 238.101C813.088 236.605 812.725 234.882 812.725 232.933C812.725 230.983 813.088 229.272 813.813 227.799C814.561 226.325 815.57 225.192 816.839 224.399C818.109 223.605 819.525 223.209 821.089 223.209ZM826.937 232.967C826.937 231.516 826.529 230.371 825.713 229.533C824.92 228.694 823.945 228.275 822.789 228.275C821.633 228.275 820.647 228.694 819.831 229.533C819.038 230.349 818.641 231.482 818.641 232.933C818.641 234.383 819.038 235.539 819.831 236.401C820.647 237.239 821.633 237.659 822.789 237.659C823.945 237.659 824.92 237.239 825.713 236.401C826.529 235.562 826.937 234.417 826.937 232.967ZM835.292 232.933C835.292 230.983 835.654 229.272 836.38 227.799C837.128 226.325 838.136 225.192 839.406 224.399C840.675 223.605 842.092 223.209 843.656 223.209C844.993 223.209 846.16 223.481 847.158 224.025C848.178 224.569 848.96 225.283 849.504 226.167V223.481H855.318V242.453H849.504V239.767C848.937 240.651 848.144 241.365 847.124 241.909C846.126 242.453 844.959 242.725 843.622 242.725C842.08 242.725 840.675 242.328 839.406 241.535C838.136 240.719 837.128 239.574 836.38 238.101C835.654 236.605 835.292 234.882 835.292 232.933ZM849.504 232.967C849.504 231.516 849.096 230.371 848.28 229.533C847.486 228.694 846.512 228.275 845.356 228.275C844.2 228.275 843.214 228.694 842.398 229.533C841.604 230.349 841.208 231.482 841.208 232.933C841.208 234.383 841.604 235.539 842.398 236.401C843.214 237.239 844.2 237.659 845.356 237.659C846.512 237.659 847.486 237.239 848.28 236.401C849.096 235.562 849.504 234.417 849.504 232.967ZM870.574 223.277C872.795 223.277 874.563 224.002 875.878 225.453C877.215 226.881 877.884 228.853 877.884 231.369V242.453H872.104V232.151C872.104 230.881 871.775 229.895 871.118 229.193C870.46 228.49 869.576 228.139 868.466 228.139C867.355 228.139 866.471 228.49 865.814 229.193C865.156 229.895 864.828 230.881 864.828 232.151V242.453H859.014V223.481H864.828V225.997C865.417 225.158 866.21 224.501 867.208 224.025C868.205 223.526 869.327 223.277 870.574 223.277ZM884.338 221.509C883.318 221.509 882.479 221.214 881.822 220.625C881.187 220.013 880.87 219.265 880.87 218.381C880.87 217.474 881.187 216.726 881.822 216.137C882.479 215.525 883.318 215.219 884.338 215.219C885.335 215.219 886.151 215.525 886.786 216.137C887.443 216.726 887.772 217.474 887.772 218.381C887.772 219.265 887.443 220.013 886.786 220.625C886.151 221.214 885.335 221.509 884.338 221.509ZM887.228 223.481V242.453H881.414V223.481H887.228ZM896.371 237.659H904.599V242.453H889.877V237.829L897.765 228.275H889.945V223.481H904.429V228.105L896.371 237.659ZM925.172 232.661C925.172 233.205 925.138 233.771 925.07 234.361H911.912C912.003 235.539 912.377 236.446 913.034 237.081C913.714 237.693 914.542 237.999 915.516 237.999C916.967 237.999 917.976 237.387 918.542 236.163H924.73C924.413 237.409 923.835 238.531 922.996 239.529C922.18 240.526 921.149 241.308 919.902 241.875C918.656 242.441 917.262 242.725 915.72 242.725C913.862 242.725 912.207 242.328 910.756 241.535C909.306 240.741 908.172 239.608 907.356 238.135C906.54 236.661 906.132 234.939 906.132 232.967C906.132 230.995 906.529 229.272 907.322 227.799C908.138 226.325 909.272 225.192 910.722 224.399C912.173 223.605 913.839 223.209 915.72 223.209C917.556 223.209 919.188 223.594 920.616 224.365C922.044 225.135 923.155 226.235 923.948 227.663C924.764 229.091 925.172 230.757 925.172 232.661ZM919.222 231.131C919.222 230.133 918.882 229.34 918.202 228.751C917.522 228.161 916.672 227.867 915.652 227.867C914.678 227.867 913.85 228.15 913.17 228.717C912.513 229.283 912.105 230.088 911.946 231.131H919.222ZM926.574 232.933C926.574 230.983 926.936 229.272 927.662 227.799C928.41 226.325 929.418 225.192 930.688 224.399C931.957 223.605 933.374 223.209 934.938 223.209C936.184 223.209 937.318 223.469 938.338 223.991C939.38 224.512 940.196 225.215 940.786 226.099V217.293H946.6V242.453H940.786V239.733C940.242 240.639 939.46 241.365 938.44 241.909C937.442 242.453 936.275 242.725 934.938 242.725C933.374 242.725 931.957 242.328 930.688 241.535C929.418 240.719 928.41 239.574 927.662 238.101C926.936 236.605 926.574 234.882 926.574 232.933ZM940.786 232.967C940.786 231.516 940.378 230.371 939.562 229.533C938.768 228.694 937.794 228.275 936.638 228.275C935.482 228.275 934.496 228.694 933.68 229.533C932.886 230.349 932.49 231.482 932.49 232.933C932.49 234.383 932.886 235.539 933.68 236.401C934.496 237.239 935.482 237.659 936.638 237.659C937.794 237.659 938.768 237.239 939.562 236.401C940.378 235.562 940.786 234.417 940.786 232.967ZM806.347 274.481L801.213 293.453H794.787L791.795 281.145L788.701 293.453H782.309L777.141 274.481H782.955L785.641 288.047L788.837 274.481H794.991L798.221 287.979L800.873 274.481H806.347ZM806.898 283.933C806.898 281.983 807.261 280.272 807.986 278.799C808.734 277.325 809.743 276.192 811.012 275.399C812.282 274.605 813.698 274.209 815.262 274.209C816.6 274.209 817.767 274.481 818.764 275.025C819.784 275.569 820.566 276.283 821.11 277.167V274.481H826.924V293.453H821.11V290.767C820.544 291.651 819.75 292.365 818.73 292.909C817.733 293.453 816.566 293.725 815.228 293.725C813.687 293.725 812.282 293.328 811.012 292.535C809.743 291.719 808.734 290.574 807.986 289.101C807.261 287.605 806.898 285.882 806.898 283.933ZM821.11 283.967C821.11 282.516 820.702 281.371 819.886 280.533C819.093 279.694 818.118 279.275 816.962 279.275C815.806 279.275 814.82 279.694 814.004 280.533C813.211 281.349 812.814 282.482 812.814 283.933C812.814 285.383 813.211 286.539 814.004 287.401C814.82 288.239 815.806 288.659 816.962 288.659C818.118 288.659 819.093 288.239 819.886 287.401C820.702 286.562 821.11 285.417 821.11 283.967ZM850 274.481L838.1 302.463H831.844L836.196 292.807L828.478 274.481H834.972L839.358 286.347L843.71 274.481H850Z" fill="#3F7AEA"/>
<defs>
<linearGradient id="paint0_linear_13645_34704" x1="306.991" y1="200" x2="22" y2="200" gradientUnits="userSpaceOnUse">
<stop stop-color="#E0F0FF"/>
<stop offset="1" stop-color="#BFE0FF" stop-opacity="0"/>
</linearGradient>
</defs>
</svg>
