<svg width="190" height="100" viewBox="0 0 190 100" fill="none" xmlns="http://www.w3.org/2000/svg">
<path d="M45.4375 37.2813C45.4375 37.2813 38.0312 33.7813 37.2187 39.5781C36.2812 46.3125 44.3437 46.6875 44.3437 46.6875L45.4375 37.2813Z" fill="#E5F3FF"/>
<path d="M41.4689 43.2656C41.547 43.2656 41.6251 43.25 41.7032 43.2031C41.9376 43.0781 42.0314 42.7813 41.9064 42.5313L39.5626 38.125C39.4376 37.8906 39.1407 37.7969 38.8907 37.9219C38.6564 38.0469 38.5626 38.3438 38.6876 38.5938L41.0314 43C41.1095 43.1719 41.2814 43.2656 41.4689 43.2656Z" fill="black"/>
<path d="M40.7344 41.9062C41 41.9062 41.2188 41.6875 41.2344 41.4219C41.2344 41.1563 41.0313 40.9219 40.75 40.9219L38.5938 40.875C38.3281 40.875 38.0938 41.0781 38.0938 41.3594C38.0938 41.625 38.2969 41.8594 38.5781 41.8594L40.7344 41.9062Z" fill="black"/>
<path d="M10.7813 73.9375C13.6875 78.6875 17.4375 82.8594 21.8125 86.25C22.0937 86.4844 22.3906 86.7031 22.6719 86.9063C30.3125 92.5938 39.7656 95.9375 50 95.9375C56.1406 95.9375 62 94.7344 67.3594 92.5469C67.6719 92.4219 67.9688 92.2969 68.2813 92.1563C74.625 89.4063 80.2188 85.2656 84.6875 80.125C82.8438 74.4063 79.4062 68.9531 73.2812 65.5156C57.6406 56.7188 34.2031 56.7188 23.7813 61.6563C17.3594 64.6875 13.125 70.125 10.7813 73.9375Z" fill="#418DFE"/>
<path d="M42.3907 30.6094C42.3907 30.6094 37.5001 22.7187 38.4845 19.3437C39.4688 15.9687 43.8751 19.2812 43.8751 19.2812C43.8751 19.2812 44.8751 12.0156 50.2813 13.4375C57.4845 15.3125 64.6251 27.9844 64.6251 27.9844C64.6251 27.9844 68.297 27.0625 69.5313 30.2812C70.9688 34.0156 69.7032 38.2187 67.3907 41.9531C65.0782 45.6875 58.8126 42.6094 58.8126 42.6094L42.3907 30.6094Z" fill="#3B68D7"/>
<path d="M57.5938 53.4531L57.3281 62.0938C57.3281 62.0938 54.125 63.7656 50.2031 63.6875C44.9062 63.5781 43.2031 61.25 43.2031 61.25L43.6719 50.0312L57.5938 53.4531Z" fill="#E5F3FF"/>
<path d="M57.5938 53.25C57.5938 53.25 54.25 59.75 48.2813 58.625C43.4688 57.7187 43.6719 50.9062 43.6719 50.9062L57.5938 53.25Z" fill="black"/>
<path d="M42.3907 30.6093C42.3907 30.6093 39.7501 45.6406 42.4219 51.5312C45.4219 58.125 53.1251 57.25 55.8907 55.2812C59.6094 52.6406 61.2188 48.375 61.2188 48.375C61.2188 48.375 66.1563 49.5625 67.9688 45.5625C69.8751 41.375 66.9063 37.8125 64.4376 37.5156C61.9532 37.2187 61.6563 37.6562 61.6563 37.6562L62.5626 33.1406C62.5469 33.1562 48.0938 15.7656 42.3907 30.6093Z" fill="#E5F3FF"/>
<path d="M61.6407 37.6719C61.6407 37.6719 58.4219 37.7812 54.7813 34.8906C50.5157 31.5 51.1875 25.8906 51.1875 25.8906C51.1875 25.8906 43.4219 30.3437 41.5 36.2031C39.5625 42.0781 39.5938 22.1562 48.1875 22.875C56.7657 23.6094 68.2344 29.2187 61.6407 37.6719Z" fill="#3B68D7"/>
<path d="M62.2188 44.2968C62.3282 44.2968 62.4376 44.2656 62.5313 44.1874L66.5001 41.0468C66.7188 40.8749 66.7501 40.5624 66.5782 40.3593C66.4063 40.1406 66.0938 40.1093 65.8907 40.2812L61.9219 43.4218C61.7032 43.5937 61.6719 43.9062 61.8438 44.1093C61.9376 44.2343 62.0782 44.2968 62.2188 44.2968Z" fill="black"/>
<path d="M65.7344 45.0469C65.8751 45.0469 66.0157 44.9844 66.1094 44.8594C66.2813 44.6407 66.2501 44.3438 66.0313 44.1719L63.8282 42.375C63.6094 42.2032 63.3126 42.2344 63.1407 42.4532C62.9688 42.6719 63.0001 42.9688 63.2188 43.1407L65.4219 44.9375C65.5157 45.0157 65.6251 45.0469 65.7344 45.0469ZM54.0001 39.8907C54.2501 39.8907 54.4688 39.7032 54.4844 39.4532L54.7188 37.0313C54.7501 36.7657 54.5469 36.5157 54.2813 36.5C54.0157 36.4844 53.7657 36.6719 53.7501 36.9375L53.5157 39.3594C53.4844 39.625 53.6876 39.875 53.9532 39.8907C53.9688 39.8907 53.9844 39.8907 54.0001 39.8907ZM44.5469 39.5469C44.7969 39.5469 45.0157 39.3594 45.0313 39.1094L45.2657 36.6875C45.2969 36.4219 45.0938 36.1719 44.8282 36.1563C44.5469 36.1407 44.3126 36.3282 44.2969 36.5938L44.0626 39.0157C44.0313 39.2813 44.2344 39.5313 44.5001 39.5469C44.5157 39.5469 44.5313 39.5469 44.5469 39.5469ZM48.0157 45.5625C48.0469 45.5625 48.0626 45.5625 48.0938 45.5625C48.3594 45.5157 48.5469 45.2657 48.5001 45C47.9376 41.4219 49.2188 38.4844 49.2188 38.4532C49.3282 38.2032 49.2188 37.9063 48.9688 37.7969C48.7188 37.6875 48.4219 37.7969 48.3126 38.0469C48.2501 38.1719 46.9063 41.2657 47.5157 45.1407C47.5626 45.3907 47.7657 45.5625 48.0157 45.5625ZM43.7188 34.4532C43.8282 34.4532 43.9376 34.4219 44.0313 34.3438C44.7032 33.7969 45.8907 33.7344 46.2969 33.7657C46.5626 33.7813 46.7969 33.5782 46.8126 33.2969C46.8282 33.0313 46.6251 32.7969 46.3438 32.7813C46.2657 32.7813 44.5001 32.6875 43.4063 33.5782C43.1876 33.75 43.1563 34.0625 43.3282 34.2657C43.4219 34.3907 43.5626 34.4532 43.7188 34.4532ZM54.8126 34.8282C54.9532 34.8282 55.1094 34.7657 55.2032 34.6407C55.3751 34.4219 55.3282 34.1094 55.1094 33.9532C54.0001 33.0938 52.2344 33.2032 52.1563 33.2032C51.8907 33.2188 51.6876 33.4532 51.7032 33.7344C51.7188 34 51.9376 34.2188 52.2344 34.1875C52.2501 34.1875 53.7032 34.0938 54.5157 34.7344C54.5938 34.7969 54.7032 34.8282 54.8126 34.8282Z" fill="black"/>
<path d="M50.1719 64.1719C54.75 64.1719 59 62.1719 59.0782 62.1406C59.3282 62.0156 59.4219 61.7344 59.3125 61.4844C59.1875 61.2344 58.9063 61.1406 58.6563 61.25C58.5313 61.3125 46.375 67.0156 41.7813 58.5938C41.6563 58.3594 41.3594 58.2656 41.1094 58.3906C40.875 58.5156 40.7813 58.8125 40.9063 59.0625C43.0782 63.0313 46.7188 64.1719 50.1719 64.1719Z" fill="#97CEFF"/>
<path d="M49.7969 49.3438C51.25 49.3438 52.0312 48.4532 52.2656 47.8751C52.375 47.6251 52.25 47.3282 52 47.2344C51.75 47.1407 51.4687 47.2501 51.3594 47.5001C51.2969 47.6251 50.7656 48.7501 48.9062 48.2188C48.6406 48.1407 48.375 48.2969 48.2969 48.5626C48.2187 48.8282 48.375 49.0938 48.6406 49.1719C49.0625 49.2969 49.4531 49.3438 49.7969 49.3438Z" fill="black"/>
<path d="M66.2344 86.7031L67.3437 92.5469C67.6562 92.4219 67.9531 92.2969 68.2656 92.1563L67.1875 86.5156C67.1406 86.25 66.875 86.0781 66.6094 86.125C66.3437 86.1875 66.1875 86.4375 66.2344 86.7031Z" fill="#97CEFF"/>
<path d="M127.641 40.0469C127.641 40.0469 116.781 48.2344 115.969 58.1875C114.75 73.2344 131.875 66.6563 133.75 57.0625C135.625 47.4688 127.641 40.0469 127.641 40.0469Z" fill="#3B68D7"/>
<path d="M170.141 85.6562C165.703 89.4063 160.547 92.3594 154.922 94.2656C150.234 95.8438 145.219 96.7031 140 96.7031C126.172 96.7031 113.719 90.6875 105.187 81.125C104.672 80.5625 104.188 79.9844 103.703 79.3906L133.266 57.9687C133.281 57.9531 134.406 57.1406 134.406 57.1406L146.016 58.0781L150.828 58.4687L170.141 85.6562Z" fill="#419BFF"/>
<path d="M126.672 39.0156C126.672 39.0156 122.75 34.6875 123.875 27.9687C124.641 23.4219 126.672 21.9531 126.672 21.9531C126.672 21.9531 123.594 15.75 132.766 16.125C141.937 16.5 147.344 21.0156 147.344 21.0156C147.344 21.0156 151.547 18.9531 153.422 23.8437C155.297 28.7344 153.422 35.9531 153.422 35.9531L126.672 39.0156Z" fill="#3B68D7"/>
<path d="M134.406 57.8906L105.188 81.125C104.672 80.5625 104.188 79.9844 103.703 79.3906C102.328 77.6875 101.063 75.8906 99.9219 74C100.828 73.1875 101.766 72.375 102.734 71.5625C116.125 60.3906 129.375 58.3437 133.25 57.9687C134.016 57.9062 134.406 57.8906 134.406 57.8906Z" fill="#52AAFF"/>
<path d="M146.828 46.5781L146.609 58.5469C146.609 58.5469 144.516 61.9219 137.953 62.2813C133.062 62.5469 131.562 59.8281 131.562 59.8281L132.937 49.3906L144.828 46.9844L146.828 46.5781Z" fill="#E5F3FF"/>
<path d="M180.609 73.0625C177.889 77.8441 174.344 82.1075 170.141 85.6563C165.703 89.4063 160.547 92.3594 154.922 94.2656L162.469 85.0625L146.016 58.0781L145.891 57.8906C145.891 57.8906 147.781 57.9531 150.828 58.4687C157.766 59.625 170.641 63.0469 180.609 73.0625Z" fill="#52AAFF"/>
<path d="M146.828 45.8906C146.797 46.2031 146.672 46.5469 146.469 46.9687C143.828 52.5 134.937 54.6094 132.109 54.7969L132.922 49.2813L146.828 45.8906Z" fill="black"/>
<path d="M131.062 23.6719C131.062 23.6719 124.828 37.5782 126.953 45.4376C129.078 53.2969 136.234 52.1407 140.516 50.6563C144.812 49.1876 146.812 46.5782 146.812 46.5782C146.812 46.5782 150.797 47.9688 153.5 44.2813C156.203 40.5938 154.609 36.3126 152.328 35.3126C150.062 34.3126 147.328 35.9376 147.328 35.9376L149.5 31.9063C149.516 31.9063 140.766 11.2032 131.062 23.6719Z" fill="#E5F3FF"/>
<path d="M147.344 35.9375C147.344 35.9375 141.344 37.1563 137.172 30.4688C133 23.7813 133.391 21.0469 133.391 21.0469L129.234 27.9375C129.234 27.9375 128.312 23.1563 130.219 20.1094C132.125 17.0625 134.109 17.6875 134.109 17.6875L147.344 21L150.828 31.6094L147.344 35.9375Z" fill="#3B68D7"/>
<path d="M131.547 41.4688C131.439 41.4673 131.334 41.4318 131.247 41.3673C131.16 41.3028 131.095 41.2125 131.063 41.1094C130.141 38.0938 132.266 35.0469 132.359 34.9219C132.516 34.7031 132.828 34.6406 133.063 34.7969C133.281 34.9531 133.344 35.2656 133.188 35.5C133.172 35.5313 131.25 38.2813 132.031 40.8281C132.109 41.0938 131.969 41.375 131.703 41.4531C131.641 41.4688 131.594 41.4688 131.547 41.4688ZM147.922 42.5469C147.858 42.5472 147.795 42.535 147.736 42.5108C147.677 42.4867 147.623 42.4512 147.578 42.4063C147.531 42.3612 147.493 42.3073 147.466 42.2475C147.44 42.1877 147.425 42.1233 147.424 42.0579C147.423 41.9926 147.434 41.9276 147.458 41.8667C147.482 41.8058 147.517 41.7502 147.563 41.7031L151.359 37.7031C151.547 37.5 151.859 37.5 152.063 37.6875C152.266 37.875 152.266 38.1875 152.078 38.3906L148.281 42.3906C148.188 42.5 148.047 42.5469 147.922 42.5469Z" fill="black"/>
<path d="M151.938 41.4844H151.859L149.234 41.0781C149.102 41.0562 148.984 40.9834 148.905 40.8753C148.827 40.7672 148.793 40.6324 148.813 40.5C148.859 40.2187 149.109 40.0469 149.391 40.0781L152.016 40.4844C152.297 40.5312 152.469 40.7812 152.438 41.0625C152.391 41.2969 152.188 41.4844 151.938 41.4844ZM136.563 45.4687C135.25 45.4687 133.75 44.5781 133.531 44.4375C133.455 44.3937 133.393 44.3295 133.352 44.2522C133.31 44.1749 133.291 44.0875 133.297 44C133.297 43.8125 133.406 43.6562 133.563 43.5781L137.797 41.375C137.862 41.3416 137.933 41.3229 138.006 41.3201C138.078 41.3173 138.151 41.3305 138.218 41.3588C138.285 41.3872 138.345 41.4299 138.394 41.484C138.443 41.5381 138.479 41.6022 138.5 41.6719C138.531 41.7656 139.188 44.0312 137.781 45.1094C137.438 45.3594 137.016 45.4687 136.563 45.4687ZM134.875 44.0156C135.688 44.375 136.703 44.6719 137.172 44.3125C137.688 43.9219 137.719 43.125 137.656 42.5781L134.875 44.0156ZM128.859 30.0469C128.625 30.0469 128.406 29.875 128.375 29.625C128.328 29.3594 128.516 29.0937 128.781 29.0469L131.266 28.6094C131.531 28.5625 131.797 28.75 131.844 29.0156C131.891 29.2812 131.703 29.5469 131.438 29.5937L128.953 30.0312C128.906 30.0312 128.875 30.0469 128.859 30.0469ZM139.156 31.6719C139.081 31.673 139.006 31.6569 138.938 31.625L134.875 29.5625C134.816 29.5332 134.764 29.4924 134.721 29.4426C134.678 29.3928 134.645 29.335 134.625 29.2724C134.605 29.2099 134.597 29.1439 134.602 29.0784C134.608 29.0128 134.626 28.949 134.656 28.8906C134.781 28.6406 135.078 28.5469 135.328 28.6719L139.391 30.7344C139.641 30.8594 139.734 31.1562 139.609 31.4062C139.516 31.5625 139.344 31.6719 139.156 31.6719Z" fill="black"/>
<path d="M154.922 40.0469C154.922 40.0469 163.578 47.5469 162.359 59.7812C161.141 72.0156 149 70.4375 146.453 65.9844C142.594 59.2188 146.813 46.5938 146.813 46.5938C146.813 46.5938 154.266 47.8281 154.922 40.0469Z" fill="#3B68D7"/>
<path d="M128.859 35.7657C128.813 35.7657 128.766 35.7657 128.719 35.7501C128.656 35.7308 128.598 35.6994 128.547 35.6575C128.497 35.6156 128.455 35.5641 128.424 35.506C128.394 35.4478 128.375 35.3843 128.369 35.3189C128.364 35.2535 128.371 35.1876 128.391 35.1251L129.063 32.8594L128.453 32.1251C128.412 32.0739 128.381 32.015 128.363 31.9519C128.344 31.8887 128.339 31.8226 128.346 31.7572C128.353 31.6919 128.373 31.6286 128.405 31.5711C128.437 31.5135 128.48 31.4628 128.531 31.4219C128.75 31.2501 129.063 31.2813 129.234 31.5001L130.016 32.4532C130.125 32.5782 130.156 32.7501 130.109 32.9219L129.328 35.4376C129.266 35.6251 129.063 35.7657 128.859 35.7657ZM136.438 36.4532C136.391 36.4532 136.344 36.4532 136.297 36.4376C136.234 36.4183 136.176 36.3869 136.125 36.345C136.075 36.3031 136.033 36.2516 136.003 36.1935C135.972 36.1353 135.953 36.0718 135.948 36.0064C135.942 35.941 135.949 35.8751 135.969 35.8126L136.656 33.5626L135.766 32.5313C135.722 32.4819 135.688 32.4241 135.667 32.3613C135.647 32.2985 135.639 32.2321 135.645 32.1662C135.651 32.1004 135.67 32.0364 135.702 31.9782C135.733 31.9201 135.776 31.869 135.828 31.8282C136.031 31.6563 136.359 31.6719 136.531 31.8907L137.594 33.1407C137.703 33.2657 137.75 33.4532 137.688 33.6094L136.906 36.1251C136.859 36.3126 136.656 36.4532 136.438 36.4532ZM137.969 62.7813C133.703 62.7813 131.188 60.4532 131.141 60.4219C131.093 60.3769 131.055 60.323 131.029 60.2632C131.002 60.2034 130.988 60.139 130.986 60.0736C130.985 60.0083 130.996 59.9433 131.02 59.8824C131.044 59.8215 131.08 59.7659 131.125 59.7188C131.313 59.5157 131.625 59.5157 131.828 59.7032C132.031 59.8907 136.813 64.2501 144.578 59.8907C144.828 59.7501 145.125 59.8438 145.266 60.0782C145.406 60.3126 145.313 60.6251 145.078 60.7657C142.375 62.2657 139.984 62.7813 137.969 62.7813Z" fill="black"/>
</svg>
