<svg width="60" height="30" viewBox="0 0 60 30" fill="none" xmlns="http://www.w3.org/2000/svg">
<rect width="60" height="30" rx="15" fill="#00084D"/>
<path d="M10.911 11.7382C10.9092 10.1987 11.3229 8.68723 12.1086 7.36328C10.6463 7.88617 9.34005 8.77033 8.31121 9.93354C7.28236 11.0967 6.56435 12.5012 6.22396 14.0164C5.88357 15.5316 5.93185 17.1082 6.3643 18.5997C6.79675 20.0912 7.59933 21.4491 8.69742 22.5472C9.7955 23.6453 11.1534 24.4479 12.6449 24.8803C14.1364 25.3128 15.7131 25.3611 17.2282 25.0207C18.7434 24.6803 20.1479 23.9623 21.3111 22.9334C22.4743 21.9046 23.3585 20.5983 23.8813 19.136C22.5762 19.9081 21.09 20.3211 19.5737 20.3331C18.0574 20.3452 16.5648 19.9558 15.2476 19.2046C13.9304 18.4533 12.8354 17.3669 12.0737 16.0557C11.3121 14.7445 10.9109 13.2546 10.911 11.7382Z" fill="#FFCB1E"/>
<path d="M22.9706 4.98338L22.6314 3.72319C22.6219 3.68774 22.601 3.65641 22.5719 3.63407C22.5428 3.61172 22.5071 3.59961 22.4704 3.59961C22.4337 3.59961 22.3981 3.61172 22.369 3.63407C22.3399 3.65641 22.319 3.68774 22.3095 3.72319L21.9702 4.98385C21.8792 5.32169 21.7011 5.62972 21.4537 5.87713C21.2062 6.12454 20.8982 6.30266 20.5604 6.39368L19.2992 6.73296C19.2638 6.74243 19.2325 6.76334 19.2101 6.79244C19.1878 6.82155 19.1757 6.85721 19.1757 6.8939C19.1757 6.93059 19.1878 6.96625 19.2101 6.99535C19.2325 7.02445 19.2638 7.04536 19.2992 7.05483L20.5604 7.39412C20.8982 7.48513 21.2062 7.66325 21.4537 7.91067C21.7011 8.15808 21.8792 8.4661 21.9702 8.80395L22.3095 10.0651C22.319 10.1005 22.3399 10.1319 22.369 10.1542C22.3981 10.1765 22.4337 10.1887 22.4704 10.1887C22.5071 10.1887 22.5428 10.1765 22.5719 10.1542C22.601 10.1319 22.6219 10.1005 22.6314 10.0651L22.9706 8.80395C23.0617 8.4661 23.2398 8.15808 23.4872 7.91067C23.7346 7.66325 24.0426 7.48513 24.3805 7.39412L25.6416 7.05483C25.677 7.04536 25.7084 7.02445 25.7307 6.99535C25.7531 6.96625 25.7652 6.93059 25.7652 6.8939C25.7652 6.85721 25.7531 6.82155 25.7307 6.79244C25.7084 6.76334 25.677 6.74243 25.6416 6.73296L24.3805 6.39368C24.0426 6.30266 23.7346 6.12454 23.4872 5.87713C23.2398 5.62972 23.0617 5.32169 22.9706 4.98385V4.98338ZM27.6048 14.6677L27.314 13.5873C27.306 13.5569 27.2881 13.5299 27.2632 13.5107C27.2382 13.4915 27.2076 13.4811 27.1761 13.4811C27.1446 13.4811 27.114 13.4915 27.0891 13.5107C27.0642 13.5299 27.0463 13.5569 27.0383 13.5873L26.7474 14.6677C26.6695 14.9575 26.5168 15.2216 26.3046 15.4338C26.0924 15.646 25.8283 15.7987 25.5385 15.8766L24.4581 16.1675C24.4277 16.1755 24.4007 16.1934 24.3815 16.2183C24.3623 16.2432 24.3519 16.2738 24.3519 16.3053C24.3519 16.3368 24.3623 16.3674 24.3815 16.3924C24.4007 16.4173 24.4277 16.4352 24.4581 16.4432L25.5385 16.734C25.8282 16.812 26.0924 16.9646 26.3045 17.1767C26.5167 17.3887 26.6694 17.6528 26.7474 17.9425L27.0383 19.0229C27.0463 19.0533 27.0642 19.0803 27.0891 19.0995C27.114 19.1187 27.1446 19.1291 27.1761 19.1291C27.2076 19.1291 27.2382 19.1187 27.2632 19.0995C27.2881 19.0803 27.306 19.0533 27.314 19.0229L27.6048 17.9425C27.6828 17.6529 27.8355 17.3888 28.0476 17.1768C28.2596 16.9647 28.5237 16.812 28.8133 16.734L29.8937 16.4432C29.9241 16.4352 29.9511 16.4173 29.9703 16.3924C29.9895 16.3674 29.9999 16.3368 29.9999 16.3053C29.9999 16.2738 29.9895 16.2432 29.9703 16.2183C29.9511 16.1934 29.9241 16.1755 29.8937 16.1675L28.8133 15.8766C28.5236 15.7986 28.2595 15.6459 28.0475 15.4337C27.8354 15.2215 27.6828 14.9574 27.6048 14.6677ZM18.1934 13.256L17.9026 12.1756C17.8946 12.1451 17.8767 12.1182 17.8517 12.099C17.8268 12.0798 17.7962 12.0693 17.7647 12.0693C17.7332 12.0693 17.7026 12.0798 17.6777 12.099C17.6527 12.1182 17.6349 12.1451 17.6268 12.1756L17.336 13.256C17.258 13.5458 17.1053 13.8099 16.8932 14.0221C16.681 14.2342 16.4168 14.387 16.1271 14.4649L15.0467 14.7557C15.0162 14.7638 14.9893 14.7816 14.9701 14.8066C14.9509 14.8315 14.9404 14.8621 14.9404 14.8936C14.9404 14.9251 14.9509 14.9557 14.9701 14.9807C14.9893 15.0056 15.0162 15.0235 15.0467 15.0315L16.1271 15.3223C16.4168 15.4002 16.6809 15.5529 16.8931 15.7649C17.1052 15.977 17.258 16.2411 17.336 16.5307L17.6268 17.6112C17.6349 17.6416 17.6527 17.6686 17.6777 17.6878C17.7026 17.707 17.7332 17.7174 17.7647 17.7174C17.7962 17.7174 17.8268 17.707 17.8517 17.6878C17.8767 17.6686 17.8946 17.6416 17.9026 17.6112L18.1934 16.5307C18.2714 16.2411 18.4241 15.9771 18.6361 15.765C18.8482 15.553 19.1122 15.4003 19.4018 15.3223L20.4823 15.0315C20.5127 15.0235 20.5396 15.0056 20.5589 14.9807C20.5781 14.9557 20.5885 14.9251 20.5885 14.8936C20.5885 14.8621 20.5781 14.8315 20.5589 14.8066C20.5396 14.7816 20.5127 14.7638 20.4823 14.7557L19.4018 14.4649C19.1122 14.3869 18.8481 14.2341 18.636 14.022C18.424 13.8098 18.2713 13.5457 18.1934 13.256Z" fill="#FFEAA5"/>
<ellipse cx="44.0998" cy="15.3" rx="12.3" ry="12.3" fill="#E0E0E0"/>
</svg>
