<svg width="1000" height="400" viewBox="0 0 1000 400" fill="none" xmlns="http://www.w3.org/2000/svg">
<rect width="1000" height="400" fill="white"/>
<path d="M452.072 243.375C470.552 261.855 497.108 267.669 519.365 259.756C536.058 253.822 546.084 244.991 560.664 225.63C556.892 229.401 539.886 249.743 511.941 250.446C489.869 251.002 481.556 242.689 468.352 229.485L462.376 223.509L469.918 215.966L435.708 211.926L439.748 246.136L447.291 238.594L452.072 243.375Z" fill="#6EBAFF"/>
<path d="M530.928 165.585C512.448 147.105 485.892 141.291 463.635 149.204C446.942 155.138 436.916 163.969 422.336 183.33C426.108 179.559 443.114 159.217 471.059 158.514C493.131 157.958 501.444 166.271 514.648 179.475L520.624 185.451L513.082 192.994L547.292 197.034L543.252 162.824L535.709 170.366L530.928 165.585Z" fill="#6EBAFF"/>
<circle cx="291.5" cy="200.5" r="129.5" fill="#418DFE"/>
<circle cx="708.5" cy="200.5" r="129.5" fill="#23ACBB"/>
<path d="M243.68 186.92V192.4H236.24V215H229.4V192.4H221.96V186.92H243.68ZM260.233 192.44C262.793 192.44 264.846 193.293 266.393 195C267.939 196.68 268.713 199 268.713 201.96V215H261.913V202.88C261.913 201.387 261.526 200.227 260.753 199.4C259.979 198.573 258.939 198.16 257.633 198.16C256.326 198.16 255.286 198.573 254.513 199.4C253.739 200.227 253.353 201.387 253.353 202.88V215H246.513V185.4H253.353V195.68C254.046 194.693 254.993 193.907 256.193 193.32C257.393 192.733 258.739 192.44 260.233 192.44ZM293.906 203.48C293.906 204.12 293.866 204.787 293.786 205.48H278.306C278.413 206.867 278.853 207.933 279.626 208.68C280.426 209.4 281.399 209.76 282.546 209.76C284.253 209.76 285.439 209.04 286.106 207.6H293.386C293.013 209.067 292.333 210.387 291.346 211.56C290.386 212.733 289.173 213.653 287.706 214.32C286.239 214.987 284.599 215.32 282.786 215.32C280.599 215.32 278.653 214.853 276.946 213.92C275.239 212.987 273.906 211.653 272.946 209.92C271.986 208.187 271.506 206.16 271.506 203.84C271.506 201.52 271.973 199.493 272.906 197.76C273.866 196.027 275.199 194.693 276.906 193.76C278.613 192.827 280.573 192.36 282.786 192.36C284.946 192.36 286.866 192.813 288.546 193.72C290.226 194.627 291.533 195.92 292.466 197.6C293.426 199.28 293.906 201.24 293.906 203.48ZM286.906 201.68C286.906 200.507 286.506 199.573 285.706 198.88C284.906 198.187 283.906 197.84 282.706 197.84C281.559 197.84 280.586 198.173 279.786 198.84C279.013 199.507 278.533 200.453 278.346 201.68H286.906ZM307.074 215.32C304.888 215.32 302.914 214.853 301.154 213.92C299.421 212.987 298.048 211.653 297.034 209.92C296.048 208.187 295.554 206.16 295.554 203.84C295.554 201.547 296.061 199.533 297.074 197.8C298.088 196.04 299.474 194.693 301.234 193.76C302.994 192.827 304.968 192.36 307.154 192.36C309.341 192.36 311.314 192.827 313.074 193.76C314.834 194.693 316.221 196.04 317.234 197.8C318.248 199.533 318.754 201.547 318.754 203.84C318.754 206.133 318.234 208.16 317.194 209.92C316.181 211.653 314.781 212.987 312.994 213.92C311.234 214.853 309.261 215.32 307.074 215.32ZM307.074 209.4C308.381 209.4 309.488 208.92 310.394 207.96C311.328 207 311.794 205.627 311.794 203.84C311.794 202.053 311.341 200.68 310.434 199.72C309.554 198.76 308.461 198.28 307.154 198.28C305.821 198.28 304.714 198.76 303.834 199.72C302.954 200.653 302.514 202.027 302.514 203.84C302.514 205.627 302.941 207 303.794 207.96C304.674 208.92 305.768 209.4 307.074 209.4ZM328.623 196.4C329.423 195.173 330.423 194.213 331.623 193.52C332.823 192.8 334.156 192.44 335.623 192.44V199.68H333.743C332.036 199.68 330.756 200.053 329.903 200.8C329.05 201.52 328.623 202.8 328.623 204.64V215H321.783V192.68H328.623V196.4ZM361.093 192.68L347.093 225.6H339.733L344.853 214.24L335.772 192.68H343.413L348.573 206.64L353.693 192.68H361.093Z" fill="white"/>
<path d="M648.88 195.96C648.88 197.587 648.507 199.08 647.76 200.44C647.013 201.773 645.867 202.853 644.32 203.68C642.773 204.507 640.853 204.92 638.56 204.92H634.32V215H627.48V186.92H638.56C640.8 186.92 642.693 187.307 644.24 188.08C645.787 188.853 646.947 189.92 647.72 191.28C648.493 192.64 648.88 194.2 648.88 195.96ZM638.04 199.48C639.347 199.48 640.32 199.173 640.96 198.56C641.6 197.947 641.92 197.08 641.92 195.96C641.92 194.84 641.6 193.973 640.96 193.36C640.32 192.747 639.347 192.44 638.04 192.44H634.32V199.48H638.04ZM658.681 196.4C659.481 195.173 660.481 194.213 661.681 193.52C662.881 192.8 664.214 192.44 665.681 192.44V199.68H663.801C662.094 199.68 660.814 200.053 659.961 200.8C659.108 201.52 658.681 202.8 658.681 204.64V215H651.841V192.68H658.681V196.4ZM666.99 203.8C666.99 201.507 667.417 199.493 668.27 197.76C669.15 196.027 670.337 194.693 671.83 193.76C673.324 192.827 674.99 192.36 676.83 192.36C678.404 192.36 679.777 192.68 680.95 193.32C682.15 193.96 683.07 194.8 683.71 195.84V192.68H690.55V215H683.71V211.84C683.044 212.88 682.11 213.72 680.91 214.36C679.737 215 678.364 215.32 676.79 215.32C674.977 215.32 673.324 214.853 671.83 213.92C670.337 212.96 669.15 211.613 668.27 209.88C667.417 208.12 666.99 206.093 666.99 203.8ZM683.71 203.84C683.71 202.133 683.23 200.787 682.27 199.8C681.337 198.813 680.19 198.32 678.83 198.32C677.47 198.32 676.31 198.813 675.35 199.8C674.417 200.76 673.95 202.093 673.95 203.8C673.95 205.507 674.417 206.867 675.35 207.88C676.31 208.867 677.47 209.36 678.83 209.36C680.19 209.36 681.337 208.867 682.27 207.88C683.23 206.893 683.71 205.547 683.71 203.84ZM693.539 203.84C693.539 201.52 694.005 199.493 694.939 197.76C695.899 196.027 697.219 194.693 698.899 193.76C700.605 192.827 702.552 192.36 704.739 192.36C707.539 192.36 709.872 193.093 711.739 194.56C713.632 196.027 714.872 198.093 715.459 200.76H708.179C707.565 199.053 706.379 198.2 704.619 198.2C703.365 198.2 702.365 198.693 701.619 199.68C700.872 200.64 700.499 202.027 700.499 203.84C700.499 205.653 700.872 207.053 701.619 208.04C702.365 209 703.365 209.48 704.619 209.48C706.379 209.48 707.565 208.627 708.179 206.92H715.459C714.872 209.533 713.632 211.587 711.739 213.08C709.845 214.573 707.512 215.32 704.739 215.32C702.552 215.32 700.605 214.853 698.899 213.92C697.219 212.987 695.899 211.653 694.939 209.92C694.005 208.187 693.539 206.16 693.539 203.84ZM730.957 209.2V215H727.477C724.997 215 723.064 214.4 721.677 213.2C720.291 211.973 719.597 209.987 719.597 207.24V198.36H716.877V192.68H719.597V187.24H726.437V192.68H730.917V198.36H726.437V207.32C726.437 207.987 726.597 208.467 726.917 208.76C727.237 209.053 727.771 209.2 728.517 209.2H730.957ZM737.608 190.36C736.408 190.36 735.421 190.013 734.648 189.32C733.901 188.6 733.528 187.72 733.528 186.68C733.528 185.613 733.901 184.733 734.648 184.04C735.421 183.32 736.408 182.96 737.608 182.96C738.781 182.96 739.741 183.32 740.488 184.04C741.261 184.733 741.648 185.613 741.648 186.68C741.648 187.72 741.261 188.6 740.488 189.32C739.741 190.013 738.781 190.36 737.608 190.36ZM741.008 192.68V215H734.168V192.68H741.008ZM744.004 203.84C744.004 201.52 744.471 199.493 745.404 197.76C746.364 196.027 747.684 194.693 749.364 193.76C751.071 192.827 753.018 192.36 755.204 192.36C758.004 192.36 760.338 193.093 762.204 194.56C764.098 196.027 765.338 198.093 765.924 200.76H758.644C758.031 199.053 756.844 198.2 755.084 198.2C753.831 198.2 752.831 198.693 752.084 199.68C751.338 200.64 750.964 202.027 750.964 203.84C750.964 205.653 751.338 207.053 752.084 208.04C752.831 209 753.831 209.48 755.084 209.48C756.844 209.48 758.031 208.627 758.644 206.92H765.924C765.338 209.533 764.098 211.587 762.204 213.08C760.311 214.573 757.978 215.32 755.204 215.32C753.018 215.32 751.071 214.853 749.364 213.92C747.684 212.987 746.364 211.653 745.404 209.92C744.471 208.187 744.004 206.16 744.004 203.84ZM790.023 203.48C790.023 204.12 789.983 204.787 789.903 205.48H774.423C774.53 206.867 774.97 207.933 775.743 208.68C776.543 209.4 777.516 209.76 778.663 209.76C780.37 209.76 781.556 209.04 782.223 207.6H789.503C789.13 209.067 788.45 210.387 787.463 211.56C786.503 212.733 785.29 213.653 783.823 214.32C782.356 214.987 780.716 215.32 778.903 215.32C776.716 215.32 774.77 214.853 773.063 213.92C771.356 212.987 770.023 211.653 769.063 209.92C768.103 208.187 767.623 206.16 767.623 203.84C767.623 201.52 768.09 199.493 769.023 197.76C769.983 196.027 771.316 194.693 773.023 193.76C774.73 192.827 776.69 192.36 778.903 192.36C781.063 192.36 782.983 192.813 784.663 193.72C786.343 194.627 787.65 195.92 788.583 197.6C789.543 199.28 790.023 201.24 790.023 203.48ZM783.023 201.68C783.023 200.507 782.623 199.573 781.823 198.88C781.023 198.187 780.023 197.84 778.823 197.84C777.676 197.84 776.703 198.173 775.903 198.84C775.13 199.507 774.65 200.453 774.463 201.68H783.023Z" fill="white"/>
</svg>
