<svg width="40" height="50" viewBox="0 0 40 50" fill="none" xmlns="http://www.w3.org/2000/svg">
<path d="M40 49.9907L39.5198 39.3393C39.0584 36.6644 37.1847 34.5496 34.7931 34.0281L26.1589 32.512C25.3962 32.3768 24.803 31.4498 24.7936 30.4841L24.6053 26.042H16.31L16.1123 30.6772C16.0746 31.585 15.5002 32.3382 14.7376 32.4734L6.2069 34.0378C3.81531 34.5592 1.94157 36.674 1.4802 39.349L1 50.0003C5.86794 49.9907 35.1038 49.9907 40 49.9907Z" fill="url(#paint0_linear_3_7384)"/>
<path d="M26.0374 50.0003L28 32.5117L26.2804 32.2174C25.5234 32.0801 24.514 31.0306 24.6075 29.2749C24.6075 29.2749 22.785 30.3734 20.4206 30.3734C17.9533 30.3734 16.1402 29.167 16.1402 29.167C16.0467 31.1385 15.2897 32.0703 14.5327 32.2174L13 32.4627L15.4486 50.0003H26.0374Z" fill="url(#paint1_linear_3_7384)"/>
<path d="M12.6598 13.542L12.2235 13.5843C11.5654 13.8484 10.8555 14.7253 11.0256 16.1621C11.1735 17.4616 11.2474 17.5673 11.4323 19.1837C11.6911 21.4658 13 20.7156 13 20.7156L12.6598 13.542Z" fill="url(#paint2_linear_3_7384)"/>
<path d="M27.3402 13.542L27.7765 13.5843C28.4346 13.8484 29.1445 14.7253 28.9744 16.1621C28.8265 17.4616 28.7526 17.5673 28.5677 19.1837C28.3089 21.4658 27 20.7156 27 20.7156L27.3402 13.542Z" fill="url(#paint3_linear_3_7384)"/>
<path d="M20.0628 7.29199L28 7.35933L27.826 22.9046C27.826 23.8954 27.4393 24.8574 26.7432 25.5789L24.3553 28.0511C23.6689 28.763 22.7118 29.167 21.716 29.167H18.342C17.3462 29.167 16.3891 28.763 15.7027 28.0415L13.3148 25.5693C12.621 24.85 12.2331 23.892 12.232 22.895L12 7.32085L20.0628 7.29199Z" fill="url(#paint4_linear_3_7384)"/>
<path d="M39.7677 40.1033C39.7677 36.3256 37.9 34.3383 34.8226 33.5808L25.9194 32.292L22 50.0003H40L39.7677 40.1033Z" fill="url(#paint5_linear_3_7384)"/>
<path d="M5.23143 33.6255C2.14101 34.3805 0.271259 36.3514 0.271259 40.1264L0 50.0003H18L14.0764 32.292L5.23143 33.6255Z" fill="url(#paint6_linear_3_7384)"/>
<path fill-rule="evenodd" clip-rule="evenodd" d="M17.6855 22.917H23.3044C23.7676 22.917 24.2208 23.0778 24.6034 23.3565C24.9458 23.6138 25.0868 24.0855 24.9458 24.5143L24.0295 27.3124C23.7475 28.17 23.2138 29.0062 22.3679 29.1348C22.2169 29.1563 22.0759 29.167 21.9249 29.167H19.0248C18.9226 29.167 18.829 29.1579 18.7281 29.148C18.7196 29.1472 18.7111 29.1464 18.7025 29.1456C17.8365 29.0491 17.2726 28.2236 16.9806 27.3445L16.0542 24.5143C15.9132 24.0962 16.0542 23.6245 16.3966 23.3565C16.7692 23.0671 17.2223 22.917 17.6855 22.917ZM22.9117 26.9586L23.4051 25.179C23.5964 24.4929 23.1131 23.8068 22.4485 23.8068H18.5515C17.8768 23.8068 17.3935 24.4929 17.5848 25.179L18.0782 26.9586C18.2695 27.6661 19.0248 28.0199 19.6491 27.6875L20.3439 27.2051C20.3439 27.2051 20.4345 27.1622 20.495 27.1622C20.6259 27.1622 20.6863 27.2373 20.6863 27.2373L21.3408 27.6875C21.9651 28.0199 22.7204 27.6661 22.9117 26.9586Z" fill="url(#paint7_linear_3_7384)"/>
<path fill-rule="evenodd" clip-rule="evenodd" d="M12.8551 18.761C13.4282 19.7196 15.3904 19.7917 15.9732 19.7917C16.964 19.7917 18.1297 19.6165 18.4794 19.2351C19.0622 18.5652 20.1793 16.3389 19.8199 15.4215C19.5285 14.6691 16.1578 14.2568 14.5161 14.2568C13.0688 14.2568 12.8551 14.5042 12.7871 14.5867C12.146 15.3185 12.3694 17.9571 12.8551 18.761ZM12.9813 15.2977C13.0299 15.1534 13.535 15.0607 14.5064 15.0607C16.6435 15.0607 19.6353 15.5554 19.5576 16.0502C19.4313 16.8747 18.8582 18.1631 18.2657 18.8331C18.0617 19.0598 17.1874 19.3072 15.9635 19.3072C14.827 19.3072 13.4767 19.0701 13.0785 18.4105C12.6122 17.6271 12.6899 16.112 12.9813 15.2977Z" fill="url(#paint8_linear_3_7384)"/>
<path fill-rule="evenodd" clip-rule="evenodd" d="M22.4718 19.2254C22.8118 19.617 23.9775 19.7923 24.978 19.7923C25.5608 19.7923 27.523 19.7098 28.0961 18.7512C28.5818 17.9473 28.7955 15.3087 28.1641 14.5769C28.0961 14.4944 27.8824 14.2471 26.4351 14.2471C24.7934 14.2471 21.4227 14.6594 21.1313 15.4118C20.7719 16.3291 21.889 18.5554 22.4718 19.2254ZM21.4421 16.1127C21.413 15.6283 24.298 15.0614 26.435 15.0614C27.4064 15.0614 27.8824 15.1645 27.9601 15.2985C28.3875 16.0097 28.3292 17.6279 27.863 18.4112C27.4647 19.0708 26.1145 19.3079 24.9779 19.3079C23.754 19.3079 22.8798 19.0605 22.6758 18.8338C22.0832 18.1535 21.481 16.8548 21.4421 16.1127Z" fill="url(#paint9_linear_3_7384)"/>
<path d="M19.5576 15.1846H21.3935V15.9267H19.5576V15.1846Z" fill="url(#paint10_linear_3_7384)"/>
<path d="M12.719 14.9786C12.6898 14.9786 12.651 14.9683 12.6218 14.9476L12.0196 14.4529C11.9516 14.4014 12.0779 14.0303 12.1362 13.9582C12.1944 13.886 12.2916 13.8654 12.3596 13.9272L12.9618 14.422C13.0298 14.4735 13.0493 14.5869 12.991 14.659C12.9521 14.7003 12.7676 14.9786 12.719 14.9786Z" fill="url(#paint11_linear_3_7384)"/>
<path d="M27.9501 14.7209C27.9113 14.7209 27.8724 14.7106 27.8433 14.6797C27.7753 14.6179 27.7753 14.5148 27.8336 14.4426L28.5524 13.5975C28.6107 13.5253 28.7078 13.5253 28.7758 13.5872C28.8438 13.649 29.0478 13.9994 28.9895 14.0613L28.2707 14.9065C28.2416 14.9477 27.9987 14.7209 27.9501 14.7209Z" fill="url(#paint12_linear_3_7384)"/>
<path d="M12.4973 18.75C12.4973 18.75 12.6102 12.7529 12.6536 11.9843C12.8533 8.20205 15.9536 7.59526 16.9436 7.43345C18.2462 7.22108 20.4694 7.33232 22.4494 7.27164C22.4494 7.27164 24.1688 4.17704 23.9865 3.995C21.8241 1.86114 18.7759 -0.282837 16.492 0.0306692C12.5841 0.566663 10.4652 5.06699 11.1165 10.0123C11.2728 11.1652 11.6375 13.8553 11.9068 15.3925C12.3931 18.2848 12.4973 18.75 12.4973 18.75Z" fill="url(#paint13_linear_3_7384)"/>
<path d="M22.2832 3.09935C24.1333 0.756429 30.0104 2.04093 28.8495 11.4537C28.3779 15.2456 27.6704 18.7497 27.6704 18.7497C27.6704 18.7497 27.3712 18.4106 27.3712 14.0638C27.3712 8.54562 23.961 7.16864 22.9362 7.16864C22.8364 7.16864 19 7.11726 19 7.11726C19 7.11726 20.4421 5.432 22.2832 3.09935Z" fill="url(#paint14_linear_3_7384)"/>
<defs>
<linearGradient id="paint0_linear_3_7384" x1="12.1004" y1="28.5238" x2="12.1004" y2="38.843" gradientUnits="userSpaceOnUse">
<stop stop-color="#DDA67A"/>
<stop offset="1" stop-color="#ECA482"/>
</linearGradient>
<linearGradient id="paint1_linear_3_7384" x1="14.973" y1="32.9501" x2="14.973" y2="48.3064" gradientUnits="userSpaceOnUse">
<stop offset="0.011" stop-color="#242B30"/>
<stop offset="1" stop-color="#242A47"/>
</linearGradient>
<linearGradient id="paint2_linear_3_7384" x1="12.4526" y1="14.6584" x2="11.0623" y2="14.6614" gradientUnits="userSpaceOnUse">
<stop offset="0.124" stop-color="#DDA67A"/>
<stop offset="1" stop-color="#ECA482"/>
</linearGradient>
<linearGradient id="paint3_linear_3_7384" x1="27.0012" y1="20.834" x2="29.0009" y2="20.834" gradientUnits="userSpaceOnUse">
<stop offset="0.124" stop-color="#DDA67A"/>
<stop offset="1" stop-color="#ECA482"/>
</linearGradient>
<linearGradient id="paint4_linear_3_7384" x1="14.0543" y1="8.16189" x2="14.0543" y2="24.41" gradientUnits="userSpaceOnUse">
<stop stop-color="#DDA67A"/>
<stop offset="1" stop-color="#ECA482"/>
</linearGradient>
<linearGradient id="paint5_linear_3_7384" x1="36.7365" y1="49.5577" x2="36.4306" y2="38.3118" gradientUnits="userSpaceOnUse">
<stop offset="0.011" stop-color="#578BEB"/>
<stop offset="1" stop-color="#436A9F"/>
</linearGradient>
<linearGradient id="paint6_linear_3_7384" x1="16.2258" y1="51.0743" x2="16.2258" y2="36.8639" gradientUnits="userSpaceOnUse">
<stop offset="0.011" stop-color="#578BEB"/>
<stop offset="1" stop-color="#436A9F"/>
</linearGradient>
<linearGradient id="paint7_linear_3_7384" x1="15.3752" y1="23.3244" x2="15.3752" y2="30.4358" gradientUnits="userSpaceOnUse">
<stop offset="0.326" stop-color="#665242"/>
<stop offset="1" stop-color="#645552"/>
</linearGradient>
<linearGradient id="paint8_linear_3_7384" x1="18.9083" y1="19.4188" x2="18.8987" y2="15.3471" gradientUnits="userSpaceOnUse">
<stop stop-color="#665242"/>
<stop offset="1" stop-color="#2A1B00"/>
</linearGradient>
<linearGradient id="paint9_linear_3_7384" x1="27.5749" y1="19.3768" x2="27.5652" y2="15.3051" gradientUnits="userSpaceOnUse">
<stop stop-color="#665242"/>
<stop offset="1" stop-color="#2A1B00"/>
</linearGradient>
<linearGradient id="paint10_linear_3_7384" x1="31.6451" y1="24.5128" x2="31.6387" y2="15.51" gradientUnits="userSpaceOnUse">
<stop stop-color="#665242"/>
<stop offset="1" stop-color="#2A1B00"/>
</linearGradient>
<linearGradient id="paint11_linear_3_7384" x1="15.0474" y1="21.1478" x2="15.0214" y2="15.8166" gradientUnits="userSpaceOnUse">
<stop stop-color="#665242"/>
<stop offset="1" stop-color="#2A1B00"/>
</linearGradient>
<linearGradient id="paint12_linear_3_7384" x1="30.5055" y1="20.2872" x2="30.4792" y2="15.5631" gradientUnits="userSpaceOnUse">
<stop stop-color="#665242"/>
<stop offset="1" stop-color="#2A1B00"/>
</linearGradient>
<linearGradient id="paint13_linear_3_7384" x1="16.7676" y1="-0.979738" x2="8.54687" y2="2.98311" gradientUnits="userSpaceOnUse">
<stop stop-color="#665242"/>
<stop offset="1" stop-color="#645552"/>
</linearGradient>
<linearGradient id="paint14_linear_3_7384" x1="30.5897" y1="10.0909" x2="22.689" y2="4.28615" gradientUnits="userSpaceOnUse">
<stop stop-color="#665242"/>
<stop offset="1" stop-color="#645552"/>
</linearGradient>
</defs>
</svg>
