<svg width="38" height="50" viewBox="0 0 38 50" fill="none" xmlns="http://www.w3.org/2000/svg">
<ellipse cx="18.5" cy="39.0628" rx="0.5" ry="0.520833" fill="white"/>
<ellipse cx="18.5" cy="42.1878" rx="0.5" ry="0.520833" fill="white"/>
<ellipse cx="18.5" cy="46.3538" rx="0.5" ry="0.520833" fill="white"/>
<path d="M27.4618 13.7816L28.4499 13.5574C29.5024 13.4267 30.1897 14.1365 29.9534 15.332C29.7494 16.4154 29.352 17.3307 28.8258 18.6102C28.2243 20.0579 27 19.7684 27 19.7684L27.4618 13.7816Z" fill="url(#paint0_linear_3_7407)"/>
<path d="M11.5382 13.7816L10.5501 13.5574C9.49764 13.4267 8.8103 14.1365 9.04657 15.332C9.25063 16.4154 9.648 17.3307 10.1742 18.6102C10.7757 20.0579 12 19.7684 12 19.7684L11.5382 13.7816Z" fill="url(#paint1_linear_3_7407)"/>
<path d="M37.3924 37.1193C36.3258 34.6732 29.5272 32.5032 25.5667 31.361C23.0254 30.6282 23.7766 18.75 23.7766 18.75H14.2234C14.2234 18.75 14.9746 30.6282 12.4333 31.361C8.47283 32.5032 1.67423 34.6732 0.607596 37.1193C-0.301358 39.2037 0.0789191 46.875 0.0789191 46.875H37.9211C37.9211 46.875 38.3014 39.2037 37.3924 37.1193Z" fill="url(#paint2_linear_3_7407)"/>
<path d="M27.7817 11.9501C27.791 11.7354 27.8003 11.5305 27.8003 11.3157C27.8003 5.4794 24.48 2.08301 20.3577 2.08301C20.0685 2.08301 19.7794 2.10253 19.4996 2.13181C19.2198 2.10253 18.9307 2.08301 18.6416 2.08301C14.5192 2.08301 11.1989 5.4794 11.1989 11.3157C11.1989 11.5305 11.2083 11.7452 11.2176 11.9501C11.0404 15.8345 10.5181 21.9051 12.1969 24.2767C13.8477 26.619 16.4778 29.1663 17.7182 29.1663H21.2903C22.5308 29.1663 25.1609 26.619 26.8117 24.2767C28.4812 21.9051 27.9589 15.8345 27.7817 11.9501Z" fill="url(#paint3_linear_3_7407)"/>
<path d="M37.3924 37.2831C36.5576 35.3199 32.2262 33.5325 28.4884 32.292C26.8652 35.2222 23.2294 37.2636 19 37.2636C14.7706 37.2636 11.1348 35.2222 9.51163 32.292C5.76452 33.5422 1.43307 35.3297 0.607596 37.2831C-0.301358 39.4222 0.0789191 50.0003 0.0789191 50.0003H37.9211C37.9211 50.0003 38.3014 39.4222 37.3924 37.2831Z" fill="url(#paint4_linear_3_7407)"/>
<path d="M19.0046 38.542C23.4704 38.542 27.3219 36.1429 29 32.7347C28.5782 32.5803 28.1655 32.4361 27.7529 32.292C26.2215 35.0515 22.8744 36.9769 19.0046 36.9769C15.1348 36.9769 11.7877 35.0618 10.2471 32.3023C9.84365 32.4464 9.42182 32.5906 9 32.745C10.6873 36.1532 14.5387 38.542 19.0046 38.542Z" fill="white"/>
<path opacity="0.2" fill-rule="evenodd" clip-rule="evenodd" d="M4 41.667V48.2098H4.68056L4 41.667ZM34 41.667V48.9587H33.3194L34 41.667Z" fill="black"/>
<path fill-rule="evenodd" clip-rule="evenodd" d="M26.9363 13.1588C26.7736 13.1588 26.5318 13.0767 26.2189 12.9705C25.4097 12.6958 24.1252 12.2598 22.5029 12.6643C21.5881 12.8895 21.191 13.2535 20.8517 13.5646C20.5032 13.8841 20.2157 14.1477 19.4908 14.1477C18.7642 14.1477 18.477 13.8853 18.1275 13.5661C17.7887 13.2566 17.3913 12.8937 16.4786 12.6643C14.8563 12.2598 13.5718 12.6958 12.7626 12.9705C12.4497 13.0767 12.2079 13.1588 12.0452 13.1588H11.4051C11.1792 13.1588 10.9909 13.387 11.0003 13.6627C11.0003 13.9385 11.1886 14.1572 11.4051 14.1572H11.4804C11.6969 14.1572 11.8757 14.3664 11.8851 14.6231C11.9605 16.2586 12.4687 17.9607 14.0595 18.5312C15.0196 18.8735 16.1868 18.8355 17.0528 18.265C17.74 17.8181 18.2106 17.0764 18.5024 16.2871C18.6342 15.9258 18.7471 15.536 18.813 15.1461C18.8507 14.9179 19.0201 14.7467 19.2178 14.7467H19.7826C19.9802 14.7467 20.1402 14.9179 20.1873 15.1461C20.2532 15.536 20.3567 15.9258 20.4979 16.2871C20.7897 17.0764 21.2604 17.8181 21.9475 18.265C22.8229 18.8355 23.9807 18.8735 24.9408 18.5312C26.5316 17.9607 27.0399 16.2586 27.1152 14.6231C27.1246 14.3569 27.3034 14.1572 27.5199 14.1572H27.5952C27.8212 14.1572 28 13.9385 28 13.6627C28 13.387 27.8212 13.1588 27.5952 13.1588H26.9363ZM17.4481 17.78C15.9891 19.2348 13.297 18.7689 12.4311 16.8006C12.0734 15.9733 11.9886 15.051 11.9886 14.1477H12.0451C12.0451 14.1477 12.4593 13.7007 13.0523 13.387C13.7489 13.0161 14.8031 12.6263 16.3939 12.9781C17.8623 13.3014 18.6812 14.7372 18.6812 14.7372H18.7283C18.6436 15.8402 18.2011 17.0288 17.4481 17.78ZM21.5239 17.7897C22.9923 19.235 25.675 18.7786 26.541 16.8103C26.8987 15.983 26.9834 15.0511 26.974 14.1573H26.9175C26.9175 14.1573 26.5034 13.7104 25.9103 13.3966C25.2044 13.0258 24.1595 12.6359 22.5688 12.9877C21.1004 13.3205 20.2814 14.7469 20.2814 14.7469H20.2344C20.3285 15.8499 20.7709 17.0385 21.5239 17.7897Z" fill="url(#paint5_linear_3_7407)"/>
<path d="M27.9476 9.48484C27.4452 1.47096 22.5226 0 19.116 0C15.7095 0 10.5585 1.51872 10.0471 9.5326C9.67264 15.4547 11.6545 18.7309 11.6545 18.7309C11.6545 18.7309 10.5494 11.9969 12.449 9.97198C12.8418 9.55171 13.7916 9.94333 14.851 9.74274C16.1844 9.48484 17.0703 9.04547 18.4128 8.19536C16.6502 9.66633 15.1067 10.908 15.1067 10.908C15.1067 10.908 17.0155 11.3474 19.116 10.9749C19.5818 10.8889 20.0567 10.7648 20.5225 10.5928C21.9838 10.0388 22.687 9.61857 23.0615 9.07412C22.4404 11.0227 20.5225 12.0447 20.5225 12.0447C20.5225 12.0447 24.2122 11.1564 25.4817 8.30043C27.0982 11.8155 26.5685 18.75 26.5685 18.75C26.5685 18.75 28.322 15.4069 27.9476 9.48484Z" fill="url(#paint6_linear_3_7407)"/>
<defs>
<linearGradient id="paint0_linear_3_7407" x1="27.5931" y1="18.7814" x2="29.7034" y2="18.8826" gradientUnits="userSpaceOnUse">
<stop offset="0.09" stop-color="#FFB268"/>
<stop offset="0.965" stop-color="#FFBD82"/>
</linearGradient>
<linearGradient id="paint1_linear_3_7407" x1="11.0514" y1="13.6208" x2="8.1337" y2="13.6208" gradientUnits="userSpaceOnUse">
<stop offset="0.09" stop-color="#FFB268"/>
<stop offset="0.965" stop-color="#FFBD82"/>
</linearGradient>
<linearGradient id="paint2_linear_3_7407" x1="10.088" y1="25.7066" x2="10.088" y2="38.8987" gradientUnits="userSpaceOnUse">
<stop offset="0.188" stop-color="#FFB268"/>
<stop offset="0.924" stop-color="#FFBD82"/>
</linearGradient>
<linearGradient id="paint3_linear_3_7407" x1="12.8746" y1="6.15624" x2="12.8746" y2="27.25" gradientUnits="userSpaceOnUse">
<stop offset="0.09" stop-color="#FFB268"/>
<stop offset="0.965" stop-color="#FFBD82"/>
</linearGradient>
<linearGradient id="paint4_linear_3_7407" x1="6.85551" y1="38.1754" x2="6.85551" y2="49.4943" gradientUnits="userSpaceOnUse">
<stop offset="0.11" stop-color="#C3004E"/>
<stop offset="0.648" stop-color="#F4056D"/>
</linearGradient>
<linearGradient id="paint5_linear_3_7407" x1="25.3583" y1="17.7565" x2="25.3347" y2="13.5653" gradientUnits="userSpaceOnUse">
<stop offset="0.399"/>
<stop offset="0.865" stop-color="#191919"/>
</linearGradient>
<linearGradient id="paint6_linear_3_7407" x1="13.9455" y1="18.2973" x2="26.988" y2="15.6074" gradientUnits="userSpaceOnUse">
<stop/>
<stop offset="1" stop-color="#191919"/>
</linearGradient>
</defs>
</svg>
