<svg width="41" height="50" viewBox="0 0 41 50" fill="none" xmlns="http://www.w3.org/2000/svg">
<path fill-rule="evenodd" clip-rule="evenodd" d="M5.16356 19.0001C6.7626 18.3422 8.13588 17.7608 8.44374 13.542L20.499 13.9799V39.9164C20.499 39.9164 20.499 39.9164 20.4991 39.9165C20.4855 39.9188 11.2453 41.5103 4.87249 39.9164C-1.50129 38.3234 -1.01617 31.8287 2.85362 30.1802C5.38187 29.1035 5.11691 26.1756 3.77536 23.9973C2.56815 22.0409 3.18015 19.8186 5.16356 19.0001ZM20.4991 13.9799V39.9164C20.4991 39.9164 20.4991 39.9165 20.4991 39.9165C20.5171 39.9196 29.758 41.5099 36.1256 39.9164C42.5031 38.3234 42.0143 31.8287 38.1482 30.1802C35.62 29.1035 35.8812 26.1756 37.2227 23.9973C38.4318 22.0409 37.8179 19.8186 35.8345 19.0001C34.2374 18.3422 32.8641 17.7608 32.5562 13.542L20.4991 13.9799Z" fill="#3F2B1D"/>
<path d="M32 10.3986V16.6867C32 21.1964 28.685 25.0291 24.0532 26.4661C22.7867 26.8654 21.4291 27.0833 20.0009 27.0833C18.5709 27.0833 17.2133 26.8654 15.9449 26.4661C14.2642 25.9453 12.7673 25.1101 11.523 24.0319C9.33529 22.1531 8 19.5607 8 16.6848V10.3966C8 4.65052 13.3672 0 20.0009 0C23.3159 0 26.3115 1.15733 28.4751 3.03412C30.6647 4.93213 32 7.52454 32 10.3986Z" fill="#3F2B1D"/>
<path d="M37 40.3285V49.9997H4V40.3285C4 36.4623 7.22667 33.333 11.205 33.333H29.795C33.7733 33.333 37 36.4642 37 40.3285Z" fill="#8D5DD8"/>
<path d="M33 19.792C33 21.5174 31.7909 22.917 30.2988 22.917H10.7012C9.21284 22.917 8 21.5194 8 19.792C8 18.0685 9.21284 16.667 10.7012 16.667H30.2988C31.789 16.667 33 18.0665 33 19.792Z" fill="#F7C68F"/>
<path d="M10.7655 21.8747C9.79393 21.8747 9 20.9406 9 19.7913C9 18.644 9.79393 17.708 10.7655 17.708H30.2363C31.2079 17.708 32 18.644 32 19.7913C32 20.9406 31.2079 21.8747 30.2363 21.8747H10.7655Z" fill="#EAA36A"/>
<ellipse cx="20.5" cy="34.8958" rx="6.5" ry="6.77083" fill="#633FA8"/>
<path d="M25 30.0074V33.5381C25 36.2978 22.7586 38.5417 20.0019 38.5417C19.3506 38.5417 18.7184 38.4074 18.1418 38.1965C17.5096 37.9261 16.9349 37.5444 16.4559 37.065C15.5556 36.1617 15 34.9151 15 33.5362V30.0074C15 27.6101 16.705 25.5964 18.9464 25.0978C19.3103 25.0403 19.6552 25 20.0019 25C21.3812 25 22.6245 25.5581 23.546 26.4595C24.4444 27.38 25 28.6266 25 30.0074Z" fill="#F7C68F"/>
<path d="M25 30.1376V31.1805C24.3487 32.0443 22.1456 33.1089 19.636 32.9337C17.4521 32.7763 15.2107 35.4327 18.1418 38.5417C17.5096 38.2642 16.9349 37.8727 16.4559 37.3807C15.5556 36.4539 15 35.1749 15 33.7602V30.1376C15 27.678 16.705 25.612 18.9464 25.1004C19.3103 25.0413 19.6552 25 20.0019 25C21.3812 25 22.6245 25.5726 23.546 26.4974C24.4444 27.4419 25 28.7209 25 30.1376Z" fill="#EAA36A"/>
<path d="M30 14.182V21.2353C30 25.5788 27.3761 29.2689 23.711 30.6526C22.7063 31.0351 21.6305 31.2503 20.5018 31.2503C19.3695 31.2503 18.2937 31.037 17.2926 30.6526C15.9615 30.1529 14.7745 29.3457 13.7898 28.306C12.0576 26.5013 11 24.0029 11 21.2334V14.1801C11 8.64501 15.2486 4.16699 20.5018 4.16699C23.1257 4.16699 25.498 5.28169 27.212 7.09019C28.9424 8.91599 30 11.4145 30 14.182Z" fill="#EAA36A"/>
<path d="M30 14.1665V20.2111C30 24.5478 27.3761 28.2322 23.711 29.6138C22.7063 29.9957 21.6305 30.2087 20.5018 30.2087C19.3695 30.2087 18.2937 29.9976 17.2926 29.6138C15.9615 29.113 14.7745 28.307 13.7898 27.2708C12.0576 25.4689 11 22.9724 11 20.2092V14.1646C11 8.63808 15.2486 4.16699 20.5018 4.16699C23.1257 4.16699 25.498 5.27997 27.212 7.08567C28.9424 8.90864 30 11.4032 30 14.1665Z" fill="#F7C68F"/>
<path d="M19 15.6247C19 16.1268 18.6491 16.5372 18.2159 16.5372H14.7841C14.3527 16.5372 14 16.1288 14 15.6247C14 15.1226 14.3509 14.7122 14.7841 14.7122H18.2159C18.6491 14.7122 19 15.1226 19 15.6247Z" fill="#EAA36A"/>
<path fill-rule="evenodd" clip-rule="evenodd" d="M18.2159 16.3769C18.6491 16.3769 19 15.9735 19 15.48C19 14.9864 18.6491 14.583 18.2159 14.583H14.7841C14.3509 14.583 14 14.9864 14 15.48C14 15.9755 14.3527 16.3769 14.7841 16.3769H18.2159ZM16.4472 20.8329C17.0487 20.8329 17.5374 20.2739 17.5374 19.5858V18.8035C17.5374 18.1134 17.0487 17.5564 16.4472 17.5564C15.8439 17.5564 15.3569 18.1134 15.3569 18.8035V19.5858C15.3569 20.2739 15.8439 20.8329 16.4472 20.8329Z" fill="#3F2B1D"/>
<path d="M27 15.6247C27 16.1268 26.6491 16.5372 26.2159 16.5372H22.7841C22.3527 16.5372 22 16.1288 22 15.6247C22 15.1226 22.3509 14.7122 22.7841 14.7122H26.2159C26.6473 14.7122 27 15.1226 27 15.6247Z" fill="#EAA36A"/>
<path fill-rule="evenodd" clip-rule="evenodd" d="M20.2019 11.0017C24.5293 13.6263 29.5128 13.7553 31.3314 11.2805C33.1537 8.8094 31.1228 4.67896 26.7973 2.05429C22.4718 -0.570377 17.4883 -0.697439 15.6678 1.77362C13.8474 4.24468 15.8764 8.37512 20.2019 11.0017ZM27.7531 14.8345C27.7531 15.2915 27.3814 15.6651 26.9225 15.6651H23.2872C22.8302 15.6651 22.4567 15.2934 22.4567 14.8345C22.4567 14.3774 22.8283 14.0038 23.2872 14.0038H26.9225C27.3795 14.0038 27.7531 14.3774 27.7531 14.8345ZM26.2018 18.6368C26.2018 19.274 25.6841 19.7918 25.0469 19.7918C24.4079 19.7918 23.8921 19.274 23.8921 18.6368V17.9124C23.8921 17.2733 24.4079 16.7575 25.0469 16.7575C25.6841 16.7575 26.2018 17.2733 26.2018 17.9124V18.6368Z" fill="#3F2B1D"/>
<path d="M16.0487 4.34983C17.605 2.045 21.8778 1.76323 26 3.51768C25.604 3.25283 25.2042 2.9936 24.7654 2.7588C20.2955 0.371318 15.2882 0.48778 13.5758 3.02178C11.8652 5.55578 14.0945 9.54368 18.5626 11.9312C18.9716 12.1472 19.3863 12.3238 19.8009 12.5003C16.1863 10.0865 14.5055 6.63212 16.0487 4.34983Z" fill="#3F2B1D"/>
</svg>
