<svg width="31" height="50" viewBox="0 0 31 50" fill="none" xmlns="http://www.w3.org/2000/svg">
<path d="M11.5273 26.7168H19.6727V39.8291H11.5273V26.7168Z" fill="#CCDDE7"/>
<path d="M27.8604 34.6666C26.8986 33.6318 25.7358 32.8042 24.4431 32.2343C23.1504 31.6645 21.755 31.3644 20.3423 31.3525C20.0063 31.569 19.6569 31.7641 19.2963 31.9365V40.009H11.5273V32.0798C11.0562 31.8748 10.6026 31.6315 10.1711 31.3525C8.83528 31.352 7.51242 31.6147 6.27815 32.1256C5.04388 32.6366 3.9224 33.3858 2.97781 34.3304C2.03322 35.2749 1.28405 36.3964 0.773098 37.6307C0.262148 38.865 -0.000556068 40.1878 8.83728e-07 41.5237V49.152C8.83728e-07 49.3768 0.0893009 49.5924 0.248256 49.7514C0.40721 49.9103 0.622799 49.9996 0.847595 49.9996H29.6658C29.8906 49.9996 30.1062 49.9103 30.2651 49.7514C30.4241 49.5924 30.5134 49.3768 30.5134 49.152V41.5237C30.5167 38.9868 29.5702 36.5407 27.8604 34.6666Z" fill="#168FD6"/>
<path d="M19.2964 40.009V31.9365C17.5317 33.0299 13.4454 33.1613 11.5273 32.0798V40.009H19.2964Z" fill="#56B5EF"/>
<path opacity="0.1" d="M27.8602 34.6666C26.9063 33.6219 25.745 32.7876 24.4505 32.217C23.156 31.6463 21.7567 31.3519 20.342 31.3525H18.0535C18.7172 36.0796 16.3524 40.1557 15.2565 41.1762C13.3477 38.9656 12.0246 35.9075 12.4594 31.3525H10.1709C8.75621 31.3519 7.35693 31.6463 6.06243 32.217C4.76792 32.7876 3.60664 33.6219 2.65275 34.6666C2.5592 35.0721 2.52213 35.4885 2.54256 35.9041L2.74598 36.1414C5.30569 38.9756 8.50918 41.1529 12.0865 42.4899C13.1159 42.8409 14.1778 43.0879 15.2565 43.2273C15.8961 43.148 16.5302 43.0291 17.1551 42.8713C23.2493 41.3457 27.5635 36.3703 27.767 36.1414L27.9704 35.9041C27.9907 35.4885 27.9536 35.0721 27.8602 34.6666Z" fill="black"/>
<path d="M17.1552 41.1762C15.4719 41.6331 13.6827 41.4984 12.0866 40.7948C8.50933 39.4578 5.30585 37.2804 2.74614 34.4463L2.54271 34.209C2.43592 29.3667 9.42518 27.5774 12.9427 26.8857C11.4645 32.9545 12.8893 38.0706 17.1552 41.1762Z" fill="#044388"/>
<path d="M7.62818 31.7766C7.08915 31.6556 6.58826 31.4036 6.16986 31.0429C5.75147 30.6821 5.42848 30.2238 5.22949 29.7084C5.77621 29.3456 6.34841 29.0227 6.94163 28.7422C6.9335 28.9176 6.87784 29.0875 6.78059 29.2338C6.66214 29.6942 6.67911 30.1791 6.82946 30.6302C6.97981 31.0812 7.25715 31.4793 7.62818 31.7766Z" fill="#56B5EF"/>
<path opacity="0.1" d="M26.2756 33.8953V34.209L26.0722 34.4463C25.9519 34.9125 17.008 43.3867 12.0869 40.7948C15.9638 38.0401 17.3174 32.4205 15.8757 26.8857C19.4813 27.5994 26.051 29.3158 26.2756 33.8953Z" fill="black"/>
<path d="M27.9708 33.8953V34.209L27.7674 34.4463C27.5639 34.6751 23.2497 39.6505 17.1555 41.1762C15.9149 41.575 14.5801 41.572 13.3413 41.1677C17.1716 38.4774 19.2033 33.4809 17.5708 26.8857C21.1765 27.5994 27.7462 29.3158 27.9708 33.8953Z" fill="#044388"/>
<path opacity="0.1" d="M15.2568 46.61C15.032 46.61 14.8164 46.5207 14.6574 46.3617C14.4985 46.2028 14.4092 45.9872 14.4092 45.7624V42.372C14.4092 42.1472 14.4985 41.9316 14.6574 41.7727C14.8164 41.6137 15.032 41.5244 15.2568 41.5244C15.4816 41.5244 15.6972 41.6137 15.8561 41.7727C16.0151 41.9316 16.1044 42.1472 16.1044 42.372V45.7624C16.1044 45.9872 16.0151 46.2028 15.8561 46.3617C15.6972 46.5207 15.4816 46.61 15.2568 46.61Z" fill="black"/>
<path d="M15.2568 44.9147C15.032 44.9147 14.8164 44.8254 14.6574 44.6664C14.4985 44.5075 14.4092 44.2919 14.4092 44.0671V40.6767C14.4092 40.4519 14.4985 40.2363 14.6574 40.0774C14.8164 39.9184 15.032 39.8291 15.2568 39.8291C15.4816 39.8291 15.6972 39.9184 15.8561 40.0774C16.0151 40.2363 16.1044 40.4519 16.1044 40.6767V44.0671C16.1044 44.2919 16.0151 44.5075 15.8561 44.6664C15.6972 44.8254 15.4816 44.9147 15.2568 44.9147Z" fill="#044388"/>
<path d="M25.2839 29.7084C25.085 30.2238 24.762 30.6821 24.3436 31.0429C23.9252 31.4036 23.4243 31.6556 22.8853 31.7766C23.3237 31.4212 23.6298 30.9287 23.7543 30.3783C23.8788 29.8279 23.8145 29.2516 23.5718 28.7422C24.165 29.0227 24.7372 29.3456 25.2839 29.7084Z" fill="#56B5EF"/>
<path opacity="0.1" d="M22.0289 28.0899C18.6597 31.4294 11.851 31.4379 8.48438 28.0899C9.47656 27.7134 10.4932 27.4047 11.5272 27.166V26.7168H19.6726V27.3355C20.4718 27.5419 21.2585 27.7938 22.0289 28.0899Z" fill="black"/>
<path d="M27.9708 15.2491C27.9631 16.224 27.6229 17.1671 27.0064 17.9223C26.3899 18.6775 25.534 19.1997 24.5804 19.4023C24.6937 20.5876 24.5594 21.7836 24.1859 22.9142C23.8125 24.0448 23.2081 25.0855 22.4111 25.9702C21.6141 26.8548 20.642 27.5641 19.5563 28.0531C18.4706 28.5421 17.2952 28.8001 16.1045 28.8106H14.4093C13.2186 28.8001 12.0432 28.5421 10.9575 28.0531C9.87182 27.5641 8.89964 26.8548 8.10266 25.9702C7.30567 25.0855 6.70128 24.0448 6.32784 22.9142C5.9544 21.7836 5.82007 20.5876 5.93336 19.4023C1.14954 18.3708 1.61995 11.4053 6.49277 11.0196C8.19135 9.79655 13.1922 6.21716 14.9687 4.94238L24.0041 11.0196C25.0783 11.0901 26.0857 11.5662 26.8222 12.3515C27.5587 13.1368 27.9692 14.1725 27.9708 15.2491Z" fill="#CCDDE7"/>
<path opacity="0.1" d="M24.0037 11.0196L14.9683 4.94238L9.04364 9.18883C8.29013 6.71046 5.7838 5.17971 3.50885 6.29006C3.72245 8.06868 4.34944 9.77259 5.33966 11.2654C4.78198 11.4717 4.27363 11.7923 3.84729 12.2068C3.42095 12.6212 3.08605 13.1203 2.86413 13.6719C2.6422 14.2235 2.53816 14.8155 2.55869 15.4097C2.57923 16.004 2.72388 16.5873 2.98335 17.1223C5.32525 18.837 8.46219 17.0274 9.0928 14.3676C10.6259 14.9912 12.2713 15.2913 13.9258 15.2491C16.4553 15.261 18.976 14.9505 21.427 14.3252C22.1627 17.185 25.1691 18.7751 27.5297 17.1223C27.8322 16.4965 27.9769 15.8061 27.9513 15.1115C27.9257 14.4169 27.7306 13.7391 27.3828 13.1372C27.0351 12.5353 26.5453 12.0277 25.9563 11.6586C25.3673 11.2895 24.6969 11.0701 24.0037 11.0196Z" fill="black"/>
<path d="M9.3236 11.0101C9.15408 17.7002 1.04854 17.7689 0.847656 11.0101C1.06803 4.2082 9.16425 4.35314 9.3236 11.0101Z" fill="#044388"/>
<path opacity="0.1" d="M9.32377 11.0107C9.33574 12.0914 9.03873 13.153 8.4677 14.0706C5.61301 12.7186 3.73982 8.99771 3.50928 6.28965C6.46653 4.80975 9.46532 7.91364 9.32377 11.0107Z" fill="black"/>
<path d="M27.0554 6.3278C25.3008 -2.10491 10.8256 -0.431759 3.41172 1.8542C3.3863 3.8808 3.24814 8.20522 7.16233 11.521C9.11753 12.9526 11.5048 13.6698 13.9253 13.5527C16.4543 13.5635 18.9745 13.2539 21.4256 12.6314C21.6234 13.5665 22.1216 14.4113 22.8442 15.0368C23.5668 15.6624 24.4742 16.0345 25.428 16.0963C30.144 16.0336 31.1798 8.32219 27.0554 6.32696V6.3278Z" fill="#044388"/>
</svg>
